solid OpenSCAD_Model
  facet normal 0 0 -1
    outer loop
      vertex 225.958 -3.17186 -12.5
      vertex 226.325 -0.581107 -12.5
      vertex 226.305 -1.17487 -12.5
    endloop
  endfacet
  facet normal -0 0 -1
    outer loop
      vertex 226.325 -0.581107 -12.5
      vertex 225.692 -4.02188 -12.5
      vertex 226.325 0.581107 -12.5
    endloop
  endfacet
  facet normal 0 0 -1
    outer loop
      vertex 225.958 -3.17186 -12.5
      vertex 226.305 -1.17487 -12.5
      vertex 226.244 -1.78744 -12.5
    endloop
  endfacet
  facet normal 0 0 -1
    outer loop
      vertex 226.325 -0.581107 -12.5
      vertex 225.958 -3.17186 -12.5
      vertex 225.692 -4.02188 -12.5
    endloop
  endfacet
  facet normal 0 0 -1
    outer loop
      vertex 225.958 -3.17186 -12.5
      vertex 226.244 -1.78744 -12.5
      vertex 226.133 -2.44264 -12.5
    endloop
  endfacet
  facet normal 0 0 -1
    outer loop
      vertex 225.692 4.02188 -12.5
      vertex 226.325 0.581107 -12.5
      vertex 225.692 -4.02188 -12.5
    endloop
  endfacet
  facet normal 0 0 -1
    outer loop
      vertex 226.305 1.17487 -12.5
      vertex 225.958 3.17186 -12.5
      vertex 226.244 1.78744 -12.5
    endloop
  endfacet
  facet normal 0 0 -1
    outer loop
      vertex 226.244 1.78744 -12.5
      vertex 225.958 3.17186 -12.5
      vertex 226.133 2.44264 -12.5
    endloop
  endfacet
  facet normal -0 -0 -1
    outer loop
      vertex 225.958 3.17186 -12.5
      vertex 226.325 0.581107 -12.5
      vertex 225.692 4.02188 -12.5
    endloop
  endfacet
  facet normal 0 0 -1
    outer loop
      vertex 226.325 0.581107 -12.5
      vertex 225.958 3.17186 -12.5
      vertex 226.305 1.17487 -12.5
    endloop
  endfacet
  facet normal 0 0 -1
    outer loop
      vertex 225.283 -5.07087 -12.5
      vertex 225.692 4.02188 -12.5
      vertex 225.692 -4.02188 -12.5
    endloop
  endfacet
  facet normal 0 0 -1
    outer loop
      vertex 225.283 -5.07087 -12.5
      vertex 225.283 5.07087 -12.5
      vertex 225.692 4.02188 -12.5
    endloop
  endfacet
  facet normal 0 0 -1
    outer loop
      vertex 224.082 -7.88162 -12.5
      vertex 225.283 5.07087 -12.5
      vertex 225.283 -5.07087 -12.5
    endloop
  endfacet
  facet normal 0 0 -1
    outer loop
      vertex 224.082 -7.88162 -12.5
      vertex 224.082 7.88162 -12.5
      vertex 225.283 5.07087 -12.5
    endloop
  endfacet
  facet normal 0 0 -1
    outer loop
      vertex 223.123 -9.9002 -12.5
      vertex 224.082 7.88162 -12.5
      vertex 224.082 -7.88162 -12.5
    endloop
  endfacet
  facet normal 0 0 -1
    outer loop
      vertex 223.123 -9.9002 -12.5
      vertex 223.123 9.9002 -12.5
      vertex 224.082 7.88162 -12.5
    endloop
  endfacet
  facet normal 0 0 -1
    outer loop
      vertex 220.135 -15.0746 -12.5
      vertex 223.123 9.9002 -12.5
      vertex 223.123 -9.9002 -12.5
    endloop
  endfacet
  facet normal 0 0 -1
    outer loop
      vertex 220.135 -15.0746 -12.5
      vertex 220.135 15.0746 -12.5
      vertex 223.123 9.9002 -12.5
    endloop
  endfacet
  facet normal 0 0 -1
    outer loop
      vertex 202.987 -24.9748 -12.5
      vertex 220.135 -15.0746 -12.5
      vertex 218.867 -16.9148 -12.5
    endloop
  endfacet
  facet normal -0 0 -1
    outer loop
      vertex 220.135 -15.0746 -12.5
      vertex 202.987 -24.9748 -12.5
      vertex 220.135 15.0746 -12.5
    endloop
  endfacet
  facet normal 0 0 -1
    outer loop
      vertex 205.215 -24.7964 -12.5
      vertex 218.867 -16.9148 -12.5
      vertex 217.033 -19.3606 -12.5
    endloop
  endfacet
  facet normal 0 0 -1
    outer loop
      vertex 202.987 24.9748 -12.5
      vertex 220.135 15.0746 -12.5
      vertex 202.987 -24.9748 -12.5
    endloop
  endfacet
  facet normal 0 0 -1
    outer loop
      vertex 208.25 -24.4315 -12.5
      vertex 217.033 -19.3606 -12.5
      vertex 216.329 -20.2392 -12.5
    endloop
  endfacet
  facet normal 0 0 -1
    outer loop
      vertex 220.135 15.0746 -12.5
      vertex 202.987 24.9748 -12.5
      vertex 218.867 16.9148 -12.5
    endloop
  endfacet
  facet normal 0 0 -1
    outer loop
      vertex 213.666 -22.5077 -12.5
      vertex 216.329 -20.2392 -12.5
      vertex 215.726 -20.8947 -12.5
    endloop
  endfacet
  facet normal 0 0 -1
    outer loop
      vertex 218.867 -16.9148 -12.5
      vertex 205.215 -24.7964 -12.5
      vertex 202.987 -24.9748 -12.5
    endloop
  endfacet
  facet normal 0 0 -1
    outer loop
      vertex 213.666 -22.5077 -12.5
      vertex 215.726 -20.8947 -12.5
      vertex 215.182 -21.4107 -12.5
    endloop
  endfacet
  facet normal -0 -0 -1
    outer loop
      vertex 205.215 24.7964 -12.5
      vertex 218.867 16.9148 -12.5
      vertex 202.987 24.9748 -12.5
    endloop
  endfacet
  facet normal 0 0 -1
    outer loop
      vertex 213.666 -22.5077 -12.5
      vertex 215.182 -21.4107 -12.5
      vertex 214.67 -21.8342 -12.5
    endloop
  endfacet
  facet normal 0 0 -1
    outer loop
      vertex 217.033 19.3606 -12.5
      vertex 208.25 24.4315 -12.5
      vertex 216.329 20.2392 -12.5
    endloop
  endfacet
  facet normal 0 0 -1
    outer loop
      vertex 213.666 -22.5077 -12.5
      vertex 214.67 -21.8342 -12.5
      vertex 214.17 -22.1937 -12.5
    endloop
  endfacet
  facet normal -0 -0 -1
    outer loop
      vertex 213.666 22.5077 -12.5
      vertex 216.329 20.2392 -12.5
      vertex 208.25 24.4315 -12.5
    endloop
  endfacet
  facet normal 0 0 -1
    outer loop
      vertex 216.329 -20.2392 -12.5
      vertex 213.666 -22.5077 -12.5
      vertex 208.25 -24.4315 -12.5
    endloop
  endfacet
  facet normal 0 0 -1
    outer loop
      vertex 216.329 20.2392 -12.5
      vertex 213.666 22.5077 -12.5
      vertex 215.726 20.8947 -12.5
    endloop
  endfacet
  facet normal 0 0 -1
    outer loop
      vertex 208.25 -24.4315 -12.5
      vertex 213.666 -22.5077 -12.5
      vertex 212.659 -23.0888 -12.5
    endloop
  endfacet
  facet normal 0 0 -1
    outer loop
      vertex 215.726 20.8947 -12.5
      vertex 213.666 22.5077 -12.5
      vertex 215.182 21.4107 -12.5
    endloop
  endfacet
  facet normal 0 0 -1
    outer loop
      vertex 210.232 -24.0666 -12.5
      vertex 212.659 -23.0888 -12.5
      vertex 212.135 -23.3686 -12.5
    endloop
  endfacet
  facet normal 0 0 -1
    outer loop
      vertex 217.033 -19.3606 -12.5
      vertex 208.25 -24.4315 -12.5
      vertex 205.215 -24.7964 -12.5
    endloop
  endfacet
  facet normal 0 0 -1
    outer loop
      vertex 210.232 -24.0666 -12.5
      vertex 212.135 -23.3686 -12.5
      vertex 211.574 -23.6216 -12.5
    endloop
  endfacet
  facet normal 0 0 -1
    outer loop
      vertex 215.182 21.4107 -12.5
      vertex 213.666 22.5077 -12.5
      vertex 214.67 21.8342 -12.5
    endloop
  endfacet
  facet normal 0 0 -1
    outer loop
      vertex 210.232 -24.0666 -12.5
      vertex 211.574 -23.6216 -12.5
      vertex 210.951 -23.8534 -12.5
    endloop
  endfacet
  facet normal -0 -0 -1
    outer loop
      vertex 209.363 24.2611 -12.5
      vertex 212.659 23.0888 -12.5
      vertex 208.25 24.4315 -12.5
    endloop
  endfacet
  facet normal 0 0 -1
    outer loop
      vertex 212.659 -23.0888 -12.5
      vertex 210.232 -24.0666 -12.5
      vertex 209.363 -24.2611 -12.5
    endloop
  endfacet
  facet normal -0 -0 -1
    outer loop
      vertex 210.232 24.0666 -12.5
      vertex 212.659 23.0888 -12.5
      vertex 209.363 24.2611 -12.5
    endloop
  endfacet
  facet normal 0 0 -1
    outer loop
      vertex 212.659 -23.0888 -12.5
      vertex 209.363 -24.2611 -12.5
      vertex 208.25 -24.4315 -12.5
    endloop
  endfacet
  facet normal 0 0 -1
    outer loop
      vertex 212.659 23.0888 -12.5
      vertex 210.232 24.0666 -12.5
      vertex 212.135 23.3686 -12.5
    endloop
  endfacet
  facet normal 0 0 -1
    outer loop
      vertex 211.574 23.6216 -12.5
      vertex 210.232 24.0666 -12.5
      vertex 210.951 23.8534 -12.5
    endloop
  endfacet
  facet normal 0 0 -1
    outer loop
      vertex 212.135 23.3686 -12.5
      vertex 210.232 24.0666 -12.5
      vertex 211.574 23.6216 -12.5
    endloop
  endfacet
  facet normal 0 0 -1
    outer loop
      vertex 214.67 21.8342 -12.5
      vertex 213.666 22.5077 -12.5
      vertex 214.17 22.1937 -12.5
    endloop
  endfacet
  facet normal 0 0 -1
    outer loop
      vertex 213.666 22.5077 -12.5
      vertex 208.25 24.4315 -12.5
      vertex 212.659 23.0888 -12.5
    endloop
  endfacet
  facet normal 0 0 -1
    outer loop
      vertex 218.867 16.9148 -12.5
      vertex 205.215 24.7964 -12.5
      vertex 217.033 19.3606 -12.5
    endloop
  endfacet
  facet normal -0 -0 -1
    outer loop
      vertex 208.25 24.4315 -12.5
      vertex 217.033 19.3606 -12.5
      vertex 205.215 24.7964 -12.5
    endloop
  endfacet
  facet normal 0 0 -1
    outer loop
      vertex 197.013 -24.9748 -12.5
      vertex 202.987 24.9748 -12.5
      vertex 202.987 -24.9748 -12.5
    endloop
  endfacet
  facet normal 0 0 -1
    outer loop
      vertex 197.013 -24.9748 -12.5
      vertex 197.013 24.9748 -12.5
      vertex 202.987 24.9748 -12.5
    endloop
  endfacet
  facet normal 0 0 -1
    outer loop
      vertex 179.865 -15.0746 -12.5
      vertex 197.013 -24.9748 -12.5
      vertex 194.785 -24.7964 -12.5
    endloop
  endfacet
  facet normal 0 0 -1
    outer loop
      vertex 197.013 -24.9748 -12.5
      vertex 179.865 -15.0746 -12.5
      vertex 197.013 24.9748 -12.5
    endloop
  endfacet
  facet normal 0 0 -1
    outer loop
      vertex 181.133 -16.9148 -12.5
      vertex 194.785 -24.7964 -12.5
      vertex 191.75 -24.4315 -12.5
    endloop
  endfacet
  facet normal 0 0 -1
    outer loop
      vertex 179.865 15.0746 -12.5
      vertex 197.013 24.9748 -12.5
      vertex 179.865 -15.0746 -12.5
    endloop
  endfacet
  facet normal 0 0 -1
    outer loop
      vertex 182.967 -19.3606 -12.5
      vertex 191.75 -24.4315 -12.5
      vertex 190.637 -24.2611 -12.5
    endloop
  endfacet
  facet normal 0 0 -1
    outer loop
      vertex 197.013 24.9748 -12.5
      vertex 179.865 15.0746 -12.5
      vertex 194.785 24.7964 -12.5
    endloop
  endfacet
  facet normal 0 0 -1
    outer loop
      vertex 187.341 -23.0888 -12.5
      vertex 190.637 -24.2611 -12.5
      vertex 189.768 -24.0666 -12.5
    endloop
  endfacet
  facet normal 0 -0 -1
    outer loop
      vertex 181.133 16.9148 -12.5
      vertex 194.785 24.7964 -12.5
      vertex 179.865 15.0746 -12.5
    endloop
  endfacet
  facet normal 0 0 -1
    outer loop
      vertex 187.341 -23.0888 -12.5
      vertex 189.768 -24.0666 -12.5
      vertex 189.049 -23.8534 -12.5
    endloop
  endfacet
  facet normal 0 0 -1
    outer loop
      vertex 194.785 24.7964 -12.5
      vertex 181.133 16.9148 -12.5
      vertex 191.75 24.4315 -12.5
    endloop
  endfacet
  facet normal 0 0 -1
    outer loop
      vertex 187.341 -23.0888 -12.5
      vertex 189.049 -23.8534 -12.5
      vertex 188.426 -23.6216 -12.5
    endloop
  endfacet
  facet normal 0 0 -1
    outer loop
      vertex 194.785 -24.7964 -12.5
      vertex 181.133 -16.9148 -12.5
      vertex 179.865 -15.0746 -12.5
    endloop
  endfacet
  facet normal 0 0 -1
    outer loop
      vertex 187.341 -23.0888 -12.5
      vertex 188.426 -23.6216 -12.5
      vertex 187.865 -23.3686 -12.5
    endloop
  endfacet
  facet normal 0 -0 -1
    outer loop
      vertex 182.967 19.3606 -12.5
      vertex 191.75 24.4315 -12.5
      vertex 181.133 16.9148 -12.5
    endloop
  endfacet
  facet normal 0 0 -1
    outer loop
      vertex 190.637 -24.2611 -12.5
      vertex 187.341 -23.0888 -12.5
      vertex 182.967 -19.3606 -12.5
    endloop
  endfacet
  facet normal 0 0 -1
    outer loop
      vertex 190.637 24.2611 -12.5
      vertex 187.341 23.0888 -12.5
      vertex 189.768 24.0666 -12.5
    endloop
  endfacet
  facet normal 0 0 -1
    outer loop
      vertex 182.967 -19.3606 -12.5
      vertex 187.341 -23.0888 -12.5
      vertex 186.334 -22.5077 -12.5
    endloop
  endfacet
  facet normal 0 0 -1
    outer loop
      vertex 189.768 24.0666 -12.5
      vertex 187.341 23.0888 -12.5
      vertex 189.049 23.8534 -12.5
    endloop
  endfacet
  facet normal 0 0 -1
    outer loop
      vertex 184.274 -20.8947 -12.5
      vertex 186.334 -22.5077 -12.5
      vertex 185.83 -22.1937 -12.5
    endloop
  endfacet
  facet normal 0 0 -1
    outer loop
      vertex 189.049 23.8534 -12.5
      vertex 187.341 23.0888 -12.5
      vertex 188.426 23.6216 -12.5
    endloop
  endfacet
  facet normal 0 0 -1
    outer loop
      vertex 184.274 -20.8947 -12.5
      vertex 185.83 -22.1937 -12.5
      vertex 185.33 -21.8342 -12.5
    endloop
  endfacet
  facet normal 0 0 -1
    outer loop
      vertex 188.426 23.6216 -12.5
      vertex 187.341 23.0888 -12.5
      vertex 187.865 23.3686 -12.5
    endloop
  endfacet
  facet normal 0 0 -1
    outer loop
      vertex 184.274 -20.8947 -12.5
      vertex 185.33 -21.8342 -12.5
      vertex 184.818 -21.4107 -12.5
    endloop
  endfacet
  facet normal 0 0 -1
    outer loop
      vertex 191.75 -24.4315 -12.5
      vertex 182.967 -19.3606 -12.5
      vertex 181.133 -16.9148 -12.5
    endloop
  endfacet
  facet normal 0 0 -1
    outer loop
      vertex 186.334 -22.5077 -12.5
      vertex 184.274 -20.8947 -12.5
      vertex 183.671 -20.2392 -12.5
    endloop
  endfacet
  facet normal 0 0 -1
    outer loop
      vertex 187.341 23.0888 -12.5
      vertex 182.967 19.3606 -12.5
      vertex 186.334 22.5077 -12.5
    endloop
  endfacet
  facet normal 0 0 -1
    outer loop
      vertex 186.334 -22.5077 -12.5
      vertex 183.671 -20.2392 -12.5
      vertex 182.967 -19.3606 -12.5
    endloop
  endfacet
  facet normal 0 0 -1
    outer loop
      vertex 186.334 22.5077 -12.5
      vertex 184.274 20.8947 -12.5
      vertex 185.83 22.1937 -12.5
    endloop
  endfacet
  facet normal 0 0 -1
    outer loop
      vertex 185.33 21.8342 -12.5
      vertex 184.274 20.8947 -12.5
      vertex 184.818 21.4107 -12.5
    endloop
  endfacet
  facet normal 0 0 -1
    outer loop
      vertex 185.83 22.1937 -12.5
      vertex 184.274 20.8947 -12.5
      vertex 185.33 21.8342 -12.5
    endloop
  endfacet
  facet normal 0 -0 -1
    outer loop
      vertex 183.671 20.2392 -12.5
      vertex 186.334 22.5077 -12.5
      vertex 182.967 19.3606 -12.5
    endloop
  endfacet
  facet normal 0 -0 -1
    outer loop
      vertex 184.274 20.8947 -12.5
      vertex 186.334 22.5077 -12.5
      vertex 183.671 20.2392 -12.5
    endloop
  endfacet
  facet normal 0 0 -1
    outer loop
      vertex 191.75 24.4315 -12.5
      vertex 182.967 19.3606 -12.5
      vertex 190.637 24.2611 -12.5
    endloop
  endfacet
  facet normal 0 -0 -1
    outer loop
      vertex 187.341 23.0888 -12.5
      vertex 190.637 24.2611 -12.5
      vertex 182.967 19.3606 -12.5
    endloop
  endfacet
  facet normal 0 0 -1
    outer loop
      vertex 176.877 -9.9002 -12.5
      vertex 179.865 15.0746 -12.5
      vertex 179.865 -15.0746 -12.5
    endloop
  endfacet
  facet normal 0 0 -1
    outer loop
      vertex 176.877 -9.9002 -12.5
      vertex 176.877 9.9002 -12.5
      vertex 179.865 15.0746 -12.5
    endloop
  endfacet
  facet normal 0 0 -1
    outer loop
      vertex 175.918 -7.88162 -12.5
      vertex 176.877 9.9002 -12.5
      vertex 176.877 -9.9002 -12.5
    endloop
  endfacet
  facet normal 0 0 -1
    outer loop
      vertex 175.918 -7.88162 -12.5
      vertex 175.918 7.88162 -12.5
      vertex 176.877 9.9002 -12.5
    endloop
  endfacet
  facet normal 0 0 -1
    outer loop
      vertex 174.717 -5.07087 -12.5
      vertex 175.918 7.88162 -12.5
      vertex 175.918 -7.88162 -12.5
    endloop
  endfacet
  facet normal 0 0 -1
    outer loop
      vertex 174.717 -5.07087 -12.5
      vertex 174.717 5.07087 -12.5
      vertex 175.918 7.88162 -12.5
    endloop
  endfacet
  facet normal 0 0 -1
    outer loop
      vertex 174.308 -4.02189 -12.5
      vertex 174.717 5.07087 -12.5
      vertex 174.717 -5.07087 -12.5
    endloop
  endfacet
  facet normal 0 0 -1
    outer loop
      vertex 174.308 -4.02189 -12.5
      vertex 174.308 4.02189 -12.5
      vertex 174.717 5.07087 -12.5
    endloop
  endfacet
  facet normal 0 0 -1
    outer loop
      vertex 173.675 -0.581106 -12.5
      vertex 174.308 -4.02189 -12.5
      vertex 174.042 -3.17186 -12.5
    endloop
  endfacet
  facet normal 0 0 -1
    outer loop
      vertex 174.308 -4.02189 -12.5
      vertex 173.675 -0.581106 -12.5
      vertex 174.308 4.02189 -12.5
    endloop
  endfacet
  facet normal 0 0 -1
    outer loop
      vertex 173.675 -0.581106 -12.5
      vertex 174.042 -3.17186 -12.5
      vertex 173.867 -2.44264 -12.5
    endloop
  endfacet
  facet normal 0 0 -1
    outer loop
      vertex 173.675 0.581106 -12.5
      vertex 174.308 4.02189 -12.5
      vertex 173.675 -0.581106 -12.5
    endloop
  endfacet
  facet normal 0 0 -1
    outer loop
      vertex 173.675 -0.581106 -12.5
      vertex 173.867 -2.44264 -12.5
      vertex 173.756 -1.78744 -12.5
    endloop
  endfacet
  facet normal 0 0 -1
    outer loop
      vertex 174.308 4.02189 -12.5
      vertex 173.675 0.581106 -12.5
      vertex 174.042 3.17186 -12.5
    endloop
  endfacet
  facet normal 0 0 -1
    outer loop
      vertex 173.675 -0.581106 -12.5
      vertex 173.756 -1.78744 -12.5
      vertex 173.695 -1.17487 -12.5
    endloop
  endfacet
  facet normal 0 0 -1
    outer loop
      vertex 174.042 3.17186 -12.5
      vertex 173.675 0.581106 -12.5
      vertex 173.867 2.44264 -12.5
    endloop
  endfacet
  facet normal 0 0 -1
    outer loop
      vertex 173.867 2.44264 -12.5
      vertex 173.675 0.581106 -12.5
      vertex 173.756 1.78744 -12.5
    endloop
  endfacet
  facet normal 0 0 -1
    outer loop
      vertex 173.756 1.78744 -12.5
      vertex 173.675 0.581106 -12.5
      vertex 173.695 1.17487 -12.5
    endloop
  endfacet
  facet normal -0.149453 0.975803 0.159603
    outer loop
      vertex 191.75 24.4315 -12.5
      vertex 211.508 23.3686 12.5
      vertex 213.349 24.4315 7.72542
    endloop
  endfacet
  facet normal -0.149397 0.975818 0.15956
    outer loop
      vertex 211.508 23.3686 12.5
      vertex 191.75 24.4315 -12.5
      vertex 190.637 24.2611 -12.5
    endloop
  endfacet
  facet normal -0.941364 0.225911 -0.250596
    outer loop
      vertex 173.867 2.44264 -12.5
      vertex 172.167 0.655094 -7.72542
      vertex 174.042 3.17186 -12.5
    endloop
  endfacet
  facet normal 0.491632 0.851781 0.181017
    outer loop
      vertex 214.29 24.9748 2.61321
      vertex 213.349 24.4315 7.72542
      vertex 214.484 23.7764 7.72542
    endloop
  endfacet
  facet normal 0.213441 0.953627 -0.212223
    outer loop
      vertex 210.232 24.0666 -12.5
      vertex 209.363 24.2611 -12.5
      vertex 213.349 24.4315 -7.72542
    endloop
  endfacet
  facet normal -0.953569 0 -0.301175
    outer loop
      vertex 173.675 -0.581106 -12.5
      vertex 172.167 0.655094 -7.72542
      vertex 173.675 0.581106 -12.5
    endloop
  endfacet
  facet normal -0.953569 -0 -0.301175
    outer loop
      vertex 172.167 0.655094 -7.72542
      vertex 173.675 -0.581106 -12.5
      vertex 172.167 -0.655094 -7.72542
    endloop
  endfacet
  facet normal 0 0 1
    outer loop
      vertex 192.758 12.5433 25
      vertex 192.758 -12.5433 25
      vertex 214.484 0 25
    endloop
  endfacet
  facet normal 0.0602397 -0.104337 0.992716
    outer loop
      vertex 214.484 0 25
      vertex 197.26 -15.1422 24.4537
      vertex 214.484 -5.19779 24.4537
    endloop
  endfacet
  facet normal 0.793712 0.595002 -0.126468
    outer loop
      vertex 218.867 16.9148 -12.5
      vertex 214.484 23.7764 -7.72542
      vertex 214.484 24.863 -2.61321
    endloop
  endfacet
  facet normal 0.793608 0.595093 -0.126692
    outer loop
      vertex 214.484 23.7764 -7.72542
      vertex 218.867 16.9148 -12.5
      vertex 217.033 19.3606 -12.5
    endloop
  endfacet
  facet normal -0.0794864 0.992686 0.0908667
    outer loop
      vertex 197.013 24.9748 -12.5
      vertex 213.349 24.4315 7.72542
      vertex 214.29 24.9748 2.61321
    endloop
  endfacet
  facet normal -0.0794862 0.992686 0.0908664
    outer loop
      vertex 213.349 24.4315 7.72542
      vertex 197.013 24.9748 -12.5
      vertex 194.785 24.7964 -12.5
    endloop
  endfacet
  facet normal -0.554681 0 0.832063
    outer loop
      vertex 180.032 5.19598 20.2254
      vertex 183.952 -7.45909 22.8386
      vertex 183.952 7.45909 22.8386
    endloop
  endfacet
  facet normal -0.554681 0 0.832063
    outer loop
      vertex 183.952 -7.45909 22.8386
      vertex 180.032 5.19598 20.2254
      vertex 180.032 -5.19598 20.2254
    endloop
  endfacet
  facet normal 0.0602397 0.104337 0.992716
    outer loop
      vertex 214.484 5.19779 24.4537
      vertex 197.26 15.1422 24.4537
      vertex 214.484 0 25
    endloop
  endfacet
  facet normal 0.423176 0.733046 0.532509
    outer loop
      vertex 211.508 23.3686 12.5
      vertex 208.848 21.8326 16.7283
      vertex 214.484 21.6506 12.5
    endloop
  endfacet
  facet normal 0.49931 -0.866423 0
    outer loop
      vertex 214.29 -24.9748 -2.61321
      vertex 214.484 -24.863 2.61321
      vertex 214.29 -24.9748 2.61321
    endloop
  endfacet
  facet normal 0.49931 -0.866423 0
    outer loop
      vertex 214.484 -24.863 2.61321
      vertex 214.29 -24.9748 -2.61321
      vertex 214.484 -24.863 -2.61321
    endloop
  endfacet
  facet normal 0.504194 -0.809279 -0.301422
    outer loop
      vertex 214.484 -23.7764 -7.72542
      vertex 213.666 -22.5077 -12.5
      vertex 214.17 -22.1937 -12.5
    endloop
  endfacet
  facet normal 0.912177 0.389762 0.126568
    outer loop
      vertex 224.082 7.88162 -12.5
      vertex 214.484 23.7764 7.72542
      vertex 225.283 5.07087 -12.5
    endloop
  endfacet
  facet normal 0.360353 -0.624169 0.693223
    outer loop
      vertex 214.484 -14.6946 20.2254
      vertex 205.484 -19.8906 20.2254
      vertex 214.484 -18.5786 16.7283
    endloop
  endfacet
  facet normal -0.666201 0.702408 0.250598
    outer loop
      vertex 184.818 21.4107 -12.5
      vertex 176.669 3.25399 16.7283
      vertex 180.032 5.19598 20.2254
    endloop
  endfacet
  facet normal -0.666233 0.702386 0.250575
    outer loop
      vertex 176.669 3.25399 16.7283
      vertex 184.818 21.4107 -12.5
      vertex 184.274 20.8947 -12.5
    endloop
  endfacet
  facet normal -0.983478 0 -0.181028
    outer loop
      vertex 172.167 0.655094 -7.72542
      vertex 171.226 -0.111777 -2.61321
      vertex 171.226 0.111777 -2.61321
    endloop
  endfacet
  facet normal -0.983478 0 -0.181028
    outer loop
      vertex 171.226 -0.111777 -2.61321
      vertex 172.167 0.655094 -7.72542
      vertex 172.167 -0.655094 -7.72542
    endloop
  endfacet
  facet normal 0.899498 -0.427339 0.09102
    outer loop
      vertex 214.484 -23.7764 7.72542
      vertex 223.123 -9.9002 -12.5
      vertex 224.082 -7.88162 -12.5
    endloop
  endfacet
  facet normal 0.899429 -0.427517 0.0908687
    outer loop
      vertex 223.123 -9.9002 -12.5
      vertex 214.484 -23.7764 7.72542
      vertex 214.484 -24.863 2.61321
    endloop
  endfacet
  facet normal -0.504202 -0.809292 0.301376
    outer loop
      vertex 186.334 -22.5077 -12.5
      vertex 188.257 -9.9444 24.4537
      vertex 185.83 -22.1937 -12.5
    endloop
  endfacet
  facet normal -0.503954 -0.809433 0.301411
    outer loop
      vertex 188.257 -9.9444 24.4537
      vertex 186.334 -22.5077 -12.5
      vertex 192.758 -12.5433 25
    endloop
  endfacet
  facet normal -0.476615 -0.825936 0.301113
    outer loop
      vertex 192.758 -12.5433 25
      vertex 186.334 -22.5077 -12.5
      vertex 187.341 -23.0888 -12.5
    endloop
  endfacet
  facet normal -0.71921 -0.661607 0.212162
    outer loop
      vertex 184.274 -20.8947 -12.5
      vertex 174.008 -1.71798 12.5
      vertex 183.671 -20.2392 -12.5
    endloop
  endfacet
  facet normal -0.719148 -0.661655 0.212224
    outer loop
      vertex 174.008 -1.71798 12.5
      vertex 184.274 -20.8947 -12.5
      vertex 176.669 -3.25399 16.7283
    endloop
  endfacet
  facet normal 0.820048 0.565059 -0.0907199
    outer loop
      vertex 218.867 16.9148 -12.5
      vertex 214.484 24.863 -2.61321
      vertex 220.135 15.0746 -12.5
    endloop
  endfacet
  facet normal -0.933043 0 0.359766
    outer loop
      vertex 172.167 -0.655094 7.72542
      vertex 174.008 1.71798 12.5
      vertex 172.167 0.655094 7.72542
    endloop
  endfacet
  facet normal -0.933043 0 0.359766
    outer loop
      vertex 174.008 1.71798 12.5
      vertex 172.167 -0.655094 7.72542
      vertex 174.008 -1.71798 12.5
    endloop
  endfacet
  facet normal -0.71921 0.661607 0.212162
    outer loop
      vertex 174.008 1.71798 12.5
      vertex 184.274 20.8947 -12.5
      vertex 183.671 20.2392 -12.5
    endloop
  endfacet
  facet normal -0.719148 0.661655 0.212224
    outer loop
      vertex 184.274 20.8947 -12.5
      vertex 174.008 1.71798 12.5
      vertex 176.669 3.25399 16.7283
    endloop
  endfacet
  facet normal 0.47661 -0.825927 -0.301143
    outer loop
      vertex 213.666 -22.5077 -12.5
      vertex 213.349 -24.4315 -7.72542
      vertex 212.659 -23.0888 -12.5
    endloop
  endfacet
  facet normal 0.476688 -0.82589 -0.301123
    outer loop
      vertex 213.349 -24.4315 -7.72542
      vertex 213.666 -22.5077 -12.5
      vertex 214.484 -23.7764 -7.72542
    endloop
  endfacet
  facet normal -0.612307 0.740394 0.277303
    outer loop
      vertex 185.33 21.8342 -12.5
      vertex 180.032 5.19598 20.2254
      vertex 183.952 7.45909 22.8386
    endloop
  endfacet
  facet normal -0.612378 0.740348 0.277268
    outer loop
      vertex 180.032 5.19598 20.2254
      vertex 185.33 21.8342 -12.5
      vertex 184.818 21.4107 -12.5
    endloop
  endfacet
  facet normal -0.557983 -0.776055 0.293927
    outer loop
      vertex 185.83 -22.1937 -12.5
      vertex 183.952 -7.45909 22.8386
      vertex 185.33 -21.8342 -12.5
    endloop
  endfacet
  facet normal -0.558196 -0.775926 0.293862
    outer loop
      vertex 183.952 -7.45909 22.8386
      vertex 185.83 -22.1937 -12.5
      vertex 188.257 -9.9444 24.4537
    endloop
  endfacet
  facet normal 0.912177 -0.389762 0.126568
    outer loop
      vertex 225.283 -5.07087 -12.5
      vertex 214.484 -23.7764 7.72542
      vertex 224.082 -7.88162 -12.5
    endloop
  endfacet
  facet normal 0.953591 0 0.301106
    outer loop
      vertex 226.325 0.581107 -12.5
      vertex 214.484 0 25
      vertex 226.325 -0.581107 -12.5
    endloop
  endfacet
  facet normal -0.213441 -0.953627 0.212221
    outer loop
      vertex 190.637 -24.2611 -12.5
      vertex 208.848 -21.8326 16.7283
      vertex 189.768 -24.0666 -12.5
    endloop
  endfacet
  facet normal -0.213386 -0.953647 0.212188
    outer loop
      vertex 208.848 -21.8326 16.7283
      vertex 190.637 -24.2611 -12.5
      vertex 211.508 -23.3686 12.5
    endloop
  endfacet
  facet normal -0.120489 0 0.992715
    outer loop
      vertex 188.257 9.9444 24.4537
      vertex 192.758 -12.5433 25
      vertex 192.758 12.5433 25
    endloop
  endfacet
  facet normal -0.120489 0 0.992715
    outer loop
      vertex 192.758 -12.5433 25
      vertex 188.257 9.9444 24.4537
      vertex 188.257 -9.9444 24.4537
    endloop
  endfacet
  facet normal 0.360357 0.624147 0.693241
    outer loop
      vertex 208.848 21.8326 16.7283
      vertex 205.484 19.8906 20.2254
      vertex 214.484 18.5786 16.7283
    endloop
  endfacet
  facet normal -0.0794862 -0.992686 0.0908664
    outer loop
      vertex 197.013 -24.9748 -12.5
      vertex 213.349 -24.4315 7.72542
      vertex 194.785 -24.7964 -12.5
    endloop
  endfacet
  facet normal -0.0794864 -0.992686 0.0908667
    outer loop
      vertex 213.349 -24.4315 7.72542
      vertex 197.013 -24.9748 -12.5
      vertex 214.29 -24.9748 2.61321
    endloop
  endfacet
  facet normal 0.491632 -0.851781 0.181017
    outer loop
      vertex 214.484 -23.7764 7.72542
      vertex 213.349 -24.4315 7.72542
      vertex 214.29 -24.9748 2.61321
    endloop
  endfacet
  facet normal -0.770337 -0.617339 0.159601
    outer loop
      vertex 182.967 -19.3606 -12.5
      vertex 174.008 -1.71798 12.5
      vertex 172.167 -0.655094 7.72542
    endloop
  endfacet
  facet normal -0.770387 -0.617291 0.15955
    outer loop
      vertex 174.008 -1.71798 12.5
      vertex 182.967 -19.3606 -12.5
      vertex 183.671 -20.2392 -12.5
    endloop
  endfacet
  facet normal -0.866039 -0.499977 0
    outer loop
      vertex 176.877 -9.9002 -12.5
      vertex 171.226 -0.111777 2.61321
      vertex 171.226 -0.111777 -2.61321
    endloop
  endfacet
  facet normal -0.865985 -0.50007 8.0545e-05
    outer loop
      vertex 171.226 -0.111777 2.61321
      vertex 176.877 -9.9002 -12.5
      vertex 179.865 -15.0746 -12.5
    endloop
  endfacet
  facet normal -0.793617 0.5951 0.126602
    outer loop
      vertex 181.133 16.9148 -12.5
      vertex 172.167 0.655094 7.72542
      vertex 182.967 19.3606 -12.5
    endloop
  endfacet
  facet normal -0.91975 -0.358613 -0.159555
    outer loop
      vertex 174.717 -5.07087 -12.5
      vertex 172.167 -0.655094 -7.72542
      vertex 174.308 -4.02189 -12.5
    endloop
  endfacet
  facet normal -0.118413 0.98488 0.126455
    outer loop
      vertex 194.785 24.7964 -12.5
      vertex 191.75 24.4315 -12.5
      vertex 213.349 24.4315 7.72542
    endloop
  endfacet
  facet normal -0.899496 0.427339 -0.091039
    outer loop
      vertex 175.918 7.88162 -12.5
      vertex 171.226 0.111777 -2.61321
      vertex 176.877 9.9002 -12.5
    endloop
  endfacet
  facet normal 0.491053 0.852095 -0.181113
    outer loop
      vertex 214.484 23.7764 -7.72542
      vertex 214.29 24.9748 -2.61321
      vertex 214.484 24.863 -2.61321
    endloop
  endfacet
  facet normal 0.392953 0.871331 -0.293886
    outer loop
      vertex 212.135 23.3686 -12.5
      vertex 211.574 23.6216 -12.5
      vertex 213.349 24.4315 -7.72542
    endloop
  endfacet
  facet normal 0.504194 0.809279 -0.301422
    outer loop
      vertex 214.17 22.1937 -12.5
      vertex 213.666 22.5077 -12.5
      vertex 214.484 23.7764 -7.72542
    endloop
  endfacet
  facet normal 0.952973 0.0320995 0.301349
    outer loop
      vertex 214.484 5.19779 24.4537
      vertex 226.325 0.581107 -12.5
      vertex 226.305 1.17487 -12.5
    endloop
  endfacet
  facet normal 0.952971 0.031678 0.301401
    outer loop
      vertex 226.325 0.581107 -12.5
      vertex 214.484 5.19779 24.4537
      vertex 214.484 0 25
    endloop
  endfacet
  facet normal -0.612378 -0.740348 0.277268
    outer loop
      vertex 185.33 -21.8342 -12.5
      vertex 180.032 -5.19598 20.2254
      vertex 184.818 -21.4107 -12.5
    endloop
  endfacet
  facet normal -0.612307 -0.740394 0.277303
    outer loop
      vertex 180.032 -5.19598 20.2254
      vertex 185.33 -21.8342 -12.5
      vertex 183.952 -7.45909 22.8386
    endloop
  endfacet
  facet normal -0.558196 0.775926 0.293862
    outer loop
      vertex 185.83 22.1937 -12.5
      vertex 183.952 7.45909 22.8386
      vertex 188.257 9.9444 24.4537
    endloop
  endfacet
  facet normal -0.557983 0.776055 0.293927
    outer loop
      vertex 183.952 7.45909 22.8386
      vertex 185.83 22.1937 -12.5
      vertex 185.33 21.8342 -12.5
    endloop
  endfacet
  facet normal -0.503954 0.809433 0.301411
    outer loop
      vertex 186.334 22.5077 -12.5
      vertex 188.257 9.9444 24.4537
      vertex 192.758 12.5433 25
    endloop
  endfacet
  facet normal -0.504202 0.809292 0.301376
    outer loop
      vertex 188.257 9.9444 24.4537
      vertex 186.334 22.5077 -12.5
      vertex 185.83 22.1937 -12.5
    endloop
  endfacet
  facet normal 0.0602345 0.104331 0.992717
    outer loop
      vertex 197.26 15.1422 24.4537
      vertex 192.758 12.5433 25
      vertex 214.484 0 25
    endloop
  endfacet
  facet normal 0.95112 -0.0947129 0.29394
    outer loop
      vertex 214.484 -5.19779 24.4537
      vertex 226.244 -1.78744 -12.5
      vertex 226.305 -1.17487 -12.5
    endloop
  endfacet
  facet normal 0.95107 -0.0954816 0.293853
    outer loop
      vertex 226.244 -1.78744 -12.5
      vertex 214.484 -5.19779 24.4537
      vertex 214.484 -10.1684 22.8386
    endloop
  endfacet
  facet normal 0.947356 0.160091 0.277287
    outer loop
      vertex 214.484 10.1684 22.8386
      vertex 226.133 2.44264 -12.5
      vertex 214.484 14.6946 20.2254
    endloop
  endfacet
  facet normal 0.947318 0.160489 0.277187
    outer loop
      vertex 226.133 2.44264 -12.5
      vertex 214.484 10.1684 22.8386
      vertex 226.244 1.78744 -12.5
    endloop
  endfacet
  facet normal 0.149398 -0.97582 -0.159549
    outer loop
      vertex 213.349 -24.4315 -7.72542
      vertex 208.25 -24.4315 -12.5
      vertex 209.363 -24.2611 -12.5
    endloop
  endfacet
  facet normal 0 -1 0
    outer loop
      vertex 202.987 -24.9748 -12.5
      vertex 214.29 -24.9748 2.61321
      vertex 197.013 -24.9748 -12.5
    endloop
  endfacet
  facet normal 0 -1 -0
    outer loop
      vertex 214.29 -24.9748 2.61321
      vertex 202.987 -24.9748 -12.5
      vertex 214.29 -24.9748 -2.61321
    endloop
  endfacet
  facet normal 0.423205 -0.733 0.532549
    outer loop
      vertex 214.484 -18.5786 16.7283
      vertex 208.848 -21.8326 16.7283
      vertex 214.484 -21.6506 12.5
    endloop
  endfacet
  facet normal -0.118413 -0.98488 0.126455
    outer loop
      vertex 213.349 -24.4315 7.72542
      vertex 191.75 -24.4315 -12.5
      vertex 194.785 -24.7964 -12.5
    endloop
  endfacet
  facet normal -0.819947 -0.565182 0.0908604
    outer loop
      vertex 179.865 -15.0746 -12.5
      vertex 172.167 -0.655094 7.72542
      vertex 171.226 -0.111777 2.61321
    endloop
  endfacet
  facet normal -0.820047 -0.565058 0.090734
    outer loop
      vertex 172.167 -0.655094 7.72542
      vertex 179.865 -15.0746 -12.5
      vertex 181.133 -16.9148 -12.5
    endloop
  endfacet
  facet normal -0.846347 0 0.532632
    outer loop
      vertex 174.008 -1.71798 12.5
      vertex 176.669 3.25399 16.7283
      vertex 174.008 1.71798 12.5
    endloop
  endfacet
  facet normal -0.846347 0 0.532632
    outer loop
      vertex 176.669 3.25399 16.7283
      vertex 174.008 -1.71798 12.5
      vertex 176.669 -3.25399 16.7283
    endloop
  endfacet
  facet normal -0.770387 0.617291 0.15955
    outer loop
      vertex 182.967 19.3606 -12.5
      vertex 174.008 1.71798 12.5
      vertex 183.671 20.2392 -12.5
    endloop
  endfacet
  facet normal -0.770337 0.617339 0.159601
    outer loop
      vertex 174.008 1.71798 12.5
      vertex 182.967 19.3606 -12.5
      vertex 172.167 0.655094 7.72542
    endloop
  endfacet
  facet normal 0.275216 -0.928145 -0.250604
    outer loop
      vertex 213.349 -24.4315 -7.72542
      vertex 210.232 -24.0666 -12.5
      vertex 210.951 -23.8534 -12.5
    endloop
  endfacet
  facet normal -0.912161 -0.389756 -0.1267
    outer loop
      vertex 175.918 -7.88162 -12.5
      vertex 172.167 -0.655094 -7.72542
      vertex 174.717 -5.07087 -12.5
    endloop
  endfacet
  facet normal -0.912133 -0.389901 -0.126457
    outer loop
      vertex 172.167 -0.655094 -7.72542
      vertex 175.918 -7.88162 -12.5
      vertex 171.226 -0.111777 -2.61321
    endloop
  endfacet
  facet normal 0 1 0
    outer loop
      vertex 202.987 24.9748 -12.5
      vertex 214.29 24.9748 2.61321
      vertex 214.29 24.9748 -2.61321
    endloop
  endfacet
  facet normal 0 1 0
    outer loop
      vertex 214.29 24.9748 2.61321
      vertex 202.987 24.9748 -12.5
      vertex 197.013 24.9748 -12.5
    endloop
  endfacet
  facet normal 0.0794861 0.992685 -0.0908719
    outer loop
      vertex 205.215 24.7964 -12.5
      vertex 202.987 24.9748 -12.5
      vertex 214.29 24.9748 -2.61321
    endloop
  endfacet
  facet normal -0.793617 -0.5951 0.126602
    outer loop
      vertex 182.967 -19.3606 -12.5
      vertex 172.167 -0.655094 7.72542
      vertex 181.133 -16.9148 -12.5
    endloop
  endfacet
  facet normal 0.277342 0.480385 0.832052
    outer loop
      vertex 214.484 14.6946 20.2254
      vertex 205.484 19.8906 20.2254
      vertex 214.484 10.1684 22.8386
    endloop
  endfacet
  facet normal 0.866038 0.499978 0
    outer loop
      vertex 214.484 24.863 2.61321
      vertex 220.135 15.0746 -12.5
      vertex 214.484 24.863 -2.61321
    endloop
  endfacet
  facet normal 0.865985 0.50007 -7.9784e-05
    outer loop
      vertex 220.135 15.0746 -12.5
      vertex 214.484 24.863 2.61321
      vertex 223.123 9.9002 -12.5
    endloop
  endfacet
  facet normal 0.275216 0.928145 -0.250604
    outer loop
      vertex 210.951 23.8534 -12.5
      vertex 210.232 24.0666 -12.5
      vertex 213.349 24.4315 -7.72542
    endloop
  endfacet
  facet normal -0.951082 0.0947092 -0.294063
    outer loop
      vertex 173.695 1.17487 -12.5
      vertex 172.167 0.655094 -7.72542
      vertex 173.756 1.78744 -12.5
    endloop
  endfacet
  facet normal 0.33504 0.900474 -0.2773
    outer loop
      vertex 211.574 23.6216 -12.5
      vertex 210.951 23.8534 -12.5
      vertex 213.349 24.4315 -7.72542
    endloop
  endfacet
  facet normal 0.33504 -0.900474 -0.2773
    outer loop
      vertex 213.349 -24.4315 -7.72542
      vertex 210.951 -23.8534 -12.5
      vertex 211.574 -23.6216 -12.5
    endloop
  endfacet
  facet normal 0.213441 -0.953627 -0.212223
    outer loop
      vertex 213.349 -24.4315 -7.72542
      vertex 209.363 -24.2611 -12.5
      vertex 210.232 -24.0666 -12.5
    endloop
  endfacet
  facet normal 0.666226 -0.702378 -0.250617
    outer loop
      vertex 215.726 -20.8947 -12.5
      vertex 214.484 -23.7764 -7.72542
      vertex 215.182 -21.4107 -12.5
    endloop
  endfacet
  facet normal -0.335018 0.900485 0.277291
    outer loop
      vertex 189.049 23.8534 -12.5
      vertex 201.564 17.6275 22.8386
      vertex 205.484 19.8906 20.2254
    endloop
  endfacet
  facet normal -0.33504 0.900475 0.277297
    outer loop
      vertex 201.564 17.6275 22.8386
      vertex 189.049 23.8534 -12.5
      vertex 188.426 23.6216 -12.5
    endloop
  endfacet
  facet normal 0.277339 0.480383 0.832055
    outer loop
      vertex 205.484 19.8906 20.2254
      vertex 201.564 17.6275 22.8386
      vertex 214.484 10.1684 22.8386
    endloop
  endfacet
  facet normal 0.175651 0.304248 0.936258
    outer loop
      vertex 201.564 17.6275 22.8386
      vertex 197.26 15.1422 24.4537
      vertex 214.484 10.1684 22.8386
    endloop
  endfacet
  facet normal -0.476615 0.825936 0.301113
    outer loop
      vertex 187.341 23.0888 -12.5
      vertex 186.334 22.5077 -12.5
      vertex 192.758 12.5433 25
    endloop
  endfacet
  facet normal 0.952971 -0.031678 0.301401
    outer loop
      vertex 214.484 -5.19779 24.4537
      vertex 226.325 -0.581107 -12.5
      vertex 214.484 0 25
    endloop
  endfacet
  facet normal 0.952973 -0.0320995 0.301349
    outer loop
      vertex 226.325 -0.581107 -12.5
      vertex 214.484 -5.19779 24.4537
      vertex 226.305 -1.17487 -12.5
    endloop
  endfacet
  facet normal -0.392955 -0.871335 0.293875
    outer loop
      vertex 188.426 -23.6216 -12.5
      vertex 197.26 -15.1422 24.4537
      vertex 187.865 -23.3686 -12.5
    endloop
  endfacet
  facet normal -0.392887 -0.871368 0.293866
    outer loop
      vertex 197.26 -15.1422 24.4537
      vertex 188.426 -23.6216 -12.5
      vertex 201.564 -17.6275 22.8386
    endloop
  endfacet
  facet normal 0.899429 0.427517 0.0908687
    outer loop
      vertex 214.484 23.7764 7.72542
      vertex 223.123 9.9002 -12.5
      vertex 214.484 24.863 2.61321
    endloop
  endfacet
  facet normal 0.899498 0.427339 0.09102
    outer loop
      vertex 223.123 9.9002 -12.5
      vertex 214.484 23.7764 7.72542
      vertex 224.082 7.88162 -12.5
    endloop
  endfacet
  facet normal 0.932612 -0.291846 0.212274
    outer loop
      vertex 214.484 -18.5786 16.7283
      vertex 225.692 -4.02188 -12.5
      vertex 225.958 -3.17186 -12.5
    endloop
  endfacet
  facet normal 0.932579 -0.29203 0.212169
    outer loop
      vertex 225.692 -4.02188 -12.5
      vertex 214.484 -18.5786 16.7283
      vertex 214.484 -21.6506 12.5
    endloop
  endfacet
  facet normal 0.947318 -0.160489 0.277187
    outer loop
      vertex 214.484 -10.1684 22.8386
      vertex 226.133 -2.44264 -12.5
      vertex 226.244 -1.78744 -12.5
    endloop
  endfacet
  facet normal 0.947356 -0.160091 0.277287
    outer loop
      vertex 226.133 -2.44264 -12.5
      vertex 214.484 -10.1684 22.8386
      vertex 214.484 -14.6946 20.2254
    endloop
  endfacet
  facet normal 0.360357 -0.624147 0.693241
    outer loop
      vertex 214.484 -18.5786 16.7283
      vertex 205.484 -19.8906 20.2254
      vertex 208.848 -21.8326 16.7283
    endloop
  endfacet
  facet normal 0.0602345 -0.104331 0.992717
    outer loop
      vertex 214.484 0 25
      vertex 192.758 -12.5433 25
      vertex 197.26 -15.1422 24.4537
    endloop
  endfacet
  facet normal -0.983478 0 0.181028
    outer loop
      vertex 171.226 -0.111777 2.61321
      vertex 172.167 0.655094 7.72542
      vertex 171.226 0.111777 2.61321
    endloop
  endfacet
  facet normal -0.983478 0 0.181028
    outer loop
      vertex 172.167 0.655094 7.72542
      vertex 171.226 -0.111777 2.61321
      vertex 172.167 -0.655094 7.72542
    endloop
  endfacet
  facet normal -0.666233 -0.702386 0.250575
    outer loop
      vertex 184.818 -21.4107 -12.5
      vertex 176.669 -3.25399 16.7283
      vertex 184.274 -20.8947 -12.5
    endloop
  endfacet
  facet normal -0.666201 -0.702408 0.250598
    outer loop
      vertex 176.669 -3.25399 16.7283
      vertex 184.818 -21.4107 -12.5
      vertex 180.032 -5.19598 20.2254
    endloop
  endfacet
  facet normal -0.720791 0 0.693152
    outer loop
      vertex 176.669 -3.25399 16.7283
      vertex 180.032 5.19598 20.2254
      vertex 176.669 3.25399 16.7283
    endloop
  endfacet
  facet normal -0.720791 0 0.693152
    outer loop
      vertex 180.032 5.19598 20.2254
      vertex 176.669 -3.25399 16.7283
      vertex 180.032 -5.19598 20.2254
    endloop
  endfacet
  facet normal 0.149398 0.97582 -0.159549
    outer loop
      vertex 209.363 24.2611 -12.5
      vertex 208.25 24.4315 -12.5
      vertex 213.349 24.4315 -7.72542
    endloop
  endfacet
  facet normal -0.912161 0.389756 -0.1267
    outer loop
      vertex 172.167 0.655094 -7.72542
      vertex 175.918 7.88162 -12.5
      vertex 174.717 5.07087 -12.5
    endloop
  endfacet
  facet normal -0.912133 0.389901 -0.126457
    outer loop
      vertex 175.918 7.88162 -12.5
      vertex 172.167 0.655094 -7.72542
      vertex 171.226 0.111777 -2.61321
    endloop
  endfacet
  facet normal -0.865985 0.50007 0.000123123
    outer loop
      vertex 171.226 0.111777 -2.61321
      vertex 179.865 15.0746 -12.5
      vertex 176.877 9.9002 -12.5
    endloop
  endfacet
  facet normal -0.86602 0.500009 0
    outer loop
      vertex 179.865 15.0746 -12.5
      vertex 171.226 0.111777 -2.61321
      vertex 171.226 0.111777 2.61321
    endloop
  endfacet
  facet normal -0.820047 0.565058 0.090734
    outer loop
      vertex 179.865 15.0746 -12.5
      vertex 172.167 0.655094 7.72542
      vertex 181.133 16.9148 -12.5
    endloop
  endfacet
  facet normal -0.819947 0.565182 0.0908604
    outer loop
      vertex 172.167 0.655094 7.72542
      vertex 179.865 15.0746 -12.5
      vertex 171.226 0.111777 2.61321
    endloop
  endfacet
  facet normal 0.476688 0.82589 -0.301123
    outer loop
      vertex 213.666 22.5077 -12.5
      vertex 213.349 24.4315 -7.72542
      vertex 214.484 23.7764 -7.72542
    endloop
  endfacet
  facet normal 0.47661 0.825927 -0.301143
    outer loop
      vertex 213.349 24.4315 -7.72542
      vertex 213.666 22.5077 -12.5
      vertex 212.659 23.0888 -12.5
    endloop
  endfacet
  facet normal 0.449116 -0.84109 -0.301434
    outer loop
      vertex 213.349 -24.4315 -7.72542
      vertex 212.135 -23.3686 -12.5
      vertex 212.659 -23.0888 -12.5
    endloop
  endfacet
  facet normal 0.392953 -0.871331 -0.293886
    outer loop
      vertex 213.349 -24.4315 -7.72542
      vertex 211.574 -23.6216 -12.5
      vertex 212.135 -23.3686 -12.5
    endloop
  endfacet
  facet normal -0.941364 -0.225911 -0.250596
    outer loop
      vertex 174.042 -3.17186 -12.5
      vertex 172.167 -0.655094 -7.72542
      vertex 173.867 -2.44264 -12.5
    endloop
  endfacet
  facet normal 0.7192 0.661598 -0.212224
    outer loop
      vertex 215.726 20.8947 -12.5
      vertex 214.484 23.7764 -7.72542
      vertex 216.329 20.2392 -12.5
    endloop
  endfacet
  facet normal 0.612372 -0.740341 -0.2773
    outer loop
      vertex 215.182 -21.4107 -12.5
      vertex 214.484 -23.7764 -7.72542
      vertex 214.67 -21.8342 -12.5
    endloop
  endfacet
  facet normal 0.55798 -0.776051 -0.293944
    outer loop
      vertex 214.484 -23.7764 -7.72542
      vertex 214.17 -22.1937 -12.5
      vertex 214.67 -21.8342 -12.5
    endloop
  endfacet
  facet normal -0.351262 0 0.936277
    outer loop
      vertex 183.952 7.45909 22.8386
      vertex 188.257 -9.9444 24.4537
      vertex 188.257 9.9444 24.4537
    endloop
  endfacet
  facet normal -0.351262 0 0.936277
    outer loop
      vertex 188.257 -9.9444 24.4537
      vertex 183.952 7.45909 22.8386
      vertex 183.952 -7.45909 22.8386
    endloop
  endfacet
  facet normal 0.941419 0.225656 0.250621
    outer loop
      vertex 214.484 14.6946 20.2254
      vertex 225.958 3.17186 -12.5
      vertex 214.484 18.5786 16.7283
    endloop
  endfacet
  facet normal 0.941384 0.225916 0.250517
    outer loop
      vertex 225.958 3.17186 -12.5
      vertex 214.484 14.6946 20.2254
      vertex 226.133 2.44264 -12.5
    endloop
  endfacet
  facet normal 0.466414 0.80809 0.359788
    outer loop
      vertex 214.484 23.7764 7.72542
      vertex 213.349 24.4315 7.72542
      vertex 214.484 21.6506 12.5
    endloop
  endfacet
  facet normal -0.392887 0.871368 0.293866
    outer loop
      vertex 188.426 23.6216 -12.5
      vertex 197.26 15.1422 24.4537
      vertex 201.564 17.6275 22.8386
    endloop
  endfacet
  facet normal -0.392955 0.871335 0.293875
    outer loop
      vertex 197.26 15.1422 24.4537
      vertex 188.426 23.6216 -12.5
      vertex 187.865 23.3686 -12.5
    endloop
  endfacet
  facet normal -0.449006 0.841158 0.301407
    outer loop
      vertex 187.865 23.3686 -12.5
      vertex 192.758 12.5433 25
      vertex 197.26 15.1422 24.4537
    endloop
  endfacet
  facet normal -0.449121 0.841098 0.301405
    outer loop
      vertex 192.758 12.5433 25
      vertex 187.865 23.3686 -12.5
      vertex 187.341 23.0888 -12.5
    endloop
  endfacet
  facet normal 0.277342 -0.480385 0.832052
    outer loop
      vertex 214.484 -10.1684 22.8386
      vertex 205.484 -19.8906 20.2254
      vertex 214.484 -14.6946 20.2254
    endloop
  endfacet
  facet normal -0.449121 -0.841098 0.301405
    outer loop
      vertex 187.865 -23.3686 -12.5
      vertex 192.758 -12.5433 25
      vertex 187.341 -23.0888 -12.5
    endloop
  endfacet
  facet normal -0.449006 -0.841158 0.301407
    outer loop
      vertex 192.758 -12.5433 25
      vertex 187.865 -23.3686 -12.5
      vertex 197.26 -15.1422 24.4537
    endloop
  endfacet
  facet normal -0.149397 -0.975818 0.15956
    outer loop
      vertex 191.75 -24.4315 -12.5
      vertex 211.508 -23.3686 12.5
      vertex 190.637 -24.2611 -12.5
    endloop
  endfacet
  facet normal -0.149453 -0.975803 0.159603
    outer loop
      vertex 211.508 -23.3686 12.5
      vertex 191.75 -24.4315 -12.5
      vertex 213.349 -24.4315 7.72542
    endloop
  endfacet
  facet normal 0.941384 -0.225916 0.250517
    outer loop
      vertex 214.484 -14.6946 20.2254
      vertex 225.958 -3.17186 -12.5
      vertex 226.133 -2.44264 -12.5
    endloop
  endfacet
  facet normal 0.941419 -0.225656 0.250621
    outer loop
      vertex 225.958 -3.17186 -12.5
      vertex 214.484 -14.6946 20.2254
      vertex 214.484 -18.5786 16.7283
    endloop
  endfacet
  facet normal 0.277339 -0.480383 0.832055
    outer loop
      vertex 214.484 -10.1684 22.8386
      vertex 201.564 -17.6275 22.8386
      vertex 205.484 -19.8906 20.2254
    endloop
  endfacet
  facet normal -1 0 0
    outer loop
      vertex 171.226 -0.111777 -2.61321
      vertex 171.226 0.111777 2.61321
      vertex 171.226 0.111777 -2.61321
    endloop
  endfacet
  facet normal -1 -0 0
    outer loop
      vertex 171.226 0.111777 2.61321
      vertex 171.226 -0.111777 -2.61321
      vertex 171.226 -0.111777 2.61321
    endloop
  endfacet
  facet normal -0.899496 -0.427339 -0.091039
    outer loop
      vertex 176.877 -9.9002 -12.5
      vertex 171.226 -0.111777 -2.61321
      vertex 175.918 -7.88162 -12.5
    endloop
  endfacet
  facet normal -0.932587 0.291835 -0.2124
    outer loop
      vertex 174.042 3.17186 -12.5
      vertex 172.167 0.655094 -7.72542
      vertex 174.308 4.02189 -12.5
    endloop
  endfacet
  facet normal 0.449116 0.84109 -0.301434
    outer loop
      vertex 212.659 23.0888 -12.5
      vertex 212.135 23.3686 -12.5
      vertex 213.349 24.4315 -7.72542
    endloop
  endfacet
  facet normal -0.947312 -0.160488 -0.277208
    outer loop
      vertex 173.867 -2.44264 -12.5
      vertex 172.167 -0.655094 -7.72542
      vertex 173.756 -1.78744 -12.5
    endloop
  endfacet
  facet normal 0.7192 -0.661598 -0.212224
    outer loop
      vertex 216.329 -20.2392 -12.5
      vertex 214.484 -23.7764 -7.72542
      vertex 215.726 -20.8947 -12.5
    endloop
  endfacet
  facet normal 0.770378 0.617284 -0.159618
    outer loop
      vertex 216.329 20.2392 -12.5
      vertex 214.484 23.7764 -7.72542
      vertex 217.033 19.3606 -12.5
    endloop
  endfacet
  facet normal 0.666226 0.702378 -0.250617
    outer loop
      vertex 215.182 21.4107 -12.5
      vertex 214.484 23.7764 -7.72542
      vertex 215.726 20.8947 -12.5
    endloop
  endfacet
  facet normal 0.612372 0.740341 -0.2773
    outer loop
      vertex 214.67 21.8342 -12.5
      vertex 214.484 23.7764 -7.72542
      vertex 215.182 21.4107 -12.5
    endloop
  endfacet
  facet normal 0.466483 0.808064 0.359757
    outer loop
      vertex 213.349 24.4315 7.72542
      vertex 211.508 23.3686 12.5
      vertex 214.484 21.6506 12.5
    endloop
  endfacet
  facet normal 0.491053 0.852095 0.181113
    outer loop
      vertex 214.484 24.863 2.61321
      vertex 214.29 24.9748 2.61321
      vertex 214.484 23.7764 7.72542
    endloop
  endfacet
  facet normal -0.213386 0.953647 0.212188
    outer loop
      vertex 190.637 24.2611 -12.5
      vertex 208.848 21.8326 16.7283
      vertex 211.508 23.3686 12.5
    endloop
  endfacet
  facet normal -0.213441 0.953627 0.212221
    outer loop
      vertex 208.848 21.8326 16.7283
      vertex 190.637 24.2611 -12.5
      vertex 189.768 24.0666 -12.5
    endloop
  endfacet
  facet normal -0.275257 0.928128 0.250625
    outer loop
      vertex 189.768 24.0666 -12.5
      vertex 205.484 19.8906 20.2254
      vertex 208.848 21.8326 16.7283
    endloop
  endfacet
  facet normal -0.275216 0.928144 0.250607
    outer loop
      vertex 205.484 19.8906 20.2254
      vertex 189.768 24.0666 -12.5
      vertex 189.049 23.8534 -12.5
    endloop
  endfacet
  facet normal 0.919804 0.358454 0.159596
    outer loop
      vertex 214.484 21.6506 12.5
      vertex 225.283 5.07087 -12.5
      vertex 214.484 23.7764 7.72542
    endloop
  endfacet
  facet normal 0.919763 0.358615 0.159472
    outer loop
      vertex 225.283 5.07087 -12.5
      vertex 214.484 21.6506 12.5
      vertex 225.692 4.02188 -12.5
    endloop
  endfacet
  facet normal 0.360353 0.624169 0.693223
    outer loop
      vertex 214.484 18.5786 16.7283
      vertex 205.484 19.8906 20.2254
      vertex 214.484 14.6946 20.2254
    endloop
  endfacet
  facet normal 0.932579 0.29203 0.212169
    outer loop
      vertex 214.484 18.5786 16.7283
      vertex 225.692 4.02188 -12.5
      vertex 214.484 21.6506 12.5
    endloop
  endfacet
  facet normal 0.932612 0.291846 0.212274
    outer loop
      vertex 225.692 4.02188 -12.5
      vertex 214.484 18.5786 16.7283
      vertex 225.958 3.17186 -12.5
    endloop
  endfacet
  facet normal 0.175645 0.304222 0.936268
    outer loop
      vertex 214.484 10.1684 22.8386
      vertex 197.26 15.1422 24.4537
      vertex 214.484 5.19779 24.4537
    endloop
  endfacet
  facet normal 0.175651 -0.304248 0.936258
    outer loop
      vertex 214.484 -10.1684 22.8386
      vertex 197.26 -15.1422 24.4537
      vertex 201.564 -17.6275 22.8386
    endloop
  endfacet
  facet normal 0.175645 -0.304222 0.936268
    outer loop
      vertex 214.484 -5.19779 24.4537
      vertex 197.26 -15.1422 24.4537
      vertex 214.484 -10.1684 22.8386
    endloop
  endfacet
  facet normal -0.33504 -0.900475 0.277297
    outer loop
      vertex 189.049 -23.8534 -12.5
      vertex 201.564 -17.6275 22.8386
      vertex 188.426 -23.6216 -12.5
    endloop
  endfacet
  facet normal -0.335018 -0.900485 0.277291
    outer loop
      vertex 201.564 -17.6275 22.8386
      vertex 189.049 -23.8534 -12.5
      vertex 205.484 -19.8906 20.2254
    endloop
  endfacet
  facet normal -0.275216 -0.928144 0.250607
    outer loop
      vertex 189.768 -24.0666 -12.5
      vertex 205.484 -19.8906 20.2254
      vertex 189.049 -23.8534 -12.5
    endloop
  endfacet
  facet normal -0.275257 -0.928128 0.250625
    outer loop
      vertex 205.484 -19.8906 20.2254
      vertex 189.768 -24.0666 -12.5
      vertex 208.848 -21.8326 16.7283
    endloop
  endfacet
  facet normal 0.466483 -0.808064 0.359757
    outer loop
      vertex 214.484 -21.6506 12.5
      vertex 211.508 -23.3686 12.5
      vertex 213.349 -24.4315 7.72542
    endloop
  endfacet
  facet normal 0.423176 -0.733046 0.532509
    outer loop
      vertex 214.484 -21.6506 12.5
      vertex 208.848 -21.8326 16.7283
      vertex 211.508 -23.3686 12.5
    endloop
  endfacet
  facet normal 0.865985 -0.50007 -7.9784e-05
    outer loop
      vertex 214.484 -24.863 2.61321
      vertex 220.135 -15.0746 -12.5
      vertex 223.123 -9.9002 -12.5
    endloop
  endfacet
  facet normal 0.866038 -0.499978 0
    outer loop
      vertex 220.135 -15.0746 -12.5
      vertex 214.484 -24.863 2.61321
      vertex 214.484 -24.863 -2.61321
    endloop
  endfacet
  facet normal 0.491053 -0.852095 0.181113
    outer loop
      vertex 214.484 -23.7764 7.72542
      vertex 214.29 -24.9748 2.61321
      vertex 214.484 -24.863 2.61321
    endloop
  endfacet
  facet normal -0.932587 -0.291835 -0.2124
    outer loop
      vertex 174.308 -4.02189 -12.5
      vertex 172.167 -0.655094 -7.72542
      vertex 174.042 -3.17186 -12.5
    endloop
  endfacet
  facet normal -0.951082 -0.0947092 -0.294063
    outer loop
      vertex 173.756 -1.78744 -12.5
      vertex 172.167 -0.655094 -7.72542
      vertex 173.695 -1.17487 -12.5
    endloop
  endfacet
  facet normal -0.947312 0.160488 -0.277208
    outer loop
      vertex 173.756 1.78744 -12.5
      vertex 172.167 0.655094 -7.72542
      vertex 173.867 2.44264 -12.5
    endloop
  endfacet
  facet normal 0.118413 0.984879 -0.126458
    outer loop
      vertex 205.215 24.7964 -12.5
      vertex 213.349 24.4315 -7.72542
      vertex 208.25 24.4315 -12.5
    endloop
  endfacet
  facet normal 0.118416 0.984878 -0.126465
    outer loop
      vertex 213.349 24.4315 -7.72542
      vertex 205.215 24.7964 -12.5
      vertex 214.29 24.9748 -2.61321
    endloop
  endfacet
  facet normal 0.491632 0.851781 -0.181017
    outer loop
      vertex 214.484 23.7764 -7.72542
      vertex 213.349 24.4315 -7.72542
      vertex 214.29 24.9748 -2.61321
    endloop
  endfacet
  facet normal 0.491053 -0.852095 -0.181113
    outer loop
      vertex 214.484 -24.863 -2.61321
      vertex 214.29 -24.9748 -2.61321
      vertex 214.484 -23.7764 -7.72542
    endloop
  endfacet
  facet normal 0.55798 0.776051 -0.293944
    outer loop
      vertex 214.67 21.8342 -12.5
      vertex 214.17 22.1937 -12.5
      vertex 214.484 23.7764 -7.72542
    endloop
  endfacet
  facet normal 0.423205 0.733 0.532549
    outer loop
      vertex 214.484 21.6506 12.5
      vertex 208.848 21.8326 16.7283
      vertex 214.484 18.5786 16.7283
    endloop
  endfacet
  facet normal 0.95107 0.0954816 0.293853
    outer loop
      vertex 214.484 5.19779 24.4537
      vertex 226.244 1.78744 -12.5
      vertex 214.484 10.1684 22.8386
    endloop
  endfacet
  facet normal 0.95112 0.0947129 0.29394
    outer loop
      vertex 226.244 1.78744 -12.5
      vertex 214.484 5.19779 24.4537
      vertex 226.305 1.17487 -12.5
    endloop
  endfacet
  facet normal 0.49931 0.866423 -0
    outer loop
      vertex 214.484 24.863 -2.61321
      vertex 214.29 24.9748 2.61321
      vertex 214.484 24.863 2.61321
    endloop
  endfacet
  facet normal 0.49931 0.866423 0
    outer loop
      vertex 214.29 24.9748 2.61321
      vertex 214.484 24.863 -2.61321
      vertex 214.29 24.9748 -2.61321
    endloop
  endfacet
  facet normal 0.0794861 -0.992685 -0.0908719
    outer loop
      vertex 214.29 -24.9748 -2.61321
      vertex 202.987 -24.9748 -12.5
      vertex 205.215 -24.7964 -12.5
    endloop
  endfacet
  facet normal 0.118416 -0.984878 -0.126465
    outer loop
      vertex 205.215 -24.7964 -12.5
      vertex 213.349 -24.4315 -7.72542
      vertex 214.29 -24.9748 -2.61321
    endloop
  endfacet
  facet normal 0.118413 -0.984879 -0.126458
    outer loop
      vertex 213.349 -24.4315 -7.72542
      vertex 205.215 -24.7964 -12.5
      vertex 208.25 -24.4315 -12.5
    endloop
  endfacet
  facet normal 0.491632 -0.851781 -0.181017
    outer loop
      vertex 214.29 -24.9748 -2.61321
      vertex 213.349 -24.4315 -7.72542
      vertex 214.484 -23.7764 -7.72542
    endloop
  endfacet
  facet normal 0.770378 -0.617284 -0.159618
    outer loop
      vertex 217.033 -19.3606 -12.5
      vertex 214.484 -23.7764 -7.72542
      vertex 216.329 -20.2392 -12.5
    endloop
  endfacet
  facet normal -0.952935 -0.0320981 -0.301472
    outer loop
      vertex 173.695 -1.17487 -12.5
      vertex 172.167 -0.655094 -7.72542
      vertex 173.675 -0.581106 -12.5
    endloop
  endfacet
  facet normal -0.952935 0.0320981 -0.301472
    outer loop
      vertex 173.675 0.581106 -12.5
      vertex 172.167 0.655094 -7.72542
      vertex 173.695 1.17487 -12.5
    endloop
  endfacet
  facet normal -0.91975 0.358613 -0.159555
    outer loop
      vertex 174.308 4.02189 -12.5
      vertex 172.167 0.655094 -7.72542
      vertex 174.717 5.07087 -12.5
    endloop
  endfacet
  facet normal 0.919763 -0.358615 0.159472
    outer loop
      vertex 214.484 -21.6506 12.5
      vertex 225.283 -5.07087 -12.5
      vertex 225.692 -4.02188 -12.5
    endloop
  endfacet
  facet normal 0.919804 -0.358454 0.159596
    outer loop
      vertex 225.283 -5.07087 -12.5
      vertex 214.484 -21.6506 12.5
      vertex 214.484 -23.7764 7.72542
    endloop
  endfacet
  facet normal 0.466414 -0.80809 0.359788
    outer loop
      vertex 214.484 -21.6506 12.5
      vertex 213.349 -24.4315 7.72542
      vertex 214.484 -23.7764 7.72542
    endloop
  endfacet
  facet normal 0.793608 -0.595093 -0.126692
    outer loop
      vertex 218.867 -16.9148 -12.5
      vertex 214.484 -23.7764 -7.72542
      vertex 217.033 -19.3606 -12.5
    endloop
  endfacet
  facet normal 0.793712 -0.595002 -0.126468
    outer loop
      vertex 214.484 -23.7764 -7.72542
      vertex 218.867 -16.9148 -12.5
      vertex 214.484 -24.863 -2.61321
    endloop
  endfacet
  facet normal 0.820048 -0.565059 -0.0907199
    outer loop
      vertex 220.135 -15.0746 -12.5
      vertex 214.484 -24.863 -2.61321
      vertex 218.867 -16.9148 -12.5
    endloop
  endfacet
endsolid OpenSCAD_Model
