solid OpenSCAD_Model
  facet normal 0 0 -1
    outer loop
      vertex 107.217 -12.5 0
      vertex 107.217 12.5 0
      vertex 114.434 0 0
    endloop
  endfacet
  facet normal 0 0 -1
    outer loop
      vertex 92.7831 -12.5 0
      vertex 107.217 12.5 0
      vertex 107.217 -12.5 0
    endloop
  endfacet
  facet normal 0 0 -1
    outer loop
      vertex 92.7831 -12.5 0
      vertex 92.7831 12.5 0
      vertex 107.217 12.5 0
    endloop
  endfacet
  facet normal 0 -0 -1
    outer loop
      vertex 92.7831 12.5 0
      vertex 92.7831 -12.5 0
      vertex 85.5662 0 0
    endloop
  endfacet
  facet normal -0.446548 0.742061 0.49994
    outer loop
      vertex 96.3916 6.25 12.5
      vertex 92.7831 12.5 0
      vertex 95.7118 5.85756 12.4753
    endloop
  endfacet
  facet normal -0.8305 -0.520387 0.198662
    outer loop
      vertex 86.5965 -0.594831 5.32224
      vertex 86.3264 -0.438896 4.60156
      vertex 92.7831 -12.5 0
    endloop
  endfacet
  facet normal -0.739244 -0.573074 0.353701
    outer loop
      vertex 88.9811 -1.97158 9.11211
      vertex 88.5002 -1.69395 8.55684
      vertex 92.7831 -12.5 0
    endloop
  endfacet
  facet normal -0.865917 -0.499939 0.0157539
    outer loop
      vertex 85.5876 -0.0123329 0.784881
      vertex 85.5662 0 0
      vertex 92.7831 -12.5 0
    endloop
  endfacet
  facet normal -0.840544 -0.514588 0.169368
    outer loop
      vertex 86.3264 -0.438896 4.60156
      vertex 86.0961 -0.305897 3.86271
      vertex 92.7831 -12.5 0
    endloop
  endfacet
  facet normal -0.805846 -0.534621 0.254546
    outer loop
      vertex 87.2514 -0.97295 6.69783
      vertex 86.9053 -0.773083 6.02192
      vertex 92.7831 -12.5 0
    endloop
  endfacet
  facet normal 0.865915 0.109114 0.488145
    outer loop
      vertex 107.217 3.10862 12.1073
      vertex 107.217 2.34227 12.2786
      vertex 114.434 0 0
    endloop
  endfacet
  facet normal -0.338462 -0.804466 0.488138
    outer loop
      vertex 98.42 -7.42113 12.2786
      vertex 92.7831 -12.5 0
      vertex 99.0837 -7.80431 12.1073
    endloop
  endfacet
  facet normal 0.0181574 0.0314497 0.99934
    outer loop
      vertex 97.0713 6.64244 12.4753
      vertex 96.3916 6.25 12.5
      vertex 107.217 0 12.5
    endloop
  endfacet
  facet normal 0.124955 0.216431 0.968269
    outer loop
      vertex 99.0837 7.80431 12.1073
      vertex 98.42 7.42113 12.2786
      vertex 107.217 3.10862 12.1073
    endloop
  endfacet
  facet normal -0.365215 -0.789019 0.494031
    outer loop
      vertex 97.7483 -7.03333 12.4014
      vertex 92.7831 -12.5 0
      vertex 98.42 -7.42113 12.2786
    endloop
  endfacet
  facet normal -0.818896 -0.527086 0.227134
    outer loop
      vertex 86.9053 -0.773083 6.02192
      vertex 86.5965 -0.594831 5.32224
      vertex 92.7831 -12.5 0
    endloop
  endfacet
  facet normal -0.855711 0.505832 0.109058
    outer loop
      vertex 92.7831 12.5 0
      vertex 85.758 0.110704 2.34227
      vertex 85.9063 0.196355 3.10862
    endloop
  endfacet
  facet normal 0.865915 0.499944 0.0157331
    outer loop
      vertex 107.217 12.5 0
      vertex 107.217 12.4753 0.784881
      vertex 114.434 0 0
    endloop
  endfacet
  facet normal 0 0.999877 0.0156692
    outer loop
      vertex 107.217 12.5 0
      vertex 92.7831 12.5 0
      vertex 107.196 12.4877 0.784881
    endloop
  endfacet
  facet normal 0.865915 -0.330783 0.375199
    outer loop
      vertex 107.217 -7.9678 9.63142
      vertex 107.217 -8.55684 9.11211
      vertex 114.434 0 0
    endloop
  endfacet
  facet normal -0.0353999 -0.979438 0.198613
    outer loop
      vertex 106.187 -11.9052 5.32224
      vertex 92.7831 -12.5 0
      vertex 106.457 -12.0611 4.60156
    endloop
  endfacet
  facet normal -0.383847 0 0.923397
    outer loop
      vertex 92.4065 3.94922 11.6222
      vertex 93.0464 -4.31864 11.8882
      vertex 93.0464 4.31864 11.8882
    endloop
  endfacet
  facet normal -0.383847 0 0.923397
    outer loop
      vertex 93.0464 -4.31864 11.8882
      vertex 92.4065 3.94922 11.6222
      vertex 92.4065 -3.94922 11.6222
    endloop
  endfacet
  facet normal -0.69842 -0.596644 0.395255
    outer loop
      vertex 90.0286 -2.57634 10.1127
      vertex 89.4912 -2.2661 9.63142
      vertex 92.7831 -12.5 0
    endloop
  endfacet
  facet normal 0.356694 -0.617812 0.700769
    outer loop
      vertex 107.217 -7.9678 9.63142
      vertex 103.292 -10.2339 9.63142
      vertex 107.217 -8.55684 9.11211
    endloop
  endfacet
  facet normal 0.865914 -0.22708 0.445676
    outer loop
      vertex 107.217 -5.32224 11.3103
      vertex 107.217 -6.02192 10.9538
      vertex 114.434 0 0
    endloop
  endfacet
  facet normal -0.981786 0 0.18999
    outer loop
      vertex 85.758 -0.110704 2.34227
      vertex 85.9063 0.196355 3.10862
      vertex 85.758 0.110704 2.34227
    endloop
  endfacet
  facet normal -0.981786 0 0.18999
    outer loop
      vertex 85.9063 0.196355 3.10862
      vertex 85.758 -0.110704 2.34227
      vertex 85.9063 -0.196355 3.10862
    endloop
  endfacet
  facet normal -0.791204 -0.543075 0.281188
    outer loop
      vertex 87.6337 -1.19364 7.34731
      vertex 87.2514 -0.97295 6.69783
      vertex 92.7831 -12.5 0
    endloop
  endfacet
  facet normal -0.69842 0.596644 0.395255
    outer loop
      vertex 92.7831 12.5 0
      vertex 89.4912 2.2661 9.63142
      vertex 90.0286 2.57634 10.1127
    endloop
  endfacet
  facet normal 0.457415 0.792238 0.403895
    outer loop
      vertex 106.187 11.9052 5.32224
      vertex 105.878 11.7269 6.02192
      vertex 107.217 10.9538 6.02192
    endloop
  endfacet
  facet normal 0.865915 0.375199 0.330783
    outer loop
      vertex 107.217 9.63142 7.9678
      vertex 107.217 9.11211 8.55684
      vertex 114.434 0 0
    endloop
  endfacet
  facet normal 0.253552 -0.43915 0.861892
    outer loop
      vertex 107.217 -5.32224 11.3103
      vertex 101.607 -9.26096 10.9538
      vertex 107.217 -6.02192 10.9538
    endloop
  endfacet
  facet normal -0.286122 -0.834682 0.470575
    outer loop
      vertex 99.7368 -8.18136 11.8882
      vertex 92.7831 -12.5 0
      vertex 100.377 -8.55078 11.6222
    endloop
  endfacet
  facet normal -0.579664 0.665206 0.470628
    outer loop
      vertex 92.7831 12.5 0
      vertex 92.4065 3.94922 11.6222
      vertex 93.0464 4.31864 11.8882
    endloop
  endfacet
  facet normal -0.653487 -0.622585 0.430515
    outer loop
      vertex 91.1764 -3.23904 10.9538
      vertex 90.5911 -2.90108 10.5541
      vertex 92.7831 -12.5 0
    endloop
  endfacet
  facet normal -0.890096 0 0.455774
    outer loop
      vertex 86.9053 -0.773083 6.02192
      vertex 87.2514 0.97295 6.69783
      vertex 86.9053 0.773083 6.02192
    endloop
  endfacet
  facet normal -0.890096 0 0.455774
    outer loop
      vertex 87.2514 0.97295 6.69783
      vertex 86.9053 -0.773083 6.02192
      vertex 87.2514 -0.97295 6.69783
    endloop
  endfacet
  facet normal -0.936395 0 0.350947
    outer loop
      vertex 86.3264 -0.438896 4.60156
      vertex 86.5965 0.594831 5.32224
      vertex 86.3264 0.438896 4.60156
    endloop
  endfacet
  facet normal -0.936395 0 0.350947
    outer loop
      vertex 86.5965 0.594831 5.32224
      vertex 86.3264 -0.438896 4.60156
      vertex 86.5965 -0.594831 5.32224
    endloop
  endfacet
  facet normal -0.500693 0.7108 0.494033
    outer loop
      vertex 95.0348 5.46667 12.4014
      vertex 92.7831 12.5 0
      vertex 94.3631 5.07887 12.2786
    endloop
  endfacet
  facet normal 0.865915 -0.139559 0.480328
    outer loop
      vertex 107.217 -3.10862 12.1073
      vertex 107.217 -3.86271 11.8882
      vertex 114.434 0 0
    endloop
  endfacet
  facet normal 0.253538 -0.439131 0.861906
    outer loop
      vertex 107.217 -5.32224 11.3103
      vertex 101.001 -8.91112 11.3103
      vertex 101.607 -9.26096 10.9538
    endloop
  endfacet
  facet normal 0.865914 -0.445676 0.22708
    outer loop
      vertex 107.217 -10.9538 6.02192
      vertex 107.217 -11.3103 5.32224
      vertex 114.434 0 0
    endloop
  endfacet
  facet normal -0.107973 -0.937538 0.330703
    outer loop
      vertex 104.283 -10.8061 8.55684
      vertex 92.7831 -12.5 0
      vertex 104.733 -11.0657 7.9678
    endloop
  endfacet
  facet normal -0.999629 0 0.0272552
    outer loop
      vertex 85.5876 0.0123329 0.784881
      vertex 85.5662 0 0
      vertex 85.5876 -0.0123329 0.784881
    endloop
  endfacet
  facet normal -0.86421 0.500924 0.0470725
    outer loop
      vertex 92.7831 12.5 0
      vertex 85.5876 0.0123329 0.784881
      vertex 85.6516 0.049283 1.56666
    endloop
  endfacet
  facet normal -0.855711 -0.505832 0.109058
    outer loop
      vertex 85.9063 -0.196355 3.10862
      vertex 85.758 -0.110704 2.34227
      vertex 92.7831 -12.5 0
    endloop
  endfacet
  facet normal -0.848915 -0.509755 0.139618
    outer loop
      vertex 86.0961 -0.305897 3.86271
      vertex 85.9063 -0.196355 3.10862
      vertex 92.7831 -12.5 0
    endloop
  endfacet
  facet normal -0.840544 0.514588 0.169368
    outer loop
      vertex 92.7831 12.5 0
      vertex 86.0961 0.305897 3.86271
      vertex 86.3264 0.438896 4.60156
    endloop
  endfacet
  facet normal -0.914861 0 0.403769
    outer loop
      vertex 86.5965 -0.594831 5.32224
      vertex 86.9053 0.773083 6.02192
      vertex 86.5965 0.594831 5.32224
    endloop
  endfacet
  facet normal -0.914861 0 0.403769
    outer loop
      vertex 86.9053 0.773083 6.02192
      vertex 86.5965 -0.594831 5.32224
      vertex 86.9053 -0.773083 6.02192
    endloop
  endfacet
  facet normal -0.805846 0.534621 0.254546
    outer loop
      vertex 92.7831 12.5 0
      vertex 86.9053 0.773083 6.02192
      vertex 87.2514 0.97295 6.69783
    endloop
  endfacet
  facet normal -0.146495 0.915297 0.375195
    outer loop
      vertex 103.802 10.5284 9.11211
      vertex 92.7831 12.5 0
      vertex 103.292 10.2339 9.63142
    endloop
  endfacet
  facet normal 0.124956 0.216434 0.968268
    outer loop
      vertex 107.217 3.10862 12.1073
      vertex 98.42 7.42113 12.2786
      vertex 107.217 2.34227 12.2786
    endloop
  endfacet
  facet normal 0.397407 0.688261 0.60693
    outer loop
      vertex 104.733 11.0657 7.9678
      vertex 104.283 10.8061 8.55684
      vertex 107.217 9.63142 7.9678
    endloop
  endfacet
  facet normal 0.865915 0.306562 0.395235
    outer loop
      vertex 107.217 7.9678 9.63142
      vertex 107.217 7.34731 10.1127
      vertex 114.434 0 0
    endloop
  endfacet
  facet normal 0.865915 -0.0157331 0.499944
    outer loop
      vertex 107.217 0 12.5
      vertex 107.217 -0.784881 12.4753
      vertex 114.434 0 0
    endloop
  endfacet
  facet normal 0.865915 -0.0782195 0.494038
    outer loop
      vertex 107.217 -1.56666 12.4014
      vertex 107.217 -2.34227 12.2786
      vertex 114.434 0 0
    endloop
  endfacet
  facet normal -0.605026 0.650564 0.459033
    outer loop
      vertex 92.7831 12.5 0
      vertex 91.7824 3.58888 11.3103
      vertex 92.4065 3.94922 11.6222
    endloop
  endfacet
  facet normal -0.861788 0 0.507269
    outer loop
      vertex 87.2514 -0.97295 6.69783
      vertex 87.6337 1.19364 7.34731
      vertex 87.2514 0.97295 6.69783
    endloop
  endfacet
  facet normal -0.861788 0 0.507269
    outer loop
      vertex 87.6337 1.19364 7.34731
      vertex 87.2514 -0.97295 6.69783
      vertex 87.6337 -1.19364 7.34731
    endloop
  endfacet
  facet normal -0.713405 0 0.700752
    outer loop
      vertex 88.9811 -1.97158 9.11211
      vertex 89.4912 2.2661 9.63142
      vertex 88.9811 1.97158 9.11211
    endloop
  endfacet
  facet normal -0.713405 0 0.700752
    outer loop
      vertex 89.4912 2.2661 9.63142
      vertex 88.9811 -1.97158 9.11211
      vertex 89.4912 -2.2661 9.63142
    endloop
  endfacet
  facet normal -0.848915 0.509755 0.139618
    outer loop
      vertex 92.7831 12.5 0
      vertex 85.9063 0.196355 3.10862
      vertex 86.0961 0.305897 3.86271
    endloop
  endfacet
  facet normal -0.446548 -0.742061 0.49994
    outer loop
      vertex 95.7118 -5.85756 12.4753
      vertex 92.7831 -12.5 0
      vertex 96.3916 -6.25 12.5
    endloop
  endfacet
  facet normal 0.191895 -0.332359 0.923425
    outer loop
      vertex 107.217 -4.60156 11.6222
      vertex 99.7368 -8.18136 11.8882
      vertex 100.377 -8.55078 11.6222
    endloop
  endfacet
  facet normal -0.312091 -0.819691 0.480319
    outer loop
      vertex 99.0837 -7.80431 12.1073
      vertex 92.7831 -12.5 0
      vertex 99.7368 -8.18136 11.8882
    endloop
  endfacet
  facet normal 0.377914 -0.654596 0.654741
    outer loop
      vertex 107.217 -8.55684 9.11211
      vertex 103.802 -10.5284 9.11211
      vertex 104.283 -10.8061 8.55684
    endloop
  endfacet
  facet normal -0.146495 -0.915297 0.375195
    outer loop
      vertex 103.292 -10.2339 9.63142
      vertex 92.7831 -12.5 0
      vertex 103.802 -10.5284 9.11211
    endloop
  endfacet
  facet normal 0.282006 -0.488465 0.825757
    outer loop
      vertex 107.217 -6.69783 10.5541
      vertex 101.607 -9.26096 10.9538
      vertex 102.192 -9.59892 10.5541
    endloop
  endfacet
  facet normal 0.308603 -0.534471 0.786832
    outer loop
      vertex 107.217 -7.34731 10.1127
      vertex 102.192 -9.59892 10.5541
      vertex 102.755 -9.92366 10.1127
    endloop
  endfacet
  facet normal 0.457585 -0.792255 0.403669
    outer loop
      vertex 107.217 -10.9538 6.02192
      vertex 106.187 -11.9052 5.32224
      vertex 107.217 -11.3103 5.32224
    endloop
  endfacet
  facet normal -0.0253977 -0.985213 0.169442
    outer loop
      vertex 106.457 -12.0611 4.60156
      vertex 92.7831 -12.5 0
      vertex 106.687 -12.1941 3.86271
    endloop
  endfacet
  facet normal 0.865915 -0.480328 0.139559
    outer loop
      vertex 107.217 -11.8882 3.86271
      vertex 107.217 -12.1073 3.10862
      vertex 114.434 0 0
    endloop
  endfacet
  facet normal -0.00511447 -0.996923 0.0782144
    outer loop
      vertex 107.025 -12.3893 2.34227
      vertex 92.7831 -12.5 0
      vertex 107.132 -12.4507 1.56666
    endloop
  endfacet
  facet normal -0.86421 -0.500924 0.0470725
    outer loop
      vertex 85.6516 -0.049283 1.56666
      vertex 85.5876 -0.0123329 0.784881
      vertex 92.7831 -12.5 0
    endloop
  endfacet
  facet normal -0.860798 -0.502894 0.0782618
    outer loop
      vertex 85.758 -0.110704 2.34227
      vertex 85.6516 -0.049283 1.56666
      vertex 92.7831 -12.5 0
    endloop
  endfacet
  facet normal -0.860798 0.502894 0.0782618
    outer loop
      vertex 92.7831 12.5 0
      vertex 85.6516 0.049283 1.56666
      vertex 85.758 0.110704 2.34227
    endloop
  endfacet
  facet normal -0.865917 0.499939 0.0157539
    outer loop
      vertex 92.7831 12.5 0
      vertex 85.5662 0 0
      vertex 85.5876 0.0123329 0.784881
    endloop
  endfacet
  facet normal -0.8305 0.520387 0.198662
    outer loop
      vertex 92.7831 12.5 0
      vertex 86.3264 0.438896 4.60156
      vertex 86.5965 0.594831 5.32224
    endloop
  endfacet
  facet normal 0.15903 0.275453 0.948069
    outer loop
      vertex 99.7368 8.18136 11.8882
      vertex 99.0837 7.80431 12.1073
      vertex 107.217 3.10862 12.1073
    endloop
  endfacet
  facet normal 0.0899194 0.155748 0.983696
    outer loop
      vertex 98.42 7.42113 12.2786
      vertex 97.7483 7.03333 12.4014
      vertex 107.217 2.34227 12.2786
    endloop
  endfacet
  facet normal 0.865914 0.22708 0.445676
    outer loop
      vertex 107.217 6.02192 10.9538
      vertex 107.217 5.32224 11.3103
      vertex 114.434 0 0
    endloop
  endfacet
  facet normal 0.223517 0.387136 0.89452
    outer loop
      vertex 107.217 5.32224 11.3103
      vertex 101.001 8.91112 11.3103
      vertex 107.217 4.60156 11.6222
    endloop
  endfacet
  facet normal 0.865915 0.459046 0.198668
    outer loop
      vertex 107.217 11.6222 4.60156
      vertex 107.217 11.3103 5.32224
      vertex 114.434 0 0
    endloop
  endfacet
  facet normal -0.0601305 0.965158 0.254664
    outer loop
      vertex 105.878 11.7269 6.02192
      vertex 92.7831 12.5 0
      vertex 105.532 11.527 6.69783
    endloop
  endfacet
  facet normal 0.865914 0.0470723 0.497973
    outer loop
      vertex 107.217 1.56666 12.4014
      vertex 107.217 0.784881 12.4753
      vertex 114.434 0 0
    endloop
  endfacet
  facet normal 0.0542548 0.0939731 0.994095
    outer loop
      vertex 97.7483 7.03333 12.4014
      vertex 97.0713 6.64244 12.4753
      vertex 107.217 0.784881 12.4753
    endloop
  endfacet
  facet normal -0.392211 -0.773432 0.497969
    outer loop
      vertex 97.0713 -6.64244 12.4753
      vertex 92.7831 -12.5 0
      vertex 97.7483 -7.03333 12.4014
    endloop
  endfacet
  facet normal -0.473746 0.726359 0.497964
    outer loop
      vertex 95.7118 5.85756 12.4753
      vertex 92.7831 12.5 0
      vertex 95.0348 5.46667 12.4014
    endloop
  endfacet
  facet normal -0.527445 0.695356 0.488141
    outer loop
      vertex 94.3631 5.07887 12.2786
      vertex 92.7831 12.5 0
      vertex 93.6994 4.69569 12.1073
    endloop
  endfacet
  facet normal -0.553858 0.680105 0.48031
    outer loop
      vertex 93.6994 4.69569 12.1073
      vertex 92.7831 12.5 0
      vertex 93.0464 4.31864 11.8882
    endloop
  endfacet
  facet normal -0.676423 -0.609342 0.413707
    outer loop
      vertex 90.5911 -2.90108 10.5541
      vertex 90.0286 -2.57634 10.1127
      vertex 92.7831 -12.5 0
    endloop
  endfacet
  facet normal -0.629577 -0.636389 0.445693
    outer loop
      vertex 91.7824 -3.58888 11.3103
      vertex 91.1764 -3.23904 10.9538
      vertex 92.7831 -12.5 0
    endloop
  endfacet
  facet normal -0.579664 -0.665206 0.470628
    outer loop
      vertex 93.0464 -4.31864 11.8882
      vertex 92.4065 -3.94922 11.6222
      vertex 92.7831 -12.5 0
    endloop
  endfacet
  facet normal -0.719436 0.58451 0.375179
    outer loop
      vertex 92.7831 12.5 0
      vertex 88.9811 1.97158 9.11211
      vertex 89.4912 2.2661 9.63142
    endloop
  endfacet
  facet normal -0.755914 0 0.654671
    outer loop
      vertex 88.5002 -1.69395 8.55684
      vertex 88.9811 1.97158 9.11211
      vertex 88.5002 1.69395 8.55684
    endloop
  endfacet
  facet normal -0.755914 0 0.654671
    outer loop
      vertex 88.9811 1.97158 9.11211
      vertex 88.5002 -1.69395 8.55684
      vertex 88.9811 -1.97158 9.11211
    endloop
  endfacet
  facet normal -0.791204 0.543075 0.281188
    outer loop
      vertex 92.7831 12.5 0
      vertex 87.2514 0.97295 6.69783
      vertex 87.6337 1.19364 7.34731
    endloop
  endfacet
  facet normal 0.0899184 -0.155746 0.983696
    outer loop
      vertex 107.217 -1.56666 12.4014
      vertex 97.7483 -7.03333 12.4014
      vertex 107.217 -2.34227 12.2786
    endloop
  endfacet
  facet normal 0.0899194 -0.155748 0.983696
    outer loop
      vertex 107.217 -2.34227 12.2786
      vertex 97.7483 -7.03333 12.4014
      vertex 98.42 -7.42113 12.2786
    endloop
  endfacet
  facet normal 0.223536 -0.387161 0.894504
    outer loop
      vertex 107.217 -4.60156 11.6222
      vertex 100.377 -8.55078 11.6222
      vertex 101.001 -8.91112 11.3103
    endloop
  endfacet
  facet normal 0.124955 -0.216431 0.968269
    outer loop
      vertex 107.217 -3.10862 12.1073
      vertex 98.42 -7.42113 12.2786
      vertex 99.0837 -7.80431 12.1073
    endloop
  endfacet
  facet normal -0.26094 -0.849219 0.459061
    outer loop
      vertex 100.377 -8.55078 11.6222
      vertex 92.7831 -12.5 0
      vertex 101.001 -8.91112 11.3103
    endloop
  endfacet
  facet normal -0.236288 -0.863452 0.445666
    outer loop
      vertex 101.001 -8.91112 11.3103
      vertex 92.7831 -12.5 0
      vertex 101.607 -9.26096 10.9538
    endloop
  endfacet
  facet normal -0.167518 -0.903158 0.395276
    outer loop
      vertex 102.755 -9.92366 10.1127
      vertex 92.7831 -12.5 0
      vertex 103.292 -10.2339 9.63142
    endloop
  endfacet
  facet normal 0.333664 -0.577875 0.744801
    outer loop
      vertex 107.217 -7.34731 10.1127
      vertex 102.755 -9.92366 10.1127
      vertex 103.292 -10.2339 9.63142
    endloop
  endfacet
  facet normal -0.126695 -0.926729 0.353724
    outer loop
      vertex 103.802 -10.5284 9.11211
      vertex 92.7831 -12.5 0
      vertex 104.283 -10.8061 8.55684
    endloop
  endfacet
  facet normal 0.356711 -0.61787 0.700709
    outer loop
      vertex 107.217 -8.55684 9.11211
      vertex 103.292 -10.2339 9.63142
      vertex 103.802 -10.5284 9.11211
    endloop
  endfacet
  facet normal 0.223517 -0.387136 0.89452
    outer loop
      vertex 107.217 -4.60156 11.6222
      vertex 101.001 -8.91112 11.3103
      vertex 107.217 -5.32224 11.3103
    endloop
  endfacet
  facet normal 0.865915 -0.198668 0.459046
    outer loop
      vertex 107.217 -4.60156 11.6222
      vertex 107.217 -5.32224 11.3103
      vertex 114.434 0 0
    endloop
  endfacet
  facet normal -0.047016 -0.972732 0.227118
    outer loop
      vertex 105.878 -11.7269 6.02192
      vertex 92.7831 -12.5 0
      vertex 106.187 -11.9052 5.32224
    endloop
  endfacet
  facet normal 0.865915 -0.413695 0.281155
    outer loop
      vertex 107.217 -10.1127 7.34731
      vertex 107.217 -10.5541 6.69783
      vertex 114.434 0 0
    endloop
  endfacet
  facet normal -0.0746004 -0.956806 0.280993
    outer loop
      vertex 105.149 -11.3064 7.34731
      vertex 92.7831 -12.5 0
      vertex 105.532 -11.527 6.69783
    endloop
  endfacet
  facet normal 0.865915 -0.395235 0.306562
    outer loop
      vertex 107.217 -9.63142 7.9678
      vertex 107.217 -10.1127 7.34731
      vertex 114.434 0 0
    endloop
  endfacet
  facet normal 0.477262 -0.8269 0.297419
    outer loop
      vertex 107.217 -11.8882 3.86271
      vertex 106.457 -12.0611 4.60156
      vertex 106.687 -12.1941 3.86271
    endloop
  endfacet
  facet normal -0.00171437 -0.998887 0.0471349
    outer loop
      vertex 107.132 -12.4507 1.56666
      vertex 92.7831 -12.5 0
      vertex 107.196 -12.4877 0.784881
    endloop
  endfacet
  facet normal 0 -0.999877 0.0156692
    outer loop
      vertex 107.196 -12.4877 0.784881
      vertex 92.7831 -12.5 0
      vertex 107.217 -12.5 0
    endloop
  endfacet
  facet normal 0.506737 -0.858183 0.0820998
    outer loop
      vertex 107.217 -12.4753 0.784881
      vertex 107.132 -12.4507 1.56666
      vertex 107.196 -12.4877 0.784881
    endloop
  endfacet
  facet normal -0.996666 0 0.0815916
    outer loop
      vertex 85.5876 -0.0123329 0.784881
      vertex 85.6516 0.049283 1.56666
      vertex 85.5876 0.0123329 0.784881
    endloop
  endfacet
  facet normal -0.996666 0 0.0815916
    outer loop
      vertex 85.6516 0.049283 1.56666
      vertex 85.5876 -0.0123329 0.784881
      vertex 85.6516 -0.049283 1.56666
    endloop
  endfacet
  facet normal -0.990721 0 0.135909
    outer loop
      vertex 85.6516 -0.049283 1.56666
      vertex 85.758 0.110704 2.34227
      vertex 85.6516 0.049283 1.56666
    endloop
  endfacet
  facet normal -0.990721 0 0.135909
    outer loop
      vertex 85.758 0.110704 2.34227
      vertex 85.6516 -0.049283 1.56666
      vertex 85.758 -0.110704 2.34227
    endloop
  endfacet
  facet normal -0.954697 0 0.29758
    outer loop
      vertex 86.0961 -0.305897 3.86271
      vertex 86.3264 0.438896 4.60156
      vertex 86.0961 0.305897 3.86271
    endloop
  endfacet
  facet normal -0.954697 0 0.29758
    outer loop
      vertex 86.3264 0.438896 4.60156
      vertex 86.0961 -0.305897 3.86271
      vertex 86.3264 -0.438896 4.60156
    endloop
  endfacet
  facet normal -0.818896 0.527086 0.227134
    outer loop
      vertex 92.7831 12.5 0
      vertex 86.5965 0.594831 5.32224
      vertex 86.9053 0.773083 6.02192
    endloop
  endfacet
  facet normal 0.191895 0.332359 0.923425
    outer loop
      vertex 100.377 8.55078 11.6222
      vertex 99.7368 8.18136 11.8882
      vertex 107.217 4.60156 11.6222
    endloop
  endfacet
  facet normal -0.338462 0.804466 0.488138
    outer loop
      vertex 99.0837 7.80431 12.1073
      vertex 92.7831 12.5 0
      vertex 98.42 7.42113 12.2786
    endloop
  endfacet
  facet normal 0.356711 0.61787 0.700709
    outer loop
      vertex 103.802 10.5284 9.11211
      vertex 103.292 10.2339 9.63142
      vertex 107.217 8.55684 9.11211
    endloop
  endfacet
  facet normal 0.308603 0.534471 0.786832
    outer loop
      vertex 102.755 9.92366 10.1127
      vertex 102.192 9.59892 10.5541
      vertex 107.217 7.34731 10.1127
    endloop
  endfacet
  facet normal 0.282006 0.488465 0.825757
    outer loop
      vertex 102.192 9.59892 10.5541
      vertex 101.607 9.26096 10.9538
      vertex 107.217 6.69783 10.5541
    endloop
  endfacet
  facet normal -0.212544 0.877163 0.430593
    outer loop
      vertex 102.192 9.59892 10.5541
      vertex 92.7831 12.5 0
      vertex 101.607 9.26096 10.9538
    endloop
  endfacet
  facet normal 0.865915 0.169433 0.470621
    outer loop
      vertex 107.217 4.60156 11.6222
      vertex 107.217 3.86271 11.8882
      vertex 114.434 0 0
    endloop
  endfacet
  facet normal 0.191931 0.332438 0.923389
    outer loop
      vertex 107.217 4.60156 11.6222
      vertex 99.7368 8.18136 11.8882
      vertex 107.217 3.86271 11.8882
    endloop
  endfacet
  facet normal 0.865915 0.488145 0.109114
    outer loop
      vertex 107.217 12.2786 2.34227
      vertex 107.217 12.1073 3.10862
      vertex 114.434 0 0
    endloop
  endfacet
  facet normal 0.494855 0.858285 0.13589
    outer loop
      vertex 107.217 12.4014 1.56666
      vertex 107.025 12.3893 2.34227
      vertex 107.217 12.2786 2.34227
    endloop
  endfacet
  facet normal 0.377973 0.654651 0.654651
    outer loop
      vertex 107.217 9.11211 8.55684
      vertex 104.283 10.8061 8.55684
      vertex 107.217 8.55684 9.11211
    endloop
  endfacet
  facet normal 0.4151 0.719131 0.557263
    outer loop
      vertex 105.149 11.3064 7.34731
      vertex 104.733 11.0657 7.9678
      vertex 107.217 10.1127 7.34731
    endloop
  endfacet
  facet normal 0.0899184 0.155746 0.983696
    outer loop
      vertex 107.217 2.34227 12.2786
      vertex 97.7483 7.03333 12.4014
      vertex 107.217 1.56666 12.4014
    endloop
  endfacet
  facet normal 0.865915 0.0782195 0.494038
    outer loop
      vertex 107.217 2.34227 12.2786
      vertex 107.217 1.56666 12.4014
      vertex 114.434 0 0
    endloop
  endfacet
  facet normal -0.365215 0.789019 0.494031
    outer loop
      vertex 98.42 7.42113 12.2786
      vertex 92.7831 12.5 0
      vertex 97.7483 7.03333 12.4014
    endloop
  endfacet
  facet normal 0.0542527 0.0939699 0.994096
    outer loop
      vertex 107.217 1.56666 12.4014
      vertex 97.7483 7.03333 12.4014
      vertex 107.217 0.784881 12.4753
    endloop
  endfacet
  facet normal -0.179839 0 0.983696
    outer loop
      vertex 94.3631 5.07887 12.2786
      vertex 95.0348 -5.46667 12.4014
      vertex 95.0348 5.46667 12.4014
    endloop
  endfacet
  facet normal -0.179839 0 0.983696
    outer loop
      vertex 95.0348 -5.46667 12.4014
      vertex 94.3631 5.07887 12.2786
      vertex 94.3631 -5.07887 12.2786
    endloop
  endfacet
  facet normal -0.473746 -0.726359 0.497964
    outer loop
      vertex 95.0348 -5.46667 12.4014
      vertex 92.7831 -12.5 0
      vertex 95.7118 -5.85756 12.4753
    endloop
  endfacet
  facet normal -0.0363103 0 0.999341
    outer loop
      vertex 95.7118 5.85756 12.4753
      vertex 96.3916 -6.25 12.5
      vertex 96.3916 6.25 12.5
    endloop
  endfacet
  facet normal -0.0363103 0 0.999341
    outer loop
      vertex 96.3916 -6.25 12.5
      vertex 95.7118 5.85756 12.4753
      vertex 95.7118 -5.85756 12.4753
    endloop
  endfacet
  facet normal -0.419346 -0.757766 0.49994
    outer loop
      vertex 96.3916 -6.25 12.5
      vertex 92.7831 -12.5 0
      vertex 97.0713 -6.64244 12.4753
    endloop
  endfacet
  facet normal -0.249909 0 0.968269
    outer loop
      vertex 93.6994 4.69569 12.1073
      vertex 94.3631 -5.07887 12.2786
      vertex 94.3631 5.07887 12.2786
    endloop
  endfacet
  facet normal -0.249909 0 0.968269
    outer loop
      vertex 94.3631 -5.07887 12.2786
      vertex 93.6994 4.69569 12.1073
      vertex 93.6994 -4.69569 12.1073
    endloop
  endfacet
  facet normal -0.629577 0.636389 0.445693
    outer loop
      vertex 92.7831 12.5 0
      vertex 91.1764 3.23904 10.9538
      vertex 91.7824 3.58888 11.3103
    endloop
  endfacet
  facet normal -0.563945 0 0.825812
    outer loop
      vertex 90.5911 2.90108 10.5541
      vertex 91.1764 -3.23904 10.9538
      vertex 91.1764 3.23904 10.9538
    endloop
  endfacet
  facet normal -0.563945 0 0.825812
    outer loop
      vertex 91.1764 -3.23904 10.9538
      vertex 90.5911 2.90108 10.5541
      vertex 90.5911 -2.90108 10.5541
    endloop
  endfacet
  facet normal -0.653487 0.622585 0.430515
    outer loop
      vertex 92.7831 12.5 0
      vertex 90.5911 2.90108 10.5541
      vertex 91.1764 3.23904 10.9538
    endloop
  endfacet
  facet normal -0.676423 0.609342 0.413707
    outer loop
      vertex 92.7831 12.5 0
      vertex 90.0286 2.57634 10.1127
      vertex 90.5911 2.90108 10.5541
    endloop
  endfacet
  facet normal -0.507051 0 0.861916
    outer loop
      vertex 91.1764 3.23904 10.9538
      vertex 91.7824 -3.58888 11.3103
      vertex 91.7824 3.58888 11.3103
    endloop
  endfacet
  facet normal -0.507051 0 0.861916
    outer loop
      vertex 91.7824 -3.58888 11.3103
      vertex 91.1764 3.23904 10.9538
      vertex 91.1764 -3.23904 10.9538
    endloop
  endfacet
  facet normal -0.739244 0.573074 0.353701
    outer loop
      vertex 92.7831 12.5 0
      vertex 88.5002 1.69395 8.55684
      vertex 88.9811 1.97158 9.11211
    endloop
  endfacet
  facet normal -0.794841 0 0.606818
    outer loop
      vertex 88.0505 -1.43429 7.9678
      vertex 88.5002 1.69395 8.55684
      vertex 88.0505 1.43429 7.9678
    endloop
  endfacet
  facet normal -0.794841 0 0.606818
    outer loop
      vertex 88.5002 1.69395 8.55684
      vertex 88.0505 -1.43429 7.9678
      vertex 88.5002 -1.69395 8.55684
    endloop
  endfacet
  facet normal 0.0542527 -0.0939699 0.994096
    outer loop
      vertex 107.217 -0.784881 12.4753
      vertex 97.7483 -7.03333 12.4014
      vertex 107.217 -1.56666 12.4014
    endloop
  endfacet
  facet normal 0.865914 -0.0470723 0.497973
    outer loop
      vertex 107.217 -0.784881 12.4753
      vertex 107.217 -1.56666 12.4014
      vertex 114.434 0 0
    endloop
  endfacet
  facet normal 0.124956 -0.216434 0.968268
    outer loop
      vertex 107.217 -2.34227 12.2786
      vertex 98.42 -7.42113 12.2786
      vertex 107.217 -3.10862 12.1073
    endloop
  endfacet
  facet normal 0.865915 -0.109114 0.488145
    outer loop
      vertex 107.217 -2.34227 12.2786
      vertex 107.217 -3.10862 12.1073
      vertex 114.434 0 0
    endloop
  endfacet
  facet normal 0.159035 -0.27546 0.948066
    outer loop
      vertex 107.217 -3.10862 12.1073
      vertex 99.7368 -8.18136 11.8882
      vertex 107.217 -3.86271 11.8882
    endloop
  endfacet
  facet normal 0.15903 -0.275453 0.948069
    outer loop
      vertex 107.217 -3.10862 12.1073
      vertex 99.0837 -7.80431 12.1073
      vertex 99.7368 -8.18136 11.8882
    endloop
  endfacet
  facet normal 0.865915 -0.281155 0.413695
    outer loop
      vertex 107.217 -6.69783 10.5541
      vertex 107.217 -7.34731 10.1127
      vertex 114.434 0 0
    endloop
  endfacet
  facet normal 0.308669 -0.534648 0.786686
    outer loop
      vertex 107.217 -6.69783 10.5541
      vertex 102.192 -9.59892 10.5541
      vertex 107.217 -7.34731 10.1127
    endloop
  endfacet
  facet normal 0.191931 -0.332438 0.923389
    outer loop
      vertex 107.217 -3.86271 11.8882
      vertex 99.7368 -8.18136 11.8882
      vertex 107.217 -4.60156 11.6222
    endloop
  endfacet
  facet normal 0.865915 -0.169433 0.470621
    outer loop
      vertex 107.217 -3.86271 11.8882
      vertex 107.217 -4.60156 11.6222
      vertex 114.434 0 0
    endloop
  endfacet
  facet normal 0.397418 -0.68833 0.606846
    outer loop
      vertex 107.217 -9.11211 8.55684
      vertex 104.283 -10.8061 8.55684
      vertex 107.217 -9.63142 7.9678
    endloop
  endfacet
  facet normal 0.865915 -0.375199 0.330783
    outer loop
      vertex 107.217 -9.11211 8.55684
      vertex 107.217 -9.63142 7.9678
      vertex 114.434 0 0
    endloop
  endfacet
  facet normal -0.0601305 -0.965158 0.254664
    outer loop
      vertex 105.532 -11.527 6.69783
      vertex 92.7831 -12.5 0
      vertex 105.878 -11.7269 6.02192
    endloop
  endfacet
  facet normal -0.0907682 -0.947472 0.306688
    outer loop
      vertex 104.733 -11.0657 7.9678
      vertex 92.7831 -12.5 0
      vertex 105.149 -11.3064 7.34731
    endloop
  endfacet
  facet normal 0.865915 -0.459046 0.198668
    outer loop
      vertex 107.217 -11.3103 5.32224
      vertex 107.217 -11.6222 4.60156
      vertex 114.434 0 0
    endloop
  endfacet
  facet normal 0.457415 -0.792238 0.403895
    outer loop
      vertex 107.217 -10.9538 6.02192
      vertex 105.878 -11.7269 6.02192
      vertex 106.187 -11.9052 5.32224
    endloop
  endfacet
  facet normal 0.468336 -0.810869 0.350932
    outer loop
      vertex 107.217 -11.3103 5.32224
      vertex 106.187 -11.9052 5.32224
      vertex 107.217 -11.6222 4.60156
    endloop
  endfacet
  facet normal 0.468304 -0.810915 0.350868
    outer loop
      vertex 107.217 -11.6222 4.60156
      vertex 106.187 -11.9052 5.32224
      vertex 106.457 -12.0611 4.60156
    endloop
  endfacet
  facet normal 0.484874 -0.839823 0.244118
    outer loop
      vertex 107.217 -12.1073 3.10862
      vertex 106.687 -12.1941 3.86271
      vertex 106.877 -12.3036 3.10862
    endloop
  endfacet
  facet normal -0.0102299 -0.993969 0.109179
    outer loop
      vertex 106.877 -12.3036 3.10862
      vertex 92.7831 -12.5 0
      vertex 107.025 -12.3893 2.34227
    endloop
  endfacet
  facet normal 0.865914 -0.497973 0.0470723
    outer loop
      vertex 107.217 -12.4014 1.56666
      vertex 107.217 -12.4753 0.784881
      vertex 114.434 0 0
    endloop
  endfacet
  facet normal 0.500049 -0.862154 0.0814977
    outer loop
      vertex 107.217 -12.4014 1.56666
      vertex 107.132 -12.4507 1.56666
      vertex 107.217 -12.4753 0.784881
    endloop
  endfacet
  facet normal -0.969755 0 0.244082
    outer loop
      vertex 85.9063 -0.196355 3.10862
      vertex 86.0961 0.305897 3.86271
      vertex 85.9063 0.196355 3.10862
    endloop
  endfacet
  facet normal -0.969755 0 0.244082
    outer loop
      vertex 86.0961 0.305897 3.86271
      vertex 85.9063 -0.196355 3.10862
      vertex 86.0961 -0.305897 3.86271
    endloop
  endfacet
  facet normal 0.865915 0.353689 0.353689
    outer loop
      vertex 107.217 9.11211 8.55684
      vertex 107.217 8.55684 9.11211
      vertex 114.434 0 0
    endloop
  endfacet
  facet normal -0.107973 0.937538 0.330703
    outer loop
      vertex 104.733 11.0657 7.9678
      vertex 92.7831 12.5 0
      vertex 104.283 10.8061 8.55684
    endloop
  endfacet
  facet normal 0.865915 0.281155 0.413695
    outer loop
      vertex 107.217 7.34731 10.1127
      vertex 107.217 6.69783 10.5541
      vertex 114.434 0 0
    endloop
  endfacet
  facet normal 0.308669 0.534648 0.786686
    outer loop
      vertex 107.217 7.34731 10.1127
      vertex 102.192 9.59892 10.5541
      vertex 107.217 6.69783 10.5541
    endloop
  endfacet
  facet normal 0.333664 0.577875 0.744801
    outer loop
      vertex 103.292 10.2339 9.63142
      vertex 102.755 9.92366 10.1127
      vertex 107.217 7.34731 10.1127
    endloop
  endfacet
  facet normal 0.333584 0.577784 0.744908
    outer loop
      vertex 107.217 7.9678 9.63142
      vertex 103.292 10.2339 9.63142
      vertex 107.217 7.34731 10.1127
    endloop
  endfacet
  facet normal 0.253538 0.439131 0.861906
    outer loop
      vertex 101.607 9.26096 10.9538
      vertex 101.001 8.91112 11.3103
      vertex 107.217 5.32224 11.3103
    endloop
  endfacet
  facet normal 0.253552 0.43915 0.861892
    outer loop
      vertex 107.217 6.02192 10.9538
      vertex 101.607 9.26096 10.9538
      vertex 107.217 5.32224 11.3103
    endloop
  endfacet
  facet normal -0.236288 0.863452 0.445666
    outer loop
      vertex 101.607 9.26096 10.9538
      vertex 92.7831 12.5 0
      vertex 101.001 8.91112 11.3103
    endloop
  endfacet
  facet normal 0.865915 0.198668 0.459046
    outer loop
      vertex 107.217 5.32224 11.3103
      vertex 107.217 4.60156 11.6222
      vertex 114.434 0 0
    endloop
  endfacet
  facet normal -0.286122 0.834682 0.470575
    outer loop
      vertex 100.377 8.55078 11.6222
      vertex 92.7831 12.5 0
      vertex 99.7368 8.18136 11.8882
    endloop
  endfacet
  facet normal -0.312091 0.819691 0.480319
    outer loop
      vertex 99.7368 8.18136 11.8882
      vertex 92.7831 12.5 0
      vertex 99.0837 7.80431 12.1073
    endloop
  endfacet
  facet normal 0.484874 0.839823 0.244118
    outer loop
      vertex 106.877 12.3036 3.10862
      vertex 106.687 12.1941 3.86271
      vertex 107.217 12.1073 3.10862
    endloop
  endfacet
  facet normal 0.865915 0.494038 0.0782195
    outer loop
      vertex 107.217 12.4014 1.56666
      vertex 107.217 12.2786 2.34227
      vertex 114.434 0 0
    endloop
  endfacet
  facet normal 0.397418 0.68833 0.606846
    outer loop
      vertex 107.217 9.63142 7.9678
      vertex 104.283 10.8061 8.55684
      vertex 107.217 9.11211 8.55684
    endloop
  endfacet
  facet normal 0.468336 0.810869 0.350932
    outer loop
      vertex 107.217 11.6222 4.60156
      vertex 106.187 11.9052 5.32224
      vertex 107.217 11.3103 5.32224
    endloop
  endfacet
  facet normal -0.0253977 0.985213 0.169442
    outer loop
      vertex 106.687 12.1941 3.86271
      vertex 92.7831 12.5 0
      vertex 106.457 12.0611 4.60156
    endloop
  endfacet
  facet normal 0.865914 0.445676 0.22708
    outer loop
      vertex 107.217 11.3103 5.32224
      vertex 107.217 10.9538 6.02192
      vertex 114.434 0 0
    endloop
  endfacet
  facet normal -0.392211 0.773432 0.497969
    outer loop
      vertex 97.7483 7.03333 12.4014
      vertex 92.7831 12.5 0
      vertex 97.0713 6.64244 12.4753
    endloop
  endfacet
  facet normal -0.419346 0.757766 0.49994
    outer loop
      vertex 97.0713 6.64244 12.4753
      vertex 92.7831 12.5 0
      vertex 96.3916 6.25 12.5
    endloop
  endfacet
  facet normal -0.108513 0 0.994095
    outer loop
      vertex 95.0348 5.46667 12.4014
      vertex 95.7118 -5.85756 12.4753
      vertex 95.7118 5.85756 12.4753
    endloop
  endfacet
  facet normal -0.108513 0 0.994095
    outer loop
      vertex 95.7118 -5.85756 12.4753
      vertex 95.0348 5.46667 12.4014
      vertex 95.0348 -5.46667 12.4014
    endloop
  endfacet
  facet normal 0.0542548 -0.0939731 0.994095
    outer loop
      vertex 107.217 -0.784881 12.4753
      vertex 97.0713 -6.64244 12.4753
      vertex 97.7483 -7.03333 12.4014
    endloop
  endfacet
  facet normal 0 0 1
    outer loop
      vertex 96.3916 6.25 12.5
      vertex 96.3916 -6.25 12.5
      vertex 107.217 0 12.5
    endloop
  endfacet
  facet normal -0.553858 -0.680105 0.48031
    outer loop
      vertex 93.0464 -4.31864 11.8882
      vertex 92.7831 -12.5 0
      vertex 93.6994 -4.69569 12.1073
    endloop
  endfacet
  facet normal -0.3181 0 0.948057
    outer loop
      vertex 93.0464 4.31864 11.8882
      vertex 93.6994 -4.69569 12.1073
      vertex 93.6994 4.69569 12.1073
    endloop
  endfacet
  facet normal -0.3181 0 0.948057
    outer loop
      vertex 93.6994 -4.69569 12.1073
      vertex 93.0464 4.31864 11.8882
      vertex 93.0464 -4.31864 11.8882
    endloop
  endfacet
  facet normal -0.605026 -0.650564 0.459033
    outer loop
      vertex 92.4065 -3.94922 11.6222
      vertex 91.7824 -3.58888 11.3103
      vertex 92.7831 -12.5 0
    endloop
  endfacet
  facet normal -0.447042 0 0.894513
    outer loop
      vertex 91.7824 3.58888 11.3103
      vertex 92.4065 -3.94922 11.6222
      vertex 92.4065 3.94922 11.6222
    endloop
  endfacet
  facet normal -0.447042 0 0.894513
    outer loop
      vertex 92.4065 -3.94922 11.6222
      vertex 91.7824 3.58888 11.3103
      vertex 91.7824 -3.58888 11.3103
    endloop
  endfacet
  facet normal -0.66714 0 0.744932
    outer loop
      vertex 89.4912 2.2661 9.63142
      vertex 90.0286 -2.57634 10.1127
      vertex 90.0286 2.57634 10.1127
    endloop
  endfacet
  facet normal -0.66714 0 0.744932
    outer loop
      vertex 90.0286 -2.57634 10.1127
      vertex 89.4912 2.2661 9.63142
      vertex 89.4912 -2.2661 9.63142
    endloop
  endfacet
  facet normal -0.757908 0.562298 0.33075
    outer loop
      vertex 92.7831 12.5 0
      vertex 88.0505 1.43429 7.9678
      vertex 88.5002 1.69395 8.55684
    endloop
  endfacet
  facet normal -0.775243 0.552289 0.306553
    outer loop
      vertex 92.7831 12.5 0
      vertex 87.6337 1.19364 7.34731
      vertex 88.0505 1.43429 7.9678
    endloop
  endfacet
  facet normal -0.775243 -0.552289 0.306553
    outer loop
      vertex 88.0505 -1.43429 7.9678
      vertex 87.6337 -1.19364 7.34731
      vertex 92.7831 -12.5 0
    endloop
  endfacet
  facet normal -0.830106 0 0.557605
    outer loop
      vertex 87.6337 -1.19364 7.34731
      vertex 88.0505 1.43429 7.9678
      vertex 87.6337 1.19364 7.34731
    endloop
  endfacet
  facet normal -0.830106 0 0.557605
    outer loop
      vertex 88.0505 1.43429 7.9678
      vertex 87.6337 -1.19364 7.34731
      vertex 88.0505 -1.43429 7.9678
    endloop
  endfacet
  facet normal 0.281963 -0.488358 0.825835
    outer loop
      vertex 107.217 -6.02192 10.9538
      vertex 101.607 -9.26096 10.9538
      vertex 107.217 -6.69783 10.5541
    endloop
  endfacet
  facet normal 0.865915 -0.254603 0.430545
    outer loop
      vertex 107.217 -6.02192 10.9538
      vertex 107.217 -6.69783 10.5541
      vertex 114.434 0 0
    endloop
  endfacet
  facet normal -0.212544 -0.877163 0.430593
    outer loop
      vertex 101.607 -9.26096 10.9538
      vertex 92.7831 -12.5 0
      vertex 102.192 -9.59892 10.5541
    endloop
  endfacet
  facet normal -0.18938 -0.890536 0.413619
    outer loop
      vertex 102.192 -9.59892 10.5541
      vertex 92.7831 -12.5 0
      vertex 102.755 -9.92366 10.1127
    endloop
  endfacet
  facet normal 0.333584 -0.577784 0.744908
    outer loop
      vertex 107.217 -7.34731 10.1127
      vertex 103.292 -10.2339 9.63142
      vertex 107.217 -7.9678 9.63142
    endloop
  endfacet
  facet normal 0.865915 -0.306562 0.395235
    outer loop
      vertex 107.217 -7.34731 10.1127
      vertex 107.217 -7.9678 9.63142
      vertex 114.434 0 0
    endloop
  endfacet
  facet normal 0.377973 -0.654651 0.654651
    outer loop
      vertex 107.217 -8.55684 9.11211
      vertex 104.283 -10.8061 8.55684
      vertex 107.217 -9.11211 8.55684
    endloop
  endfacet
  facet normal 0.865915 -0.353689 0.353689
    outer loop
      vertex 107.217 -8.55684 9.11211
      vertex 107.217 -9.11211 8.55684
      vertex 114.434 0 0
    endloop
  endfacet
  facet normal 0.4151 -0.719131 0.557263
    outer loop
      vertex 107.217 -10.1127 7.34731
      vertex 104.733 -11.0657 7.9678
      vertex 105.149 -11.3064 7.34731
    endloop
  endfacet
  facet normal 0.397407 -0.688261 0.60693
    outer loop
      vertex 107.217 -9.63142 7.9678
      vertex 104.283 -10.8061 8.55684
      vertex 104.733 -11.0657 7.9678
    endloop
  endfacet
  facet normal 0.445054 -0.770828 0.455796
    outer loop
      vertex 107.217 -10.9538 6.02192
      vertex 105.532 -11.527 6.69783
      vertex 105.878 -11.7269 6.02192
    endloop
  endfacet
  facet normal 0.415087 -0.718881 0.557596
    outer loop
      vertex 107.217 -9.63142 7.9678
      vertex 104.733 -11.0657 7.9678
      vertex 107.217 -10.1127 7.34731
    endloop
  endfacet
  facet normal 0.477433 -0.826723 0.297636
    outer loop
      vertex 107.217 -11.6222 4.60156
      vertex 106.457 -12.0611 4.60156
      vertex 107.217 -11.8882 3.86271
    endloop
  endfacet
  facet normal 0.865915 -0.470621 0.169433
    outer loop
      vertex 107.217 -11.6222 4.60156
      vertex 107.217 -11.8882 3.86271
      vertex 114.434 0 0
    endloop
  endfacet
  facet normal -0.0169701 -0.990078 0.139492
    outer loop
      vertex 106.687 -12.1941 3.86271
      vertex 92.7831 -12.5 0
      vertex 106.877 -12.3036 3.10862
    endloop
  endfacet
  facet normal 0.865915 -0.488145 0.109114
    outer loop
      vertex 107.217 -12.1073 3.10862
      vertex 107.217 -12.2786 2.34227
      vertex 114.434 0 0
    endloop
  endfacet
  facet normal 0.497028 -0.856946 0.136407
    outer loop
      vertex 107.217 -12.4014 1.56666
      vertex 107.025 -12.3893 2.34227
      vertex 107.132 -12.4507 1.56666
    endloop
  endfacet
  facet normal 0.48477 -0.839908 0.244034
    outer loop
      vertex 107.217 -11.8882 3.86271
      vertex 106.687 -12.1941 3.86271
      vertex 107.217 -12.1073 3.10862
    endloop
  endfacet
  facet normal 0.490889 -0.85024 0.190052
    outer loop
      vertex 107.217 -12.1073 3.10862
      vertex 106.877 -12.3036 3.10862
      vertex 107.217 -12.2786 2.34227
    endloop
  endfacet
  facet normal 0.490406 -0.850569 0.189827
    outer loop
      vertex 107.217 -12.2786 2.34227
      vertex 106.877 -12.3036 3.10862
      vertex 107.025 -12.3893 2.34227
    endloop
  endfacet
  facet normal 0.508266 -0.860774 0.0270883
    outer loop
      vertex 107.217 -12.4753 0.784881
      vertex 107.196 -12.4877 0.784881
      vertex 107.217 -12.5 0
    endloop
  endfacet
  facet normal 0.865915 -0.499944 0.0157331
    outer loop
      vertex 107.217 -12.4753 0.784881
      vertex 107.217 -12.5 0
      vertex 114.434 0 0
    endloop
  endfacet
  facet normal 0.356694 0.617812 0.700769
    outer loop
      vertex 107.217 8.55684 9.11211
      vertex 103.292 10.2339 9.63142
      vertex 107.217 7.9678 9.63142
    endloop
  endfacet
  facet normal 0.865915 0.330783 0.375199
    outer loop
      vertex 107.217 8.55684 9.11211
      vertex 107.217 7.9678 9.63142
      vertex 114.434 0 0
    endloop
  endfacet
  facet normal 0.281963 0.488358 0.825835
    outer loop
      vertex 107.217 6.69783 10.5541
      vertex 101.607 9.26096 10.9538
      vertex 107.217 6.02192 10.9538
    endloop
  endfacet
  facet normal 0.865915 0.254603 0.430545
    outer loop
      vertex 107.217 6.69783 10.5541
      vertex 107.217 6.02192 10.9538
      vertex 114.434 0 0
    endloop
  endfacet
  facet normal -0.167518 0.903158 0.395276
    outer loop
      vertex 103.292 10.2339 9.63142
      vertex 92.7831 12.5 0
      vertex 102.755 9.92366 10.1127
    endloop
  endfacet
  facet normal -0.18938 0.890536 0.413619
    outer loop
      vertex 102.755 9.92366 10.1127
      vertex 92.7831 12.5 0
      vertex 102.192 9.59892 10.5541
    endloop
  endfacet
  facet normal -0.26094 0.849219 0.459061
    outer loop
      vertex 101.001 8.91112 11.3103
      vertex 92.7831 12.5 0
      vertex 100.377 8.55078 11.6222
    endloop
  endfacet
  facet normal 0.223536 0.387161 0.894504
    outer loop
      vertex 101.001 8.91112 11.3103
      vertex 100.377 8.55078 11.6222
      vertex 107.217 4.60156 11.6222
    endloop
  endfacet
  facet normal 0.159035 0.27546 0.948066
    outer loop
      vertex 107.217 3.86271 11.8882
      vertex 99.7368 8.18136 11.8882
      vertex 107.217 3.10862 12.1073
    endloop
  endfacet
  facet normal 0.865915 0.139559 0.480328
    outer loop
      vertex 107.217 3.86271 11.8882
      vertex 107.217 3.10862 12.1073
      vertex 114.434 0 0
    endloop
  endfacet
  facet normal 0.490889 0.85024 0.190052
    outer loop
      vertex 107.217 12.2786 2.34227
      vertex 106.877 12.3036 3.10862
      vertex 107.217 12.1073 3.10862
    endloop
  endfacet
  facet normal 0.865914 0.497973 0.0470723
    outer loop
      vertex 107.217 12.4753 0.784881
      vertex 107.217 12.4014 1.56666
      vertex 114.434 0 0
    endloop
  endfacet
  facet normal 0.506737 0.858183 0.0820998
    outer loop
      vertex 107.196 12.4877 0.784881
      vertex 107.132 12.4507 1.56666
      vertex 107.217 12.4753 0.784881
    endloop
  endfacet
  facet normal 0.457585 0.792255 0.403669
    outer loop
      vertex 107.217 11.3103 5.32224
      vertex 106.187 11.9052 5.32224
      vertex 107.217 10.9538 6.02192
    endloop
  endfacet
  facet normal 0.865915 0.430545 0.254603
    outer loop
      vertex 107.217 10.9538 6.02192
      vertex 107.217 10.5541 6.69783
      vertex 114.434 0 0
    endloop
  endfacet
  facet normal -0.0907682 0.947472 0.306688
    outer loop
      vertex 105.149 11.3064 7.34731
      vertex 92.7831 12.5 0
      vertex 104.733 11.0657 7.9678
    endloop
  endfacet
  facet normal 0.0181569 0.031449 0.99934
    outer loop
      vertex 107.217 0.784881 12.4753
      vertex 97.0713 6.64244 12.4753
      vertex 107.217 0 12.5
    endloop
  endfacet
  facet normal 0.865915 0.0157331 0.499944
    outer loop
      vertex 107.217 0.784881 12.4753
      vertex 107.217 0 12.5
      vertex 114.434 0 0
    endloop
  endfacet
  facet normal -0.527445 -0.695356 0.488141
    outer loop
      vertex 93.6994 -4.69569 12.1073
      vertex 92.7831 -12.5 0
      vertex 94.3631 -5.07887 12.2786
    endloop
  endfacet
  facet normal -0.500693 -0.7108 0.494033
    outer loop
      vertex 94.3631 -5.07887 12.2786
      vertex 92.7831 -12.5 0
      vertex 95.0348 -5.46667 12.4014
    endloop
  endfacet
  facet normal 0.0181569 -0.031449 0.99934
    outer loop
      vertex 107.217 0 12.5
      vertex 97.0713 -6.64244 12.4753
      vertex 107.217 -0.784881 12.4753
    endloop
  endfacet
  facet normal 0.0181574 -0.0314497 0.99934
    outer loop
      vertex 107.217 0 12.5
      vertex 96.3916 -6.25 12.5
      vertex 97.0713 -6.64244 12.4753
    endloop
  endfacet
  facet normal -0.757908 -0.562298 0.33075
    outer loop
      vertex 88.5002 -1.69395 8.55684
      vertex 88.0505 -1.43429 7.9678
      vertex 92.7831 -12.5 0
    endloop
  endfacet
  facet normal -0.719436 -0.58451 0.375179
    outer loop
      vertex 89.4912 -2.2661 9.63142
      vertex 88.9811 -1.97158 9.11211
      vertex 92.7831 -12.5 0
    endloop
  endfacet
  facet normal -0.617333 0 0.786702
    outer loop
      vertex 90.0286 2.57634 10.1127
      vertex 90.5911 -2.90108 10.5541
      vertex 90.5911 2.90108 10.5541
    endloop
  endfacet
  facet normal -0.617333 0 0.786702
    outer loop
      vertex 90.5911 -2.90108 10.5541
      vertex 90.0286 2.57634 10.1127
      vertex 90.0286 -2.57634 10.1127
    endloop
  endfacet
  facet normal 0.430828 -0.746378 0.507254
    outer loop
      vertex 107.217 -10.1127 7.34731
      vertex 105.149 -11.3064 7.34731
      vertex 107.217 -10.5541 6.69783
    endloop
  endfacet
  facet normal 0.430842 -0.746191 0.507517
    outer loop
      vertex 107.217 -10.5541 6.69783
      vertex 105.149 -11.3064 7.34731
      vertex 105.532 -11.527 6.69783
    endloop
  endfacet
  facet normal 0.494855 -0.858285 0.13589
    outer loop
      vertex 107.217 -12.2786 2.34227
      vertex 107.025 -12.3893 2.34227
      vertex 107.217 -12.4014 1.56666
    endloop
  endfacet
  facet normal 0.865915 -0.494038 0.0782195
    outer loop
      vertex 107.217 -12.2786 2.34227
      vertex 107.217 -12.4014 1.56666
      vertex 114.434 0 0
    endloop
  endfacet
  facet normal -0.00511447 0.996923 0.0782144
    outer loop
      vertex 107.132 12.4507 1.56666
      vertex 92.7831 12.5 0
      vertex 107.025 12.3893 2.34227
    endloop
  endfacet
  facet normal 0.508266 0.860774 0.0270883
    outer loop
      vertex 107.217 12.5 0
      vertex 107.196 12.4877 0.784881
      vertex 107.217 12.4753 0.784881
    endloop
  endfacet
  facet normal -0.0353999 0.979438 0.198613
    outer loop
      vertex 106.457 12.0611 4.60156
      vertex 92.7831 12.5 0
      vertex 106.187 11.9052 5.32224
    endloop
  endfacet
  facet normal -0.047016 0.972732 0.227118
    outer loop
      vertex 106.187 11.9052 5.32224
      vertex 92.7831 12.5 0
      vertex 105.878 11.7269 6.02192
    endloop
  endfacet
  facet normal 0.865915 0.480328 0.139559
    outer loop
      vertex 107.217 12.1073 3.10862
      vertex 107.217 11.8882 3.86271
      vertex 114.434 0 0
    endloop
  endfacet
  facet normal 0.48477 0.839908 0.244034
    outer loop
      vertex 107.217 12.1073 3.10862
      vertex 106.687 12.1941 3.86271
      vertex 107.217 11.8882 3.86271
    endloop
  endfacet
  facet normal -0.00171437 0.998887 0.0471349
    outer loop
      vertex 107.196 12.4877 0.784881
      vertex 92.7831 12.5 0
      vertex 107.132 12.4507 1.56666
    endloop
  endfacet
  facet normal 0.490406 0.850569 0.189827
    outer loop
      vertex 107.025 12.3893 2.34227
      vertex 106.877 12.3036 3.10862
      vertex 107.217 12.2786 2.34227
    endloop
  endfacet
  facet normal 0.445058 0.770812 0.45582
    outer loop
      vertex 107.217 10.9538 6.02192
      vertex 105.532 11.527 6.69783
      vertex 107.217 10.5541 6.69783
    endloop
  endfacet
  facet normal -0.0746004 0.956806 0.280993
    outer loop
      vertex 105.532 11.527 6.69783
      vertex 92.7831 12.5 0
      vertex 105.149 11.3064 7.34731
    endloop
  endfacet
  facet normal -0.126695 0.926729 0.353724
    outer loop
      vertex 104.283 10.8061 8.55684
      vertex 92.7831 12.5 0
      vertex 103.802 10.5284 9.11211
    endloop
  endfacet
  facet normal 0.377914 0.654596 0.654741
    outer loop
      vertex 104.283 10.8061 8.55684
      vertex 103.802 10.5284 9.11211
      vertex 107.217 8.55684 9.11211
    endloop
  endfacet
  facet normal 0.445058 -0.770812 0.45582
    outer loop
      vertex 107.217 -10.5541 6.69783
      vertex 105.532 -11.527 6.69783
      vertex 107.217 -10.9538 6.02192
    endloop
  endfacet
  facet normal 0.865915 -0.430545 0.254603
    outer loop
      vertex 107.217 -10.5541 6.69783
      vertex 107.217 -10.9538 6.02192
      vertex 114.434 0 0
    endloop
  endfacet
  facet normal 0.468304 0.810915 0.350868
    outer loop
      vertex 106.457 12.0611 4.60156
      vertex 106.187 11.9052 5.32224
      vertex 107.217 11.6222 4.60156
    endloop
  endfacet
  facet normal 0.477262 0.8269 0.297419
    outer loop
      vertex 106.687 12.1941 3.86271
      vertex 106.457 12.0611 4.60156
      vertex 107.217 11.8882 3.86271
    endloop
  endfacet
  facet normal 0.477433 0.826723 0.297636
    outer loop
      vertex 107.217 11.8882 3.86271
      vertex 106.457 12.0611 4.60156
      vertex 107.217 11.6222 4.60156
    endloop
  endfacet
  facet normal 0.865915 0.470621 0.169433
    outer loop
      vertex 107.217 11.8882 3.86271
      vertex 107.217 11.6222 4.60156
      vertex 114.434 0 0
    endloop
  endfacet
  facet normal -0.0102299 0.993969 0.109179
    outer loop
      vertex 107.025 12.3893 2.34227
      vertex 92.7831 12.5 0
      vertex 106.877 12.3036 3.10862
    endloop
  endfacet
  facet normal -0.0169701 0.990078 0.139492
    outer loop
      vertex 106.877 12.3036 3.10862
      vertex 92.7831 12.5 0
      vertex 106.687 12.1941 3.86271
    endloop
  endfacet
  facet normal 0.497028 0.856946 0.136407
    outer loop
      vertex 107.132 12.4507 1.56666
      vertex 107.025 12.3893 2.34227
      vertex 107.217 12.4014 1.56666
    endloop
  endfacet
  facet normal 0.500049 0.862154 0.0814977
    outer loop
      vertex 107.217 12.4753 0.784881
      vertex 107.132 12.4507 1.56666
      vertex 107.217 12.4014 1.56666
    endloop
  endfacet
  facet normal 0.430842 0.746191 0.507517
    outer loop
      vertex 105.532 11.527 6.69783
      vertex 105.149 11.3064 7.34731
      vertex 107.217 10.5541 6.69783
    endloop
  endfacet
  facet normal 0.445054 0.770828 0.455796
    outer loop
      vertex 105.878 11.7269 6.02192
      vertex 105.532 11.527 6.69783
      vertex 107.217 10.9538 6.02192
    endloop
  endfacet
  facet normal 0.415087 0.718881 0.557596
    outer loop
      vertex 107.217 10.1127 7.34731
      vertex 104.733 11.0657 7.9678
      vertex 107.217 9.63142 7.9678
    endloop
  endfacet
  facet normal 0.865915 0.395235 0.306562
    outer loop
      vertex 107.217 10.1127 7.34731
      vertex 107.217 9.63142 7.9678
      vertex 114.434 0 0
    endloop
  endfacet
  facet normal 0.430828 0.746378 0.507254
    outer loop
      vertex 107.217 10.5541 6.69783
      vertex 105.149 11.3064 7.34731
      vertex 107.217 10.1127 7.34731
    endloop
  endfacet
  facet normal 0.865915 0.413695 0.281155
    outer loop
      vertex 107.217 10.5541 6.69783
      vertex 107.217 10.1127 7.34731
      vertex 114.434 0 0
    endloop
  endfacet
endsolid OpenSCAD_Model
