solid OpenSCAD_Model
  facet normal 0 0 -1
    outer loop
      vertex 112.468 -3.38709 1.25
      vertex 114.374 0.0343162 1.25
      vertex 114.374 -0.0343162 1.25
    endloop
  endfacet
  facet normal 0 0 -1
    outer loop
      vertex 112.468 -3.38709 1.25
      vertex 112.468 3.38709 1.25
      vertex 114.374 0.0343162 1.25
    endloop
  endfacet
  facet normal 0 0 -1
    outer loop
      vertex 110.838 -6.22835 1.25
      vertex 112.468 3.38709 1.25
      vertex 112.468 -3.38709 1.25
    endloop
  endfacet
  facet normal 0 0 -1
    outer loop
      vertex 110.838 -6.22835 1.25
      vertex 110.838 6.22835 1.25
      vertex 112.468 3.38709 1.25
    endloop
  endfacet
  facet normal 0 0 -1
    outer loop
      vertex 110.825 -6.25 1.25
      vertex 110.838 6.22835 1.25
      vertex 110.838 -6.22835 1.25
    endloop
  endfacet
  facet normal 0 0 -1
    outer loop
      vertex 110.825 -6.25 1.25
      vertex 110.825 6.25 1.25
      vertex 110.838 6.22835 1.25
    endloop
  endfacet
  facet normal 0 0 -1
    outer loop
      vertex 110.813 -6.27165 1.25
      vertex 110.825 6.25 1.25
      vertex 110.825 -6.25 1.25
    endloop
  endfacet
  facet normal 0 0 -1
    outer loop
      vertex 110.813 -6.27165 1.25
      vertex 110.813 6.27165 1.25
      vertex 110.825 6.25 1.25
    endloop
  endfacet
  facet normal 0 0 -1
    outer loop
      vertex 100.025 -12.5 1.25
      vertex 110.813 -6.27165 1.25
      vertex 109.167 -9.10392 1.25
    endloop
  endfacet
  facet normal -0 0 -1
    outer loop
      vertex 110.813 -6.27165 1.25
      vertex 100.025 -12.5 1.25
      vertex 110.813 6.27165 1.25
    endloop
  endfacet
  facet normal 0 0 -1
    outer loop
      vertex 103.301 -12.491 1.25
      vertex 109.167 -9.10392 1.25
      vertex 107.217 -12.4314 1.25
    endloop
  endfacet
  facet normal 0 0 -1
    outer loop
      vertex 100.025 -12.5 1.25
      vertex 109.167 -9.10392 1.25
      vertex 103.301 -12.491 1.25
    endloop
  endfacet
  facet normal 0 0 -1
    outer loop
      vertex 103.301 -12.491 1.25
      vertex 107.217 -12.4314 1.25
      vertex 107.166 -12.4607 1.25
    endloop
  endfacet
  facet normal 0 0 -1
    outer loop
      vertex 100.025 12.5 1.25
      vertex 110.813 6.27165 1.25
      vertex 100.025 -12.5 1.25
    endloop
  endfacet
  facet normal 0 0 -1
    outer loop
      vertex 103.301 -12.491 1.25
      vertex 107.166 -12.4607 1.25
      vertex 107.157 -12.4657 1.25
    endloop
  endfacet
  facet normal 0 0 -1
    outer loop
      vertex 109.167 9.10392 1.25
      vertex 103.301 12.491 1.25
      vertex 107.217 12.4314 1.25
    endloop
  endfacet
  facet normal 0 0 -1
    outer loop
      vertex 107.217 12.4314 1.25
      vertex 103.301 12.491 1.25
      vertex 107.166 12.4607 1.25
    endloop
  endfacet
  facet normal 0 0 -1
    outer loop
      vertex 107.166 12.4607 1.25
      vertex 103.301 12.491 1.25
      vertex 107.157 12.4657 1.25
    endloop
  endfacet
  facet normal 0 0 -1
    outer loop
      vertex 110.813 6.27165 1.25
      vertex 100.025 12.5 1.25
      vertex 109.167 9.10392 1.25
    endloop
  endfacet
  facet normal 0 0 -1
    outer loop
      vertex 109.167 9.10392 1.25
      vertex 100.025 12.5 1.25
      vertex 103.301 12.491 1.25
    endloop
  endfacet
  facet normal 0 0 -1
    outer loop
      vertex 99.975 -12.5 1.25
      vertex 100.025 12.5 1.25
      vertex 100.025 -12.5 1.25
    endloop
  endfacet
  facet normal 0 0 -1
    outer loop
      vertex 99.975 -12.5 1.25
      vertex 99.975 12.5 1.25
      vertex 100.025 12.5 1.25
    endloop
  endfacet
  facet normal 0 0 -1
    outer loop
      vertex 89.1872 -6.27165 1.25
      vertex 99.975 -12.5 1.25
      vertex 96.6994 -12.491 1.25
    endloop
  endfacet
  facet normal 0 0 -1
    outer loop
      vertex 99.975 -12.5 1.25
      vertex 89.1872 -6.27165 1.25
      vertex 99.975 12.5 1.25
    endloop
  endfacet
  facet normal 0 0 -1
    outer loop
      vertex 90.8328 -9.10392 1.25
      vertex 96.6994 -12.491 1.25
      vertex 92.8426 -12.4657 1.25
    endloop
  endfacet
  facet normal 0 0 -1
    outer loop
      vertex 89.1872 -6.27165 1.25
      vertex 96.6994 -12.491 1.25
      vertex 90.8328 -9.10392 1.25
    endloop
  endfacet
  facet normal 0 0 -1
    outer loop
      vertex 90.8328 -9.10392 1.25
      vertex 92.8426 -12.4657 1.25
      vertex 92.8339 -12.4607 1.25
    endloop
  endfacet
  facet normal 0 0 -1
    outer loop
      vertex 89.1872 6.27165 1.25
      vertex 99.975 12.5 1.25
      vertex 89.1872 -6.27165 1.25
    endloop
  endfacet
  facet normal 0 0 -1
    outer loop
      vertex 90.8328 -9.10392 1.25
      vertex 92.8339 -12.4607 1.25
      vertex 92.7831 -12.4314 1.25
    endloop
  endfacet
  facet normal 0 0 -1
    outer loop
      vertex 96.6994 12.491 1.25
      vertex 90.8328 9.10392 1.25
      vertex 92.8426 12.4657 1.25
    endloop
  endfacet
  facet normal 0 0 -1
    outer loop
      vertex 92.8426 12.4657 1.25
      vertex 90.8328 9.10392 1.25
      vertex 92.8339 12.4607 1.25
    endloop
  endfacet
  facet normal 0 0 -1
    outer loop
      vertex 92.8339 12.4607 1.25
      vertex 90.8328 9.10392 1.25
      vertex 92.7831 12.4314 1.25
    endloop
  endfacet
  facet normal 0 0 -1
    outer loop
      vertex 99.975 12.5 1.25
      vertex 89.1872 6.27165 1.25
      vertex 96.6994 12.491 1.25
    endloop
  endfacet
  facet normal 0 0 -1
    outer loop
      vertex 96.6994 12.491 1.25
      vertex 89.1872 6.27165 1.25
      vertex 90.8328 9.10392 1.25
    endloop
  endfacet
  facet normal 0 0 -1
    outer loop
      vertex 89.1747 -6.25 1.25
      vertex 89.1872 6.27165 1.25
      vertex 89.1872 -6.27165 1.25
    endloop
  endfacet
  facet normal 0 0 -1
    outer loop
      vertex 89.1747 -6.25 1.25
      vertex 89.1747 6.25 1.25
      vertex 89.1872 6.27165 1.25
    endloop
  endfacet
  facet normal 0 0 -1
    outer loop
      vertex 89.1622 -6.22835 1.25
      vertex 89.1747 6.25 1.25
      vertex 89.1747 -6.25 1.25
    endloop
  endfacet
  facet normal 0 0 -1
    outer loop
      vertex 89.1622 -6.22835 1.25
      vertex 89.1622 6.22835 1.25
      vertex 89.1747 6.25 1.25
    endloop
  endfacet
  facet normal 0 0 -1
    outer loop
      vertex 87.5322 -3.38709 1.25
      vertex 89.1622 6.22835 1.25
      vertex 89.1622 -6.22835 1.25
    endloop
  endfacet
  facet normal 0 0 -1
    outer loop
      vertex 87.5322 -3.38709 1.25
      vertex 87.5322 3.38709 1.25
      vertex 89.1622 6.22835 1.25
    endloop
  endfacet
  facet normal 0 0 -1
    outer loop
      vertex 85.6257 -0.0343162 1.25
      vertex 87.5322 3.38709 1.25
      vertex 87.5322 -3.38709 1.25
    endloop
  endfacet
  facet normal 0 0 -1
    outer loop
      vertex 87.5322 3.38709 1.25
      vertex 85.6257 -0.0343162 1.25
      vertex 85.6257 0.0343162 1.25
    endloop
  endfacet
  facet normal -0.0173234 -0.961174 0.275399
    outer loop
      vertex 105.532 -11.527 6.69783
      vertex 92.7831 -12.5 2.5
      vertex 105.878 -11.7269 6.02192
    endloop
  endfacet
  facet normal 0.253538 -0.439131 0.861906
    outer loop
      vertex 107.217 -5.32224 11.3103
      vertex 101.001 -8.91112 11.3103
      vertex 101.607 -9.26096 10.9538
    endloop
  endfacet
  facet normal -0.182927 -0.839033 0.512408
    outer loop
      vertex 101.001 -8.91112 11.3103
      vertex 92.7831 -12.5 2.5
      vertex 101.607 -9.26096 10.9538
    endloop
  endfacet
  facet normal 0.445054 -0.770828 0.455796
    outer loop
      vertex 107.217 -10.9538 6.02192
      vertex 105.532 -11.527 6.69783
      vertex 105.878 -11.7269 6.02192
    endloop
  endfacet
  facet normal 0.996679 0 -0.081428
    outer loop
      vertex 114.412 -0.0123329 1.71512
      vertex 114.374 0.0343162 1.25
      vertex 114.412 0.0123329 1.71512
    endloop
  endfacet
  facet normal 0.996679 0 -0.081428
    outer loop
      vertex 114.374 0.0343162 1.25
      vertex 114.412 -0.0123329 1.71512
      vertex 114.374 -0.0343162 1.25
    endloop
  endfacet
  facet normal -0.421285 0.692941 0.585109
    outer loop
      vertex 96.3916 6.25 12.5
      vertex 92.7831 12.5 2.5
      vertex 95.7118 5.85756 12.4753
    endloop
  endfacet
  facet normal 0 -0.97888 0.204434
    outer loop
      vertex 106.457 -12.0611 4.60156
      vertex 92.7831 -12.5 2.5
      vertex 92.8331 -12.5 2.5
    endloop
  endfacet
  facet normal 0.811016 -0.0550557 0.582428
    outer loop
      vertex 107.217 -0.784881 12.4753
      vertex 107.217 -1.56666 12.4014
      vertex 114.434 0 2.5
    endloop
  endfacet
  facet normal -0.421285 -0.692941 0.585109
    outer loop
      vertex 95.7118 -5.85756 12.4753
      vertex 92.7831 -12.5 2.5
      vertex 96.3916 -6.25 12.5
    endloop
  endfacet
  facet normal 0.0181574 0.0314497 0.99934
    outer loop
      vertex 97.0713 6.64244 12.4753
      vertex 96.3916 6.25 12.5
      vertex 107.217 0 12.5
    endloop
  endfacet
  facet normal -0.157821 0.855809 0.49263
    outer loop
      vertex 102.192 9.59892 10.5541
      vertex 92.7831 12.5 2.5
      vertex 101.607 9.26096 10.9538
    endloop
  endfacet
  facet normal -0.00823497 -0.969862 0.243514
    outer loop
      vertex 105.878 -11.7269 6.02192
      vertex 92.7831 -12.5 2.5
      vertex 106.187 -11.9052 5.32224
    endloop
  endfacet
  facet normal 0.477262 -0.8269 0.297419
    outer loop
      vertex 107.217 -11.8882 3.86271
      vertex 106.457 -12.0611 4.60156
      vertex 106.687 -12.1941 3.86271
    endloop
  endfacet
  facet normal 0.494855 -0.858285 0.13589
    outer loop
      vertex 107.217 -12.2786 2.34227
      vertex 107.025 -12.3893 2.34227
      vertex 107.217 -12.4014 1.56666
    endloop
  endfacet
  facet normal 0.223517 -0.387136 0.89452
    outer loop
      vertex 107.217 -4.60156 11.6222
      vertex 101.001 -8.91112 11.3103
      vertex 107.217 -5.32224 11.3103
    endloop
  endfacet
  facet normal 0 0 1
    outer loop
      vertex 96.3916 6.25 12.5
      vertex 96.3916 -6.25 12.5
      vertex 107.217 0 12.5
    endloop
  endfacet
  facet normal -0.867289 0.497554 0.0157939
    outer loop
      vertex 89.1622 6.22835 1.25
      vertex 87.5322 3.38709 1.25
      vertex 92.7581 12.4567 2.5
    endloop
  endfacet
  facet normal -0.00274723 0.999871 -0.0158063
    outer loop
      vertex 96.6994 12.491 1.25
      vertex 92.7831 12.5 2.5
      vertex 99.975 12.5 1.25
    endloop
  endfacet
  facet normal -0.00272721 0.999872 -0.0157435
    outer loop
      vertex 92.7831 12.5 2.5
      vertex 96.6994 12.491 1.25
      vertex 92.8045 12.4877 1.71512
    endloop
  endfacet
  facet normal 0.844043 -0.477826 0.243461
    outer loop
      vertex 107.217 -10.9538 6.02192
      vertex 107.217 -11.3103 5.32224
      vertex 114.434 0 2.5
    endloop
  endfacet
  facet normal 0.430842 -0.746191 0.507517
    outer loop
      vertex 107.217 -10.5541 6.69783
      vertex 105.149 -11.3064 7.34731
      vertex 105.532 -11.527 6.69783
    endloop
  endfacet
  facet normal 0.999607 0 -0.0280188
    outer loop
      vertex 114.434 0 2.5
      vertex 114.412 -0.0123329 1.71512
      vertex 114.412 0.0123329 1.71512
    endloop
  endfacet
  facet normal 0.397407 -0.688261 0.60693
    outer loop
      vertex 107.217 -9.63142 7.9678
      vertex 104.283 -10.8061 8.55684
      vertex 104.733 -11.0657 7.9678
    endloop
  endfacet
  facet normal 0.281963 -0.488358 0.825835
    outer loop
      vertex 107.217 -6.02192 10.9538
      vertex 101.607 -9.26096 10.9538
      vertex 107.217 -6.69783 10.5541
    endloop
  endfacet
  facet normal -0.0363103 0 0.999341
    outer loop
      vertex 95.7118 5.85756 12.4753
      vertex 96.3916 -6.25 12.5
      vertex 96.3916 6.25 12.5
    endloop
  endfacet
  facet normal -0.0363103 0 0.999341
    outer loop
      vertex 96.3916 -6.25 12.5
      vertex 95.7118 5.85756 12.4753
      vertex 95.7118 -5.85756 12.4753
    endloop
  endfacet
  facet normal -0.296022 -0.767145 0.569087
    outer loop
      vertex 98.42 -7.42113 12.2786
      vertex 92.7831 -12.5 2.5
      vertex 99.0837 -7.80431 12.1073
    endloop
  endfacet
  facet normal -0.823788 -0.495575 0.275279
    outer loop
      vertex 87.2514 -0.97295 6.69783
      vertex 86.9053 -0.773083 6.02192
      vertex 92.7831 -12.5 2.5
    endloop
  endfacet
  facet normal -0.854225 -0.488354 0.178355
    outer loop
      vertex 86.3264 -0.438896 4.60156
      vertex 86.0961 -0.305897 3.86271
      vertex 92.7581 -12.4567 2.5
    endloop
  endfacet
  facet normal -0.866019 0.500011 -0.000100482
    outer loop
      vertex 89.1872 6.27165 1.25
      vertex 89.1747 6.25 1.25
      vertex 92.7831 12.5 2.5
    endloop
  endfacet
  facet normal -0.0730233 0.915867 0.394785
    outer loop
      vertex 104.283 10.8061 8.55684
      vertex 92.7831 12.5 2.5
      vertex 103.802 10.5284 9.11211
    endloop
  endfacet
  facet normal -0.823788 0.495575 0.275279
    outer loop
      vertex 92.7831 12.5 2.5
      vertex 86.9053 0.773083 6.02192
      vertex 87.2514 0.97295 6.69783
    endloop
  endfacet
  facet normal 0 -1 0
    outer loop
      vertex 99.975 -12.5 1.25
      vertex 92.8331 -12.5 2.5
      vertex 92.7831 -12.5 2.5
    endloop
  endfacet
  facet normal 0 -1 0
    outer loop
      vertex 92.8331 -12.5 2.5
      vertex 99.975 -12.5 1.25
      vertex 100.025 -12.5 1.25
    endloop
  endfacet
  facet normal 0.468304 -0.810915 0.350868
    outer loop
      vertex 107.217 -11.6222 4.60156
      vertex 106.187 -11.9052 5.32224
      vertex 106.457 -12.0611 4.60156
    endloop
  endfacet
  facet normal 0.00866512 -0.996749 0.0801015
    outer loop
      vertex 107.025 -12.3893 2.34227
      vertex 92.8331 -12.5 2.5
      vertex 107.132 -12.4507 1.56666
    endloop
  endfacet
  facet normal 0.870239 0.48235 -0.10011
    outer loop
      vertex 114.409 0.0432997 2.5
      vertex 110.825 6.25 1.25
      vertex 110.813 6.27165 1.25
    endloop
  endfacet
  facet normal 0.866018 0.500014 -0.000297885
    outer loop
      vertex 110.825 6.25 1.25
      vertex 114.409 0.0432997 2.5
      vertex 114.434 0 2.5
    endloop
  endfacet
  facet normal 0.866018 -0.500014 -0.000297885
    outer loop
      vertex 114.409 -0.0432997 2.5
      vertex 110.825 -6.25 1.25
      vertex 114.434 0 2.5
    endloop
  endfacet
  facet normal 0.870239 -0.48235 -0.10011
    outer loop
      vertex 110.825 -6.25 1.25
      vertex 114.409 -0.0432997 2.5
      vertex 110.813 -6.27165 1.25
    endloop
  endfacet
  facet normal 0.282006 -0.488465 0.825757
    outer loop
      vertex 107.217 -6.69783 10.5541
      vertex 101.607 -9.26096 10.9538
      vertex 102.192 -9.59892 10.5541
    endloop
  endfacet
  facet normal -0.157821 -0.855809 0.49263
    outer loop
      vertex 101.607 -9.26096 10.9538
      vertex 92.7831 -12.5 2.5
      vertex 102.192 -9.59892 10.5541
    endloop
  endfacet
  facet normal 0.333584 -0.577784 0.744908
    outer loop
      vertex 107.217 -7.34731 10.1127
      vertex 103.292 -10.2339 9.63142
      vertex 107.217 -7.9678 9.63142
    endloop
  endfacet
  facet normal 0.308669 -0.534648 0.786686
    outer loop
      vertex 107.217 -6.69783 10.5541
      vertex 102.192 -9.59892 10.5541
      vertex 107.217 -7.34731 10.1127
    endloop
  endfacet
  facet normal -0.266175 -0.785611 0.558539
    outer loop
      vertex 99.0837 -7.80431 12.1073
      vertex 92.7831 -12.5 2.5
      vertex 99.7368 -8.18136 11.8882
    endloop
  endfacet
  facet normal 0.814759 -0.196399 0.545523
    outer loop
      vertex 107.217 -3.86271 11.8882
      vertex 107.217 -4.60156 11.6222
      vertex 114.434 0 2.5
    endloop
  endfacet
  facet normal -0.389438 -0.711327 0.585108
    outer loop
      vertex 96.3916 -6.25 12.5
      vertex 92.7831 -12.5 2.5
      vertex 97.0713 -6.64244 12.4753
    endloop
  endfacet
  facet normal 0.0181574 -0.0314497 0.99934
    outer loop
      vertex 107.217 0 12.5
      vertex 96.3916 -6.25 12.5
      vertex 97.0713 -6.64244 12.4753
    endloop
  endfacet
  facet normal -0.00823497 0.969862 0.243514
    outer loop
      vertex 106.187 11.9052 5.32224
      vertex 92.7831 12.5 2.5
      vertex 105.878 11.7269 6.02192
    endloop
  endfacet
  facet normal -0.866019 0.500011 -0.000100482
    outer loop
      vertex 89.1747 6.25 1.25
      vertex 92.7581 12.4567 2.5
      vertex 92.7831 12.5 2.5
    endloop
  endfacet
  facet normal -0.866019 0.500011 -0.000100482
    outer loop
      vertex 92.7581 12.4567 2.5
      vertex 89.1747 6.25 1.25
      vertex 89.1622 6.22835 1.25
    endloop
  endfacet
  facet normal -0.793918 -0.506074 0.337022
    outer loop
      vertex 88.0505 -1.43429 7.9678
      vertex 87.6337 -1.19364 7.34731
      vertex 92.7831 -12.5 2.5
    endloop
  endfacet
  facet normal -0.447042 0 0.894513
    outer loop
      vertex 91.7824 3.58888 11.3103
      vertex 92.4065 -3.94922 11.6222
      vertex 92.4065 3.94922 11.6222
    endloop
  endfacet
  facet normal -0.447042 0 0.894513
    outer loop
      vertex 92.4065 -3.94922 11.6222
      vertex 91.7824 3.58888 11.3103
      vertex 91.7824 -3.58888 11.3103
    endloop
  endfacet
  facet normal -0.266175 0.785611 0.558539
    outer loop
      vertex 99.7368 8.18136 11.8882
      vertex 92.7831 12.5 2.5
      vertex 99.0837 7.80431 12.1073
    endloop
  endfacet
  facet normal 0.468336 -0.810869 0.350932
    outer loop
      vertex 107.217 -11.3103 5.32224
      vertex 106.187 -11.9052 5.32224
      vertex 107.217 -11.6222 4.60156
    endloop
  endfacet
  facet normal 0.00417607 -0.983946 0.17842
    outer loop
      vertex 106.457 -12.0611 4.60156
      vertex 92.8331 -12.5 2.5
      vertex 106.687 -12.1941 3.86271
    endloop
  endfacet
  facet normal 0.858874 -0.505885 0.0800953
    outer loop
      vertex 107.217 -12.2786 2.34227
      vertex 107.217 -12.4014 1.56666
      vertex 114.409 -0.0432997 2.5
    endloop
  endfacet
  facet normal 0.484874 -0.839823 0.244118
    outer loop
      vertex 107.217 -12.1073 3.10862
      vertex 106.687 -12.1941 3.86271
      vertex 106.877 -12.3036 3.10862
    endloop
  endfacet
  facet normal 0.397418 0.68833 0.606846
    outer loop
      vertex 107.217 9.63142 7.9678
      vertex 104.283 10.8061 8.55684
      vertex 107.217 9.11211 8.55684
    endloop
  endfacet
  facet normal 0.820063 -0.291293 0.492589
    outer loop
      vertex 107.217 -6.02192 10.9538
      vertex 107.217 -6.69783 10.5541
      vertex 114.434 0 2.5
    endloop
  endfacet
  facet normal -0.0413645 -0.940551 0.337125
    outer loop
      vertex 104.733 -11.0657 7.9678
      vertex 92.7831 -12.5 2.5
      vertex 105.149 -11.3064 7.34731
    endloop
  endfacet
  facet normal 0.838118 -0.451159 0.306617
    outer loop
      vertex 107.217 -10.1127 7.34731
      vertex 107.217 -10.5541 6.69783
      vertex 114.434 0 2.5
    endloop
  endfacet
  facet normal -0.134005 -0.872075 0.470667
    outer loop
      vertex 102.192 -9.59892 10.5541
      vertex 92.7831 -12.5 2.5
      vertex 102.755 -9.92366 10.1127
    endloop
  endfacet
  facet normal -0.112021 -0.887454 0.447075
    outer loop
      vertex 102.755 -9.92366 10.1127
      vertex 92.7831 -12.5 2.5
      vertex 103.292 -10.2339 9.63142
    endloop
  endfacet
  facet normal 0.818084 -0.261086 0.512418
    outer loop
      vertex 107.217 -5.32224 11.3103
      vertex 107.217 -6.02192 10.9538
      vertex 114.434 0 2.5
    endloop
  endfacet
  facet normal 0.253552 -0.43915 0.861892
    outer loop
      vertex 107.217 -5.32224 11.3103
      vertex 101.607 -9.26096 10.9538
      vertex 107.217 -6.02192 10.9538
    endloop
  endfacet
  facet normal -0.0282992 -0.951456 0.30648
    outer loop
      vertex 105.149 -11.3064 7.34731
      vertex 92.7831 -12.5 2.5
      vertex 105.532 -11.527 6.69783
    endloop
  endfacet
  facet normal -0.0915968 -0.902125 0.421639
    outer loop
      vertex 103.292 -10.2339 9.63142
      vertex 92.7831 -12.5 2.5
      vertex 103.802 -10.5284 9.11211
    endloop
  endfacet
  facet normal -0.357847 -0.729882 0.582424
    outer loop
      vertex 97.0713 -6.64244 12.4753
      vertex 92.7831 -12.5 2.5
      vertex 97.7483 -7.03333 12.4014
    endloop
  endfacet
  facet normal -0.326653 -0.748522 0.577072
    outer loop
      vertex 97.7483 -7.03333 12.4014
      vertex 92.7831 -12.5 2.5
      vertex 98.42 -7.42113 12.2786
    endloop
  endfacet
  facet normal 0.0542527 -0.0939699 0.994096
    outer loop
      vertex 107.217 -0.784881 12.4753
      vertex 97.7483 -7.03333 12.4014
      vertex 107.217 -1.56666 12.4014
    endloop
  endfacet
  facet normal -0.45321 0.674825 0.582419
    outer loop
      vertex 95.7118 5.85756 12.4753
      vertex 92.7831 12.5 2.5
      vertex 95.0348 5.46667 12.4014
    endloop
  endfacet
  facet normal -0.847716 -0.489443 0.204505
    outer loop
      vertex 92.7831 -12.5 2.5
      vertex 86.3264 -0.438896 4.60156
      vertex 92.7581 -12.4567 2.5
    endloop
  endfacet
  facet normal -0.866019 -0.500011 -0.000100482
    outer loop
      vertex 92.7831 -12.5 2.5
      vertex 89.1747 -6.25 1.25
      vertex 89.1872 -6.27165 1.25
    endloop
  endfacet
  facet normal -0.981786 0 0.18999
    outer loop
      vertex 85.758 -0.110704 2.34227
      vertex 85.9063 0.196355 3.10862
      vertex 85.758 0.110704 2.34227
    endloop
  endfacet
  facet normal -0.981786 0 0.18999
    outer loop
      vertex 85.9063 0.196355 3.10862
      vertex 85.758 -0.110704 2.34227
      vertex 85.9063 -0.196355 3.10862
    endloop
  endfacet
  facet normal -0.617333 0 0.786702
    outer loop
      vertex 90.0286 2.57634 10.1127
      vertex 90.5911 -2.90108 10.5541
      vertex 90.5911 2.90108 10.5541
    endloop
  endfacet
  facet normal -0.617333 0 0.786702
    outer loop
      vertex 90.5911 -2.90108 10.5541
      vertex 90.0286 2.57634 10.1127
      vertex 90.0286 -2.57634 10.1127
    endloop
  endfacet
  facet normal -0.845971 -0.48966 0.211108
    outer loop
      vertex 86.5965 -0.594831 5.32224
      vertex 86.3264 -0.438896 4.60156
      vertex 92.7831 -12.5 2.5
    endloop
  endfacet
  facet normal -0.507051 0 0.861916
    outer loop
      vertex 91.1764 3.23904 10.9538
      vertex 91.7824 -3.58888 11.3103
      vertex 91.7824 3.58888 11.3103
    endloop
  endfacet
  facet normal -0.507051 0 0.861916
    outer loop
      vertex 91.7824 -3.58888 11.3103
      vertex 91.1764 3.23904 10.9538
      vertex 91.1764 -3.23904 10.9538
    endloop
  endfacet
  facet normal -0.3181 0 0.948057
    outer loop
      vertex 93.0464 4.31864 11.8882
      vertex 93.6994 -4.69569 12.1073
      vertex 93.6994 4.69569 12.1073
    endloop
  endfacet
  facet normal -0.3181 0 0.948057
    outer loop
      vertex 93.6994 -4.69569 12.1073
      vertex 93.0464 4.31864 11.8882
      vertex 93.0464 -4.31864 11.8882
    endloop
  endfacet
  facet normal -0.182927 0.839033 0.512408
    outer loop
      vertex 101.607 9.26096 10.9538
      vertex 92.7831 12.5 2.5
      vertex 101.001 8.91112 11.3103
    endloop
  endfacet
  facet normal 0.822233 0.319917 0.470729
    outer loop
      vertex 107.217 7.34731 10.1127
      vertex 107.217 6.69783 10.5541
      vertex 114.434 0 2.5
    endloop
  endfacet
  facet normal 0.832406 0.415686 0.366478
    outer loop
      vertex 107.217 9.63142 7.9678
      vertex 107.217 9.11211 8.55684
      vertex 114.434 0 2.5
    endloop
  endfacet
  facet normal 0.415087 0.718881 0.557596
    outer loop
      vertex 107.217 10.1127 7.34731
      vertex 104.733 11.0657 7.9678
      vertex 107.217 9.63142 7.9678
    endloop
  endfacet
  facet normal 0.868358 0.493648 -0.0476126
    outer loop
      vertex 114.374 0.0343162 1.25
      vertex 112.468 3.38709 1.25
      vertex 114.412 0.0123329 1.71512
    endloop
  endfacet
  facet normal 0.86738 -0.497373 -0.0164972
    outer loop
      vertex 114.434 0 2.5
      vertex 112.468 -3.38709 1.25
      vertex 114.412 -0.0123329 1.71512
    endloop
  endfacet
  facet normal 0.867288 -0.497554 -0.0158632
    outer loop
      vertex 112.468 -3.38709 1.25
      vertex 114.434 0 2.5
      vertex 110.838 -6.22835 1.25
    endloop
  endfacet
  facet normal -0.00272721 -0.999872 -0.0157435
    outer loop
      vertex 96.6994 -12.491 1.25
      vertex 92.7831 -12.5 2.5
      vertex 92.8045 -12.4877 1.71512
    endloop
  endfacet
  facet normal -0.00274723 -0.999871 -0.0158063
    outer loop
      vertex 92.7831 -12.5 2.5
      vertex 96.6994 -12.491 1.25
      vertex 99.975 -12.5 1.25
    endloop
  endfacet
  facet normal -0.00106234 -0.977474 0.211053
    outer loop
      vertex 106.187 -11.9052 5.32224
      vertex 92.7831 -12.5 2.5
      vertex 106.457 -12.0611 4.60156
    endloop
  endfacet
  facet normal 0.85003 -0.495595 0.178424
    outer loop
      vertex 107.217 -11.6222 4.60156
      vertex 107.217 -11.8882 3.86271
      vertex 114.409 -0.0432997 2.5
    endloop
  endfacet
  facet normal 0.00752751 -0.989322 0.145554
    outer loop
      vertex 106.687 -12.1941 3.86271
      vertex 92.8331 -12.5 2.5
      vertex 106.877 -12.3036 3.10862
    endloop
  endfacet
  facet normal 0.00900429 -0.993571 0.112849
    outer loop
      vertex 106.877 -12.3036 3.10862
      vertex 92.8331 -12.5 2.5
      vertex 107.025 -12.3893 2.34227
    endloop
  endfacet
  facet normal 0.0065605 -0.998838 0.0477481
    outer loop
      vertex 103.301 -12.491 1.25
      vertex 107.132 -12.4507 1.56666
      vertex 92.8331 -12.5 2.5
    endloop
  endfacet
  facet normal 0.00655355 -0.998834 0.0478316
    outer loop
      vertex 107.132 -12.4507 1.56666
      vertex 103.301 -12.491 1.25
      vertex 107.157 -12.4657 1.25
    endloop
  endfacet
  facet normal 0.477433 -0.826723 0.297636
    outer loop
      vertex 107.217 -11.6222 4.60156
      vertex 106.457 -12.0611 4.60156
      vertex 107.217 -11.8882 3.86271
    endloop
  endfacet
  facet normal 0.0027469 -0.999871 0.0158043
    outer loop
      vertex 103.301 -12.491 1.25
      vertex 92.8331 -12.5 2.5
      vertex 100.025 -12.5 1.25
    endloop
  endfacet
  facet normal 0.484106 -0.871391 0.079497
    outer loop
      vertex 107.166 -12.4607 1.25
      vertex 107.132 -12.4507 1.56666
      vertex 107.157 -12.4657 1.25
    endloop
  endfacet
  facet normal 0.816312 -0.229418 0.530096
    outer loop
      vertex 107.217 -4.60156 11.6222
      vertex 107.217 -5.32224 11.3103
      vertex 114.434 0 2.5
    endloop
  endfacet
  facet normal 0.191931 -0.332438 0.923389
    outer loop
      vertex 107.217 -3.86271 11.8882
      vertex 99.7368 -8.18136 11.8882
      vertex 107.217 -4.60156 11.6222
    endloop
  endfacet
  facet normal 0.829676 -0.394739 0.394739
    outer loop
      vertex 107.217 -8.55684 9.11211
      vertex 107.217 -9.11211 8.55684
      vertex 114.434 0 2.5
    endloop
  endfacet
  facet normal -0.0561764 -0.928759 0.366404
    outer loop
      vertex 104.283 -10.8061 8.55684
      vertex 92.7831 -12.5 2.5
      vertex 104.733 -11.0657 7.9678
    endloop
  endfacet
  facet normal 0.468336 0.810869 0.350932
    outer loop
      vertex 107.217 11.6222 4.60156
      vertex 106.187 11.9052 5.32224
      vertex 107.217 11.3103 5.32224
    endloop
  endfacet
  facet normal 0 1 -0
    outer loop
      vertex 99.975 12.5 1.25
      vertex 92.8331 12.5 2.5
      vertex 100.025 12.5 1.25
    endloop
  endfacet
  facet normal 0 1 0
    outer loop
      vertex 92.8331 12.5 2.5
      vertex 99.975 12.5 1.25
      vertex 92.7831 12.5 2.5
    endloop
  endfacet
  facet normal -0.712551 -0.540741 0.447069
    outer loop
      vertex 90.0286 -2.57634 10.1127
      vertex 89.4912 -2.2661 9.63142
      vertex 92.7831 -12.5 2.5
    endloop
  endfacet
  facet normal -0.867289 -0.497554 0.0157939
    outer loop
      vertex 92.7581 -12.4567 2.5
      vertex 87.5322 -3.38709 1.25
      vertex 89.1622 -6.22835 1.25
    endloop
  endfacet
  facet normal -0.866019 -0.500011 -0.000100482
    outer loop
      vertex 89.1747 -6.25 1.25
      vertex 92.7581 -12.4567 2.5
      vertex 89.1622 -6.22835 1.25
    endloop
  endfacet
  facet normal -0.866019 -0.500011 -0.000100482
    outer loop
      vertex 92.7581 -12.4567 2.5
      vertex 89.1747 -6.25 1.25
      vertex 92.7831 -12.5 2.5
    endloop
  endfacet
  facet normal -0.861788 0 0.507269
    outer loop
      vertex 87.2514 -0.97295 6.69783
      vertex 87.6337 1.19364 7.34731
      vertex 87.2514 0.97295 6.69783
    endloop
  endfacet
  facet normal -0.861788 0 0.507269
    outer loop
      vertex 87.6337 1.19364 7.34731
      vertex 87.2514 -0.97295 6.69783
      vertex 87.6337 -1.19364 7.34731
    endloop
  endfacet
  facet normal -0.776216 -0.51304 0.366441
    outer loop
      vertex 88.5002 -1.69395 8.55684
      vertex 88.0505 -1.43429 7.9678
      vertex 92.7831 -12.5 2.5
    endloop
  endfacet
  facet normal -0.755914 0 0.654671
    outer loop
      vertex 88.5002 -1.69395 8.55684
      vertex 88.9811 1.97158 9.11211
      vertex 88.5002 1.69395 8.55684
    endloop
  endfacet
  facet normal -0.755914 0 0.654671
    outer loop
      vertex 88.9811 1.97158 9.11211
      vertex 88.5002 -1.69395 8.55684
      vertex 88.9811 -1.97158 9.11211
    endloop
  endfacet
  facet normal -0.57744 0.607419 0.545531
    outer loop
      vertex 92.7831 12.5 2.5
      vertex 92.4065 3.94922 11.6222
      vertex 93.0464 4.31864 11.8882
    endloop
  endfacet
  facet normal -0.516344 -0.639941 0.569091
    outer loop
      vertex 93.6994 -4.69569 12.1073
      vertex 92.7831 -12.5 2.5
      vertex 94.3631 -5.07887 12.2786
    endloop
  endfacet
  facet normal 0.816312 0.229418 0.530096
    outer loop
      vertex 107.217 5.32224 11.3103
      vertex 107.217 4.60156 11.6222
      vertex 114.434 0 2.5
    endloop
  endfacet
  facet normal -0.326653 0.748522 0.577072
    outer loop
      vertex 98.42 7.42113 12.2786
      vertex 92.7831 12.5 2.5
      vertex 97.7483 7.03333 12.4014
    endloop
  endfacet
  facet normal -0.112021 0.887454 0.447075
    outer loop
      vertex 103.292 10.2339 9.63142
      vertex 92.7831 12.5 2.5
      vertex 102.755 9.92366 10.1127
    endloop
  endfacet
  facet normal 0.333664 0.577875 0.744801
    outer loop
      vertex 103.292 10.2339 9.63142
      vertex 102.755 9.92366 10.1127
      vertex 107.217 7.34731 10.1127
    endloop
  endfacet
  facet normal 0.844043 0.477826 0.243461
    outer loop
      vertex 107.217 11.3103 5.32224
      vertex 107.217 10.9538 6.02192
      vertex 114.434 0 2.5
    endloop
  endfacet
  facet normal 0.847736 0.489459 0.204385
    outer loop
      vertex 114.409 0.0432997 2.5
      vertex 107.217 11.6222 4.60156
      vertex 114.434 0 2.5
    endloop
  endfacet
  facet normal 0.847736 -0.489459 0.204385
    outer loop
      vertex 114.434 0 2.5
      vertex 107.217 -11.6222 4.60156
      vertex 114.409 -0.0432997 2.5
    endloop
  endfacet
  facet normal 0.847038 -0.487808 0.211116
    outer loop
      vertex 107.217 -11.3103 5.32224
      vertex 107.217 -11.6222 4.60156
      vertex 114.434 0 2.5
    endloop
  endfacet
  facet normal 0.855958 -0.504593 0.11279
    outer loop
      vertex 107.217 -12.1073 3.10862
      vertex 107.217 -12.2786 2.34227
      vertex 114.409 -0.0432997 2.5
    endloop
  endfacet
  facet normal 0.490889 -0.85024 0.190052
    outer loop
      vertex 107.217 -12.1073 3.10862
      vertex 106.877 -12.3036 3.10862
      vertex 107.217 -12.2786 2.34227
    endloop
  endfacet
  facet normal 0.0542548 -0.0939731 0.994095
    outer loop
      vertex 107.217 -0.784881 12.4753
      vertex 97.0713 -6.64244 12.4753
      vertex 97.7483 -7.03333 12.4014
    endloop
  endfacet
  facet normal 0.0899194 -0.155748 0.983696
    outer loop
      vertex 107.217 -2.34227 12.2786
      vertex 97.7483 -7.03333 12.4014
      vertex 98.42 -7.42113 12.2786
    endloop
  endfacet
  facet normal -0.237212 -0.803855 0.545479
    outer loop
      vertex 99.7368 -8.18136 11.8882
      vertex 92.7831 -12.5 2.5
      vertex 100.377 -8.55078 11.6222
    endloop
  endfacet
  facet normal -0.209501 -0.82164 0.53011
    outer loop
      vertex 100.377 -8.55078 11.6222
      vertex 92.7831 -12.5 2.5
      vertex 101.001 -8.91112 11.3103
    endloop
  endfacet
  facet normal 0.430828 -0.746378 0.507254
    outer loop
      vertex 107.217 -10.1127 7.34731
      vertex 105.149 -11.3064 7.34731
      vertex 107.217 -10.5541 6.69783
    endloop
  endfacet
  facet normal 0.4151 -0.719131 0.557263
    outer loop
      vertex 107.217 -10.1127 7.34731
      vertex 104.733 -11.0657 7.9678
      vertex 105.149 -11.3064 7.34731
    endloop
  endfacet
  facet normal -0.563945 0 0.825812
    outer loop
      vertex 90.5911 2.90108 10.5541
      vertex 91.1764 -3.23904 10.9538
      vertex 91.1764 3.23904 10.9538
    endloop
  endfacet
  facet normal -0.563945 0 0.825812
    outer loop
      vertex 91.1764 -3.23904 10.9538
      vertex 90.5911 2.90108 10.5541
      vertex 90.5911 -2.90108 10.5541
    endloop
  endfacet
  facet normal -0.606855 0.592233 0.530082
    outer loop
      vertex 92.7831 12.5 2.5
      vertex 91.7824 3.58888 11.3103
      vertex 92.4065 3.94922 11.6222
    endloop
  endfacet
  facet normal -0.845971 0.48966 0.211108
    outer loop
      vertex 92.7831 12.5 2.5
      vertex 86.3264 0.438896 4.60156
      vertex 86.5965 0.594831 5.32224
    endloop
  endfacet
  facet normal -0.990721 0 0.135909
    outer loop
      vertex 85.6516 -0.049283 1.56666
      vertex 85.758 0.110704 2.34227
      vertex 85.6516 0.049283 1.56666
    endloop
  endfacet
  facet normal -0.990721 0 0.135909
    outer loop
      vertex 85.758 0.110704 2.34227
      vertex 85.6516 -0.049283 1.56666
      vertex 85.758 -0.110704 2.34227
    endloop
  endfacet
  facet normal -0.8683 0.493743 0.0476707
    outer loop
      vertex 87.5322 3.38709 1.25
      vertex 85.6516 0.049283 1.56666
      vertex 92.7581 12.4567 2.5
    endloop
  endfacet
  facet normal -0.868299 0.493744 0.0476826
    outer loop
      vertex 85.6516 0.049283 1.56666
      vertex 87.5322 3.38709 1.25
      vertex 85.6257 0.0343162 1.25
    endloop
  endfacet
  facet normal -0.756676 -0.521164 0.394753
    outer loop
      vertex 88.9811 -1.97158 9.11211
      vertex 88.5002 -1.69395 8.55684
      vertex 92.7831 -12.5 2.5
    endloop
  endfacet
  facet normal -0.735473 -0.530386 0.421628
    outer loop
      vertex 89.4912 -2.2661 9.63142
      vertex 88.9811 -1.97158 9.11211
      vertex 92.7831 -12.5 2.5
    endloop
  endfacet
  facet normal -0.794841 0 0.606818
    outer loop
      vertex 88.0505 -1.43429 7.9678
      vertex 88.5002 1.69395 8.55684
      vertex 88.0505 1.43429 7.9678
    endloop
  endfacet
  facet normal -0.794841 0 0.606818
    outer loop
      vertex 88.5002 1.69395 8.55684
      vertex 88.0505 -1.43429 7.9678
      vertex 88.5002 -1.69395 8.55684
    endloop
  endfacet
  facet normal -0.484903 -0.657155 0.577075
    outer loop
      vertex 94.3631 -5.07887 12.2786
      vertex 92.7831 -12.5 2.5
      vertex 95.0348 -5.46667 12.4014
    endloop
  endfacet
  facet normal 0.0899194 0.155748 0.983696
    outer loop
      vertex 98.42 7.42113 12.2786
      vertex 97.7483 7.03333 12.4014
      vertex 107.217 2.34227 12.2786
    endloop
  endfacet
  facet normal 0.0542548 0.0939731 0.994095
    outer loop
      vertex 97.7483 7.03333 12.4014
      vertex 97.0713 6.64244 12.4753
      vertex 107.217 0.784881 12.4753
    endloop
  endfacet
  facet normal 0.813442 0.162285 0.558547
    outer loop
      vertex 107.217 3.86271 11.8882
      vertex 107.217 3.10862 12.1073
      vertex 114.434 0 2.5
    endloop
  endfacet
  facet normal 0.159035 0.27546 0.948066
    outer loop
      vertex 107.217 3.86271 11.8882
      vertex 99.7368 8.18136 11.8882
      vertex 107.217 3.10862 12.1073
    endloop
  endfacet
  facet normal 0.253538 0.439131 0.861906
    outer loop
      vertex 101.607 9.26096 10.9538
      vertex 101.001 8.91112 11.3103
      vertex 107.217 5.32224 11.3103
    endloop
  endfacet
  facet normal 0.356694 0.617812 0.700769
    outer loop
      vertex 107.217 8.55684 9.11211
      vertex 103.292 10.2339 9.63142
      vertex 107.217 7.9678 9.63142
    endloop
  endfacet
  facet normal 0.829676 0.394739 0.394739
    outer loop
      vertex 107.217 9.11211 8.55684
      vertex 107.217 8.55684 9.11211
      vertex 114.434 0 2.5
    endloop
  endfacet
  facet normal 0.377973 0.654651 0.654651
    outer loop
      vertex 107.217 9.11211 8.55684
      vertex 104.283 10.8061 8.55684
      vertex 107.217 8.55684 9.11211
    endloop
  endfacet
  facet normal 0.457585 0.792255 0.403669
    outer loop
      vertex 107.217 11.3103 5.32224
      vertex 106.187 11.9052 5.32224
      vertex 107.217 10.9538 6.02192
    endloop
  endfacet
  facet normal 0.838118 0.451159 0.306617
    outer loop
      vertex 107.217 10.5541 6.69783
      vertex 107.217 10.1127 7.34731
      vertex 114.434 0 2.5
    endloop
  endfacet
  facet normal 0.0027469 0.999871 0.0158043
    outer loop
      vertex 100.025 12.5 1.25
      vertex 92.8331 12.5 2.5
      vertex 103.301 12.491 1.25
    endloop
  endfacet
  facet normal -0.0413645 0.940551 0.337125
    outer loop
      vertex 105.149 11.3064 7.34731
      vertex 92.7831 12.5 2.5
      vertex 104.733 11.0657 7.9678
    endloop
  endfacet
  facet normal 0.853174 0.512298 0.0982084
    outer loop
      vertex 110.838 6.22835 1.25
      vertex 110.825 6.25 1.25
      vertex 114.434 0 2.5
    endloop
  endfacet
  facet normal 0.867288 0.497554 -0.0158632
    outer loop
      vertex 114.434 0 2.5
      vertex 112.468 3.38709 1.25
      vertex 110.838 6.22835 1.25
    endloop
  endfacet
  facet normal 0.86738 0.497373 -0.0164972
    outer loop
      vertex 112.468 3.38709 1.25
      vertex 114.434 0 2.5
      vertex 114.412 0.0123329 1.71512
    endloop
  endfacet
  facet normal 0.48477 -0.839908 0.244034
    outer loop
      vertex 107.217 -11.8882 3.86271
      vertex 106.687 -12.1941 3.86271
      vertex 107.217 -12.1073 3.10862
    endloop
  endfacet
  facet normal 0.853005 -0.501176 0.145616
    outer loop
      vertex 107.217 -11.8882 3.86271
      vertex 107.217 -12.1073 3.10862
      vertex 114.409 -0.0432997 2.5
    endloop
  endfacet
  facet normal 0.497028 -0.856946 0.136407
    outer loop
      vertex 107.217 -12.4014 1.56666
      vertex 107.025 -12.3893 2.34227
      vertex 107.132 -12.4507 1.56666
    endloop
  endfacet
  facet normal 0.490406 -0.850569 0.189827
    outer loop
      vertex 107.217 -12.2786 2.34227
      vertex 106.877 -12.3036 3.10862
      vertex 107.025 -12.3893 2.34227
    endloop
  endfacet
  facet normal 0.861776 -0.505089 0.04719
    outer loop
      vertex 107.217 -12.4014 1.56666
      vertex 109.167 -9.10392 1.25
      vertex 114.409 -0.0432997 2.5
    endloop
  endfacet
  facet normal 0.861777 -0.505026 0.0478456
    outer loop
      vertex 109.167 -9.10392 1.25
      vertex 107.217 -12.4014 1.56666
      vertex 107.217 -12.4314 1.25
    endloop
  endfacet
  facet normal 0.500073 -0.862194 0.0809209
    outer loop
      vertex 107.166 -12.4607 1.25
      vertex 107.217 -12.4014 1.56666
      vertex 107.132 -12.4507 1.56666
    endloop
  endfacet
  facet normal 0.496479 -0.864179 0.0818713
    outer loop
      vertex 107.217 -12.4014 1.56666
      vertex 107.166 -12.4607 1.25
      vertex 107.217 -12.4314 1.25
    endloop
  endfacet
  facet normal 0.812373 -0.127208 0.569094
    outer loop
      vertex 107.217 -2.34227 12.2786
      vertex 107.217 -3.10862 12.1073
      vertex 114.434 0 2.5
    endloop
  endfacet
  facet normal 0.124956 -0.216434 0.968268
    outer loop
      vertex 107.217 -2.34227 12.2786
      vertex 98.42 -7.42113 12.2786
      vertex 107.217 -3.10862 12.1073
    endloop
  endfacet
  facet normal 0.810743 0.0184134 0.585113
    outer loop
      vertex 107.217 0.784881 12.4753
      vertex 107.217 0 12.5
      vertex 114.434 0 2.5
    endloop
  endfacet
  facet normal 0.811016 0.0550557 0.582428
    outer loop
      vertex 107.217 1.56666 12.4014
      vertex 107.217 0.784881 12.4753
      vertex 114.434 0 2.5
    endloop
  endfacet
  facet normal 0.445058 -0.770812 0.45582
    outer loop
      vertex 107.217 -10.5541 6.69783
      vertex 105.532 -11.527 6.69783
      vertex 107.217 -10.9538 6.02192
    endloop
  endfacet
  facet normal 0.841065 -0.465614 0.275341
    outer loop
      vertex 107.217 -10.5541 6.69783
      vertex 107.217 -10.9538 6.02192
      vertex 114.434 0 2.5
    endloop
  endfacet
  facet normal 0.824569 -0.34675 0.447047
    outer loop
      vertex 107.217 -7.34731 10.1127
      vertex 107.217 -7.9678 9.63142
      vertex 114.434 0 2.5
    endloop
  endfacet
  facet normal 0.822233 -0.319917 0.470729
    outer loop
      vertex 107.217 -6.69783 10.5541
      vertex 107.217 -7.34731 10.1127
      vertex 114.434 0 2.5
    endloop
  endfacet
  facet normal 0.356711 -0.61787 0.700709
    outer loop
      vertex 107.217 -8.55684 9.11211
      vertex 103.292 -10.2339 9.63142
      vertex 103.802 -10.5284 9.11211
    endloop
  endfacet
  facet normal -0.0730233 -0.915867 0.394785
    outer loop
      vertex 103.802 -10.5284 9.11211
      vertex 92.7831 -12.5 2.5
      vertex 104.283 -10.8061 8.55684
    endloop
  endfacet
  facet normal -0.249909 0 0.968269
    outer loop
      vertex 93.6994 4.69569 12.1073
      vertex 94.3631 -5.07887 12.2786
      vertex 94.3631 5.07887 12.2786
    endloop
  endfacet
  facet normal -0.249909 0 0.968269
    outer loop
      vertex 94.3631 -5.07887 12.2786
      vertex 93.6994 4.69569 12.1073
      vertex 93.6994 -4.69569 12.1073
    endloop
  endfacet
  facet normal -0.516344 0.639941 0.569091
    outer loop
      vertex 94.3631 5.07887 12.2786
      vertex 92.7831 12.5 2.5
      vertex 93.6994 4.69569 12.1073
    endloop
  endfacet
  facet normal -0.712551 0.540741 0.447069
    outer loop
      vertex 92.7831 12.5 2.5
      vertex 89.4912 2.2661 9.63142
      vertex 90.0286 2.57634 10.1127
    endloop
  endfacet
  facet normal -0.890096 0 0.455774
    outer loop
      vertex 86.9053 -0.773083 6.02192
      vertex 87.2514 0.97295 6.69783
      vertex 86.9053 0.773083 6.02192
    endloop
  endfacet
  facet normal -0.890096 0 0.455774
    outer loop
      vertex 87.2514 0.97295 6.69783
      vertex 86.9053 -0.773083 6.02192
      vertex 87.2514 -0.97295 6.69783
    endloop
  endfacet
  facet normal -0.969755 0 0.244082
    outer loop
      vertex 85.9063 -0.196355 3.10862
      vertex 86.0961 0.305897 3.86271
      vertex 85.9063 0.196355 3.10862
    endloop
  endfacet
  facet normal -0.969755 0 0.244082
    outer loop
      vertex 86.0961 0.305897 3.86271
      vertex 85.9063 -0.196355 3.10862
      vertex 86.0961 -0.305897 3.86271
    endloop
  endfacet
  facet normal -0.793918 0.506074 0.337022
    outer loop
      vertex 92.7831 12.5 2.5
      vertex 87.6337 1.19364 7.34731
      vertex 88.0505 1.43429 7.9678
    endloop
  endfacet
  facet normal -0.830106 0 0.557605
    outer loop
      vertex 87.6337 -1.19364 7.34731
      vertex 88.0505 1.43429 7.9678
      vertex 87.6337 1.19364 7.34731
    endloop
  endfacet
  facet normal -0.830106 0 0.557605
    outer loop
      vertex 88.0505 1.43429 7.9678
      vertex 87.6337 -1.19364 7.34731
      vertex 88.0505 -1.43429 7.9678
    endloop
  endfacet
  facet normal -0.860521 0.488141 0.145679
    outer loop
      vertex 92.7581 12.4567 2.5
      vertex 85.9063 0.196355 3.10862
      vertex 86.0961 0.305897 3.86271
    endloop
  endfacet
  facet normal -0.867541 0.490866 0.0801394
    outer loop
      vertex 92.7581 12.4567 2.5
      vertex 85.6516 0.049283 1.56666
      vertex 85.758 0.110704 2.34227
    endloop
  endfacet
  facet normal -0.45321 -0.674825 0.582419
    outer loop
      vertex 95.0348 -5.46667 12.4014
      vertex 92.7831 -12.5 2.5
      vertex 95.7118 -5.85756 12.4753
    endloop
  endfacet
  facet normal 0.124955 0.216431 0.968269
    outer loop
      vertex 99.0837 7.80431 12.1073
      vertex 98.42 7.42113 12.2786
      vertex 107.217 3.10862 12.1073
    endloop
  endfacet
  facet normal -0.296022 0.767145 0.569087
    outer loop
      vertex 99.0837 7.80431 12.1073
      vertex 92.7831 12.5 2.5
      vertex 98.42 7.42113 12.2786
    endloop
  endfacet
  facet normal 0.15903 0.275453 0.948069
    outer loop
      vertex 99.7368 8.18136 11.8882
      vertex 99.0837 7.80431 12.1073
      vertex 107.217 3.10862 12.1073
    endloop
  endfacet
  facet normal 0.191895 0.332359 0.923425
    outer loop
      vertex 100.377 8.55078 11.6222
      vertex 99.7368 8.18136 11.8882
      vertex 107.217 4.60156 11.6222
    endloop
  endfacet
  facet normal 0.223517 0.387136 0.89452
    outer loop
      vertex 107.217 5.32224 11.3103
      vertex 101.001 8.91112 11.3103
      vertex 107.217 4.60156 11.6222
    endloop
  endfacet
  facet normal -0.209501 0.82164 0.53011
    outer loop
      vertex 101.001 8.91112 11.3103
      vertex 92.7831 12.5 2.5
      vertex 100.377 8.55078 11.6222
    endloop
  endfacet
  facet normal 0.812373 0.127208 0.569094
    outer loop
      vertex 107.217 3.10862 12.1073
      vertex 107.217 2.34227 12.2786
      vertex 114.434 0 2.5
    endloop
  endfacet
  facet normal 0.124956 0.216434 0.968268
    outer loop
      vertex 107.217 3.10862 12.1073
      vertex 98.42 7.42113 12.2786
      vertex 107.217 2.34227 12.2786
    endloop
  endfacet
  facet normal 0.827058 0.371735 0.42165
    outer loop
      vertex 107.217 8.55684 9.11211
      vertex 107.217 7.9678 9.63142
      vertex 114.434 0 2.5
    endloop
  endfacet
  facet normal -0.0915968 0.902125 0.421639
    outer loop
      vertex 103.802 10.5284 9.11211
      vertex 92.7831 12.5 2.5
      vertex 103.292 10.2339 9.63142
    endloop
  endfacet
  facet normal 0.282006 0.488465 0.825757
    outer loop
      vertex 102.192 9.59892 10.5541
      vertex 101.607 9.26096 10.9538
      vertex 107.217 6.69783 10.5541
    endloop
  endfacet
  facet normal 0.308669 0.534648 0.786686
    outer loop
      vertex 107.217 7.34731 10.1127
      vertex 102.192 9.59892 10.5541
      vertex 107.217 6.69783 10.5541
    endloop
  endfacet
  facet normal 0.835227 0.434517 0.337031
    outer loop
      vertex 107.217 10.1127 7.34731
      vertex 107.217 9.63142 7.9678
      vertex 114.434 0 2.5
    endloop
  endfacet
  facet normal 0.397407 0.688261 0.60693
    outer loop
      vertex 104.733 11.0657 7.9678
      vertex 104.283 10.8061 8.55684
      vertex 107.217 9.63142 7.9678
    endloop
  endfacet
  facet normal 0.841065 0.465614 0.275341
    outer loop
      vertex 107.217 10.9538 6.02192
      vertex 107.217 10.5541 6.69783
      vertex 114.434 0 2.5
    endloop
  endfacet
  facet normal 0.445058 0.770812 0.45582
    outer loop
      vertex 107.217 10.9538 6.02192
      vertex 105.532 11.527 6.69783
      vertex 107.217 10.5541 6.69783
    endloop
  endfacet
  facet normal 0.855958 0.504593 0.11279
    outer loop
      vertex 107.217 12.2786 2.34227
      vertex 107.217 12.1073 3.10862
      vertex 114.409 0.0432997 2.5
    endloop
  endfacet
  facet normal 0.4151 0.719131 0.557263
    outer loop
      vertex 105.149 11.3064 7.34731
      vertex 104.733 11.0657 7.9678
      vertex 107.217 10.1127 7.34731
    endloop
  endfacet
  facet normal 0.457415 0.792238 0.403895
    outer loop
      vertex 106.187 11.9052 5.32224
      vertex 105.878 11.7269 6.02192
      vertex 107.217 10.9538 6.02192
    endloop
  endfacet
  facet normal 0.847038 0.487808 0.211116
    outer loop
      vertex 107.217 11.6222 4.60156
      vertex 107.217 11.3103 5.32224
      vertex 114.434 0 2.5
    endloop
  endfacet
  facet normal -0.00655221 -0.998836 -0.0477813
    outer loop
      vertex 96.6994 -12.491 1.25
      vertex 92.8045 -12.4877 1.71512
      vertex 92.8426 -12.4657 1.25
    endloop
  endfacet
  facet normal -0.499681 -0.862353 -0.0816438
    outer loop
      vertex 92.8339 -12.4607 1.25
      vertex 92.8045 -12.4877 1.71512
      vertex 92.7831 -12.4753 1.71512
    endloop
  endfacet
  facet normal -0.496624 -0.864126 -0.0815535
    outer loop
      vertex 92.8045 -12.4877 1.71512
      vertex 92.8339 -12.4607 1.25
      vertex 92.8426 -12.4657 1.25
    endloop
  endfacet
  facet normal 0.86448 -0.502401 0.0163654
    outer loop
      vertex 114.409 -0.0432997 2.5
      vertex 109.167 -9.10392 1.25
      vertex 110.813 -6.27165 1.25
    endloop
  endfacet
  facet normal 0.15903 -0.275453 0.948069
    outer loop
      vertex 107.217 -3.10862 12.1073
      vertex 99.0837 -7.80431 12.1073
      vertex 99.7368 -8.18136 11.8882
    endloop
  endfacet
  facet normal 0.124955 -0.216431 0.968269
    outer loop
      vertex 107.217 -3.10862 12.1073
      vertex 98.42 -7.42113 12.2786
      vertex 99.0837 -7.80431 12.1073
    endloop
  endfacet
  facet normal 0.813442 -0.162285 0.558547
    outer loop
      vertex 107.217 -3.10862 12.1073
      vertex 107.217 -3.86271 11.8882
      vertex 114.434 0 2.5
    endloop
  endfacet
  facet normal 0.159035 -0.27546 0.948066
    outer loop
      vertex 107.217 -3.10862 12.1073
      vertex 99.7368 -8.18136 11.8882
      vertex 107.217 -3.86271 11.8882
    endloop
  endfacet
  facet normal 0.810743 -0.0184134 0.585113
    outer loop
      vertex 107.217 0 12.5
      vertex 107.217 -0.784881 12.4753
      vertex 114.434 0 2.5
    endloop
  endfacet
  facet normal 0.0181569 -0.031449 0.99934
    outer loop
      vertex 107.217 0 12.5
      vertex 97.0713 -6.64244 12.4753
      vertex 107.217 -0.784881 12.4753
    endloop
  endfacet
  facet normal 0.0542527 0.0939699 0.994096
    outer loop
      vertex 107.217 1.56666 12.4014
      vertex 97.7483 7.03333 12.4014
      vertex 107.217 0.784881 12.4753
    endloop
  endfacet
  facet normal 0.0181569 0.031449 0.99934
    outer loop
      vertex 107.217 0.784881 12.4753
      vertex 97.0713 6.64244 12.4753
      vertex 107.217 0 12.5
    endloop
  endfacet
  facet normal 0.457415 -0.792238 0.403895
    outer loop
      vertex 107.217 -10.9538 6.02192
      vertex 105.878 -11.7269 6.02192
      vertex 106.187 -11.9052 5.32224
    endloop
  endfacet
  facet normal 0.457585 -0.792255 0.403669
    outer loop
      vertex 107.217 -10.9538 6.02192
      vertex 106.187 -11.9052 5.32224
      vertex 107.217 -11.3103 5.32224
    endloop
  endfacet
  facet normal 0.835227 -0.434517 0.337031
    outer loop
      vertex 107.217 -9.63142 7.9678
      vertex 107.217 -10.1127 7.34731
      vertex 114.434 0 2.5
    endloop
  endfacet
  facet normal 0.415087 -0.718881 0.557596
    outer loop
      vertex 107.217 -9.63142 7.9678
      vertex 104.733 -11.0657 7.9678
      vertex 107.217 -10.1127 7.34731
    endloop
  endfacet
  facet normal 0.308603 -0.534471 0.786832
    outer loop
      vertex 107.217 -7.34731 10.1127
      vertex 102.192 -9.59892 10.5541
      vertex 102.755 -9.92366 10.1127
    endloop
  endfacet
  facet normal 0.333664 -0.577875 0.744801
    outer loop
      vertex 107.217 -7.34731 10.1127
      vertex 102.755 -9.92366 10.1127
      vertex 103.292 -10.2339 9.63142
    endloop
  endfacet
  facet normal 0.377914 -0.654596 0.654741
    outer loop
      vertex 107.217 -8.55684 9.11211
      vertex 103.802 -10.5284 9.11211
      vertex 104.283 -10.8061 8.55684
    endloop
  endfacet
  facet normal 0.377973 -0.654651 0.654651
    outer loop
      vertex 107.217 -8.55684 9.11211
      vertex 104.283 -10.8061 8.55684
      vertex 107.217 -9.11211 8.55684
    endloop
  endfacet
  facet normal 0.827058 -0.371735 0.42165
    outer loop
      vertex 107.217 -7.9678 9.63142
      vertex 107.217 -8.55684 9.11211
      vertex 114.434 0 2.5
    endloop
  endfacet
  facet normal 0.356694 -0.617812 0.700769
    outer loop
      vertex 107.217 -7.9678 9.63142
      vertex 103.292 -10.2339 9.63142
      vertex 107.217 -8.55684 9.11211
    endloop
  endfacet
  facet normal -0.497962 0.863362 -0.0814877
    outer loop
      vertex 92.8339 12.4607 1.25
      vertex 92.7831 12.4314 1.25
      vertex 92.7831 12.4753 1.71512
    endloop
  endfacet
  facet normal -0.86175 0.505088 -0.0476724
    outer loop
      vertex 92.7831 12.4314 1.25
      vertex 90.8328 9.10392 1.25
      vertex 92.7831 12.4753 1.71512
    endloop
  endfacet
  facet normal -0.179839 0 0.983696
    outer loop
      vertex 94.3631 5.07887 12.2786
      vertex 95.0348 -5.46667 12.4014
      vertex 95.0348 5.46667 12.4014
    endloop
  endfacet
  facet normal -0.179839 0 0.983696
    outer loop
      vertex 95.0348 -5.46667 12.4014
      vertex 94.3631 5.07887 12.2786
      vertex 94.3631 -5.07887 12.2786
    endloop
  endfacet
  facet normal -0.484903 0.657155 0.577075
    outer loop
      vertex 95.0348 5.46667 12.4014
      vertex 92.7831 12.5 2.5
      vertex 94.3631 5.07887 12.2786
    endloop
  endfacet
  facet normal -0.57744 -0.607419 0.545531
    outer loop
      vertex 93.0464 -4.31864 11.8882
      vertex 92.4065 -3.94922 11.6222
      vertex 92.7831 -12.5 2.5
    endloop
  endfacet
  facet normal -0.688151 0.55213 0.470744
    outer loop
      vertex 92.7831 12.5 2.5
      vertex 90.0286 2.57634 10.1127
      vertex 90.5911 2.90108 10.5541
    endloop
  endfacet
  facet normal -0.662336 -0.564536 0.492556
    outer loop
      vertex 91.1764 -3.23904 10.9538
      vertex 90.5911 -2.90108 10.5541
      vertex 92.7831 -12.5 2.5
    endloop
  endfacet
  facet normal -0.735473 0.530386 0.421628
    outer loop
      vertex 92.7831 12.5 2.5
      vertex 88.9811 1.97158 9.11211
      vertex 89.4912 2.2661 9.63142
    endloop
  endfacet
  facet normal -0.756676 0.521164 0.394753
    outer loop
      vertex 92.7831 12.5 2.5
      vertex 88.5002 1.69395 8.55684
      vertex 88.9811 1.97158 9.11211
    endloop
  endfacet
  facet normal -0.936395 0 0.350947
    outer loop
      vertex 86.3264 -0.438896 4.60156
      vertex 86.5965 0.594831 5.32224
      vertex 86.3264 0.438896 4.60156
    endloop
  endfacet
  facet normal -0.936395 0 0.350947
    outer loop
      vertex 86.5965 0.594831 5.32224
      vertex 86.3264 -0.438896 4.60156
      vertex 86.5965 -0.594831 5.32224
    endloop
  endfacet
  facet normal -0.847716 0.489443 0.204505
    outer loop
      vertex 92.7581 12.4567 2.5
      vertex 86.3264 0.438896 4.60156
      vertex 92.7831 12.5 2.5
    endloop
  endfacet
  facet normal -0.809752 -0.500265 0.306653
    outer loop
      vertex 87.6337 -1.19364 7.34731
      vertex 87.2514 -0.97295 6.69783
      vertex 92.7831 -12.5 2.5
    endloop
  endfacet
  facet normal -0.809752 0.500265 0.306653
    outer loop
      vertex 92.7831 12.5 2.5
      vertex 87.2514 0.97295 6.69783
      vertex 87.6337 1.19364 7.34731
    endloop
  endfacet
  facet normal -0.776216 0.51304 0.366441
    outer loop
      vertex 92.7831 12.5 2.5
      vertex 88.0505 1.43429 7.9678
      vertex 88.5002 1.69395 8.55684
    endloop
  endfacet
  facet normal -0.996672 0 0.081519
    outer loop
      vertex 85.6257 -0.0343162 1.25
      vertex 85.6516 0.049283 1.56666
      vertex 85.6257 0.0343162 1.25
    endloop
  endfacet
  facet normal -0.996672 0 0.081519
    outer loop
      vertex 85.6516 0.049283 1.56666
      vertex 85.6257 -0.0343162 1.25
      vertex 85.6516 -0.049283 1.56666
    endloop
  endfacet
  facet normal -0.864972 0.488993 0.112733
    outer loop
      vertex 92.7581 12.4567 2.5
      vertex 85.758 0.110704 2.34227
      vertex 85.9063 0.196355 3.10862
    endloop
  endfacet
  facet normal -0.868299 -0.493744 0.0476826
    outer loop
      vertex 87.5322 -3.38709 1.25
      vertex 85.6516 -0.049283 1.56666
      vertex 85.6257 -0.0343162 1.25
    endloop
  endfacet
  facet normal -0.8683 -0.493743 0.0476707
    outer loop
      vertex 85.6516 -0.049283 1.56666
      vertex 87.5322 -3.38709 1.25
      vertex 92.7581 -12.4567 2.5
    endloop
  endfacet
  facet normal -0.867541 -0.490866 0.0801394
    outer loop
      vertex 85.758 -0.110704 2.34227
      vertex 85.6516 -0.049283 1.56666
      vertex 92.7581 -12.4567 2.5
    endloop
  endfacet
  facet normal 0.820063 0.291293 0.492589
    outer loop
      vertex 107.217 6.69783 10.5541
      vertex 107.217 6.02192 10.9538
      vertex 114.434 0 2.5
    endloop
  endfacet
  facet normal 0.281963 0.488358 0.825835
    outer loop
      vertex 107.217 6.69783 10.5541
      vertex 101.607 9.26096 10.9538
      vertex 107.217 6.02192 10.9538
    endloop
  endfacet
  facet normal 0.223536 0.387161 0.894504
    outer loop
      vertex 101.001 8.91112 11.3103
      vertex 100.377 8.55078 11.6222
      vertex 107.217 4.60156 11.6222
    endloop
  endfacet
  facet normal -0.237212 0.803855 0.545479
    outer loop
      vertex 100.377 8.55078 11.6222
      vertex 92.7831 12.5 2.5
      vertex 99.7368 8.18136 11.8882
    endloop
  endfacet
  facet normal 0.191931 0.332438 0.923389
    outer loop
      vertex 107.217 4.60156 11.6222
      vertex 99.7368 8.18136 11.8882
      vertex 107.217 3.86271 11.8882
    endloop
  endfacet
  facet normal 0.814759 0.196399 0.545523
    outer loop
      vertex 107.217 4.60156 11.6222
      vertex 107.217 3.86271 11.8882
      vertex 114.434 0 2.5
    endloop
  endfacet
  facet normal 0.0899184 0.155746 0.983696
    outer loop
      vertex 107.217 2.34227 12.2786
      vertex 97.7483 7.03333 12.4014
      vertex 107.217 1.56666 12.4014
    endloop
  endfacet
  facet normal 0.811561 0.0913673 0.577079
    outer loop
      vertex 107.217 2.34227 12.2786
      vertex 107.217 1.56666 12.4014
      vertex 114.434 0 2.5
    endloop
  endfacet
  facet normal 0.356711 0.61787 0.700709
    outer loop
      vertex 103.802 10.5284 9.11211
      vertex 103.292 10.2339 9.63142
      vertex 107.217 8.55684 9.11211
    endloop
  endfacet
  facet normal 0.377914 0.654596 0.654741
    outer loop
      vertex 104.283 10.8061 8.55684
      vertex 103.802 10.5284 9.11211
      vertex 107.217 8.55684 9.11211
    endloop
  endfacet
  facet normal 0.333584 0.577784 0.744908
    outer loop
      vertex 107.217 7.9678 9.63142
      vertex 103.292 10.2339 9.63142
      vertex 107.217 7.34731 10.1127
    endloop
  endfacet
  facet normal 0.824569 0.34675 0.447047
    outer loop
      vertex 107.217 7.9678 9.63142
      vertex 107.217 7.34731 10.1127
      vertex 114.434 0 2.5
    endloop
  endfacet
  facet normal 0.430828 0.746378 0.507254
    outer loop
      vertex 107.217 10.5541 6.69783
      vertex 105.149 11.3064 7.34731
      vertex 107.217 10.1127 7.34731
    endloop
  endfacet
  facet normal -0.0561764 0.928759 0.366404
    outer loop
      vertex 104.733 11.0657 7.9678
      vertex 92.7831 12.5 2.5
      vertex 104.283 10.8061 8.55684
    endloop
  endfacet
  facet normal 0.490406 0.850569 0.189827
    outer loop
      vertex 107.025 12.3893 2.34227
      vertex 106.877 12.3036 3.10862
      vertex 107.217 12.2786 2.34227
    endloop
  endfacet
  facet normal 0.477262 0.8269 0.297419
    outer loop
      vertex 106.687 12.1941 3.86271
      vertex 106.457 12.0611 4.60156
      vertex 107.217 11.8882 3.86271
    endloop
  endfacet
  facet normal 0.00900429 0.993571 0.112849
    outer loop
      vertex 107.025 12.3893 2.34227
      vertex 92.8331 12.5 2.5
      vertex 106.877 12.3036 3.10862
    endloop
  endfacet
  facet normal 0.484106 0.871391 0.079497
    outer loop
      vertex 107.157 12.4657 1.25
      vertex 107.132 12.4507 1.56666
      vertex 107.166 12.4607 1.25
    endloop
  endfacet
  facet normal 0.853174 -0.512298 0.0982084
    outer loop
      vertex 114.434 0 2.5
      vertex 110.825 -6.25 1.25
      vertex 110.838 -6.22835 1.25
    endloop
  endfacet
  facet normal -0.501169 -0.864921 -0.0272189
    outer loop
      vertex 92.8045 -12.4877 1.71512
      vertex 92.7831 -12.5 2.5
      vertex 92.7831 -12.4753 1.71512
    endloop
  endfacet
  facet normal -0.864544 -0.502308 -0.0158075
    outer loop
      vertex 92.7831 -12.5 2.5
      vertex 90.8328 -9.10392 1.25
      vertex 92.7831 -12.4753 1.71512
    endloop
  endfacet
  facet normal -0.864541 -0.502314 -0.0158272
    outer loop
      vertex 90.8328 -9.10392 1.25
      vertex 92.7831 -12.5 2.5
      vertex 89.1872 -6.27165 1.25
    endloop
  endfacet
  facet normal 0.191895 -0.332359 0.923425
    outer loop
      vertex 107.217 -4.60156 11.6222
      vertex 99.7368 -8.18136 11.8882
      vertex 100.377 -8.55078 11.6222
    endloop
  endfacet
  facet normal 0.223536 -0.387161 0.894504
    outer loop
      vertex 107.217 -4.60156 11.6222
      vertex 100.377 -8.55078 11.6222
      vertex 101.001 -8.91112 11.3103
    endloop
  endfacet
  facet normal 0.0899184 -0.155746 0.983696
    outer loop
      vertex 107.217 -1.56666 12.4014
      vertex 97.7483 -7.03333 12.4014
      vertex 107.217 -2.34227 12.2786
    endloop
  endfacet
  facet normal 0.811561 -0.0913673 0.577079
    outer loop
      vertex 107.217 -1.56666 12.4014
      vertex 107.217 -2.34227 12.2786
      vertex 114.434 0 2.5
    endloop
  endfacet
  facet normal -0.357847 0.729882 0.582424
    outer loop
      vertex 97.7483 7.03333 12.4014
      vertex 92.7831 12.5 2.5
      vertex 97.0713 6.64244 12.4753
    endloop
  endfacet
  facet normal -0.389438 0.711327 0.585108
    outer loop
      vertex 97.0713 6.64244 12.4753
      vertex 92.7831 12.5 2.5
      vertex 96.3916 6.25 12.5
    endloop
  endfacet
  facet normal 0.397418 -0.68833 0.606846
    outer loop
      vertex 107.217 -9.11211 8.55684
      vertex 104.283 -10.8061 8.55684
      vertex 107.217 -9.63142 7.9678
    endloop
  endfacet
  facet normal 0.832406 -0.415686 0.366478
    outer loop
      vertex 107.217 -9.11211 8.55684
      vertex 107.217 -9.63142 7.9678
      vertex 114.434 0 2.5
    endloop
  endfacet
  facet normal -0.496624 0.864126 -0.0815535
    outer loop
      vertex 92.8339 12.4607 1.25
      vertex 92.8045 12.4877 1.71512
      vertex 92.8426 12.4657 1.25
    endloop
  endfacet
  facet normal -0.499681 0.862353 -0.0816438
    outer loop
      vertex 92.8045 12.4877 1.71512
      vertex 92.8339 12.4607 1.25
      vertex 92.7831 12.4753 1.71512
    endloop
  endfacet
  facet normal -0.864544 0.502308 -0.0158075
    outer loop
      vertex 90.8328 9.10392 1.25
      vertex 92.7831 12.5 2.5
      vertex 92.7831 12.4753 1.71512
    endloop
  endfacet
  facet normal -0.864541 0.502314 -0.0158272
    outer loop
      vertex 92.7831 12.5 2.5
      vertex 90.8328 9.10392 1.25
      vertex 89.1872 6.27165 1.25
    endloop
  endfacet
  facet normal -0.108513 0 0.994095
    outer loop
      vertex 95.0348 5.46667 12.4014
      vertex 95.7118 -5.85756 12.4753
      vertex 95.7118 5.85756 12.4753
    endloop
  endfacet
  facet normal -0.108513 0 0.994095
    outer loop
      vertex 95.7118 -5.85756 12.4753
      vertex 95.0348 5.46667 12.4014
      vertex 95.0348 -5.46667 12.4014
    endloop
  endfacet
  facet normal -0.547304 -0.623302 0.558527
    outer loop
      vertex 93.0464 -4.31864 11.8882
      vertex 92.7831 -12.5 2.5
      vertex 93.6994 -4.69569 12.1073
    endloop
  endfacet
  facet normal -0.547304 0.623302 0.558527
    outer loop
      vertex 93.6994 4.69569 12.1073
      vertex 92.7831 12.5 2.5
      vertex 93.0464 4.31864 11.8882
    endloop
  endfacet
  facet normal -0.66714 0 0.744932
    outer loop
      vertex 89.4912 2.2661 9.63142
      vertex 90.0286 -2.57634 10.1127
      vertex 90.0286 2.57634 10.1127
    endloop
  endfacet
  facet normal -0.66714 0 0.744932
    outer loop
      vertex 90.0286 -2.57634 10.1127
      vertex 89.4912 2.2661 9.63142
      vertex 89.4912 -2.2661 9.63142
    endloop
  endfacet
  facet normal -0.635112 -0.577962 0.512438
    outer loop
      vertex 91.7824 -3.58888 11.3103
      vertex 91.1764 -3.23904 10.9538
      vertex 92.7831 -12.5 2.5
    endloop
  endfacet
  facet normal -0.606855 -0.592233 0.530082
    outer loop
      vertex 92.4065 -3.94922 11.6222
      vertex 91.7824 -3.58888 11.3103
      vertex 92.7831 -12.5 2.5
    endloop
  endfacet
  facet normal -0.635112 0.577962 0.512438
    outer loop
      vertex 92.7831 12.5 2.5
      vertex 91.1764 3.23904 10.9538
      vertex 91.7824 3.58888 11.3103
    endloop
  endfacet
  facet normal -0.713405 0 0.700752
    outer loop
      vertex 88.9811 -1.97158 9.11211
      vertex 89.4912 2.2661 9.63142
      vertex 88.9811 1.97158 9.11211
    endloop
  endfacet
  facet normal -0.713405 0 0.700752
    outer loop
      vertex 89.4912 2.2661 9.63142
      vertex 88.9811 -1.97158 9.11211
      vertex 89.4912 -2.2661 9.63142
    endloop
  endfacet
  facet normal -0.835807 0.492062 0.24352
    outer loop
      vertex 92.7831 12.5 2.5
      vertex 86.5965 0.594831 5.32224
      vertex 86.9053 0.773083 6.02192
    endloop
  endfacet
  facet normal -0.914861 0 0.403769
    outer loop
      vertex 86.5965 -0.594831 5.32224
      vertex 86.9053 0.773083 6.02192
      vertex 86.5965 0.594831 5.32224
    endloop
  endfacet
  facet normal -0.914861 0 0.403769
    outer loop
      vertex 86.9053 0.773083 6.02192
      vertex 86.5965 -0.594831 5.32224
      vertex 86.9053 -0.773083 6.02192
    endloop
  endfacet
  facet normal -0.835807 -0.492062 0.24352
    outer loop
      vertex 86.9053 -0.773083 6.02192
      vertex 86.5965 -0.594831 5.32224
      vertex 92.7831 -12.5 2.5
    endloop
  endfacet
  facet normal 0.308603 0.534471 0.786832
    outer loop
      vertex 102.755 9.92366 10.1127
      vertex 102.192 9.59892 10.5541
      vertex 107.217 7.34731 10.1127
    endloop
  endfacet
  facet normal -0.134005 0.872075 0.470667
    outer loop
      vertex 102.755 9.92366 10.1127
      vertex 92.7831 12.5 2.5
      vertex 102.192 9.59892 10.5541
    endloop
  endfacet
  facet normal 0.253552 0.43915 0.861892
    outer loop
      vertex 107.217 6.02192 10.9538
      vertex 101.607 9.26096 10.9538
      vertex 107.217 5.32224 11.3103
    endloop
  endfacet
  facet normal 0.818084 0.261086 0.512418
    outer loop
      vertex 107.217 6.02192 10.9538
      vertex 107.217 5.32224 11.3103
      vertex 114.434 0 2.5
    endloop
  endfacet
  facet normal -0.0282992 0.951456 0.30648
    outer loop
      vertex 105.532 11.527 6.69783
      vertex 92.7831 12.5 2.5
      vertex 105.149 11.3064 7.34731
    endloop
  endfacet
  facet normal 0.430842 0.746191 0.507517
    outer loop
      vertex 105.532 11.527 6.69783
      vertex 105.149 11.3064 7.34731
      vertex 107.217 10.5541 6.69783
    endloop
  endfacet
  facet normal 0.00752751 0.989322 0.145554
    outer loop
      vertex 106.877 12.3036 3.10862
      vertex 92.8331 12.5 2.5
      vertex 106.687 12.1941 3.86271
    endloop
  endfacet
  facet normal 0.00866512 0.996749 0.0801015
    outer loop
      vertex 107.132 12.4507 1.56666
      vertex 92.8331 12.5 2.5
      vertex 107.025 12.3893 2.34227
    endloop
  endfacet
  facet normal 0.868358 -0.493648 -0.0476126
    outer loop
      vertex 114.412 -0.0123329 1.71512
      vertex 112.468 -3.38709 1.25
      vertex 114.374 -0.0343162 1.25
    endloop
  endfacet
  facet normal -0.497962 -0.863362 -0.0814877
    outer loop
      vertex 92.8339 -12.4607 1.25
      vertex 92.7831 -12.4753 1.71512
      vertex 92.7831 -12.4314 1.25
    endloop
  endfacet
  facet normal -0.86175 -0.505088 -0.0476724
    outer loop
      vertex 92.7831 -12.4753 1.71512
      vertex 90.8328 -9.10392 1.25
      vertex 92.7831 -12.4314 1.25
    endloop
  endfacet
  facet normal -0.00655221 0.998836 -0.0477813
    outer loop
      vertex 92.8426 12.4657 1.25
      vertex 92.8045 12.4877 1.71512
      vertex 96.6994 12.491 1.25
    endloop
  endfacet
  facet normal -0.501169 0.864921 -0.0272189
    outer loop
      vertex 92.8045 12.4877 1.71512
      vertex 92.7831 12.4753 1.71512
      vertex 92.7831 12.5 2.5
    endloop
  endfacet
  facet normal -0.383847 0 0.923397
    outer loop
      vertex 92.4065 3.94922 11.6222
      vertex 93.0464 -4.31864 11.8882
      vertex 93.0464 4.31864 11.8882
    endloop
  endfacet
  facet normal -0.383847 0 0.923397
    outer loop
      vertex 93.0464 -4.31864 11.8882
      vertex 92.4065 3.94922 11.6222
      vertex 92.4065 -3.94922 11.6222
    endloop
  endfacet
  facet normal -0.688151 -0.55213 0.470744
    outer loop
      vertex 90.5911 -2.90108 10.5541
      vertex 90.0286 -2.57634 10.1127
      vertex 92.7831 -12.5 2.5
    endloop
  endfacet
  facet normal -0.662336 0.564536 0.492556
    outer loop
      vertex 92.7831 12.5 2.5
      vertex 90.5911 2.90108 10.5541
      vertex 91.1764 3.23904 10.9538
    endloop
  endfacet
  facet normal -0.854225 0.488354 0.178355
    outer loop
      vertex 92.7581 12.4567 2.5
      vertex 86.0961 0.305897 3.86271
      vertex 86.3264 0.438896 4.60156
    endloop
  endfacet
  facet normal -0.954697 0 0.29758
    outer loop
      vertex 86.0961 -0.305897 3.86271
      vertex 86.3264 0.438896 4.60156
      vertex 86.0961 0.305897 3.86271
    endloop
  endfacet
  facet normal -0.954697 0 0.29758
    outer loop
      vertex 86.3264 0.438896 4.60156
      vertex 86.0961 -0.305897 3.86271
      vertex 86.3264 -0.438896 4.60156
    endloop
  endfacet
  facet normal -0.864972 -0.488993 0.112733
    outer loop
      vertex 85.9063 -0.196355 3.10862
      vertex 85.758 -0.110704 2.34227
      vertex 92.7581 -12.4567 2.5
    endloop
  endfacet
  facet normal -0.860521 -0.488141 0.145679
    outer loop
      vertex 86.0961 -0.305897 3.86271
      vertex 85.9063 -0.196355 3.10862
      vertex 92.7581 -12.4567 2.5
    endloop
  endfacet
  facet normal 0.445054 0.770828 0.455796
    outer loop
      vertex 105.878 11.7269 6.02192
      vertex 105.532 11.527 6.69783
      vertex 107.217 10.9538 6.02192
    endloop
  endfacet
  facet normal -0.0173234 0.961174 0.275399
    outer loop
      vertex 105.878 11.7269 6.02192
      vertex 92.7831 12.5 2.5
      vertex 105.532 11.527 6.69783
    endloop
  endfacet
  facet normal 0.00655355 0.998834 0.0478316
    outer loop
      vertex 103.301 12.491 1.25
      vertex 107.132 12.4507 1.56666
      vertex 107.157 12.4657 1.25
    endloop
  endfacet
  facet normal 0.0065605 0.998838 0.0477481
    outer loop
      vertex 107.132 12.4507 1.56666
      vertex 103.301 12.491 1.25
      vertex 92.8331 12.5 2.5
    endloop
  endfacet
  facet normal -0.00106234 0.977474 0.211053
    outer loop
      vertex 106.457 12.0611 4.60156
      vertex 92.7831 12.5 2.5
      vertex 106.187 11.9052 5.32224
    endloop
  endfacet
  facet normal 0.468304 0.810915 0.350868
    outer loop
      vertex 106.457 12.0611 4.60156
      vertex 106.187 11.9052 5.32224
      vertex 107.217 11.6222 4.60156
    endloop
  endfacet
  facet normal 0.497028 0.856946 0.136407
    outer loop
      vertex 107.132 12.4507 1.56666
      vertex 107.025 12.3893 2.34227
      vertex 107.217 12.4014 1.56666
    endloop
  endfacet
  facet normal 0.496479 0.864179 0.0818713
    outer loop
      vertex 107.166 12.4607 1.25
      vertex 107.217 12.4014 1.56666
      vertex 107.217 12.4314 1.25
    endloop
  endfacet
  facet normal 0.500073 0.862194 0.0809209
    outer loop
      vertex 107.217 12.4014 1.56666
      vertex 107.166 12.4607 1.25
      vertex 107.132 12.4507 1.56666
    endloop
  endfacet
  facet normal 0.494855 0.858285 0.13589
    outer loop
      vertex 107.217 12.4014 1.56666
      vertex 107.025 12.3893 2.34227
      vertex 107.217 12.2786 2.34227
    endloop
  endfacet
  facet normal 0.858874 0.505885 0.0800953
    outer loop
      vertex 107.217 12.4014 1.56666
      vertex 107.217 12.2786 2.34227
      vertex 114.409 0.0432997 2.5
    endloop
  endfacet
  facet normal 0.853005 0.501176 0.145616
    outer loop
      vertex 107.217 12.1073 3.10862
      vertex 107.217 11.8882 3.86271
      vertex 114.409 0.0432997 2.5
    endloop
  endfacet
  facet normal 0.48477 0.839908 0.244034
    outer loop
      vertex 107.217 12.1073 3.10862
      vertex 106.687 12.1941 3.86271
      vertex 107.217 11.8882 3.86271
    endloop
  endfacet
  facet normal 0.00417607 0.983946 0.17842
    outer loop
      vertex 106.687 12.1941 3.86271
      vertex 92.8331 12.5 2.5
      vertex 106.457 12.0611 4.60156
    endloop
  endfacet
  facet normal 0 0.97888 0.204434
    outer loop
      vertex 92.8331 12.5 2.5
      vertex 92.7831 12.5 2.5
      vertex 106.457 12.0611 4.60156
    endloop
  endfacet
  facet normal 0.861777 0.505026 0.0478456
    outer loop
      vertex 107.217 12.4014 1.56666
      vertex 109.167 9.10392 1.25
      vertex 107.217 12.4314 1.25
    endloop
  endfacet
  facet normal 0.861776 0.505089 0.04719
    outer loop
      vertex 109.167 9.10392 1.25
      vertex 107.217 12.4014 1.56666
      vertex 114.409 0.0432997 2.5
    endloop
  endfacet
  facet normal 0.86448 0.502401 0.0163654
    outer loop
      vertex 110.813 6.27165 1.25
      vertex 109.167 9.10392 1.25
      vertex 114.409 0.0432997 2.5
    endloop
  endfacet
  facet normal 0.484874 0.839823 0.244118
    outer loop
      vertex 106.877 12.3036 3.10862
      vertex 106.687 12.1941 3.86271
      vertex 107.217 12.1073 3.10862
    endloop
  endfacet
  facet normal 0.490889 0.85024 0.190052
    outer loop
      vertex 107.217 12.2786 2.34227
      vertex 106.877 12.3036 3.10862
      vertex 107.217 12.1073 3.10862
    endloop
  endfacet
  facet normal 0.477433 0.826723 0.297636
    outer loop
      vertex 107.217 11.8882 3.86271
      vertex 106.457 12.0611 4.60156
      vertex 107.217 11.6222 4.60156
    endloop
  endfacet
  facet normal 0.85003 0.495595 0.178424
    outer loop
      vertex 107.217 11.8882 3.86271
      vertex 107.217 11.6222 4.60156
      vertex 114.409 0.0432997 2.5
    endloop
  endfacet
endsolid OpenSCAD_Model
