solid OpenSCAD_Model
  facet normal 0 0 -1
    outer loop
      vertex 212.624 -20.892 -25
      vertex 224.405 -0.486881 -25
      vertex 224.377 -1.83111 -25
    endloop
  endfacet
  facet normal -0 0 -1
    outer loop
      vertex 224.405 -0.486881 -25
      vertex 212.624 -20.892 -25
      vertex 224.405 0.486881 -25
    endloop
  endfacet
  facet normal 0 0 -1
    outer loop
      vertex 213.774 -20.1956 -25
      vertex 224.377 -1.83111 -25
      vertex 224.291 -3.17898 -25
    endloop
  endfacet
  facet normal 0 0 -1
    outer loop
      vertex 212.624 20.892 -25
      vertex 224.405 0.486881 -25
      vertex 212.624 -20.892 -25
    endloop
  endfacet
  facet normal 0 0 -1
    outer loop
      vertex 214.899 -19.4474 -25
      vertex 224.291 -3.17898 -25
      vertex 224.143 -4.53553 -25
    endloop
  endfacet
  facet normal 0 0 -1
    outer loop
      vertex 224.405 0.486881 -25
      vertex 212.624 20.892 -25
      vertex 224.377 1.83111 -25
    endloop
  endfacet
  facet normal 0 0 -1
    outer loop
      vertex 216 -18.6409 -25
      vertex 224.143 -4.53553 -25
      vertex 223.925 -5.90266 -25
    endloop
  endfacet
  facet normal 0 0 -1
    outer loop
      vertex 224.377 -1.83111 -25
      vertex 213.774 -20.1956 -25
      vertex 212.624 -20.892 -25
    endloop
  endfacet
  facet normal 0 0 -1
    outer loop
      vertex 216 -18.6409 -25
      vertex 223.925 -5.90266 -25
      vertex 223.784 -6.55977 -25
    endloop
  endfacet
  facet normal -0 -0 -1
    outer loop
      vertex 213.774 20.1956 -25
      vertex 224.377 1.83111 -25
      vertex 212.624 20.892 -25
    endloop
  endfacet
  facet normal 0 0 -1
    outer loop
      vertex 217.573 -17.3179 -25
      vertex 223.784 -6.55977 -25
      vertex 223.432 -8.1634 -25
    endloop
  endfacet
  facet normal 0 0 -1
    outer loop
      vertex 224.291 -3.17898 -25
      vertex 214.899 -19.4474 -25
      vertex 213.774 -20.1956 -25
    endloop
  endfacet
  facet normal 0 0 -1
    outer loop
      vertex 218.786 -16.211 -25
      vertex 223.432 -8.1634 -25
      vertex 222.969 -9.72444 -25
    endloop
  endfacet
  facet normal 0 0 -1
    outer loop
      vertex 223.784 -6.55977 -25
      vertex 217.573 -17.3179 -25
      vertex 217.074 -17.768 -25
    endloop
  endfacet
  facet normal 0 0 -1
    outer loop
      vertex 218.786 -16.211 -25
      vertex 222.969 -9.72444 -25
      vertex 222.376 -11.1938 -25
    endloop
  endfacet
  facet normal 0 0 -1
    outer loop
      vertex 223.784 -6.55977 -25
      vertex 217.074 -17.768 -25
      vertex 216 -18.6409 -25
    endloop
  endfacet
  facet normal 0 0 -1
    outer loop
      vertex 218.786 -16.211 -25
      vertex 222.376 -11.1938 -25
      vertex 220.882 -13.781 -25
    endloop
  endfacet
  facet normal -0 -0 -1
    outer loop
      vertex 218.786 16.211 -25
      vertex 223.432 8.1634 -25
      vertex 217.573 17.3179 -25
    endloop
  endfacet
  facet normal 0 0 -1
    outer loop
      vertex 218.786 -16.211 -25
      vertex 220.882 -13.781 -25
      vertex 219.906 -15.0297 -25
    endloop
  endfacet
  facet normal 0 0 -1
    outer loop
      vertex 223.432 -8.1634 -25
      vertex 218.786 -16.211 -25
      vertex 217.573 -17.3179 -25
    endloop
  endfacet
  facet normal 0 0 -1
    outer loop
      vertex 223.432 8.1634 -25
      vertex 218.786 16.211 -25
      vertex 222.969 9.72444 -25
    endloop
  endfacet
  facet normal 0 0 -1
    outer loop
      vertex 220.882 13.781 -25
      vertex 218.786 16.211 -25
      vertex 219.906 15.0297 -25
    endloop
  endfacet
  facet normal 0 0 -1
    outer loop
      vertex 222.969 9.72444 -25
      vertex 218.786 16.211 -25
      vertex 222.376 11.1938 -25
    endloop
  endfacet
  facet normal 0 0 -1
    outer loop
      vertex 222.376 11.1938 -25
      vertex 218.786 16.211 -25
      vertex 220.882 13.781 -25
    endloop
  endfacet
  facet normal 0 0 -1
    outer loop
      vertex 224.143 -4.53553 -25
      vertex 216 -18.6409 -25
      vertex 214.899 -19.4474 -25
    endloop
  endfacet
  facet normal 0 0 -1
    outer loop
      vertex 223.784 6.55977 -25
      vertex 217.573 17.3179 -25
      vertex 223.432 8.1634 -25
    endloop
  endfacet
  facet normal 0 0 -1
    outer loop
      vertex 224.291 3.17898 -25
      vertex 214.899 19.4474 -25
      vertex 224.143 4.53553 -25
    endloop
  endfacet
  facet normal -0 -0 -1
    outer loop
      vertex 217.573 17.3179 -25
      vertex 223.784 6.55977 -25
      vertex 217.074 17.768 -25
    endloop
  endfacet
  facet normal 0 0 -1
    outer loop
      vertex 223.925 5.90266 -25
      vertex 216 18.6409 -25
      vertex 223.784 6.55977 -25
    endloop
  endfacet
  facet normal -0 -0 -1
    outer loop
      vertex 217.074 17.768 -25
      vertex 223.784 6.55977 -25
      vertex 216 18.6409 -25
    endloop
  endfacet
  facet normal -0 -0 -1
    outer loop
      vertex 216 18.6409 -25
      vertex 224.143 4.53553 -25
      vertex 214.899 19.4474 -25
    endloop
  endfacet
  facet normal 0 0 -1
    outer loop
      vertex 224.143 4.53553 -25
      vertex 216 18.6409 -25
      vertex 223.925 5.90266 -25
    endloop
  endfacet
  facet normal 0 0 -1
    outer loop
      vertex 224.377 1.83111 -25
      vertex 213.774 20.1956 -25
      vertex 224.291 3.17898 -25
    endloop
  endfacet
  facet normal -0 -0 -1
    outer loop
      vertex 214.899 19.4474 -25
      vertex 224.291 3.17898 -25
      vertex 213.774 20.1956 -25
    endloop
  endfacet
  facet normal 0 0 -1
    outer loop
      vertex 211.781 -21.3789 -25
      vertex 212.624 20.892 -25
      vertex 212.624 -20.892 -25
    endloop
  endfacet
  facet normal 0 0 -1
    outer loop
      vertex 211.781 -21.3789 -25
      vertex 211.781 21.3789 -25
      vertex 212.624 20.892 -25
    endloop
  endfacet
  facet normal 0 0 -1
    outer loop
      vertex 188.219 -21.3789 -25
      vertex 211.781 -21.3789 -25
      vertex 210.603 -22.0267 -25
    endloop
  endfacet
  facet normal 0 0 -1
    outer loop
      vertex 211.781 -21.3789 -25
      vertex 188.219 -21.3789 -25
      vertex 211.781 21.3789 -25
    endloop
  endfacet
  facet normal 0 0 -1
    outer loop
      vertex 189.397 -22.0267 -25
      vertex 210.603 -22.0267 -25
      vertex 209.393 -22.6264 -25
    endloop
  endfacet
  facet normal 0 0 -1
    outer loop
      vertex 188.219 21.3789 -25
      vertex 211.781 21.3789 -25
      vertex 188.219 -21.3789 -25
    endloop
  endfacet
  facet normal 0 0 -1
    outer loop
      vertex 190.607 -22.6264 -25
      vertex 209.393 -22.6264 -25
      vertex 208.144 -23.1764 -25
    endloop
  endfacet
  facet normal 0 0 -1
    outer loop
      vertex 211.781 21.3789 -25
      vertex 188.219 21.3789 -25
      vertex 210.603 22.0267 -25
    endloop
  endfacet
  facet normal 0 0 -1
    outer loop
      vertex 191.856 -23.1764 -25
      vertex 208.144 -23.1764 -25
      vertex 206.85 -23.6706 -25
    endloop
  endfacet
  facet normal 0 -0 -1
    outer loop
      vertex 189.397 22.0267 -25
      vertex 210.603 22.0267 -25
      vertex 188.219 21.3789 -25
    endloop
  endfacet
  facet normal 0 0 -1
    outer loop
      vertex 191.856 -23.1764 -25
      vertex 206.85 -23.6706 -25
      vertex 206.211 -23.8777 -25
    endloop
  endfacet
  facet normal 0 0 -1
    outer loop
      vertex 210.603 22.0267 -25
      vertex 189.397 22.0267 -25
      vertex 209.393 22.6264 -25
    endloop
  endfacet
  facet normal 0 0 -1
    outer loop
      vertex 193.789 -23.8777 -25
      vertex 206.211 -23.8777 -25
      vertex 204.646 -24.3744 -25
    endloop
  endfacet
  facet normal 0 0 -1
    outer loop
      vertex 210.603 -22.0267 -25
      vertex 189.397 -22.0267 -25
      vertex 188.219 -21.3789 -25
    endloop
  endfacet
  facet normal 0 0 -1
    outer loop
      vertex 195.354 -24.3744 -25
      vertex 204.646 -24.3744 -25
      vertex 203.063 -24.7541 -25
    endloop
  endfacet
  facet normal 0 0 -1
    outer loop
      vertex 209.393 -22.6264 -25
      vertex 190.607 -22.6264 -25
      vertex 189.397 -22.0267 -25
    endloop
  endfacet
  facet normal 0 0 -1
    outer loop
      vertex 195.354 -24.3744 -25
      vertex 203.063 -24.7541 -25
      vertex 201.494 -24.9748 -25
    endloop
  endfacet
  facet normal 0 0 -1
    outer loop
      vertex 206.211 -23.8777 -25
      vertex 193.789 -23.8777 -25
      vertex 191.856 -23.1764 -25
    endloop
  endfacet
  facet normal 0 0 -1
    outer loop
      vertex 195.354 -24.3744 -25
      vertex 201.494 -24.9748 -25
      vertex 198.506 -24.9748 -25
    endloop
  endfacet
  facet normal 0 0 -1
    outer loop
      vertex 208.144 -23.1764 -25
      vertex 191.856 -23.1764 -25
      vertex 190.607 -22.6264 -25
    endloop
  endfacet
  facet normal 0 0 -1
    outer loop
      vertex 195.354 -24.3744 -25
      vertex 198.506 -24.9748 -25
      vertex 196.937 -24.7541 -25
    endloop
  endfacet
  facet normal 0 0 -1
    outer loop
      vertex 204.646 -24.3744 -25
      vertex 195.354 -24.3744 -25
      vertex 193.789 -23.8777 -25
    endloop
  endfacet
  facet normal 0 0 -1
    outer loop
      vertex 204.646 24.3744 -25
      vertex 195.354 24.3744 -25
      vertex 203.063 24.7541 -25
    endloop
  endfacet
  facet normal 0 0 -1
    outer loop
      vertex 198.506 24.9748 -25
      vertex 195.354 24.3744 -25
      vertex 196.937 24.7541 -25
    endloop
  endfacet
  facet normal -0 0 -1
    outer loop
      vertex 203.063 24.7541 -25
      vertex 195.354 24.3744 -25
      vertex 201.494 24.9748 -25
    endloop
  endfacet
  facet normal -0 0 -1
    outer loop
      vertex 201.494 24.9748 -25
      vertex 195.354 24.3744 -25
      vertex 198.506 24.9748 -25
    endloop
  endfacet
  facet normal 0 0 -1
    outer loop
      vertex 191.856 -23.1764 -25
      vertex 193.789 -23.8777 -25
      vertex 193.15 -23.6706 -25
    endloop
  endfacet
  facet normal 0 -0 -1
    outer loop
      vertex 190.607 22.6264 -25
      vertex 209.393 22.6264 -25
      vertex 189.397 22.0267 -25
    endloop
  endfacet
  facet normal 0 -0 -1
    outer loop
      vertex 195.354 24.3744 -25
      vertex 204.646 24.3744 -25
      vertex 193.789 23.8777 -25
    endloop
  endfacet
  facet normal 0 0 -1
    outer loop
      vertex 193.789 23.8777 -25
      vertex 191.856 23.1764 -25
      vertex 193.15 23.6706 -25
    endloop
  endfacet
  facet normal 0 -0 -1
    outer loop
      vertex 193.789 23.8777 -25
      vertex 206.211 23.8777 -25
      vertex 191.856 23.1764 -25
    endloop
  endfacet
  facet normal 0 0 -1
    outer loop
      vertex 206.211 23.8777 -25
      vertex 193.789 23.8777 -25
      vertex 204.646 24.3744 -25
    endloop
  endfacet
  facet normal 0 0 -1
    outer loop
      vertex 208.144 23.1764 -25
      vertex 191.856 23.1764 -25
      vertex 206.85 23.6706 -25
    endloop
  endfacet
  facet normal -0 0 -1
    outer loop
      vertex 206.85 23.6706 -25
      vertex 191.856 23.1764 -25
      vertex 206.211 23.8777 -25
    endloop
  endfacet
  facet normal 0 0 -1
    outer loop
      vertex 209.393 22.6264 -25
      vertex 190.607 22.6264 -25
      vertex 208.144 23.1764 -25
    endloop
  endfacet
  facet normal 0 -0 -1
    outer loop
      vertex 191.856 23.1764 -25
      vertex 208.144 23.1764 -25
      vertex 190.607 22.6264 -25
    endloop
  endfacet
  facet normal 0 0 -1
    outer loop
      vertex 187.376 -20.892 -25
      vertex 188.219 21.3789 -25
      vertex 188.219 -21.3789 -25
    endloop
  endfacet
  facet normal 0 0 -1
    outer loop
      vertex 187.376 -20.892 -25
      vertex 187.376 20.892 -25
      vertex 188.219 21.3789 -25
    endloop
  endfacet
  facet normal 0 0 -1
    outer loop
      vertex 175.595 -0.486881 -25
      vertex 187.376 -20.892 -25
      vertex 186.226 -20.1956 -25
    endloop
  endfacet
  facet normal 0 0 -1
    outer loop
      vertex 187.376 -20.892 -25
      vertex 175.595 -0.486881 -25
      vertex 187.376 20.892 -25
    endloop
  endfacet
  facet normal 0 0 -1
    outer loop
      vertex 175.623 -1.83111 -25
      vertex 186.226 -20.1956 -25
      vertex 185.101 -19.4474 -25
    endloop
  endfacet
  facet normal 0 0 -1
    outer loop
      vertex 175.595 0.486881 -25
      vertex 187.376 20.892 -25
      vertex 175.595 -0.486881 -25
    endloop
  endfacet
  facet normal 0 0 -1
    outer loop
      vertex 175.709 -3.17898 -25
      vertex 185.101 -19.4474 -25
      vertex 184 -18.6409 -25
    endloop
  endfacet
  facet normal 0 0 -1
    outer loop
      vertex 187.376 20.892 -25
      vertex 175.595 0.486881 -25
      vertex 186.226 20.1956 -25
    endloop
  endfacet
  facet normal 0 0 -1
    outer loop
      vertex 175.857 -4.53553 -25
      vertex 184 -18.6409 -25
      vertex 182.926 -17.768 -25
    endloop
  endfacet
  facet normal 0 -0 -1
    outer loop
      vertex 175.623 1.83111 -25
      vertex 186.226 20.1956 -25
      vertex 175.595 0.486881 -25
    endloop
  endfacet
  facet normal 0 0 -1
    outer loop
      vertex 175.857 -4.53553 -25
      vertex 182.926 -17.768 -25
      vertex 182.427 -17.3179 -25
    endloop
  endfacet
  facet normal 0 0 -1
    outer loop
      vertex 186.226 20.1956 -25
      vertex 175.623 1.83111 -25
      vertex 185.101 19.4474 -25
    endloop
  endfacet
  facet normal 0 0 -1
    outer loop
      vertex 176.216 -6.55977 -25
      vertex 182.427 -17.3179 -25
      vertex 181.214 -16.211 -25
    endloop
  endfacet
  facet normal 0 -0 -1
    outer loop
      vertex 175.709 3.17898 -25
      vertex 185.101 19.4474 -25
      vertex 175.623 1.83111 -25
    endloop
  endfacet
  facet normal 0 0 -1
    outer loop
      vertex 176.568 -8.1634 -25
      vertex 181.214 -16.211 -25
      vertex 180.094 -15.0297 -25
    endloop
  endfacet
  facet normal 0 0 -1
    outer loop
      vertex 185.101 19.4474 -25
      vertex 175.709 3.17898 -25
      vertex 184 18.6409 -25
    endloop
  endfacet
  facet normal 0 0 -1
    outer loop
      vertex 176.568 -8.1634 -25
      vertex 180.094 -15.0297 -25
      vertex 179.118 -13.781 -25
    endloop
  endfacet
  facet normal 0 -0 -1
    outer loop
      vertex 175.857 4.53553 -25
      vertex 184 18.6409 -25
      vertex 175.709 3.17898 -25
    endloop
  endfacet
  facet normal 0 0 -1
    outer loop
      vertex 176.568 -8.1634 -25
      vertex 179.118 -13.781 -25
      vertex 177.624 -11.1938 -25
    endloop
  endfacet
  facet normal 0 0 -1
    outer loop
      vertex 184 18.6409 -25
      vertex 175.857 4.53553 -25
      vertex 182.926 17.768 -25
    endloop
  endfacet
  facet normal 0 0 -1
    outer loop
      vertex 176.568 -8.1634 -25
      vertex 177.624 -11.1938 -25
      vertex 177.031 -9.72444 -25
    endloop
  endfacet
  facet normal 0 0 -1
    outer loop
      vertex 182.926 17.768 -25
      vertex 175.857 4.53553 -25
      vertex 182.427 17.3179 -25
    endloop
  endfacet
  facet normal 0 0 -1
    outer loop
      vertex 181.214 -16.211 -25
      vertex 176.568 -8.1634 -25
      vertex 176.216 -6.55977 -25
    endloop
  endfacet
  facet normal 0 0 -1
    outer loop
      vertex 182.427 -17.3179 -25
      vertex 176.216 -6.55977 -25
      vertex 175.857 -4.53553 -25
    endloop
  endfacet
  facet normal 0 0 -1
    outer loop
      vertex 182.427 17.3179 -25
      vertex 176.216 6.55977 -25
      vertex 181.214 16.211 -25
    endloop
  endfacet
  facet normal 0 0 -1
    outer loop
      vertex 177.624 11.1938 -25
      vertex 176.568 8.1634 -25
      vertex 177.031 9.72444 -25
    endloop
  endfacet
  facet normal 0 0 -1
    outer loop
      vertex 175.857 -4.53553 -25
      vertex 176.216 -6.55977 -25
      vertex 176.075 -5.90266 -25
    endloop
  endfacet
  facet normal 0 0 -1
    outer loop
      vertex 180.094 15.0297 -25
      vertex 176.568 8.1634 -25
      vertex 179.118 13.781 -25
    endloop
  endfacet
  facet normal 0 0 -1
    outer loop
      vertex 184 -18.6409 -25
      vertex 175.857 -4.53553 -25
      vertex 175.709 -3.17898 -25
    endloop
  endfacet
  facet normal 0 0 -1
    outer loop
      vertex 179.118 13.781 -25
      vertex 176.568 8.1634 -25
      vertex 177.624 11.1938 -25
    endloop
  endfacet
  facet normal 0 0 -1
    outer loop
      vertex 185.101 -19.4474 -25
      vertex 175.709 -3.17898 -25
      vertex 175.623 -1.83111 -25
    endloop
  endfacet
  facet normal 0 0 -1
    outer loop
      vertex 181.214 16.211 -25
      vertex 176.568 8.1634 -25
      vertex 180.094 15.0297 -25
    endloop
  endfacet
  facet normal 0 0 -1
    outer loop
      vertex 186.226 -20.1956 -25
      vertex 175.623 -1.83111 -25
      vertex 175.595 -0.486881 -25
    endloop
  endfacet
  facet normal 0 0 -1
    outer loop
      vertex 176.216 6.55977 -25
      vertex 175.857 4.53553 -25
      vertex 176.075 5.90266 -25
    endloop
  endfacet
  facet normal 0 -0 -1
    outer loop
      vertex 176.568 8.1634 -25
      vertex 181.214 16.211 -25
      vertex 176.216 6.55977 -25
    endloop
  endfacet
  facet normal 0 -0 -1
    outer loop
      vertex 176.216 6.55977 -25
      vertex 182.427 17.3179 -25
      vertex 175.857 4.53553 -25
    endloop
  endfacet
  facet normal 0.138852 -0.987128 -0.0793661
    outer loop
      vertex 214.29 -24.9748 -2.61321
      vertex 201.494 -24.9748 -25
      vertex 203.063 -24.7541 -25
    endloop
  endfacet
  facet normal -0.231399 0.964722 0.125558
    outer loop
      vertex 195.354 24.3744 -25
      vertex 213.349 24.4315 7.72542
      vertex 196.937 24.7541 -25
    endloop
  endfacet
  facet normal -0.231381 0.964728 0.125548
    outer loop
      vertex 213.349 24.4315 7.72542
      vertex 195.354 24.3744 -25
      vertex 211.508 23.3686 12.5
    endloop
  endfacet
  facet normal -0.396075 0.89945 0.1847
    outer loop
      vertex 190.607 22.6264 -25
      vertex 205.484 19.8906 20.2254
      vertex 191.856 23.1764 -25
    endloop
  endfacet
  facet normal -0.396122 0.899427 0.184714
    outer loop
      vertex 205.484 19.8906 20.2254
      vertex 190.607 22.6264 -25
      vertex 201.564 17.6275 22.8386
    endloop
  endfacet
  facet normal 0.491053 -0.852095 -0.181113
    outer loop
      vertex 214.484 -24.863 -2.61321
      vertex 214.29 -24.9748 -2.61321
      vertex 214.484 -23.7764 -7.72542
    endloop
  endfacet
  facet normal -0.661595 -0.733473 0.155914
    outer loop
      vertex 182.926 -17.768 -25
      vertex 176.669 -3.25399 16.7283
      vertex 182.427 -17.3179 -25
    endloop
  endfacet
  facet normal -0.951139 0.282105 -0.125502
    outer loop
      vertex 176.568 8.1634 -25
      vertex 171.226 0.111777 -2.61321
      vertex 177.031 9.72444 -25
    endloop
  endfacet
  facet normal 0.543503 0.817216 -0.191737
    outer loop
      vertex 214.899 19.4474 -25
      vertex 213.774 20.1956 -25
      vertex 214.484 23.7764 -7.72542
    endloop
  endfacet
  facet normal -0.983478 0 0.181028
    outer loop
      vertex 171.226 -0.111777 2.61321
      vertex 172.167 0.655094 7.72542
      vertex 171.226 0.111777 2.61321
    endloop
  endfacet
  facet normal -0.983478 0 0.181028
    outer loop
      vertex 172.167 0.655094 7.72542
      vertex 171.226 -0.111777 2.61321
      vertex 172.167 -0.655094 7.72542
    endloop
  endfacet
  facet normal -0.304539 -0.939646 0.155955
    outer loop
      vertex 208.848 -21.8326 16.7283
      vertex 193.15 -23.6706 -25
      vertex 193.789 -23.8777 -25
    endloop
  endfacet
  facet normal 0.491632 -0.851781 0.181017
    outer loop
      vertex 214.484 -23.7764 7.72542
      vertex 213.349 -24.4315 7.72542
      vertex 214.29 -24.9748 2.61321
    endloop
  endfacet
  facet normal 0.508069 0.839 -0.194796
    outer loop
      vertex 213.774 20.1956 -25
      vertex 212.624 20.892 -25
      vertex 214.484 23.7764 -7.72542
    endloop
  endfacet
  facet normal 0.785397 0.613876 -0.0794222
    outer loop
      vertex 219.906 15.0297 -25
      vertex 214.484 24.863 -2.61321
      vertex 220.882 13.781 -25
    endloop
  endfacet
  facet normal -0.490585 -0.849379 0.194631
    outer loop
      vertex 192.758 -12.5433 25
      vertex 187.376 -20.892 -25
      vertex 188.219 -21.3789 -25
    endloop
  endfacet
  facet normal 0.396076 0.899452 -0.184692
    outer loop
      vertex 209.393 22.6264 -25
      vertex 208.144 23.1764 -25
      vertex 213.349 24.4315 -7.72542
    endloop
  endfacet
  facet normal -0.965079 0.211837 -0.154101
    outer loop
      vertex 176.216 6.55977 -25
      vertex 171.226 0.111777 -2.61321
      vertex 176.568 8.1634 -25
    endloop
  endfacet
  facet normal 0.435835 -0.879374 -0.191699
    outer loop
      vertex 213.349 -24.4315 -7.72542
      vertex 209.393 -22.6264 -25
      vertex 210.603 -22.0267 -25
    endloop
  endfacet
  facet normal 0.490585 -0.849381 -0.194625
    outer loop
      vertex 212.624 -20.892 -25
      vertex 213.349 -24.4315 -7.72542
      vertex 211.781 -21.3789 -25
    endloop
  endfacet
  facet normal 0.490329 -0.849524 -0.194643
    outer loop
      vertex 213.349 -24.4315 -7.72542
      vertex 212.624 -20.892 -25
      vertex 214.484 -23.7764 -7.72542
    endloop
  endfacet
  facet normal 0.0602345 0.104331 0.992717
    outer loop
      vertex 197.26 15.1422 24.4537
      vertex 192.758 12.5433 25
      vertex 214.484 0 25
    endloop
  endfacet
  facet normal 0.423176 -0.733046 0.532509
    outer loop
      vertex 214.484 -21.6506 12.5
      vertex 208.848 -21.8326 16.7283
      vertex 211.508 -23.3686 12.5
    endloop
  endfacet
  facet normal -0.554681 0 0.832063
    outer loop
      vertex 180.032 5.19598 20.2254
      vertex 183.952 -7.45909 22.8386
      vertex 183.952 7.45909 22.8386
    endloop
  endfacet
  facet normal -0.554681 0 0.832063
    outer loop
      vertex 183.952 -7.45909 22.8386
      vertex 180.032 5.19598 20.2254
      vertex 180.032 -5.19598 20.2254
    endloop
  endfacet
  facet normal 0.951171 -0.281978 0.125546
    outer loop
      vertex 214.484 -23.7764 7.72542
      vertex 223.432 -8.1634 -25
      vertex 214.484 -21.6506 12.5
    endloop
  endfacet
  facet normal 0.951142 -0.282106 0.125477
    outer loop
      vertex 223.432 -8.1634 -25
      vertex 214.484 -23.7764 7.72542
      vertex 222.969 -9.72444 -25
    endloop
  endfacet
  facet normal -0.865985 -0.50007 5.43755e-05
    outer loop
      vertex 179.118 -13.781 -25
      vertex 171.226 -0.111777 -2.61321
      vertex 177.624 -11.1938 -25
    endloop
  endfacet
  facet normal -0.866023 -0.500003 0
    outer loop
      vertex 171.226 -0.111777 -2.61321
      vertex 179.118 -13.781 -25
      vertex 171.226 -0.111777 2.61321
    endloop
  endfacet
  facet normal -0.298949 -0.941754 0.154041
    outer loop
      vertex 193.789 -23.8777 -25
      vertex 211.508 -23.3686 12.5
      vertex 208.848 -21.8326 16.7283
    endloop
  endfacet
  facet normal -0.2989 -0.941773 0.154018
    outer loop
      vertex 211.508 -23.3686 12.5
      vertex 193.789 -23.8777 -25
      vertex 195.354 -24.3744 -25
    endloop
  endfacet
  facet normal -0.965079 -0.211837 -0.154101
    outer loop
      vertex 176.568 -8.1634 -25
      vertex 171.226 -0.111777 -2.61321
      vertex 176.216 -6.55977 -25
    endloop
  endfacet
  facet normal -0.980631 0.0204263 -0.194797
    outer loop
      vertex 175.595 0.486881 -25
      vertex 172.167 0.655094 -7.72542
      vertex 175.623 1.83111 -25
    endloop
  endfacet
  facet normal -0.979462 0.062494 -0.191699
    outer loop
      vertex 175.623 1.83111 -25
      vertex 172.167 0.655094 -7.72542
      vertex 175.709 3.17898 -25
    endloop
  endfacet
  facet normal -0.666068 0.729807 0.154061
    outer loop
      vertex 182.427 17.3179 -25
      vertex 174.008 1.71798 12.5
      vertex 176.669 3.25399 16.7283
    endloop
  endfacet
  facet normal -0.666012 0.729852 0.154093
    outer loop
      vertex 174.008 1.71798 12.5
      vertex 182.427 17.3179 -25
      vertex 181.214 16.211 -25
    endloop
  endfacet
  facet normal -0.661595 0.733473 0.155914
    outer loop
      vertex 182.427 17.3179 -25
      vertex 176.669 3.25399 16.7283
      vertex 182.926 17.768 -25
    endloop
  endfacet
  facet normal 0.2989 0.941773 -0.154021
    outer loop
      vertex 206.211 23.8777 -25
      vertex 204.646 24.3744 -25
      vertex 214.29 24.9748 -2.61321
    endloop
  endfacet
  facet normal 0.719951 -0.682591 -0.125456
    outer loop
      vertex 219.906 -15.0297 -25
      vertex 214.484 -24.863 -2.61321
      vertex 218.786 -16.211 -25
    endloop
  endfacet
  facet normal -0.621097 0.764454 0.172768
    outer loop
      vertex 184 18.6409 -25
      vertex 176.669 3.25399 16.7283
      vertex 180.032 5.19598 20.2254
    endloop
  endfacet
  facet normal -0.621235 0.764356 0.172708
    outer loop
      vertex 176.669 3.25399 16.7283
      vertex 184 18.6409 -25
      vertex 182.926 17.768 -25
    endloop
  endfacet
  facet normal -0.666012 -0.729852 0.154093
    outer loop
      vertex 182.427 -17.3179 -25
      vertex 174.008 -1.71798 12.5
      vertex 181.214 -16.211 -25
    endloop
  endfacet
  facet normal -0.666068 -0.729807 0.154061
    outer loop
      vertex 174.008 -1.71798 12.5
      vertex 182.427 -17.3179 -25
      vertex 176.669 -3.25399 16.7283
    endloop
  endfacet
  facet normal 0.466483 -0.808064 0.359757
    outer loop
      vertex 214.484 -21.6506 12.5
      vertex 211.508 -23.3686 12.5
      vertex 213.349 -24.4315 7.72542
    endloop
  endfacet
  facet normal 0.924301 -0.373324 0.07935
    outer loop
      vertex 214.484 -24.863 2.61321
      vertex 222.969 -9.72444 -25
      vertex 214.484 -23.7764 7.72542
    endloop
  endfacet
  facet normal 0.924392 -0.373063 0.0795207
    outer loop
      vertex 222.969 -9.72444 -25
      vertex 214.484 -24.863 2.61321
      vertex 222.376 -11.1938 -25
    endloop
  endfacet
  facet normal -0.508081 0.838996 0.19478
    outer loop
      vertex 187.376 20.892 -25
      vertex 188.257 9.9444 24.4537
      vertex 192.758 12.5433 25
    endloop
  endfacet
  facet normal -0.50807 0.839002 0.194782
    outer loop
      vertex 188.257 9.9444 24.4537
      vertex 187.376 20.892 -25
      vertex 186.226 20.1956 -25
    endloop
  endfacet
  facet normal -0.846347 0 0.532632
    outer loop
      vertex 174.008 -1.71798 12.5
      vertex 176.669 3.25399 16.7283
      vertex 174.008 1.71798 12.5
    endloop
  endfacet
  facet normal -0.846347 0 0.532632
    outer loop
      vertex 176.669 3.25399 16.7283
      vertex 174.008 -1.71798 12.5
      vertex 176.669 -3.25399 16.7283
    endloop
  endfacet
  facet normal -1 0 0
    outer loop
      vertex 171.226 -0.111777 -2.61321
      vertex 171.226 0.111777 2.61321
      vertex 171.226 0.111777 -2.61321
    endloop
  endfacet
  facet normal -1 -0 0
    outer loop
      vertex 171.226 0.111777 2.61321
      vertex 171.226 -0.111777 -2.61321
      vertex 171.226 -0.111777 2.61321
    endloop
  endfacet
  facet normal 0.0602345 -0.104331 0.992717
    outer loop
      vertex 214.484 0 25
      vertex 192.758 -12.5433 25
      vertex 197.26 -15.1422 24.4537
    endloop
  endfacet
  facet normal 0.661663 0.733417 -0.155888
    outer loop
      vertex 217.573 17.3179 -25
      vertex 214.484 23.7764 -7.72542
      vertex 214.484 24.863 -2.61321
    endloop
  endfacet
  facet normal 0.661595 0.733472 -0.155921
    outer loop
      vertex 214.484 23.7764 -7.72542
      vertex 217.573 17.3179 -25
      vertex 217.074 17.768 -25
    endloop
  endfacet
  facet normal 0.472633 -0.859465 -0.194777
    outer loop
      vertex 213.349 -24.4315 -7.72542
      vertex 210.603 -22.0267 -25
      vertex 211.781 -21.3789 -25
    endloop
  endfacet
  facet normal -0.980873 0 -0.194646
    outer loop
      vertex 175.595 -0.486881 -25
      vertex 172.167 0.655094 -7.72542
      vertex 175.595 0.486881 -25
    endloop
  endfacet
  facet normal -0.980873 -0 -0.194646
    outer loop
      vertex 172.167 0.655094 -7.72542
      vertex 175.595 -0.486881 -25
      vertex 172.167 -0.655094 -7.72542
    endloop
  endfacet
  facet normal -0.972647 -0.155096 -0.172926
    outer loop
      vertex 176.075 -5.90266 -25
      vertex 172.167 -0.655094 -7.72542
      vertex 175.857 -4.53553 -25
    endloop
  endfacet
  facet normal -0.976988 0.10659 -0.18475
    outer loop
      vertex 175.709 3.17898 -25
      vertex 172.167 0.655094 -7.72542
      vertex 175.857 4.53553 -25
    endloop
  endfacet
  facet normal -0.933043 0 0.359766
    outer loop
      vertex 172.167 -0.655094 7.72542
      vertex 174.008 1.71798 12.5
      vertex 172.167 0.655094 7.72542
    endloop
  endfacet
  facet normal -0.933043 0 0.359766
    outer loop
      vertex 174.008 1.71798 12.5
      vertex 172.167 -0.655094 7.72542
      vertex 174.008 -1.71798 12.5
    endloop
  endfacet
  facet normal -0.865985 0.50007 5.43755e-05
    outer loop
      vertex 171.226 0.111777 -2.61321
      vertex 179.118 13.781 -25
      vertex 177.624 11.1938 -25
    endloop
  endfacet
  facet normal -0.866023 0.500003 0
    outer loop
      vertex 179.118 13.781 -25
      vertex 171.226 0.111777 -2.61321
      vertex 171.226 0.111777 2.61321
    endloop
  endfacet
  facet normal 0.976991 0.106639 0.184705
    outer loop
      vertex 224.291 3.17898 -25
      vertex 214.484 14.6946 20.2254
      vertex 214.484 10.1684 22.8386
    endloop
  endfacet
  facet normal 0.976994 0.10659 0.184718
    outer loop
      vertex 214.484 14.6946 20.2254
      vertex 224.291 3.17898 -25
      vertex 224.143 4.53553 -25
    endloop
  endfacet
  facet normal 0.491632 -0.851781 -0.181017
    outer loop
      vertex 214.29 -24.9748 -2.61321
      vertex 213.349 -24.4315 -7.72542
      vertex 214.484 -23.7764 -7.72542
    endloop
  endfacet
  facet normal -0.138827 -0.987132 0.0793536
    outer loop
      vertex 196.937 -24.7541 -25
      vertex 214.29 -24.9748 2.61321
      vertex 213.349 -24.4315 7.72542
    endloop
  endfacet
  facet normal -0.138852 -0.987127 0.0793693
    outer loop
      vertex 214.29 -24.9748 2.61321
      vertex 196.937 -24.7541 -25
      vertex 198.506 -24.9748 -25
    endloop
  endfacet
  facet normal 0 -1 0
    outer loop
      vertex 198.506 -24.9748 -25
      vertex 214.29 -24.9748 -2.61321
      vertex 214.29 -24.9748 2.61321
    endloop
  endfacet
  facet normal 0 -1 0
    outer loop
      vertex 214.29 -24.9748 -2.61321
      vertex 198.506 -24.9748 -25
      vertex 201.494 -24.9748 -25
    endloop
  endfacet
  facet normal -0.924393 -0.373064 -0.0795096
    outer loop
      vertex 177.624 -11.1938 -25
      vertex 171.226 -0.111777 -2.61321
      vertex 177.031 -9.72444 -25
    endloop
  endfacet
  facet normal -0.951139 -0.282105 -0.125502
    outer loop
      vertex 177.031 -9.72444 -25
      vertex 171.226 -0.111777 -2.61321
      vertex 176.568 -8.1634 -25
    endloop
  endfacet
  facet normal 0.785397 -0.613876 -0.0794222
    outer loop
      vertex 220.882 -13.781 -25
      vertex 214.484 -24.863 -2.61321
      vertex 219.906 -15.0297 -25
    endloop
  endfacet
  facet normal -0.720791 0 0.693152
    outer loop
      vertex 176.669 -3.25399 16.7283
      vertex 180.032 5.19598 20.2254
      vertex 176.669 3.25399 16.7283
    endloop
  endfacet
  facet normal -0.720791 0 0.693152
    outer loop
      vertex 180.032 5.19598 20.2254
      vertex 176.669 -3.25399 16.7283
      vertex 180.032 -5.19598 20.2254
    endloop
  endfacet
  facet normal -0.351262 0 0.936277
    outer loop
      vertex 183.952 7.45909 22.8386
      vertex 188.257 -9.9444 24.4537
      vertex 188.257 9.9444 24.4537
    endloop
  endfacet
  facet normal -0.351262 0 0.936277
    outer loop
      vertex 188.257 -9.9444 24.4537
      vertex 183.952 7.45909 22.8386
      vertex 183.952 -7.45909 22.8386
    endloop
  endfacet
  facet normal -0.719953 0.682593 0.125436
    outer loop
      vertex 172.167 0.655094 7.72542
      vertex 181.214 16.211 -25
      vertex 180.094 15.0297 -25
    endloop
  endfacet
  facet normal -0.719791 0.682743 0.125552
    outer loop
      vertex 181.214 16.211 -25
      vertex 172.167 0.655094 7.72542
      vertex 174.008 1.71798 12.5
    endloop
  endfacet
  facet normal -0.621235 -0.764356 0.172708
    outer loop
      vertex 184 -18.6409 -25
      vertex 176.669 -3.25399 16.7283
      vertex 182.926 -17.768 -25
    endloop
  endfacet
  facet normal -0.621097 -0.764454 0.172768
    outer loop
      vertex 176.669 -3.25399 16.7283
      vertex 184 -18.6409 -25
      vertex 180.032 -5.19598 20.2254
    endloop
  endfacet
  facet normal -0.719953 -0.682593 0.125436
    outer loop
      vertex 181.214 -16.211 -25
      vertex 172.167 -0.655094 7.72542
      vertex 180.094 -15.0297 -25
    endloop
  endfacet
  facet normal -0.719791 -0.682743 0.125552
    outer loop
      vertex 172.167 -0.655094 7.72542
      vertex 181.214 -16.211 -25
      vertex 174.008 -1.71798 12.5
    endloop
  endfacet
  facet normal -0.785397 -0.613877 0.0794135
    outer loop
      vertex 180.094 -15.0297 -25
      vertex 171.226 -0.111777 2.61321
      vertex 179.118 -13.781 -25
    endloop
  endfacet
  facet normal -0.785467 -0.613796 0.0793471
    outer loop
      vertex 171.226 -0.111777 2.61321
      vertex 180.094 -15.0297 -25
      vertex 172.167 -0.655094 7.72542
    endloop
  endfacet
  facet normal -0.231381 -0.964728 0.125548
    outer loop
      vertex 195.354 -24.3744 -25
      vertex 213.349 -24.4315 7.72542
      vertex 211.508 -23.3686 12.5
    endloop
  endfacet
  facet normal -0.231399 -0.964722 0.125558
    outer loop
      vertex 213.349 -24.4315 7.72542
      vertex 195.354 -24.3744 -25
      vertex 196.937 -24.7541 -25
    endloop
  endfacet
  facet normal -0.351542 -0.92009 0.17278
    outer loop
      vertex 191.856 -23.1764 -25
      vertex 208.848 -21.8326 16.7283
      vertex 205.484 -19.8906 20.2254
    endloop
  endfacet
  facet normal -0.351419 -0.920146 0.172732
    outer loop
      vertex 208.848 -21.8326 16.7283
      vertex 191.856 -23.1764 -25
      vertex 193.15 -23.6706 -25
    endloop
  endfacet
  facet normal -0.396122 -0.899427 0.184714
    outer loop
      vertex 190.607 -22.6264 -25
      vertex 205.484 -19.8906 20.2254
      vertex 201.564 -17.6275 22.8386
    endloop
  endfacet
  facet normal -0.396075 -0.89945 0.1847
    outer loop
      vertex 205.484 -19.8906 20.2254
      vertex 190.607 -22.6264 -25
      vertex 191.856 -23.1764 -25
    endloop
  endfacet
  facet normal 0.466414 -0.80809 0.359788
    outer loop
      vertex 214.484 -21.6506 12.5
      vertex 213.349 -24.4315 7.72542
      vertex 214.484 -23.7764 7.72542
    endloop
  endfacet
  facet normal -0.2989 0.941773 0.154018
    outer loop
      vertex 193.789 23.8777 -25
      vertex 211.508 23.3686 12.5
      vertex 195.354 24.3744 -25
    endloop
  endfacet
  facet normal -0.298949 0.941754 0.154041
    outer loop
      vertex 211.508 23.3686 12.5
      vertex 193.789 23.8777 -25
      vertex 208.848 21.8326 16.7283
    endloop
  endfacet
  facet normal 0.360357 0.624147 0.693241
    outer loop
      vertex 208.848 21.8326 16.7283
      vertex 205.484 19.8906 20.2254
      vertex 214.484 18.5786 16.7283
    endloop
  endfacet
  facet normal 0.979475 -0.0622888 0.191699
    outer loop
      vertex 214.484 -10.1684 22.8386
      vertex 224.377 -1.83111 -25
      vertex 214.484 -5.19779 24.4537
    endloop
  endfacet
  facet normal 0.979469 -0.0624944 0.191662
    outer loop
      vertex 224.377 -1.83111 -25
      vertex 214.484 -10.1684 22.8386
      vertex 224.291 -3.17898 -25
    endloop
  endfacet
  facet normal 0.965841 -0.207246 0.155565
    outer loop
      vertex 223.925 -5.90266 -25
      vertex 214.484 -18.5786 16.7283
      vertex 223.784 -6.55977 -25
    endloop
  endfacet
  facet normal 0.138852 0.987128 -0.0793661
    outer loop
      vertex 203.063 24.7541 -25
      vertex 201.494 24.9748 -25
      vertex 214.29 24.9748 -2.61321
    endloop
  endfacet
  facet normal 0.423205 0.733 0.532549
    outer loop
      vertex 214.484 21.6506 12.5
      vertex 208.848 21.8326 16.7283
      vertex 214.484 18.5786 16.7283
    endloop
  endfacet
  facet normal 0.351418 -0.920145 -0.17274
    outer loop
      vertex 213.349 -24.4315 -7.72542
      vertex 206.85 -23.6706 -25
      vertex 208.144 -23.1764 -25
    endloop
  endfacet
  facet normal 0.396076 -0.899452 -0.184692
    outer loop
      vertex 213.349 -24.4315 -7.72542
      vertex 208.144 -23.1764 -25
      vertex 209.393 -22.6264 -25
    endloop
  endfacet
  facet normal -0.979462 -0.062494 -0.191699
    outer loop
      vertex 175.709 -3.17898 -25
      vertex 172.167 -0.655094 -7.72542
      vertex 175.623 -1.83111 -25
    endloop
  endfacet
  facet normal 0.543503 -0.817216 -0.191737
    outer loop
      vertex 214.484 -23.7764 -7.72542
      vertex 213.774 -20.1956 -25
      vertex 214.899 -19.4474 -25
    endloop
  endfacet
  facet normal 0.508069 -0.839 -0.194796
    outer loop
      vertex 214.484 -23.7764 -7.72542
      vertex 212.624 -20.892 -25
      vertex 213.774 -20.1956 -25
    endloop
  endfacet
  facet normal 0.351418 0.920145 -0.17274
    outer loop
      vertex 208.144 23.1764 -25
      vertex 206.85 23.6706 -25
      vertex 213.349 24.4315 -7.72542
    endloop
  endfacet
  facet normal 0.435835 0.879374 -0.191699
    outer loop
      vertex 210.603 22.0267 -25
      vertex 209.393 22.6264 -25
      vertex 213.349 24.4315 -7.72542
    endloop
  endfacet
  facet normal -0.972647 0.155096 -0.172926
    outer loop
      vertex 175.857 4.53553 -25
      vertex 172.167 0.655094 -7.72542
      vertex 176.075 5.90266 -25
    endloop
  endfacet
  facet normal -0.965844 0.207247 -0.155545
    outer loop
      vertex 172.167 0.655094 -7.72542
      vertex 176.216 6.55977 -25
      vertex 176.075 5.90266 -25
    endloop
  endfacet
  facet normal -0.965977 0.206379 -0.155873
    outer loop
      vertex 176.216 6.55977 -25
      vertex 172.167 0.655094 -7.72542
      vertex 171.226 0.111777 -2.61321
    endloop
  endfacet
  facet normal -0.785397 0.613877 0.0794135
    outer loop
      vertex 171.226 0.111777 2.61321
      vertex 180.094 15.0297 -25
      vertex 179.118 13.781 -25
    endloop
  endfacet
  facet normal -0.785467 0.613796 0.0793471
    outer loop
      vertex 180.094 15.0297 -25
      vertex 171.226 0.111777 2.61321
      vertex 172.167 0.655094 7.72542
    endloop
  endfacet
  facet normal -0.490585 0.849379 0.194631
    outer loop
      vertex 188.219 21.3789 -25
      vertex 187.376 20.892 -25
      vertex 192.758 12.5433 25
    endloop
  endfacet
  facet normal -0.351419 0.920146 0.172732
    outer loop
      vertex 191.856 23.1764 -25
      vertex 208.848 21.8326 16.7283
      vertex 193.15 23.6706 -25
    endloop
  endfacet
  facet normal -0.351542 0.92009 0.17278
    outer loop
      vertex 208.848 21.8326 16.7283
      vertex 191.856 23.1764 -25
      vertex 205.484 19.8906 20.2254
    endloop
  endfacet
  facet normal -0.304539 0.939646 0.155955
    outer loop
      vertex 193.789 23.8777 -25
      vertex 193.15 23.6706 -25
      vertex 208.848 21.8326 16.7283
    endloop
  endfacet
  facet normal 0.719951 0.682591 -0.125456
    outer loop
      vertex 218.786 16.211 -25
      vertex 214.484 24.863 -2.61321
      vertex 219.906 15.0297 -25
    endloop
  endfacet
  facet normal 0.661595 -0.733472 -0.155921
    outer loop
      vertex 217.573 -17.3179 -25
      vertex 214.484 -23.7764 -7.72542
      vertex 217.074 -17.768 -25
    endloop
  endfacet
  facet normal 0.661663 -0.733417 -0.155888
    outer loop
      vertex 214.484 -23.7764 -7.72542
      vertex 217.573 -17.3179 -25
      vertex 214.484 -24.863 -2.61321
    endloop
  endfacet
  facet normal 0.491053 0.852095 -0.181113
    outer loop
      vertex 214.484 23.7764 -7.72542
      vertex 214.29 24.9748 -2.61321
      vertex 214.484 24.863 -2.61321
    endloop
  endfacet
  facet normal 0.491053 -0.852095 0.181113
    outer loop
      vertex 214.484 -23.7764 7.72542
      vertex 214.29 -24.9748 2.61321
      vertex 214.484 -24.863 2.61321
    endloop
  endfacet
  facet normal 0.866023 -0.500004 0
    outer loop
      vertex 214.484 -24.863 -2.61321
      vertex 222.376 -11.1938 -25
      vertex 214.484 -24.863 2.61321
    endloop
  endfacet
  facet normal 0.865985 -0.50007 -5.38617e-05
    outer loop
      vertex 222.376 -11.1938 -25
      vertex 214.484 -24.863 -2.61321
      vertex 220.882 -13.781 -25
    endloop
  endfacet
  facet normal -0.580763 -0.792833 0.184744
    outer loop
      vertex 185.101 -19.4474 -25
      vertex 180.032 -5.19598 20.2254
      vertex 184 -18.6409 -25
    endloop
  endfacet
  facet normal -0.580835 -0.792786 0.184721
    outer loop
      vertex 180.032 -5.19598 20.2254
      vertex 185.101 -19.4474 -25
      vertex 183.952 -7.45909 22.8386
    endloop
  endfacet
  facet normal -0.435834 -0.879372 0.191715
    outer loop
      vertex 190.607 -22.6264 -25
      vertex 197.26 -15.1422 24.4537
      vertex 189.397 -22.0267 -25
    endloop
  endfacet
  facet normal -0.43584 -0.879368 0.191715
    outer loop
      vertex 197.26 -15.1422 24.4537
      vertex 190.607 -22.6264 -25
      vertex 201.564 -17.6275 22.8386
    endloop
  endfacet
  facet normal -0.472632 -0.859464 0.194783
    outer loop
      vertex 189.397 -22.0267 -25
      vertex 192.758 -12.5433 25
      vertex 188.219 -21.3789 -25
    endloop
  endfacet
  facet normal -0.472541 -0.859514 0.194786
    outer loop
      vertex 192.758 -12.5433 25
      vertex 189.397 -22.0267 -25
      vertex 197.26 -15.1422 24.4537
    endloop
  endfacet
  facet normal 0 0 1
    outer loop
      vertex 192.758 12.5433 25
      vertex 192.758 -12.5433 25
      vertex 214.484 0 25
    endloop
  endfacet
  facet normal -0.472541 0.859514 0.194786
    outer loop
      vertex 189.397 22.0267 -25
      vertex 192.758 12.5433 25
      vertex 197.26 15.1422 24.4537
    endloop
  endfacet
  facet normal -0.472632 0.859464 0.194783
    outer loop
      vertex 192.758 12.5433 25
      vertex 189.397 22.0267 -25
      vertex 188.219 21.3789 -25
    endloop
  endfacet
  facet normal 0.0602397 -0.104337 0.992716
    outer loop
      vertex 214.484 0 25
      vertex 197.26 -15.1422 24.4537
      vertex 214.484 -5.19779 24.4537
    endloop
  endfacet
  facet normal 0.277339 -0.480383 0.832055
    outer loop
      vertex 214.484 -10.1684 22.8386
      vertex 201.564 -17.6275 22.8386
      vertex 205.484 -19.8906 20.2254
    endloop
  endfacet
  facet normal 0.580764 -0.792835 -0.184732
    outer loop
      vertex 216 -18.6409 -25
      vertex 214.484 -23.7764 -7.72542
      vertex 214.899 -19.4474 -25
    endloop
  endfacet
  facet normal 0.472633 0.859465 -0.194777
    outer loop
      vertex 211.781 21.3789 -25
      vertex 210.603 22.0267 -25
      vertex 213.349 24.4315 -7.72542
    endloop
  endfacet
  facet normal -0.965844 -0.207247 -0.155545
    outer loop
      vertex 176.216 -6.55977 -25
      vertex 172.167 -0.655094 -7.72542
      vertex 176.075 -5.90266 -25
    endloop
  endfacet
  facet normal -0.965977 -0.206379 -0.155873
    outer loop
      vertex 172.167 -0.655094 -7.72542
      vertex 176.216 -6.55977 -25
      vertex 171.226 -0.111777 -2.61321
    endloop
  endfacet
  facet normal -0.983478 0 -0.181028
    outer loop
      vertex 172.167 0.655094 -7.72542
      vertex 171.226 -0.111777 -2.61321
      vertex 171.226 0.111777 -2.61321
    endloop
  endfacet
  facet normal -0.983478 0 -0.181028
    outer loop
      vertex 171.226 -0.111777 -2.61321
      vertex 172.167 0.655094 -7.72542
      vertex 172.167 -0.655094 -7.72542
    endloop
  endfacet
  facet normal -0.980631 -0.0204263 -0.194797
    outer loop
      vertex 175.623 -1.83111 -25
      vertex 172.167 -0.655094 -7.72542
      vertex 175.595 -0.486881 -25
    endloop
  endfacet
  facet normal -0.976988 -0.10659 -0.18475
    outer loop
      vertex 175.857 -4.53553 -25
      vertex 172.167 -0.655094 -7.72542
      vertex 175.709 -3.17898 -25
    endloop
  endfacet
  facet normal -0.543654 0.817122 0.191707
    outer loop
      vertex 186.226 20.1956 -25
      vertex 183.952 7.45909 22.8386
      vertex 188.257 9.9444 24.4537
    endloop
  endfacet
  facet normal -0.543503 0.817215 0.191739
    outer loop
      vertex 183.952 7.45909 22.8386
      vertex 186.226 20.1956 -25
      vertex 185.101 19.4474 -25
    endloop
  endfacet
  facet normal -0.580835 0.792786 0.184721
    outer loop
      vertex 185.101 19.4474 -25
      vertex 180.032 5.19598 20.2254
      vertex 183.952 7.45909 22.8386
    endloop
  endfacet
  facet normal -0.580763 0.792833 0.184744
    outer loop
      vertex 180.032 5.19598 20.2254
      vertex 185.101 19.4474 -25
      vertex 184 18.6409 -25
    endloop
  endfacet
  facet normal -0.543503 -0.817215 0.191739
    outer loop
      vertex 186.226 -20.1956 -25
      vertex 183.952 -7.45909 22.8386
      vertex 185.101 -19.4474 -25
    endloop
  endfacet
  facet normal -0.543654 -0.817122 0.191707
    outer loop
      vertex 183.952 -7.45909 22.8386
      vertex 186.226 -20.1956 -25
      vertex 188.257 -9.9444 24.4537
    endloop
  endfacet
  facet normal -0.50807 -0.839002 0.194782
    outer loop
      vertex 187.376 -20.892 -25
      vertex 188.257 -9.9444 24.4537
      vertex 186.226 -20.1956 -25
    endloop
  endfacet
  facet normal -0.508081 -0.838996 0.19478
    outer loop
      vertex 188.257 -9.9444 24.4537
      vertex 187.376 -20.892 -25
      vertex 192.758 -12.5433 25
    endloop
  endfacet
  facet normal 0.965841 0.207246 0.155565
    outer loop
      vertex 223.784 6.55977 -25
      vertex 214.484 18.5786 16.7283
      vertex 223.925 5.90266 -25
    endloop
  endfacet
  facet normal 0.304365 -0.939712 -0.155892
    outer loop
      vertex 206.211 -23.8777 -25
      vertex 213.349 -24.4315 -7.72542
      vertex 214.29 -24.9748 -2.61321
    endloop
  endfacet
  facet normal 0.304539 -0.939645 -0.155962
    outer loop
      vertex 213.349 -24.4315 -7.72542
      vertex 206.211 -23.8777 -25
      vertex 206.85 -23.6706 -25
    endloop
  endfacet
  facet normal 0.49931 -0.866423 0
    outer loop
      vertex 214.29 -24.9748 -2.61321
      vertex 214.484 -24.863 2.61321
      vertex 214.29 -24.9748 2.61321
    endloop
  endfacet
  facet normal 0.49931 -0.866423 0
    outer loop
      vertex 214.484 -24.863 2.61321
      vertex 214.29 -24.9748 -2.61321
      vertex 214.484 -24.863 -2.61321
    endloop
  endfacet
  facet normal 0.965057 0.211996 0.154022
    outer loop
      vertex 223.784 6.55977 -25
      vertex 214.484 21.6506 12.5
      vertex 214.484 18.5786 16.7283
    endloop
  endfacet
  facet normal 0.965081 0.211837 0.154092
    outer loop
      vertex 214.484 21.6506 12.5
      vertex 223.784 6.55977 -25
      vertex 223.432 8.1634 -25
    endloop
  endfacet
  facet normal -0.924393 0.373064 -0.0795096
    outer loop
      vertex 177.031 9.72444 -25
      vertex 171.226 0.111777 -2.61321
      vertex 177.624 11.1938 -25
    endloop
  endfacet
  facet normal 0.175651 -0.304248 0.936258
    outer loop
      vertex 214.484 -10.1684 22.8386
      vertex 197.26 -15.1422 24.4537
      vertex 201.564 -17.6275 22.8386
    endloop
  endfacet
  facet normal 0.175645 -0.304222 0.936268
    outer loop
      vertex 214.484 -5.19779 24.4537
      vertex 197.26 -15.1422 24.4537
      vertex 214.484 -10.1684 22.8386
    endloop
  endfacet
  facet normal -0.120489 0 0.992715
    outer loop
      vertex 188.257 9.9444 24.4537
      vertex 192.758 -12.5433 25
      vertex 192.758 12.5433 25
    endloop
  endfacet
  facet normal -0.120489 0 0.992715
    outer loop
      vertex 192.758 -12.5433 25
      vertex 188.257 9.9444 24.4537
      vertex 188.257 -9.9444 24.4537
    endloop
  endfacet
  facet normal 0.423205 -0.733 0.532549
    outer loop
      vertex 214.484 -18.5786 16.7283
      vertex 208.848 -21.8326 16.7283
      vertex 214.484 -21.6506 12.5
    endloop
  endfacet
  facet normal 0.965057 -0.211996 0.154022
    outer loop
      vertex 214.484 -21.6506 12.5
      vertex 223.784 -6.55977 -25
      vertex 214.484 -18.5786 16.7283
    endloop
  endfacet
  facet normal 0.965081 -0.211837 0.154092
    outer loop
      vertex 223.784 -6.55977 -25
      vertex 214.484 -21.6506 12.5
      vertex 223.432 -8.1634 -25
    endloop
  endfacet
  facet normal 0.666013 0.729852 -0.154086
    outer loop
      vertex 217.573 17.3179 -25
      vertex 214.484 24.863 -2.61321
      vertex 218.786 16.211 -25
    endloop
  endfacet
  facet normal 0.621234 0.764355 -0.172714
    outer loop
      vertex 216 18.6409 -25
      vertex 214.484 23.7764 -7.72542
      vertex 217.074 17.768 -25
    endloop
  endfacet
  facet normal 0.580764 0.792835 -0.184732
    outer loop
      vertex 214.899 19.4474 -25
      vertex 214.484 23.7764 -7.72542
      vertex 216 18.6409 -25
    endloop
  endfacet
  facet normal 0.2989 -0.941773 -0.154021
    outer loop
      vertex 214.29 -24.9748 -2.61321
      vertex 204.646 -24.3744 -25
      vertex 206.211 -23.8777 -25
    endloop
  endfacet
  facet normal 0.231399 -0.964723 -0.125558
    outer loop
      vertex 214.29 -24.9748 -2.61321
      vertex 203.063 -24.7541 -25
      vertex 204.646 -24.3744 -25
    endloop
  endfacet
  facet normal 0.980634 0.0204264 0.194781
    outer loop
      vertex 214.484 5.19779 24.4537
      vertex 224.405 0.486881 -25
      vertex 224.377 1.83111 -25
    endloop
  endfacet
  facet normal 0.980634 0.0204715 0.194777
    outer loop
      vertex 224.405 0.486881 -25
      vertex 214.484 5.19779 24.4537
      vertex 214.484 0 25
    endloop
  endfacet
  facet normal -0.138852 0.987127 0.0793693
    outer loop
      vertex 196.937 24.7541 -25
      vertex 214.29 24.9748 2.61321
      vertex 198.506 24.9748 -25
    endloop
  endfacet
  facet normal -0.138827 0.987132 0.0793536
    outer loop
      vertex 214.29 24.9748 2.61321
      vertex 196.937 24.7541 -25
      vertex 213.349 24.4315 7.72542
    endloop
  endfacet
  facet normal 0.49931 0.866423 -0
    outer loop
      vertex 214.484 24.863 -2.61321
      vertex 214.29 24.9748 2.61321
      vertex 214.484 24.863 2.61321
    endloop
  endfacet
  facet normal 0.49931 0.866423 0
    outer loop
      vertex 214.29 24.9748 2.61321
      vertex 214.484 24.863 -2.61321
      vertex 214.29 24.9748 -2.61321
    endloop
  endfacet
  facet normal 0.277342 0.480385 0.832052
    outer loop
      vertex 214.484 14.6946 20.2254
      vertex 205.484 19.8906 20.2254
      vertex 214.484 10.1684 22.8386
    endloop
  endfacet
  facet normal 0.304539 0.939645 -0.155962
    outer loop
      vertex 206.211 23.8777 -25
      vertex 213.349 24.4315 -7.72542
      vertex 206.85 23.6706 -25
    endloop
  endfacet
  facet normal 0.304365 0.939712 -0.155892
    outer loop
      vertex 213.349 24.4315 -7.72542
      vertex 206.211 23.8777 -25
      vertex 214.29 24.9748 -2.61321
    endloop
  endfacet
  facet normal 0 1 0
    outer loop
      vertex 198.506 24.9748 -25
      vertex 214.29 24.9748 -2.61321
      vertex 201.494 24.9748 -25
    endloop
  endfacet
  facet normal 0 1 -0
    outer loop
      vertex 214.29 24.9748 -2.61321
      vertex 198.506 24.9748 -25
      vertex 214.29 24.9748 2.61321
    endloop
  endfacet
  facet normal 0.277339 0.480383 0.832055
    outer loop
      vertex 205.484 19.8906 20.2254
      vertex 201.564 17.6275 22.8386
      vertex 214.484 10.1684 22.8386
    endloop
  endfacet
  facet normal -0.43584 0.879368 0.191715
    outer loop
      vertex 190.607 22.6264 -25
      vertex 197.26 15.1422 24.4537
      vertex 201.564 17.6275 22.8386
    endloop
  endfacet
  facet normal -0.435834 0.879372 0.191715
    outer loop
      vertex 197.26 15.1422 24.4537
      vertex 190.607 22.6264 -25
      vertex 189.397 22.0267 -25
    endloop
  endfacet
  facet normal 0.277342 -0.480385 0.832052
    outer loop
      vertex 214.484 -10.1684 22.8386
      vertex 205.484 -19.8906 20.2254
      vertex 214.484 -14.6946 20.2254
    endloop
  endfacet
  facet normal 0.980634 -0.0204715 0.194777
    outer loop
      vertex 214.484 -5.19779 24.4537
      vertex 224.405 -0.486881 -25
      vertex 214.484 0 25
    endloop
  endfacet
  facet normal 0.980634 -0.0204264 0.194781
    outer loop
      vertex 224.405 -0.486881 -25
      vertex 214.484 -5.19779 24.4537
      vertex 224.377 -1.83111 -25
    endloop
  endfacet
  facet normal 0.621234 -0.764355 -0.172714
    outer loop
      vertex 217.074 -17.768 -25
      vertex 214.484 -23.7764 -7.72542
      vertex 216 -18.6409 -25
    endloop
  endfacet
  facet normal 0.666013 -0.729852 -0.154086
    outer loop
      vertex 218.786 -16.211 -25
      vertex 214.484 -24.863 -2.61321
      vertex 217.573 -17.3179 -25
    endloop
  endfacet
  facet normal 0.491632 0.851781 -0.181017
    outer loop
      vertex 214.484 23.7764 -7.72542
      vertex 213.349 24.4315 -7.72542
      vertex 214.29 24.9748 -2.61321
    endloop
  endfacet
  facet normal 0.490329 0.849524 -0.194643
    outer loop
      vertex 212.624 20.892 -25
      vertex 213.349 24.4315 -7.72542
      vertex 214.484 23.7764 -7.72542
    endloop
  endfacet
  facet normal 0.490585 0.849381 -0.194625
    outer loop
      vertex 213.349 24.4315 -7.72542
      vertex 212.624 20.892 -25
      vertex 211.781 21.3789 -25
    endloop
  endfacet
  facet normal 0.972598 0.155566 0.172777
    outer loop
      vertex 224.143 4.53553 -25
      vertex 214.484 18.5786 16.7283
      vertex 214.484 14.6946 20.2254
    endloop
  endfacet
  facet normal 0.972643 0.155096 0.172946
    outer loop
      vertex 214.484 18.5786 16.7283
      vertex 224.143 4.53553 -25
      vertex 223.925 5.90266 -25
    endloop
  endfacet
  facet normal 0.360353 0.624169 0.693223
    outer loop
      vertex 214.484 18.5786 16.7283
      vertex 205.484 19.8906 20.2254
      vertex 214.484 14.6946 20.2254
    endloop
  endfacet
  facet normal 0.491632 0.851781 0.181017
    outer loop
      vertex 214.29 24.9748 2.61321
      vertex 213.349 24.4315 7.72542
      vertex 214.484 23.7764 7.72542
    endloop
  endfacet
  facet normal 0.231399 0.964723 -0.125558
    outer loop
      vertex 204.646 24.3744 -25
      vertex 203.063 24.7541 -25
      vertex 214.29 24.9748 -2.61321
    endloop
  endfacet
  facet normal 0.360353 -0.624169 0.693223
    outer loop
      vertex 214.484 -14.6946 20.2254
      vertex 205.484 -19.8906 20.2254
      vertex 214.484 -18.5786 16.7283
    endloop
  endfacet
  facet normal 0.360357 -0.624147 0.693241
    outer loop
      vertex 214.484 -18.5786 16.7283
      vertex 205.484 -19.8906 20.2254
      vertex 208.848 -21.8326 16.7283
    endloop
  endfacet
  facet normal 0.976991 -0.106639 0.184705
    outer loop
      vertex 214.484 -14.6946 20.2254
      vertex 224.291 -3.17898 -25
      vertex 214.484 -10.1684 22.8386
    endloop
  endfacet
  facet normal 0.976994 -0.10659 0.184718
    outer loop
      vertex 224.291 -3.17898 -25
      vertex 214.484 -14.6946 20.2254
      vertex 224.143 -4.53553 -25
    endloop
  endfacet
  facet normal 0.972598 -0.155566 0.172777
    outer loop
      vertex 214.484 -18.5786 16.7283
      vertex 224.143 -4.53553 -25
      vertex 214.484 -14.6946 20.2254
    endloop
  endfacet
  facet normal 0.972643 -0.155096 0.172946
    outer loop
      vertex 224.143 -4.53553 -25
      vertex 214.484 -18.5786 16.7283
      vertex 223.925 -5.90266 -25
    endloop
  endfacet
  facet normal 0.951171 0.281978 0.125546
    outer loop
      vertex 223.432 8.1634 -25
      vertex 214.484 23.7764 7.72542
      vertex 214.484 21.6506 12.5
    endloop
  endfacet
  facet normal 0.951142 0.282106 0.125477
    outer loop
      vertex 214.484 23.7764 7.72542
      vertex 223.432 8.1634 -25
      vertex 222.969 9.72444 -25
    endloop
  endfacet
  facet normal 0.466414 0.80809 0.359788
    outer loop
      vertex 214.484 23.7764 7.72542
      vertex 213.349 24.4315 7.72542
      vertex 214.484 21.6506 12.5
    endloop
  endfacet
  facet normal 0.175651 0.304248 0.936258
    outer loop
      vertex 201.564 17.6275 22.8386
      vertex 197.26 15.1422 24.4537
      vertex 214.484 10.1684 22.8386
    endloop
  endfacet
  facet normal 0.979475 0.0622888 0.191699
    outer loop
      vertex 224.377 1.83111 -25
      vertex 214.484 10.1684 22.8386
      vertex 214.484 5.19779 24.4537
    endloop
  endfacet
  facet normal 0.979469 0.0624944 0.191662
    outer loop
      vertex 214.484 10.1684 22.8386
      vertex 224.377 1.83111 -25
      vertex 224.291 3.17898 -25
    endloop
  endfacet
  facet normal 0.866023 0.500004 0
    outer loop
      vertex 222.376 11.1938 -25
      vertex 214.484 24.863 -2.61321
      vertex 214.484 24.863 2.61321
    endloop
  endfacet
  facet normal 0.865985 0.50007 -5.38617e-05
    outer loop
      vertex 214.484 24.863 -2.61321
      vertex 222.376 11.1938 -25
      vertex 220.882 13.781 -25
    endloop
  endfacet
  facet normal 0.980878 0 0.194626
    outer loop
      vertex 224.405 0.486881 -25
      vertex 214.484 0 25
      vertex 224.405 -0.486881 -25
    endloop
  endfacet
  facet normal 0.175645 0.304222 0.936268
    outer loop
      vertex 214.484 10.1684 22.8386
      vertex 197.26 15.1422 24.4537
      vertex 214.484 5.19779 24.4537
    endloop
  endfacet
  facet normal 0.0602397 0.104337 0.992716
    outer loop
      vertex 214.484 5.19779 24.4537
      vertex 197.26 15.1422 24.4537
      vertex 214.484 0 25
    endloop
  endfacet
  facet normal 0.924301 0.373324 0.07935
    outer loop
      vertex 222.969 9.72444 -25
      vertex 214.484 24.863 2.61321
      vertex 214.484 23.7764 7.72542
    endloop
  endfacet
  facet normal 0.924392 0.373063 0.0795207
    outer loop
      vertex 214.484 24.863 2.61321
      vertex 222.969 9.72444 -25
      vertex 222.376 11.1938 -25
    endloop
  endfacet
  facet normal 0.491053 0.852095 0.181113
    outer loop
      vertex 214.484 24.863 2.61321
      vertex 214.29 24.9748 2.61321
      vertex 214.484 23.7764 7.72542
    endloop
  endfacet
  facet normal 0.466483 0.808064 0.359757
    outer loop
      vertex 213.349 24.4315 7.72542
      vertex 211.508 23.3686 12.5
      vertex 214.484 21.6506 12.5
    endloop
  endfacet
  facet normal 0.423176 0.733046 0.532509
    outer loop
      vertex 211.508 23.3686 12.5
      vertex 208.848 21.8326 16.7283
      vertex 214.484 21.6506 12.5
    endloop
  endfacet
endsolid OpenSCAD_Model
