solid OpenSCAD_Model
  facet normal 0 0 -1
    outer loop
      vertex 216.077 -86.4673 -25
      vertex 219.774 -92.916 -25
      vertex 219.758 -107.157 -25
    endloop
  endfacet
  facet normal -0 -0 -1
    outer loop
      vertex 219.234 -90.4197 -25
      vertex 219.774 -92.916 -25
      vertex 216.077 -86.4673 -25
    endloop
  endfacet
  facet normal 0 0 -1
    outer loop
      vertex 219.215 -109.619 -25
      vertex 219.758 -107.157 -25
      vertex 219.611 -108.417 -25
    endloop
  endfacet
  facet normal -0 -0 -1
    outer loop
      vertex 219.628 -91.6227 -25
      vertex 219.774 -92.916 -25
      vertex 219.234 -90.4197 -25
    endloop
  endfacet
  facet normal 0 0 -1
    outer loop
      vertex 219.758 -107.157 -25
      vertex 219.215 -109.619 -25
      vertex 216.022 -113.583 -25
    endloop
  endfacet
  facet normal 0 0 -1
    outer loop
      vertex 219.774 -92.916 -25
      vertex 219.628 -91.6227 -25
      vertex 219.774 -92.884 -25
    endloop
  endfacet
  facet normal 0 0 -1
    outer loop
      vertex 217.914 -111.867 -25
      vertex 219.215 -109.619 -25
      vertex 218.75 -110.85 -25
    endloop
  endfacet
  facet normal -0 -0 -1
    outer loop
      vertex 217.938 -88.169 -25
      vertex 219.234 -90.4197 -25
      vertex 216.077 -86.4673 -25
    endloop
  endfacet
  facet normal 0 0 -1
    outer loop
      vertex 219.215 -109.619 -25
      vertex 217.914 -111.867 -25
      vertex 216.022 -113.583 -25
    endloop
  endfacet
  facet normal 0 0 -1
    outer loop
      vertex 219.234 -90.4197 -25
      vertex 217.938 -88.169 -25
      vertex 218.772 -89.1872 -25
    endloop
  endfacet
  facet normal 0 0 -1
    outer loop
      vertex 216.022 -113.583 -25
      vertex 217.914 -111.867 -25
      vertex 217.069 -112.81 -25
    endloop
  endfacet
  facet normal 0 0 -1
    outer loop
      vertex 217.938 -88.169 -25
      vertex 216.077 -86.4673 -25
      vertex 217.095 -87.2248 -25
    endloop
  endfacet
  facet normal 0 0 -1
    outer loop
      vertex 216.022 -113.583 -25
      vertex 217.069 -112.81 -25
      vertex 216.05 -113.567 -25
    endloop
  endfacet
  facet normal -0 0 -1
    outer loop
      vertex 219.758 -107.157 -25
      vertex 216.022 -113.583 -25
      vertex 216.077 -86.4673 -25
    endloop
  endfacet
  facet normal 0 0 -1
    outer loop
      vertex 216.022 -113.583 -25
      vertex 203.752 -79.3333 -25
      vertex 216.077 -86.4673 -25
    endloop
  endfacet
  facet normal 0 0 -1
    outer loop
      vertex 203.681 -120.69 -25
      vertex 203.752 -79.3333 -25
      vertex 216.022 -113.583 -25
    endloop
  endfacet
  facet normal 0 0 -1
    outer loop
      vertex 196.319 -79.3103 -25
      vertex 203.752 -79.3333 -25
      vertex 203.681 -120.69 -25
    endloop
  endfacet
  facet normal 0 -0 -1
    outer loop
      vertex 201.32 -78.5523 -25
      vertex 203.752 -79.3333 -25
      vertex 196.319 -79.3103 -25
    endloop
  endfacet
  facet normal 0 0 -1
    outer loop
      vertex 201.277 -121.45 -25
      vertex 203.681 -120.69 -25
      vertex 202.516 -121.193 -25
    endloop
  endfacet
  facet normal -0 -0 -1
    outer loop
      vertex 202.559 -78.8126 -25
      vertex 203.752 -79.3333 -25
      vertex 201.32 -78.5523 -25
    endloop
  endfacet
  facet normal -0 0 -1
    outer loop
      vertex 203.681 -120.69 -25
      vertex 201.277 -121.45 -25
      vertex 196.248 -120.667 -25
    endloop
  endfacet
  facet normal 0 0 -1
    outer loop
      vertex 203.752 -79.3333 -25
      vertex 202.559 -78.8126 -25
      vertex 203.724 -79.3173 -25
    endloop
  endfacet
  facet normal 0 0 -1
    outer loop
      vertex 198.68 -121.448 -25
      vertex 201.277 -121.45 -25
      vertex 199.978 -121.663 -25
    endloop
  endfacet
  facet normal 0 -0 -1
    outer loop
      vertex 198.723 -78.55 -25
      vertex 201.32 -78.5523 -25
      vertex 196.319 -79.3103 -25
    endloop
  endfacet
  facet normal 0 0 -1
    outer loop
      vertex 201.277 -121.45 -25
      vertex 198.68 -121.448 -25
      vertex 196.248 -120.667 -25
    endloop
  endfacet
  facet normal 0 0 -1
    outer loop
      vertex 201.32 -78.5523 -25
      vertex 198.723 -78.55 -25
      vertex 200.022 -78.3369 -25
    endloop
  endfacet
  facet normal 0 0 -1
    outer loop
      vertex 196.248 -120.667 -25
      vertex 198.68 -121.448 -25
      vertex 197.441 -121.187 -25
    endloop
  endfacet
  facet normal 0 0 -1
    outer loop
      vertex 198.723 -78.55 -25
      vertex 196.319 -79.3103 -25
      vertex 197.484 -78.8074 -25
    endloop
  endfacet
  facet normal 0 0 -1
    outer loop
      vertex 196.248 -120.667 -25
      vertex 197.441 -121.187 -25
      vertex 196.276 -120.683 -25
    endloop
  endfacet
  facet normal 0 0 -1
    outer loop
      vertex 203.681 -120.69 -25
      vertex 196.248 -120.667 -25
      vertex 196.319 -79.3103 -25
    endloop
  endfacet
  facet normal 0 0 -1
    outer loop
      vertex 196.248 -120.667 -25
      vertex 183.978 -86.4173 -25
      vertex 196.319 -79.3103 -25
    endloop
  endfacet
  facet normal 0 0 -1
    outer loop
      vertex 183.923 -113.533 -25
      vertex 183.978 -86.4173 -25
      vertex 196.248 -120.667 -25
    endloop
  endfacet
  facet normal 0 0 -1
    outer loop
      vertex 180.242 -92.843 -25
      vertex 183.978 -86.4173 -25
      vertex 183.923 -113.533 -25
    endloop
  endfacet
  facet normal 0 -0 -1
    outer loop
      vertex 182.086 -88.1327 -25
      vertex 183.978 -86.4173 -25
      vertex 180.242 -92.843 -25
    endloop
  endfacet
  facet normal 0 0 -1
    outer loop
      vertex 182.062 -111.831 -25
      vertex 183.923 -113.533 -25
      vertex 182.905 -112.775 -25
    endloop
  endfacet
  facet normal 0 -0 -1
    outer loop
      vertex 182.931 -87.1899 -25
      vertex 183.978 -86.4173 -25
      vertex 182.086 -88.1327 -25
    endloop
  endfacet
  facet normal 0 0 -1
    outer loop
      vertex 183.923 -113.533 -25
      vertex 182.062 -111.831 -25
      vertex 180.226 -107.084 -25
    endloop
  endfacet
  facet normal 0 0 -1
    outer loop
      vertex 183.978 -86.4173 -25
      vertex 182.931 -87.1899 -25
      vertex 183.95 -86.4333 -25
    endloop
  endfacet
  facet normal 0 0 -1
    outer loop
      vertex 180.766 -109.58 -25
      vertex 182.062 -111.831 -25
      vertex 181.228 -110.813 -25
    endloop
  endfacet
  facet normal 0 -0 -1
    outer loop
      vertex 180.785 -90.381 -25
      vertex 182.086 -88.1327 -25
      vertex 180.242 -92.843 -25
    endloop
  endfacet
  facet normal 0 0 -1
    outer loop
      vertex 182.062 -111.831 -25
      vertex 180.766 -109.58 -25
      vertex 180.226 -107.084 -25
    endloop
  endfacet
  facet normal 0 0 -1
    outer loop
      vertex 182.086 -88.1327 -25
      vertex 180.785 -90.381 -25
      vertex 181.25 -89.1497 -25
    endloop
  endfacet
  facet normal 0 0 -1
    outer loop
      vertex 180.226 -107.084 -25
      vertex 180.766 -109.58 -25
      vertex 180.372 -108.377 -25
    endloop
  endfacet
  facet normal 0 0 -1
    outer loop
      vertex 180.785 -90.381 -25
      vertex 180.242 -92.843 -25
      vertex 180.389 -91.5826 -25
    endloop
  endfacet
  facet normal 0 0 -1
    outer loop
      vertex 180.226 -107.084 -25
      vertex 180.372 -108.377 -25
      vertex 180.226 -107.116 -25
    endloop
  endfacet
  facet normal 0 0 -1
    outer loop
      vertex 183.923 -113.533 -25
      vertex 180.226 -107.084 -25
      vertex 180.242 -92.843 -25
    endloop
  endfacet
  facet normal -0.740984 0.664119 -0.0994387
    outer loop
      vertex 182.086 -88.1327 -25
      vertex 187.773 -78.8225 -5.19779
      vertex 182.931 -87.1899 -25
    endloop
  endfacet
  facet normal -0.741085 0.664018 -0.0993621
    outer loop
      vertex 187.773 -78.8225 -5.19779
      vertex 182.086 -88.1327 -25
      vertex 187.5 -78.3494 0
    endloop
  endfacet
  facet normal -0.932439 0.352135 0.0809831
    outer loop
      vertex 180.785 -90.381 -25
      vertex 187.5 -78.3494 0
      vertex 181.25 -89.1497 -25
    endloop
  endfacet
  facet normal -0.93246 0.35207 0.0810202
    outer loop
      vertex 187.5 -78.3494 0
      vertex 180.785 -90.381 -25
      vertex 187.773 -78.8225 5.19779
    endloop
  endfacet
  facet normal -0.161353 0.983564 -0.0810328
    outer loop
      vertex 198.723 -78.55 -25
      vertex 187.543 -78.3244 0
      vertex 200.022 -78.3369 -25
    endloop
  endfacet
  facet normal -0.478013 0.822183 0.309061
    outer loop
      vertex 187.816 -78.7975 5.19779
      vertex 188.581 -80.2212 10.1684
      vertex 188.624 -80.1962 10.1684
    endloop
  endfacet
  facet normal -0.478013 0.822183 0.309061
    outer loop
      vertex 188.581 -80.2212 10.1684
      vertex 187.816 -78.7975 5.19779
      vertex 187.773 -78.8225 5.19779
    endloop
  endfacet
  facet normal 0.973102 -0.0010933 -0.230374
    outer loop
      vertex 224.454 -100.05 -5.19779
      vertex 219.758 -107.157 -25
      vertex 219.774 -92.916 -25
    endloop
  endfacet
  facet normal -0.499868 0.859773 -0.10451
    outer loop
      vertex 187.773 -78.8225 -5.19779
      vertex 187.543 -78.3244 0
      vertex 187.816 -78.7975 -5.19779
    endloop
  endfacet
  facet normal -0.499868 0.859773 -0.10451
    outer loop
      vertex 187.543 -78.3244 0
      vertex 187.773 -78.8225 -5.19779
      vertex 187.5 -78.3494 0
    endloop
  endfacet
  facet normal 0.389137 -0.901282 0.19043
    outer loop
      vertex 203.681 -120.69 -25
      vertex 187.773 -121.178 5.19779
      vertex 202.516 -121.193 -25
    endloop
  endfacet
  facet normal 0.389117 -0.901292 0.19042
    outer loop
      vertex 187.773 -121.178 5.19779
      vertex 203.681 -120.69 -25
      vertex 188.581 -119.779 10.1684
    endloop
  endfacet
  facet normal 0.331979 -0.57769 0.745697
    outer loop
      vertex 207.725 -100.05 23.7764
      vertex 193.75 -110.825 21.6506
      vertex 212.5 -100.05 21.6506
    endloop
  endfacet
  facet normal -0.973194 0 0.229985
    outer loop
      vertex 180.226 -107.084 -25
      vertex 180.226 -107.116 -25
      vertex 188.537 -119.754 10.1684
    endloop
  endfacet
  facet normal -0.489265 0.841536 -0.228991
    outer loop
      vertex 183.978 -86.4173 -25
      vertex 187.773 -78.8225 -5.19779
      vertex 187.816 -78.7975 -5.19779
    endloop
  endfacet
  facet normal -0.482666 0.844666 -0.231457
    outer loop
      vertex 187.773 -78.8225 -5.19779
      vertex 183.978 -86.4173 -25
      vertex 183.95 -86.4333 -25
    endloop
  endfacet
  facet normal -0.389074 0.901314 -0.190407
    outer loop
      vertex 196.319 -79.3103 -25
      vertex 187.816 -78.7975 -5.19779
      vertex 197.484 -78.8074 -25
    endloop
  endfacet
  facet normal -0.427823 -0.752968 0.500007
    outer loop
      vertex 189.844 -117.491 14.6946
      vertex 188.537 -119.754 10.1684
      vertex 188.581 -119.779 10.1684
    endloop
  endfacet
  facet normal 0.485632 -0.843266 0.230356
    outer loop
      vertex 203.681 -120.69 -25
      vertex 222.839 -100.05 10.1684
      vertex 188.581 -119.779 10.1684
    endloop
  endfacet
  facet normal 0.485626 -0.843268 0.230361
    outer loop
      vertex 222.839 -100.05 10.1684
      vertex 203.681 -120.69 -25
      vertex 216.022 -113.583 -25
    endloop
  endfacet
  facet normal 0.975091 -0.113761 -0.19041
    outer loop
      vertex 224.454 -100.05 -5.19779
      vertex 219.611 -108.417 -25
      vertex 219.758 -107.157 -25
    endloop
  endfacet
  facet normal -0.202404 0.974254 -0.0993068
    outer loop
      vertex 198.723 -78.55 -25
      vertex 187.816 -78.7975 -5.19779
      vertex 187.543 -78.3244 0
    endloop
  endfacet
  facet normal -0.2024 0.974255 -0.0993044
    outer loop
      vertex 187.816 -78.7975 -5.19779
      vertex 198.723 -78.55 -25
      vertex 197.484 -78.8074 -25
    endloop
  endfacet
  facet normal -0.485626 0.843268 -0.230363
    outer loop
      vertex 196.319 -79.3103 -25
      vertex 183.978 -86.4173 -25
      vertex 187.816 -78.7975 -5.19779
    endloop
  endfacet
  facet normal 0.481331 0.831292 0.277981
    outer loop
      vertex 222.839 -100 10.1684
      vertex 189.931 -82.4593 14.6946
      vertex 220.225 -100 14.6946
    endloop
  endfacet
  facet normal 0.207914 0 0.978147
    outer loop
      vertex 202.613 -100 24.863
      vertex 207.725 -100.05 23.7764
      vertex 207.725 -100 23.7764
    endloop
  endfacet
  facet normal 0.207914 0 0.978147
    outer loop
      vertex 207.725 -100.05 23.7764
      vertex 202.613 -100 24.863
      vertex 202.613 -100.05 24.863
    endloop
  endfacet
  facet normal 0.975286 0.112893 -0.189928
    outer loop
      vertex 219.774 -92.884 -25
      vertex 219.628 -91.6227 -25
      vertex 224.454 -100 -5.19779
    endloop
  endfacet
  facet normal 0.482665 -0.844663 0.231472
    outer loop
      vertex 222.839 -100.05 10.1684
      vertex 216.022 -113.583 -25
      vertex 216.05 -113.567 -25
    endloop
  endfacet
  facet normal -0.771003 -0.631647 -0.0810968
    outer loop
      vertex 187.457 -121.626 0
      vertex 181.228 -110.813 -25
      vertex 182.062 -111.831 -25
    endloop
  endfacet
  facet normal 0.16128 -0.983581 0.0809702
    outer loop
      vertex 201.277 -121.45 -25
      vertex 187.5 -121.651 0
      vertex 199.978 -121.663 -25
    endloop
  endfacet
  facet normal 0.161384 -0.98356 0.0810279
    outer loop
      vertex 187.5 -121.651 0
      vertex 201.277 -121.45 -25
      vertex 187.773 -121.178 5.19779
    endloop
  endfacet
  facet normal -0.973108 0.0010933 0.230347
    outer loop
      vertex 180.226 -107.084 -25
      vertex 188.581 -80.2212 10.1684
      vertex 180.242 -92.843 -25
    endloop
  endfacet
  facet normal -0.973106 0.00108307 0.230355
    outer loop
      vertex 188.581 -80.2212 10.1684
      vertex 180.226 -107.084 -25
      vertex 188.537 -119.754 10.1684
    endloop
  endfacet
  facet normal 0.944906 -0.311929 -0.0992574
    outer loop
      vertex 219.215 -109.619 -25
      vertex 224.454 -100.05 -5.19779
      vertex 225 -100.05 0
    endloop
  endfacet
  facet normal 0.945063 -0.311352 -0.0995777
    outer loop
      vertex 224.454 -100.05 -5.19779
      vertex 219.215 -109.619 -25
      vertex 219.611 -108.417 -25
    endloop
  endfacet
  facet normal -0.58528 0.788264 -0.189968
    outer loop
      vertex 183.95 -86.4333 -25
      vertex 182.931 -87.1899 -25
      vertex 187.773 -78.8225 -5.19779
    endloop
  endfacet
  facet normal 0.202101 -0.974332 0.0991527
    outer loop
      vertex 202.516 -121.193 -25
      vertex 187.773 -121.178 5.19779
      vertex 201.277 -121.45 -25
    endloop
  endfacet
  facet normal -0.975295 -0.112921 0.189866
    outer loop
      vertex 187.73 -121.153 5.19779
      vertex 180.226 -107.116 -25
      vertex 180.372 -108.377 -25
    endloop
  endfacet
  facet normal -0.975303 -0.112575 0.190029
    outer loop
      vertex 180.226 -107.116 -25
      vertex 187.73 -121.153 5.19779
      vertex 188.537 -119.754 10.1684
    endloop
  endfacet
  facet normal -0.586311 -0.78742 -0.190285
    outer loop
      vertex 187.73 -121.153 -5.19779
      vertex 182.905 -112.775 -25
      vertex 183.923 -113.533 -25
    endloop
  endfacet
  facet normal -0.945624 -0.309706 0.0993816
    outer loop
      vertex 187.73 -121.153 5.19779
      vertex 180.372 -108.377 -25
      vertex 180.766 -109.58 -25
    endloop
  endfacet
  facet normal -0.933324 -0.349713 0.0812893
    outer loop
      vertex 187.457 -121.626 0
      vertex 180.766 -109.58 -25
      vertex 181.228 -110.813 -25
    endloop
  endfacet
  facet normal -0.933098 -0.350405 0.0808954
    outer loop
      vertex 180.766 -109.58 -25
      vertex 187.457 -121.626 0
      vertex 187.73 -121.153 5.19779
    endloop
  endfacet
  facet normal -0.975101 0.113726 0.190378
    outer loop
      vertex 180.242 -92.843 -25
      vertex 187.773 -78.8225 5.19779
      vertex 180.389 -91.5826 -25
    endloop
  endfacet
  facet normal -0.975106 0.11355 0.190461
    outer loop
      vertex 187.773 -78.8225 5.19779
      vertex 180.242 -92.843 -25
      vertex 188.581 -80.2212 10.1684
    endloop
  endfacet
  facet normal -0.769965 0.632931 -0.0809425
    outer loop
      vertex 182.086 -88.1327 -25
      vertex 181.25 -89.1497 -25
      vertex 187.5 -78.3494 0
    endloop
  endfacet
  facet normal -0.912142 0.00112042 0.409872
    outer loop
      vertex 189.887 -82.4843 14.6946
      vertex 189.844 -117.491 14.6946
      vertex 191.593 -114.462 18.5786
    endloop
  endfacet
  facet normal 0.479278 -0.832493 0.277936
    outer loop
      vertex 189.887 -117.516 14.6946
      vertex 188.581 -119.779 10.1684
      vertex 220.225 -100.05 14.6946
    endloop
  endfacet
  facet normal 0.586052 0.787592 0.190374
    outer loop
      vertex 216.077 -86.4673 -25
      vertex 224.454 -100 5.19779
      vertex 217.095 -87.2248 -25
    endloop
  endfacet
  facet normal 0.586007 0.787619 0.190399
    outer loop
      vertex 224.454 -100 5.19779
      vertex 216.077 -86.4673 -25
      vertex 222.839 -100 10.1684
    endloop
  endfacet
  facet normal 0.994528 0 -0.10447
    outer loop
      vertex 225 -100.05 0
      vertex 224.454 -100 -5.19779
      vertex 225 -100 0
    endloop
  endfacet
  facet normal 0.994528 0 -0.10447
    outer loop
      vertex 224.454 -100 -5.19779
      vertex 225 -100.05 0
      vertex 224.454 -100.05 -5.19779
    endloop
  endfacet
  facet normal -0.742175 -0.662769 -0.0995687
    outer loop
      vertex 187.73 -121.153 -5.19779
      vertex 182.062 -111.831 -25
      vertex 182.905 -112.775 -25
    endloop
  endfacet
  facet normal -0.742558 -0.662384 -0.0992779
    outer loop
      vertex 182.062 -111.831 -25
      vertex 187.73 -121.153 -5.19779
      vertex 187.457 -121.626 0
    endloop
  endfacet
  facet normal -0.389828 -0.901091 -0.189916
    outer loop
      vertex 197.441 -121.187 -25
      vertex 187.773 -121.178 -5.19779
      vertex 196.276 -120.683 -25
    endloop
  endfacet
  facet normal 0.742252 0.662697 0.0994726
    outer loop
      vertex 217.938 -88.169 -25
      vertex 217.095 -87.2248 -25
      vertex 224.454 -100 5.19779
    endloop
  endfacet
  facet normal 0.97319 0 -0.230001
    outer loop
      vertex 224.454 -100 -5.19779
      vertex 219.774 -92.916 -25
      vertex 219.774 -92.884 -25
    endloop
  endfacet
  facet normal 0.97319 0 -0.230001
    outer loop
      vertex 219.774 -92.916 -25
      vertex 224.454 -100 -5.19779
      vertex 224.454 -100.05 -5.19779
    endloop
  endfacet
  facet normal -0.47802 -0.822195 0.309019
    outer loop
      vertex 187.773 -121.178 5.19779
      vertex 188.537 -119.754 10.1684
      vertex 187.73 -121.153 5.19779
    endloop
  endfacet
  facet normal -0.469818 -0.826879 0.3091
    outer loop
      vertex 188.537 -119.754 10.1684
      vertex 187.773 -121.178 5.19779
      vertex 188.581 -119.779 10.1684
    endloop
  endfacet
  facet normal -0.427819 0.752962 0.500019
    outer loop
      vertex 188.624 -80.1962 10.1684
      vertex 189.887 -82.4843 14.6946
      vertex 189.931 -82.4593 14.6946
    endloop
  endfacet
  facet normal -0.435295 0.748708 0.499955
    outer loop
      vertex 189.887 -82.4843 14.6946
      vertex 188.624 -80.1962 10.1684
      vertex 188.581 -80.2212 10.1684
    endloop
  endfacet
  facet normal -0.945042 0.311448 0.0994799
    outer loop
      vertex 180.785 -90.381 -25
      vertex 180.389 -91.5826 -25
      vertex 187.773 -78.8225 5.19779
    endloop
  endfacet
  facet normal -0.104504 -0.179747 0.978146
    outer loop
      vertex 198.693 -102.263 24.863
      vertex 196.094 -106.665 23.7764
      vertex 196.137 -106.69 23.7764
    endloop
  endfacet
  facet normal 0.454545 -0.790014 0.41142
    outer loop
      vertex 191.636 -114.487 18.5786
      vertex 189.887 -117.516 14.6946
      vertex 216.728 -100.05 18.5786
    endloop
  endfacet
  facet normal -0.91142 0.00135379 0.411476
    outer loop
      vertex 191.636 -85.5129 18.5786
      vertex 189.887 -82.4843 14.6946
      vertex 191.593 -114.462 18.5786
    endloop
  endfacet
  facet normal 0.413295 0.713378 0.565932
    outer loop
      vertex 216.728 -100 18.5786
      vertex 191.679 -85.4879 18.5786
      vertex 193.793 -89.1497 21.6506
    endloop
  endfacet
  facet normal -0.663 0.00213464 0.748616
    outer loop
      vertex 196.137 -93.3096 23.7764
      vertex 193.75 -89.1747 21.6506
      vertex 196.094 -106.665 23.7764
    endloop
  endfacet
  facet normal 0.189657 -0.335949 0.922588
    outer loop
      vertex 198.693 -102.263 24.863
      vertex 196.137 -106.69 23.7764
      vertex 202.613 -100.05 24.863
    endloop
  endfacet
  facet normal 0.945566 0.309903 -0.0993266
    outer loop
      vertex 224.454 -100 -5.19779
      vertex 219.234 -90.4197 -25
      vertex 225 -100 0
    endloop
  endfacet
  facet normal 0.945619 0.309704 -0.0994371
    outer loop
      vertex 219.234 -90.4197 -25
      vertex 224.454 -100 -5.19779
      vertex 219.628 -91.6227 -25
    endloop
  endfacet
  facet normal -0.499869 -0.859774 0.104494
    outer loop
      vertex 187.5 -121.651 0
      vertex 187.73 -121.153 5.19779
      vertex 187.457 -121.626 0
    endloop
  endfacet
  facet normal -0.499869 -0.859774 0.104494
    outer loop
      vertex 187.73 -121.153 5.19779
      vertex 187.5 -121.651 0
      vertex 187.773 -121.178 5.19779
    endloop
  endfacet
  facet normal 0.932413 -0.352211 -0.080948
    outer loop
      vertex 225 -100.05 0
      vertex 218.75 -110.85 -25
      vertex 219.215 -109.619 -25
    endloop
  endfacet
  facet normal 0.390238 0.900882 0.190068
    outer loop
      vertex 203.724 -79.3173 -25
      vertex 187.816 -78.7975 5.19779
      vertex 188.624 -80.1962 10.1684
    endloop
  endfacet
  facet normal 0.390271 0.900864 0.190086
    outer loop
      vertex 187.816 -78.7975 5.19779
      vertex 203.724 -79.3173 -25
      vertex 202.559 -78.8126 -25
    endloop
  endfacet
  facet normal 0.204582 0.97379 0.0993932
    outer loop
      vertex 201.32 -78.5523 -25
      vertex 187.816 -78.7975 5.19779
      vertex 202.559 -78.8126 -25
    endloop
  endfacet
  facet normal 0.481367 0.831657 0.276827
    outer loop
      vertex 222.839 -100 10.1684
      vertex 188.624 -80.1962 10.1684
      vertex 189.931 -82.4593 14.6946
    endloop
  endfacet
  facet normal -0.960645 0.00118 0.277777
    outer loop
      vertex 189.887 -82.4843 14.6946
      vertex 188.581 -80.2212 10.1684
      vertex 189.844 -117.491 14.6946
    endloop
  endfacet
  facet normal -0.960888 0.00106947 0.276934
    outer loop
      vertex 188.581 -80.2212 10.1684
      vertex 188.537 -119.754 10.1684
      vertex 189.844 -117.491 14.6946
    endloop
  endfacet
  facet normal -0.435299 -0.748714 0.499942
    outer loop
      vertex 189.844 -117.491 14.6946
      vertex 188.581 -119.779 10.1684
      vertex 189.887 -117.516 14.6946
    endloop
  endfacet
  facet normal -0.373496 -0.642412 0.669184
    outer loop
      vertex 191.593 -114.462 18.5786
      vertex 189.887 -117.516 14.6946
      vertex 191.636 -114.487 18.5786
    endloop
  endfacet
  facet normal -0.373496 -0.642412 0.669184
    outer loop
      vertex 189.887 -117.516 14.6946
      vertex 191.593 -114.462 18.5786
      vertex 189.844 -117.491 14.6946
    endloop
  endfacet
  facet normal -0.666345 0.00132497 0.745642
    outer loop
      vertex 193.75 -89.1747 21.6506
      vertex 193.707 -110.8 21.6506
      vertex 196.094 -106.665 23.7764
    endloop
  endfacet
  facet normal -0.393088 0.00126561 0.9195
    outer loop
      vertex 196.137 -93.3096 23.7764
      vertex 196.094 -106.665 23.7764
      vertex 198.65 -102.238 24.863
    endloop
  endfacet
  facet normal 0.994528 -0 0.10447
    outer loop
      vertex 224.454 -100.05 5.19779
      vertex 225 -100 0
      vertex 224.454 -100 5.19779
    endloop
  endfacet
  facet normal 0.994528 0 0.10447
    outer loop
      vertex 225 -100 0
      vertex 224.454 -100.05 5.19779
      vertex 225 -100.05 0
    endloop
  endfacet
  facet normal -0.487483 -0.842196 -0.230362
    outer loop
      vertex 187.73 -121.153 -5.19779
      vertex 183.923 -113.533 -25
      vertex 196.248 -120.667 -25
    endloop
  endfacet
  facet normal -0.489026 -0.841125 -0.231
    outer loop
      vertex 196.248 -120.667 -25
      vertex 187.773 -121.178 -5.19779
      vertex 187.73 -121.153 -5.19779
    endloop
  endfacet
  facet normal -0.483009 -0.845266 -0.228532
    outer loop
      vertex 187.773 -121.178 -5.19779
      vertex 196.248 -120.667 -25
      vertex 196.276 -120.683 -25
    endloop
  endfacet
  facet normal -0.499869 -0.859774 -0.104494
    outer loop
      vertex 187.73 -121.153 -5.19779
      vertex 187.5 -121.651 0
      vertex 187.457 -121.626 0
    endloop
  endfacet
  facet normal -0.499869 -0.859774 -0.104494
    outer loop
      vertex 187.5 -121.651 0
      vertex 187.73 -121.153 -5.19779
      vertex 187.773 -121.178 -5.19779
    endloop
  endfacet
  facet normal 0.163123 0.983281 0.0809301
    outer loop
      vertex 201.32 -78.5523 -25
      vertex 187.543 -78.3244 0
      vertex 187.816 -78.7975 5.19779
    endloop
  endfacet
  facet normal 0.163171 0.983271 0.080957
    outer loop
      vertex 187.543 -78.3244 0
      vertex 201.32 -78.5523 -25
      vertex 200.022 -78.3369 -25
    endloop
  endfacet
  facet normal -0.499868 0.859773 0.10451
    outer loop
      vertex 187.543 -78.3244 0
      vertex 187.773 -78.8225 5.19779
      vertex 187.816 -78.7975 5.19779
    endloop
  endfacet
  facet normal -0.499868 0.859773 0.10451
    outer loop
      vertex 187.773 -78.8225 5.19779
      vertex 187.543 -78.3244 0
      vertex 187.5 -78.3494 0
    endloop
  endfacet
  facet normal 0.479534 -0.832676 0.276943
    outer loop
      vertex 220.225 -100.05 14.6946
      vertex 188.581 -119.779 10.1684
      vertex 222.839 -100.05 10.1684
    endloop
  endfacet
  facet normal -0.373536 0.642482 0.669094
    outer loop
      vertex 189.931 -82.4593 14.6946
      vertex 191.636 -85.5129 18.5786
      vertex 191.679 -85.4879 18.5786
    endloop
  endfacet
  facet normal -0.367116 0.646125 0.66914
    outer loop
      vertex 191.636 -85.5129 18.5786
      vertex 189.931 -82.4593 14.6946
      vertex 189.887 -82.4843 14.6946
    endloop
  endfacet
  facet normal -0.295427 -0.508135 0.809025
    outer loop
      vertex 193.707 -110.8 21.6506
      vertex 191.593 -114.462 18.5786
      vertex 193.75 -110.825 21.6506
    endloop
  endfacet
  facet normal -0.204439 -0.351635 0.913541
    outer loop
      vertex 196.094 -106.665 23.7764
      vertex 193.707 -110.8 21.6506
      vertex 193.75 -110.825 21.6506
    endloop
  endfacet
  facet normal 0.455123 -0.790537 0.409774
    outer loop
      vertex 216.728 -100.05 18.5786
      vertex 189.887 -117.516 14.6946
      vertex 220.225 -100.05 14.6946
    endloop
  endfacet
  facet normal 0.411172 -0.714631 0.565897
    outer loop
      vertex 212.5 -100.05 21.6506
      vertex 191.636 -114.487 18.5786
      vertex 216.728 -100.05 18.5786
    endloop
  endfacet
  facet normal 0.197663 0.33979 0.919496
    outer loop
      vertex 207.725 -100 23.7764
      vertex 196.181 -93.2846 23.7764
      vertex 198.737 -97.7119 24.863
    endloop
  endfacet
  facet normal -0.200925 0.353628 0.913551
    outer loop
      vertex 193.793 -89.1497 21.6506
      vertex 196.137 -93.3096 23.7764
      vertex 196.181 -93.2846 23.7764
    endloop
  endfacet
  facet normal -0.204442 0.35164 0.913539
    outer loop
      vertex 196.137 -93.3096 23.7764
      vertex 193.793 -89.1497 21.6506
      vertex 193.75 -89.1747 21.6506
    endloop
  endfacet
  facet normal 0.334331 0.57642 0.745629
    outer loop
      vertex 212.5 -100 21.6506
      vertex 193.793 -89.1497 21.6506
      vertex 196.181 -93.2846 23.7764
    endloop
  endfacet
  facet normal 0.412859 0.711811 0.568219
    outer loop
      vertex 216.728 -100 18.5786
      vertex 193.793 -89.1497 21.6506
      vertex 212.5 -100 21.6506
    endloop
  endfacet
  facet normal -0.104504 -0.179747 0.978146
    outer loop
      vertex 198.65 -102.238 24.863
      vertex 196.094 -106.665 23.7764
      vertex 198.693 -102.263 24.863
    endloop
  endfacet
  facet normal -0.204439 -0.351635 0.913541
    outer loop
      vertex 196.094 -106.665 23.7764
      vertex 193.75 -110.825 21.6506
      vertex 196.137 -106.69 23.7764
    endloop
  endfacet
  facet normal 0.483012 0.84527 0.228512
    outer loop
      vertex 203.724 -79.3173 -25
      vertex 188.624 -80.1962 10.1684
      vertex 203.752 -79.3333 -25
    endloop
  endfacet
  facet normal 0.487485 0.842199 0.230345
    outer loop
      vertex 203.752 -79.3333 -25
      vertex 222.839 -100 10.1684
      vertex 216.077 -86.4673 -25
    endloop
  endfacet
  facet normal 0.487472 0.842204 0.230355
    outer loop
      vertex 222.839 -100 10.1684
      vertex 203.752 -79.3333 -25
      vertex 188.624 -80.1962 10.1684
    endloop
  endfacet
  facet normal -0.162878 -0.98333 -0.0808238
    outer loop
      vertex 199.978 -121.663 -25
      vertex 187.5 -121.651 0
      vertex 198.68 -121.448 -25
    endloop
  endfacet
  facet normal -0.205103 -0.97365 -0.0996946
    outer loop
      vertex 198.68 -121.448 -25
      vertex 187.773 -121.178 -5.19779
      vertex 197.441 -121.187 -25
    endloop
  endfacet
  facet normal -0.204495 -0.973812 -0.0993577
    outer loop
      vertex 187.773 -121.178 -5.19779
      vertex 198.68 -121.448 -25
      vertex 187.5 -121.651 0
    endloop
  endfacet
  facet normal 0.951059 -0 0.309008
    outer loop
      vertex 222.839 -100.05 10.1684
      vertex 224.454 -100 5.19779
      vertex 222.839 -100 10.1684
    endloop
  endfacet
  facet normal 0.951059 0 0.309008
    outer loop
      vertex 224.454 -100 5.19779
      vertex 222.839 -100.05 10.1684
      vertex 224.454 -100.05 5.19779
    endloop
  endfacet
  facet normal 0.585045 -0.788409 0.190087
    outer loop
      vertex 216.05 -113.567 -25
      vertex 224.454 -100.05 5.19779
      vertex 222.839 -100.05 10.1684
    endloop
  endfacet
  facet normal 0.585494 -0.788135 0.18984
    outer loop
      vertex 224.454 -100.05 5.19779
      vertex 216.05 -113.567 -25
      vertex 217.069 -112.81 -25
    endloop
  endfacet
  facet normal 0.933285 0.34984 -0.08119
    outer loop
      vertex 219.234 -90.4197 -25
      vertex 218.772 -89.1872 -25
      vertex 225 -100 0
    endloop
  endfacet
  facet normal 0.771152 0.631477 0.0810053
    outer loop
      vertex 225 -100 0
      vertex 217.938 -88.169 -25
      vertex 224.454 -100 5.19779
    endloop
  endfacet
  facet normal 0.771065 0.631574 0.0810755
    outer loop
      vertex 217.938 -88.169 -25
      vertex 225 -100 0
      vertex 218.772 -89.1872 -25
    endloop
  endfacet
  facet normal 0.865959 -0 0.500114
    outer loop
      vertex 220.225 -100.05 14.6946
      vertex 222.839 -100 10.1684
      vertex 220.225 -100 14.6946
    endloop
  endfacet
  facet normal 0.865959 0 0.500114
    outer loop
      vertex 222.839 -100 10.1684
      vertex 220.225 -100.05 14.6946
      vertex 222.839 -100.05 10.1684
    endloop
  endfacet
  facet normal 0.409973 -0.71341 0.568303
    outer loop
      vertex 193.75 -110.825 21.6506
      vertex 191.636 -114.487 18.5786
      vertex 212.5 -100.05 21.6506
    endloop
  endfacet
  facet normal -0.295427 -0.508135 0.809025
    outer loop
      vertex 193.75 -110.825 21.6506
      vertex 191.593 -114.462 18.5786
      vertex 191.636 -114.487 18.5786
    endloop
  endfacet
  facet normal 0.333323 0.572994 0.748715
    outer loop
      vertex 212.5 -100 21.6506
      vertex 196.181 -93.2846 23.7764
      vertex 207.725 -100 23.7764
    endloop
  endfacet
  facet normal 0.196106 0.3322 0.922597
    outer loop
      vertex 207.725 -100 23.7764
      vertex 198.737 -97.7119 24.863
      vertex 202.613 -100 24.863
    endloop
  endfacet
  facet normal -0.822878 0.00163622 0.568215
    outer loop
      vertex 193.75 -89.1747 21.6506
      vertex 191.636 -85.5129 18.5786
      vertex 193.707 -110.8 21.6506
    endloop
  endfacet
  facet normal -0.824472 0.00122464 0.565901
    outer loop
      vertex 191.636 -85.5129 18.5786
      vertex 191.593 -114.462 18.5786
      vertex 193.707 -110.8 21.6506
    endloop
  endfacet
  facet normal -0.295435 0.508149 0.809013
    outer loop
      vertex 191.679 -85.4879 18.5786
      vertex 193.75 -89.1747 21.6506
      vertex 193.793 -89.1497 21.6506
    endloop
  endfacet
  facet normal -0.295435 0.508149 0.809013
    outer loop
      vertex 193.75 -89.1747 21.6506
      vertex 191.679 -85.4879 18.5786
      vertex 191.636 -85.5129 18.5786
    endloop
  endfacet
  facet normal -0.102711 0.180771 0.978147
    outer loop
      vertex 196.181 -93.2846 23.7764
      vertex 198.693 -97.7369 24.863
      vertex 198.737 -97.7119 24.863
    endloop
  endfacet
  facet normal -0.102711 0.180771 0.978147
    outer loop
      vertex 198.693 -97.7369 24.863
      vertex 196.181 -93.2846 23.7764
      vertex 196.137 -93.3096 23.7764
    endloop
  endfacet
  facet normal -0.385816 0.00368578 0.922569
    outer loop
      vertex 198.693 -97.7369 24.863
      vertex 196.137 -93.3096 23.7764
      vertex 198.65 -102.238 24.863
    endloop
  endfacet
  facet normal -0 0 1
    outer loop
      vertex 198.693 -97.7369 24.863
      vertex 202.613 -100 24.863
      vertex 198.737 -97.7119 24.863
    endloop
  endfacet
  facet normal 0 0 1
    outer loop
      vertex 202.613 -100 24.863
      vertex 198.693 -97.7369 24.863
      vertex 202.613 -100.05 24.863
    endloop
  endfacet
  facet normal 0 0 1
    outer loop
      vertex 198.693 -97.7369 24.863
      vertex 198.693 -102.263 24.863
      vertex 202.613 -100.05 24.863
    endloop
  endfacet
  facet normal 0 -0 1
    outer loop
      vertex 198.693 -102.263 24.863
      vertex 198.693 -97.7369 24.863
      vertex 198.65 -102.238 24.863
    endloop
  endfacet
  facet normal 0.770025 -0.632866 0.080887
    outer loop
      vertex 217.914 -111.867 -25
      vertex 225 -100.05 0
      vertex 224.454 -100.05 5.19779
    endloop
  endfacet
  facet normal 0.769966 -0.632932 0.080935
    outer loop
      vertex 225 -100.05 0
      vertex 217.914 -111.867 -25
      vertex 218.75 -110.85 -25
    endloop
  endfacet
  facet normal 0.74106 -0.664046 0.0993617
    outer loop
      vertex 224.454 -100.05 5.19779
      vertex 217.069 -112.81 -25
      vertex 217.914 -111.867 -25
    endloop
  endfacet
  facet normal 0.743161 -0 0.669113
    outer loop
      vertex 216.728 -100.05 18.5786
      vertex 220.225 -100 14.6946
      vertex 216.728 -100 18.5786
    endloop
  endfacet
  facet normal 0.743161 0 0.669113
    outer loop
      vertex 220.225 -100 14.6946
      vertex 216.728 -100.05 18.5786
      vertex 220.225 -100.05 14.6946
    endloop
  endfacet
  facet normal 0.329572 -0.575163 0.748712
    outer loop
      vertex 196.137 -106.69 23.7764
      vertex 193.75 -110.825 21.6506
      vertex 207.725 -100.05 23.7764
    endloop
  endfacet
  facet normal 0.195445 -0.341088 0.919489
    outer loop
      vertex 202.613 -100.05 24.863
      vertex 196.137 -106.69 23.7764
      vertex 207.725 -100.05 23.7764
    endloop
  endfacet
  facet normal 0.456912 0.788665 0.411386
    outer loop
      vertex 220.225 -100 14.6946
      vertex 191.679 -85.4879 18.5786
      vertex 216.728 -100 18.5786
    endloop
  endfacet
  facet normal 0.457067 0.789385 0.40983
    outer loop
      vertex 220.225 -100 14.6946
      vertex 189.931 -82.4593 14.6946
      vertex 191.679 -85.4879 18.5786
    endloop
  endfacet
  facet normal 0.40671 0 0.913557
    outer loop
      vertex 207.725 -100 23.7764
      vertex 212.5 -100.05 21.6506
      vertex 212.5 -100 21.6506
    endloop
  endfacet
  facet normal 0.40671 0 0.913557
    outer loop
      vertex 212.5 -100.05 21.6506
      vertex 207.725 -100 23.7764
      vertex 207.725 -100.05 23.7764
    endloop
  endfacet
  facet normal 0.587808 0 0.809001
    outer loop
      vertex 212.5 -100 21.6506
      vertex 216.728 -100.05 18.5786
      vertex 216.728 -100 18.5786
    endloop
  endfacet
  facet normal 0.587808 0 0.809001
    outer loop
      vertex 216.728 -100.05 18.5786
      vertex 212.5 -100 21.6506
      vertex 212.5 -100.05 21.6506
    endloop
  endfacet
endsolid OpenSCAD_Model
