solid OpenSCAD_Model
  facet normal 0 0 -1
    outer loop
      vertex 221.774 -101.89 -12.5
      vertex 221.837 -98.6649 -12.5
      vertex 221.834 -101.429 -12.5
    endloop
  endfacet
  facet normal 0 0 -1
    outer loop
      vertex 221.837 -98.6649 -12.5
      vertex 221.778 -98.1577 -12.5
      vertex 221.837 -98.6188 -12.5
    endloop
  endfacet
  facet normal -0 0 -1
    outer loop
      vertex 221.837 -98.6649 -12.5
      vertex 221.774 -101.89 -12.5
      vertex 221.778 -98.1577 -12.5
    endloop
  endfacet
  facet normal 0 0 -1
    outer loop
      vertex 219.731 -91.2442 -12.5
      vertex 221.778 -98.1577 -12.5
      vertex 221.774 -101.89 -12.5
    endloop
  endfacet
  facet normal 0 0 -1
    outer loop
      vertex 219.713 -108.795 -12.5
      vertex 221.774 -101.89 -12.5
      vertex 221.278 -104.857 -12.5
    endloop
  endfacet
  facet normal 0 0 -1
    outer loop
      vertex 221.778 -98.1577 -12.5
      vertex 219.731 -91.2442 -12.5
      vertex 221.288 -95.1871 -12.5
    endloop
  endfacet
  facet normal 0 0 -1
    outer loop
      vertex 219.713 -108.795 -12.5
      vertex 221.278 -104.857 -12.5
      vertex 220.882 -106.221 -12.5
    endloop
  endfacet
  facet normal 0 0 -1
    outer loop
      vertex 221.288 -95.1871 -12.5
      vertex 219.731 -91.2442 -12.5
      vertex 220.895 -93.8216 -12.5
    endloop
  endfacet
  facet normal -0 0 -1
    outer loop
      vertex 221.774 -101.89 -12.5
      vertex 219.713 -108.795 -12.5
      vertex 219.731 -91.2442 -12.5
    endloop
  endfacet
  facet normal 0 0 -1
    outer loop
      vertex 217.473 -87.326 -12.5
      vertex 219.731 -91.2442 -12.5
      vertex 219.713 -108.795 -12.5
    endloop
  endfacet
  facet normal 0 0 -1
    outer loop
      vertex 217.448 -112.709 -12.5
      vertex 219.713 -108.795 -12.5
      vertex 218.75 -110.85 -12.5
    endloop
  endfacet
  facet normal 0 0 -1
    outer loop
      vertex 219.731 -91.2442 -12.5
      vertex 217.473 -87.326 -12.5
      vertex 218.772 -89.1872 -12.5
    endloop
  endfacet
  facet normal -0 0 -1
    outer loop
      vertex 219.713 -108.795 -12.5
      vertex 217.448 -112.709 -12.5
      vertex 217.473 -87.326 -12.5
    endloop
  endfacet
  facet normal 0 0 -1
    outer loop
      vertex 202.283 -78.5349 -12.5
      vertex 217.473 -87.326 -12.5
      vertex 217.448 -112.709 -12.5
    endloop
  endfacet
  facet normal 0 0 -1
    outer loop
      vertex 214.812 -116.03 -12.5
      vertex 217.448 -112.709 -12.5
      vertex 215.798 -115.006 -12.5
    endloop
  endfacet
  facet normal -0 -0 -1
    outer loop
      vertex 212.524 -82.0885 -12.5
      vertex 217.473 -87.326 -12.5
      vertex 202.283 -78.5349 -12.5
    endloop
  endfacet
  facet normal 0 0 -1
    outer loop
      vertex 212.484 -117.939 -12.5
      vertex 217.448 -112.709 -12.5
      vertex 214.812 -116.03 -12.5
    endloop
  endfacet
  facet normal 0 0 -1
    outer loop
      vertex 217.473 -87.326 -12.5
      vertex 214.845 -84.0012 -12.5
      vertex 215.829 -85.0259 -12.5
    endloop
  endfacet
  facet normal 0 0 -1
    outer loop
      vertex 217.448 -112.709 -12.5
      vertex 212.484 -117.939 -12.5
      vertex 202.239 -121.469 -12.5
    endloop
  endfacet
  facet normal 0 0 -1
    outer loop
      vertex 217.473 -87.326 -12.5
      vertex 212.524 -82.0885 -12.5
      vertex 214.845 -84.0012 -12.5
    endloop
  endfacet
  facet normal 0 0 -1
    outer loop
      vertex 212.075 -118.244 -12.5
      vertex 212.484 -117.939 -12.5
      vertex 212.115 -118.221 -12.5
    endloop
  endfacet
  facet normal 0 0 -1
    outer loop
      vertex 209.25 -119.802 -12.5
      vertex 212.484 -117.939 -12.5
      vertex 212.075 -118.244 -12.5
    endloop
  endfacet
  facet normal -0 -0 -1
    outer loop
      vertex 209.293 -80.2188 -12.5
      vertex 212.524 -82.0885 -12.5
      vertex 202.283 -78.5349 -12.5
    endloop
  endfacet
  facet normal 0 0 -1
    outer loop
      vertex 212.524 -82.0885 -12.5
      vertex 209.762 -80.4209 -12.5
      vertex 212.155 -81.8061 -12.5
    endloop
  endfacet
  facet normal 0 0 -1
    outer loop
      vertex 209.25 -119.802 -12.5
      vertex 212.075 -118.244 -12.5
      vertex 209.679 -119.623 -12.5
    endloop
  endfacet
  facet normal 0 0 -1
    outer loop
      vertex 209.762 -80.4209 -12.5
      vertex 209.293 -80.2188 -12.5
      vertex 209.722 -80.3979 -12.5
    endloop
  endfacet
  facet normal 0 0 -1
    outer loop
      vertex 212.484 -117.939 -12.5
      vertex 209.25 -119.802 -12.5
      vertex 202.239 -121.469 -12.5
    endloop
  endfacet
  facet normal -0 -0 -1
    outer loop
      vertex 209.762 -80.4209 -12.5
      vertex 212.524 -82.0885 -12.5
      vertex 209.293 -80.2188 -12.5
    endloop
  endfacet
  facet normal 0 0 -1
    outer loop
      vertex 202.239 -121.469 -12.5
      vertex 209.25 -119.802 -12.5
      vertex 206.433 -120.856 -12.5
    endloop
  endfacet
  facet normal 0 0 -1
    outer loop
      vertex 209.293 -80.2188 -12.5
      vertex 202.283 -78.5349 -12.5
      vertex 206.476 -79.1572 -12.5
    endloop
  endfacet
  facet normal 0 0 -1
    outer loop
      vertex 202.239 -121.469 -12.5
      vertex 206.433 -120.856 -12.5
      vertex 205.054 -121.195 -12.5
    endloop
  endfacet
  facet normal 0 0 -1
    outer loop
      vertex 206.476 -79.1572 -12.5
      vertex 202.283 -78.5349 -12.5
      vertex 205.097 -78.8152 -12.5
    endloop
  endfacet
  facet normal -0 0 -1
    outer loop
      vertex 217.448 -112.709 -12.5
      vertex 202.239 -121.469 -12.5
      vertex 202.283 -78.5349 -12.5
    endloop
  endfacet
  facet normal 0 0 -1
    outer loop
      vertex 197.761 -78.5306 -12.5
      vertex 202.283 -78.5349 -12.5
      vertex 202.239 -121.469 -12.5
    endloop
  endfacet
  facet normal 0 0 -1
    outer loop
      vertex 197.717 -121.465 -12.5
      vertex 202.239 -121.469 -12.5
      vertex 199.978 -121.663 -12.5
    endloop
  endfacet
  facet normal 0 0 -1
    outer loop
      vertex 202.283 -78.5349 -12.5
      vertex 197.761 -78.5306 -12.5
      vertex 200.022 -78.3369 -12.5
    endloop
  endfacet
  facet normal 0 0 -1
    outer loop
      vertex 202.239 -121.469 -12.5
      vertex 197.717 -121.465 -12.5
      vertex 197.761 -78.5306 -12.5
    endloop
  endfacet
  facet normal 0 0 -1
    outer loop
      vertex 182.552 -87.2907 -12.5
      vertex 197.761 -78.5306 -12.5
      vertex 197.717 -121.465 -12.5
    endloop
  endfacet
  facet normal 0 0 -1
    outer loop
      vertex 193.524 -120.843 -12.5
      vertex 197.717 -121.465 -12.5
      vertex 194.903 -121.185 -12.5
    endloop
  endfacet
  facet normal 0 -0 -1
    outer loop
      vertex 190.75 -80.1985 -12.5
      vertex 197.761 -78.5306 -12.5
      vertex 182.552 -87.2907 -12.5
    endloop
  endfacet
  facet normal 0 0 -1
    outer loop
      vertex 190.707 -119.781 -12.5
      vertex 197.717 -121.465 -12.5
      vertex 193.524 -120.843 -12.5
    endloop
  endfacet
  facet normal 0 0 -1
    outer loop
      vertex 197.761 -78.5306 -12.5
      vertex 193.567 -79.1444 -12.5
      vertex 194.946 -78.8048 -12.5
    endloop
  endfacet
  facet normal 0 0 -1
    outer loop
      vertex 197.717 -121.465 -12.5
      vertex 190.707 -119.781 -12.5
      vertex 182.527 -112.674 -12.5
    endloop
  endfacet
  facet normal 0 0 -1
    outer loop
      vertex 197.761 -78.5306 -12.5
      vertex 190.75 -80.1985 -12.5
      vertex 193.567 -79.1444 -12.5
    endloop
  endfacet
  facet normal 0 0 -1
    outer loop
      vertex 190.238 -119.579 -12.5
      vertex 190.707 -119.781 -12.5
      vertex 190.278 -119.602 -12.5
    endloop
  endfacet
  facet normal 0 0 -1
    outer loop
      vertex 187.476 -117.912 -12.5
      vertex 190.707 -119.781 -12.5
      vertex 190.238 -119.579 -12.5
    endloop
  endfacet
  facet normal 0 -0 -1
    outer loop
      vertex 187.516 -82.0611 -12.5
      vertex 190.75 -80.1985 -12.5
      vertex 182.552 -87.2907 -12.5
    endloop
  endfacet
  facet normal 0 0 -1
    outer loop
      vertex 190.75 -80.1985 -12.5
      vertex 187.925 -81.7561 -12.5
      vertex 190.321 -80.3768 -12.5
    endloop
  endfacet
  facet normal 0 0 -1
    outer loop
      vertex 187.476 -117.912 -12.5
      vertex 190.238 -119.579 -12.5
      vertex 187.845 -118.194 -12.5
    endloop
  endfacet
  facet normal 0 0 -1
    outer loop
      vertex 187.925 -81.7561 -12.5
      vertex 187.516 -82.0611 -12.5
      vertex 187.885 -81.7791 -12.5
    endloop
  endfacet
  facet normal 0 0 -1
    outer loop
      vertex 190.707 -119.781 -12.5
      vertex 187.476 -117.912 -12.5
      vertex 182.527 -112.674 -12.5
    endloop
  endfacet
  facet normal 0 -0 -1
    outer loop
      vertex 187.925 -81.7561 -12.5
      vertex 190.75 -80.1985 -12.5
      vertex 187.516 -82.0611 -12.5
    endloop
  endfacet
  facet normal 0 0 -1
    outer loop
      vertex 182.527 -112.674 -12.5
      vertex 187.476 -117.912 -12.5
      vertex 185.155 -115.999 -12.5
    endloop
  endfacet
  facet normal 0 0 -1
    outer loop
      vertex 187.516 -82.0611 -12.5
      vertex 182.552 -87.2907 -12.5
      vertex 185.188 -83.9701 -12.5
    endloop
  endfacet
  facet normal 0 0 -1
    outer loop
      vertex 182.527 -112.674 -12.5
      vertex 185.155 -115.999 -12.5
      vertex 184.171 -114.974 -12.5
    endloop
  endfacet
  facet normal 0 0 -1
    outer loop
      vertex 185.188 -83.9701 -12.5
      vertex 182.552 -87.2907 -12.5
      vertex 184.202 -84.9936 -12.5
    endloop
  endfacet
  facet normal 0 0 -1
    outer loop
      vertex 197.717 -121.465 -12.5
      vertex 182.527 -112.674 -12.5
      vertex 182.552 -87.2907 -12.5
    endloop
  endfacet
  facet normal 0 0 -1
    outer loop
      vertex 180.287 -91.2045 -12.5
      vertex 182.552 -87.2907 -12.5
      vertex 182.527 -112.674 -12.5
    endloop
  endfacet
  facet normal 0 0 -1
    outer loop
      vertex 180.269 -108.756 -12.5
      vertex 182.527 -112.674 -12.5
      vertex 181.228 -110.813 -12.5
    endloop
  endfacet
  facet normal 0 0 -1
    outer loop
      vertex 182.552 -87.2907 -12.5
      vertex 180.287 -91.2045 -12.5
      vertex 181.25 -89.1497 -12.5
    endloop
  endfacet
  facet normal 0 0 -1
    outer loop
      vertex 182.527 -112.674 -12.5
      vertex 180.269 -108.756 -12.5
      vertex 180.287 -91.2045 -12.5
    endloop
  endfacet
  facet normal 0 0 -1
    outer loop
      vertex 178.226 -98.11 -12.5
      vertex 180.287 -91.2045 -12.5
      vertex 180.269 -108.756 -12.5
    endloop
  endfacet
  facet normal 0 0 -1
    outer loop
      vertex 178.712 -104.813 -12.5
      vertex 180.269 -108.756 -12.5
      vertex 179.105 -106.178 -12.5
    endloop
  endfacet
  facet normal 0 0 -1
    outer loop
      vertex 180.287 -91.2045 -12.5
      vertex 178.722 -95.1432 -12.5
      vertex 179.118 -93.7789 -12.5
    endloop
  endfacet
  facet normal 0 0 -1
    outer loop
      vertex 178.222 -101.842 -12.5
      vertex 180.269 -108.756 -12.5
      vertex 178.712 -104.813 -12.5
    endloop
  endfacet
  facet normal 0 0 -1
    outer loop
      vertex 180.287 -91.2045 -12.5
      vertex 178.226 -98.11 -12.5
      vertex 178.722 -95.1432 -12.5
    endloop
  endfacet
  facet normal 0 0 -1
    outer loop
      vertex 180.269 -108.756 -12.5
      vertex 178.222 -101.842 -12.5
      vertex 178.226 -98.11 -12.5
    endloop
  endfacet
  facet normal 0 0 -1
    outer loop
      vertex 178.163 -101.335 -12.5
      vertex 178.226 -98.11 -12.5
      vertex 178.222 -101.842 -12.5
    endloop
  endfacet
  facet normal 0 0 -1
    outer loop
      vertex 178.163 -101.335 -12.5
      vertex 178.222 -101.842 -12.5
      vertex 178.163 -101.381 -12.5
    endloop
  endfacet
  facet normal 0 0 -1
    outer loop
      vertex 178.226 -98.11 -12.5
      vertex 178.163 -101.335 -12.5
      vertex 178.166 -98.5708 -12.5
    endloop
  endfacet
  facet normal -0.701214 0.675522 -0.227969
    outer loop
      vertex 185.188 -83.9701 -12.5
      vertex 184.202 -84.9936 -12.5
      vertex 187.773 -78.8225 -5.19779
    endloop
  endfacet
  facet normal 0.907157 0.409861 -0.095292
    outer loop
      vertex 224.454 -100 -5.19779
      vertex 219.731 -91.2442 -12.5
      vertex 225 -100 0
    endloop
  endfacet
  facet normal 0.907203 0.409709 -0.0955038
    outer loop
      vertex 219.731 -91.2442 -12.5
      vertex 224.454 -100 -5.19779
      vertex 220.895 -93.8216 -12.5
    endloop
  endfacet
  facet normal -0.809854 -0.578869 -0.095117
    outer loop
      vertex 187.73 -121.153 -5.19779
      vertex 182.527 -112.674 -12.5
      vertex 184.171 -114.974 -12.5
    endloop
  endfacet
  facet normal -0.809804 -0.578923 -0.0952149
    outer loop
      vertex 182.527 -112.674 -12.5
      vertex 187.73 -121.153 -5.19779
      vertex 187.457 -121.626 0
    endloop
  endfacet
  facet normal 0.458183 0.79684 0.393847
    outer loop
      vertex 209.722 -80.3979 -12.5
      vertex 189.931 -82.4593 14.6946
      vertex 209.762 -80.4209 -12.5
    endloop
  endfacet
  facet normal -0.666345 0.00132497 0.745642
    outer loop
      vertex 193.75 -89.1747 21.6506
      vertex 193.707 -110.8 21.6506
      vertex 196.094 -106.665 23.7764
    endloop
  endfacet
  facet normal -0.478013 0.822183 0.309061
    outer loop
      vertex 187.816 -78.7975 5.19779
      vertex 188.581 -80.2212 10.1684
      vertex 188.624 -80.1962 10.1684
    endloop
  endfacet
  facet normal -0.478013 0.822183 0.309061
    outer loop
      vertex 188.581 -80.2212 10.1684
      vertex 187.816 -78.7975 5.19779
      vertex 187.773 -78.8225 5.19779
    endloop
  endfacet
  facet normal -0.478013 0.822183 -0.309061
    outer loop
      vertex 188.581 -80.2212 -10.1684
      vertex 187.816 -78.7975 -5.19779
      vertex 188.624 -80.1962 -10.1684
    endloop
  endfacet
  facet normal -0.478013 0.822183 -0.309061
    outer loop
      vertex 187.816 -78.7975 -5.19779
      vertex 188.581 -80.2212 -10.1684
      vertex 187.773 -78.8225 -5.19779
    endloop
  endfacet
  facet normal -0.427823 -0.752968 0.500007
    outer loop
      vertex 189.844 -117.491 14.6946
      vertex 188.537 -119.754 10.1684
      vertex 188.581 -119.779 10.1684
    endloop
  endfacet
  facet normal -0.702348 -0.674255 -0.228227
    outer loop
      vertex 187.73 -121.153 -5.19779
      vertex 184.171 -114.974 -12.5
      vertex 185.155 -115.999 -12.5
    endloop
  endfacet
  facet normal -0.0869162 -0.992513 -0.0858104
    outer loop
      vertex 199.978 -121.663 -12.5
      vertex 187.5 -121.651 0
      vertex 197.717 -121.465 -12.5
    endloop
  endfacet
  facet normal -0.605597 -0.734931 -0.305171
    outer loop
      vertex 185.155 -115.999 -12.5
      vertex 188.537 -119.754 -10.1684
      vertex 187.73 -121.153 -5.19779
    endloop
  endfacet
  facet normal -0.605726 -0.734914 -0.304956
    outer loop
      vertex 188.537 -119.754 -10.1684
      vertex 185.155 -115.999 -12.5
      vertex 187.476 -117.912 -12.5
    endloop
  endfacet
  facet normal -0.454544 -0.799998 -0.391654
    outer loop
      vertex 190.238 -119.579 -12.5
      vertex 188.581 -119.779 -10.1684
      vertex 188.537 -119.754 -10.1684
    endloop
  endfacet
  facet normal -0.458161 -0.796801 -0.39395
    outer loop
      vertex 188.581 -119.779 -10.1684
      vertex 190.238 -119.579 -12.5
      vertex 190.278 -119.602 -12.5
    endloop
  endfacet
  facet normal 0.458313 -0.796077 0.395235
    outer loop
      vertex 209.679 -119.623 -12.5
      vertex 220.225 -100.05 14.6946
      vertex 189.887 -117.516 14.6946
    endloop
  endfacet
  facet normal 0.458195 -0.79611 0.395304
    outer loop
      vertex 220.225 -100.05 14.6946
      vertex 209.679 -119.623 -12.5
      vertex 212.075 -118.244 -12.5
    endloop
  endfacet
  facet normal -0.935085 0.271417 0.227924
    outer loop
      vertex 178.722 -95.1432 -12.5
      vertex 187.773 -78.8225 5.19779
      vertex 179.118 -93.7789 -12.5
    endloop
  endfacet
  facet normal -0.935106 0.271045 0.228277
    outer loop
      vertex 187.773 -78.8225 5.19779
      vertex 178.722 -95.1432 -12.5
      vertex 188.581 -80.2212 10.1684
    endloop
  endfacet
  facet normal -0.808485 0.580732 -0.0954036
    outer loop
      vertex 182.552 -87.2907 -12.5
      vertex 187.773 -78.8225 -5.19779
      vertex 184.202 -84.9936 -12.5
    endloop
  endfacet
  facet normal -0.808528 0.580686 -0.0953195
    outer loop
      vertex 187.773 -78.8225 -5.19779
      vertex 182.552 -87.2907 -12.5
      vertex 187.5 -78.3494 0
    endloop
  endfacet
  facet normal 0.362189 -0.871306 0.331127
    outer loop
      vertex 209.25 -119.802 -12.5
      vertex 189.887 -117.516 14.6946
      vertex 188.581 -119.779 10.1684
    endloop
  endfacet
  facet normal 0.363255 -0.870595 0.331827
    outer loop
      vertex 189.887 -117.516 14.6946
      vertex 209.25 -119.802 -12.5
      vertex 209.679 -119.623 -12.5
    endloop
  endfacet
  facet normal -0.663 0.00213464 0.748616
    outer loop
      vertex 196.137 -93.3096 23.7764
      vertex 193.75 -89.1747 21.6506
      vertex 196.094 -106.665 23.7764
    endloop
  endfacet
  facet normal 0.809868 0.578855 0.0950804
    outer loop
      vertex 217.473 -87.326 -12.5
      vertex 215.829 -85.0259 -12.5
      vertex 224.454 -100 5.19779
    endloop
  endfacet
  facet normal -0.460114 -0.794985 -0.395341
    outer loop
      vertex 188.537 -119.754 -10.1684
      vertex 187.845 -118.194 -12.5
      vertex 190.238 -119.579 -12.5
    endloop
  endfacet
  facet normal -0.427819 0.752962 0.500019
    outer loop
      vertex 188.624 -80.1962 10.1684
      vertex 189.887 -82.4843 14.6946
      vertex 189.931 -82.4593 14.6946
    endloop
  endfacet
  facet normal -0.435295 0.748708 0.499955
    outer loop
      vertex 189.887 -82.4843 14.6946
      vertex 188.624 -80.1962 10.1684
      vertex 188.581 -80.2212 10.1684
    endloop
  endfacet
  facet normal 0.935908 0.119754 -0.331264
    outer loop
      vertex 221.837 -98.6188 -12.5
      vertex 221.778 -98.1577 -12.5
      vertex 222.839 -100 -10.1684
    endloop
  endfacet
  facet normal 0.918753 0 -0.394832
    outer loop
      vertex 222.839 -100 -10.1684
      vertex 221.837 -98.6649 -12.5
      vertex 221.837 -98.6188 -12.5
    endloop
  endfacet
  facet normal 0.918753 0 -0.394832
    outer loop
      vertex 221.837 -98.6649 -12.5
      vertex 222.839 -100 -10.1684
      vertex 222.839 -100.05 -10.1684
    endloop
  endfacet
  facet normal -0.0965268 0.990762 -0.0952485
    outer loop
      vertex 197.761 -78.5306 -12.5
      vertex 187.816 -78.7975 -5.19779
      vertex 187.543 -78.3244 0
    endloop
  endfacet
  facet normal -0.0965074 0.990767 -0.0952219
    outer loop
      vertex 187.816 -78.7975 -5.19779
      vertex 197.761 -78.5306 -12.5
      vertex 194.946 -78.8048 -12.5
    endloop
  endfacet
  facet normal -0.335895 -0.890975 -0.305512
    outer loop
      vertex 193.524 -120.843 -12.5
      vertex 188.581 -119.779 -10.1684
      vertex 190.707 -119.781 -12.5
    endloop
  endfacet
  facet normal -0.335847 -0.891039 -0.30538
    outer loop
      vertex 188.581 -119.779 -10.1684
      vertex 193.524 -120.843 -12.5
      vertex 187.773 -121.178 -5.19779
    endloop
  endfacet
  facet normal -0.935972 -0.119788 0.331069
    outer loop
      vertex 178.222 -101.842 -12.5
      vertex 189.844 -117.491 14.6946
      vertex 178.163 -101.381 -12.5
    endloop
  endfacet
  facet normal -0.936027 -0.120636 0.330605
    outer loop
      vertex 189.844 -117.491 14.6946
      vertex 178.222 -101.842 -12.5
      vertex 188.537 -119.754 10.1684
    endloop
  endfacet
  facet normal -0.816947 -0.570238 -0.0861782
    outer loop
      vertex 187.457 -121.626 0
      vertex 181.228 -110.813 -12.5
      vertex 182.527 -112.674 -12.5
    endloop
  endfacet
  facet normal 0.363591 0.870914 0.330622
    outer loop
      vertex 209.293 -80.2188 -12.5
      vertex 189.931 -82.4593 14.6946
      vertex 209.722 -80.3979 -12.5
    endloop
  endfacet
  facet normal 0.363468 0.870995 0.330541
    outer loop
      vertex 189.931 -82.4593 14.6946
      vertex 209.293 -80.2188 -12.5
      vertex 188.624 -80.1962 10.1684
    endloop
  endfacet
  facet normal 0.702346 0.674267 0.228199
    outer loop
      vertex 224.454 -100 5.19779
      vertex 214.845 -84.0012 -12.5
      vertex 222.839 -100 10.1684
    endloop
  endfacet
  facet normal 0.702233 0.674341 0.228327
    outer loop
      vertex 214.845 -84.0012 -12.5
      vertex 224.454 -100 5.19779
      vertex 215.829 -85.0259 -12.5
    endloop
  endfacet
  facet normal 0.456912 0.788665 0.411386
    outer loop
      vertex 220.225 -100 14.6946
      vertex 191.679 -85.4879 18.5786
      vertex 216.728 -100 18.5786
    endloop
  endfacet
  facet normal 0.0851721 -0.99265 0.0859751
    outer loop
      vertex 202.239 -121.469 -12.5
      vertex 187.5 -121.651 0
      vertex 199.978 -121.663 -12.5
    endloop
  endfacet
  facet normal 0.0850784 -0.992668 0.0858644
    outer loop
      vertex 187.5 -121.651 0
      vertex 202.239 -121.469 -12.5
      vertex 187.773 -121.178 5.19779
    endloop
  endfacet
  facet normal -0.902154 0.422802 0.0857656
    outer loop
      vertex 180.287 -91.2045 -12.5
      vertex 187.5 -78.3494 0
      vertex 181.25 -89.1497 -12.5
    endloop
  endfacet
  facet normal -0.902181 0.422725 0.0858609
    outer loop
      vertex 187.5 -78.3494 0
      vertex 180.287 -91.2045 -12.5
      vertex 187.773 -78.8225 5.19779
    endloop
  endfacet
  facet normal 0.939267 -0.156989 -0.305177
    outer loop
      vertex 221.278 -104.857 -12.5
      vertex 222.839 -100.05 -10.1684
      vertex 224.454 -100.05 -5.19779
    endloop
  endfacet
  facet normal 0.93928 -0.157022 -0.305118
    outer loop
      vertex 222.839 -100.05 -10.1684
      vertex 221.278 -104.857 -12.5
      vertex 221.774 -101.89 -12.5
    endloop
  endfacet
  facet normal 0.457831 -0.796227 0.395492
    outer loop
      vertex 220.225 -100.05 14.6946
      vertex 212.075 -118.244 -12.5
      vertex 212.115 -118.221 -12.5
    endloop
  endfacet
  facet normal 0.951059 -0 0.309008
    outer loop
      vertex 222.839 -100.05 10.1684
      vertex 224.454 -100 5.19779
      vertex 222.839 -100 10.1684
    endloop
  endfacet
  facet normal 0.951059 0 0.309008
    outer loop
      vertex 224.454 -100 5.19779
      vertex 222.839 -100.05 10.1684
      vertex 224.454 -100.05 5.19779
    endloop
  endfacet
  facet normal 0.903003 0.420992 -0.0857443
    outer loop
      vertex 219.731 -91.2442 -12.5
      vertex 218.772 -89.1872 -12.5
      vertex 225 -100 0
    endloop
  endfacet
  facet normal 0.808477 -0.580752 0.0953536
    outer loop
      vertex 224.454 -100.05 5.19779
      vertex 215.798 -115.006 -12.5
      vertex 217.448 -112.709 -12.5
    endloop
  endfacet
  facet normal 0.329572 -0.575163 0.748712
    outer loop
      vertex 196.137 -106.69 23.7764
      vertex 193.75 -110.825 21.6506
      vertex 207.725 -100.05 23.7764
    endloop
  endfacet
  facet normal 0.409973 -0.71341 0.568303
    outer loop
      vertex 193.75 -110.825 21.6506
      vertex 191.636 -114.487 18.5786
      vertex 212.5 -100.05 21.6506
    endloop
  endfacet
  facet normal -0.816066 0.571554 -0.085803
    outer loop
      vertex 182.552 -87.2907 -12.5
      vertex 181.25 -89.1497 -12.5
      vertex 187.5 -78.3494 0
    endloop
  endfacet
  facet normal -0.935643 -0.269383 0.228046
    outer loop
      vertex 187.73 -121.153 5.19779
      vertex 178.712 -104.813 -12.5
      vertex 179.105 -106.178 -12.5
    endloop
  endfacet
  facet normal -0.935628 -0.269645 0.227796
    outer loop
      vertex 178.712 -104.813 -12.5
      vertex 187.73 -121.153 5.19779
      vertex 188.537 -119.754 10.1684
    endloop
  endfacet
  facet normal -0.200925 0.353628 0.913551
    outer loop
      vertex 193.793 -89.1497 21.6506
      vertex 196.137 -93.3096 23.7764
      vertex 196.181 -93.2846 23.7764
    endloop
  endfacet
  facet normal -0.204442 0.35164 0.913539
    outer loop
      vertex 196.137 -93.3096 23.7764
      vertex 193.793 -89.1497 21.6506
      vertex 193.75 -89.1747 21.6506
    endloop
  endfacet
  facet normal 0.573467 0.749325 0.331131
    outer loop
      vertex 212.155 -81.8061 -12.5
      vertex 222.839 -100 10.1684
      vertex 212.524 -82.0885 -12.5
    endloop
  endfacet
  facet normal 0.573423 0.749343 0.331167
    outer loop
      vertex 222.839 -100 10.1684
      vertex 212.155 -81.8061 -12.5
      vertex 220.225 -100 14.6946
    endloop
  endfacet
  facet normal -0.295435 0.508149 0.809013
    outer loop
      vertex 191.679 -85.4879 18.5786
      vertex 193.75 -89.1747 21.6506
      vertex 193.793 -89.1497 21.6506
    endloop
  endfacet
  facet normal -0.295435 0.508149 0.809013
    outer loop
      vertex 193.75 -89.1747 21.6506
      vertex 191.679 -85.4879 18.5786
      vertex 191.636 -85.5129 18.5786
    endloop
  endfacet
  facet normal -0.603822 0.736353 -0.30526
    outer loop
      vertex 185.188 -83.9701 -12.5
      vertex 188.581 -80.2212 -10.1684
      vertex 187.516 -82.0611 -12.5
    endloop
  endfacet
  facet normal -0.603766 0.73636 -0.305353
    outer loop
      vertex 188.581 -80.2212 -10.1684
      vertex 185.188 -83.9701 -12.5
      vertex 187.773 -78.8225 -5.19779
    endloop
  endfacet
  facet normal 0.906273 -0.411833 -0.0951991
    outer loop
      vertex 219.713 -108.795 -12.5
      vertex 224.454 -100.05 -5.19779
      vertex 225 -100.05 0
    endloop
  endfacet
  facet normal 0.906338 -0.41162 -0.0954964
    outer loop
      vertex 224.454 -100.05 -5.19779
      vertex 219.713 -108.795 -12.5
      vertex 220.882 -106.221 -12.5
    endloop
  endfacet
  facet normal 0.994528 0 -0.10447
    outer loop
      vertex 225 -100.05 0
      vertex 224.454 -100 -5.19779
      vertex 225 -100 0
    endloop
  endfacet
  facet normal 0.994528 0 -0.10447
    outer loop
      vertex 224.454 -100 -5.19779
      vertex 225 -100.05 0
      vertex 224.454 -100.05 -5.19779
    endloop
  endfacet
  facet normal 0.331979 -0.57769 0.745697
    outer loop
      vertex 207.725 -100.05 23.7764
      vertex 193.75 -110.825 21.6506
      vertex 212.5 -100.05 21.6506
    endloop
  endfacet
  facet normal 0.918538 -0.00099693 -0.395332
    outer loop
      vertex 222.839 -100.05 -10.1684
      vertex 221.834 -101.429 -12.5
      vertex 221.837 -98.6649 -12.5
    endloop
  endfacet
  facet normal 0.935644 -0.121776 -0.331272
    outer loop
      vertex 222.839 -100.05 -10.1684
      vertex 221.774 -101.89 -12.5
      vertex 221.834 -101.429 -12.5
    endloop
  endfacet
  facet normal 0.935055 -0.271468 -0.227984
    outer loop
      vertex 224.454 -100.05 -5.19779
      vertex 220.882 -106.221 -12.5
      vertex 221.278 -104.857 -12.5
    endloop
  endfacet
  facet normal -0.939623 -0.15497 0.305112
    outer loop
      vertex 188.537 -119.754 10.1684
      vertex 178.222 -101.842 -12.5
      vertex 178.712 -104.813 -12.5
    endloop
  endfacet
  facet normal 0.701284 -0.675488 0.227854
    outer loop
      vertex 214.812 -116.03 -12.5
      vertex 224.454 -100.05 5.19779
      vertex 222.839 -100.05 10.1684
    endloop
  endfacet
  facet normal 0.701425 -0.675395 0.227694
    outer loop
      vertex 224.454 -100.05 5.19779
      vertex 214.812 -116.03 -12.5
      vertex 215.798 -115.006 -12.5
    endloop
  endfacet
  facet normal -0.91142 0.00135379 0.411476
    outer loop
      vertex 191.636 -85.5129 18.5786
      vertex 189.887 -82.4843 14.6946
      vertex 191.593 -114.462 18.5786
    endloop
  endfacet
  facet normal -0.935678 0.122125 0.331046
    outer loop
      vertex 178.226 -98.11 -12.5
      vertex 189.887 -82.4843 14.6946
      vertex 188.581 -80.2212 10.1684
    endloop
  endfacet
  facet normal -0.93566 0.121831 0.331207
    outer loop
      vertex 189.887 -82.4843 14.6946
      vertex 178.226 -98.11 -12.5
      vertex 178.166 -98.5708 -12.5
    endloop
  endfacet
  facet normal -0.939271 0.157031 0.305141
    outer loop
      vertex 178.722 -95.1432 -12.5
      vertex 178.226 -98.11 -12.5
      vertex 188.581 -80.2212 10.1684
    endloop
  endfacet
  facet normal -0.822878 0.00163622 0.568215
    outer loop
      vertex 193.75 -89.1747 21.6506
      vertex 191.636 -85.5129 18.5786
      vertex 193.707 -110.8 21.6506
    endloop
  endfacet
  facet normal 0.572476 -0.750308 0.33062
    outer loop
      vertex 212.115 -118.221 -12.5
      vertex 222.839 -100.05 10.1684
      vertex 220.225 -100.05 14.6946
    endloop
  endfacet
  facet normal 0.573184 -0.750017 0.330052
    outer loop
      vertex 222.839 -100.05 10.1684
      vertex 212.115 -118.221 -12.5
      vertex 212.484 -117.939 -12.5
    endloop
  endfacet
  facet normal 0.460173 0.794971 0.3953
    outer loop
      vertex 209.762 -80.4209 -12.5
      vertex 220.225 -100 14.6946
      vertex 212.155 -81.8061 -12.5
    endloop
  endfacet
  facet normal 0.460282 0.79494 0.395235
    outer loop
      vertex 220.225 -100 14.6946
      vertex 209.762 -80.4209 -12.5
      vertex 189.931 -82.4593 14.6946
    endloop
  endfacet
  facet normal -0.104504 -0.179747 0.978146
    outer loop
      vertex 198.693 -102.263 24.863
      vertex 196.094 -106.665 23.7764
      vertex 196.137 -106.69 23.7764
    endloop
  endfacet
  facet normal 0.189657 -0.335949 0.922588
    outer loop
      vertex 198.693 -102.263 24.863
      vertex 196.137 -106.69 23.7764
      vertex 202.613 -100.05 24.863
    endloop
  endfacet
  facet normal -0.363418 -0.870985 -0.330625
    outer loop
      vertex 190.707 -119.781 -12.5
      vertex 188.581 -119.779 -10.1684
      vertex 190.278 -119.602 -12.5
    endloop
  endfacet
  facet normal -0.234377 -0.945045 -0.227943
    outer loop
      vertex 194.903 -121.185 -12.5
      vertex 187.773 -121.178 -5.19779
      vertex 193.524 -120.843 -12.5
    endloop
  endfacet
  facet normal -0.333752 0.891879 -0.305223
    outer loop
      vertex 193.567 -79.1444 -12.5
      vertex 188.624 -80.1962 -10.1684
      vertex 187.816 -78.7975 -5.19779
    endloop
  endfacet
  facet normal -0.33374 0.891895 -0.305191
    outer loop
      vertex 188.624 -80.1962 -10.1684
      vertex 193.567 -79.1444 -12.5
      vertex 190.75 -80.1985 -12.5
    endloop
  endfacet
  facet normal -0.499868 0.859773 -0.10451
    outer loop
      vertex 187.773 -78.8225 -5.19779
      vertex 187.543 -78.3244 0
      vertex 187.816 -78.7975 -5.19779
    endloop
  endfacet
  facet normal -0.499868 0.859773 -0.10451
    outer loop
      vertex 187.543 -78.3244 0
      vertex 187.773 -78.8225 -5.19779
      vertex 187.5 -78.3494 0
    endloop
  endfacet
  facet normal 0.605638 0.734922 0.305112
    outer loop
      vertex 214.845 -84.0012 -12.5
      vertex 212.524 -82.0885 -12.5
      vertex 222.839 -100 10.1684
    endloop
  endfacet
  facet normal 0.098667 0.990542 0.0953526
    outer loop
      vertex 202.283 -78.5349 -12.5
      vertex 187.816 -78.7975 5.19779
      vertex 205.097 -78.8152 -12.5
    endloop
  endfacet
  facet normal 0.93564 0.269283 -0.228178
    outer loop
      vertex 221.288 -95.1871 -12.5
      vertex 220.895 -93.8216 -12.5
      vertex 224.454 -100 -5.19779
    endloop
  endfacet
  facet normal 0.0869127 0.992517 0.0857735
    outer loop
      vertex 202.283 -78.5349 -12.5
      vertex 187.543 -78.3244 0
      vertex 187.816 -78.7975 5.19779
    endloop
  endfacet
  facet normal 0.0869165 0.992516 0.0857779
    outer loop
      vertex 187.543 -78.3244 0
      vertex 202.283 -78.5349 -12.5
      vertex 200.022 -78.3369 -12.5
    endloop
  endfacet
  facet normal -0.572872 -0.749609 -0.331516
    outer loop
      vertex 188.537 -119.754 -10.1684
      vertex 187.476 -117.912 -12.5
      vertex 187.845 -118.194 -12.5
    endloop
  endfacet
  facet normal -0.098563 -0.990558 -0.095289
    outer loop
      vertex 197.717 -121.465 -12.5
      vertex 187.773 -121.178 -5.19779
      vertex 194.903 -121.185 -12.5
    endloop
  endfacet
  facet normal -0.0985845 -0.990553 -0.0953184
    outer loop
      vertex 187.773 -121.178 -5.19779
      vertex 197.717 -121.465 -12.5
      vertex 187.5 -121.651 0
    endloop
  endfacet
  facet normal -0.499869 -0.859774 -0.104494
    outer loop
      vertex 187.73 -121.153 -5.19779
      vertex 187.5 -121.651 0
      vertex 187.457 -121.626 0
    endloop
  endfacet
  facet normal -0.499869 -0.859774 -0.104494
    outer loop
      vertex 187.5 -121.651 0
      vertex 187.73 -121.153 -5.19779
      vertex 187.773 -121.178 -5.19779
    endloop
  endfacet
  facet normal 0.817168 0.569971 0.0858392
    outer loop
      vertex 225 -100 0
      vertex 217.473 -87.326 -12.5
      vertex 224.454 -100 5.19779
    endloop
  endfacet
  facet normal 0.816975 0.570197 0.0861844
    outer loop
      vertex 217.473 -87.326 -12.5
      vertex 225 -100 0
      vertex 218.772 -89.1872 -12.5
    endloop
  endfacet
  facet normal 0.994528 -0 0.10447
    outer loop
      vertex 224.454 -100.05 5.19779
      vertex 225 -100 0
      vertex 224.454 -100 5.19779
    endloop
  endfacet
  facet normal 0.994528 0 0.10447
    outer loop
      vertex 225 -100 0
      vertex 224.454 -100.05 5.19779
      vertex 225 -100.05 0
    endloop
  endfacet
  facet normal -0.907236 -0.409629 0.0955329
    outer loop
      vertex 187.73 -121.153 5.19779
      vertex 179.105 -106.178 -12.5
      vertex 180.269 -108.756 -12.5
    endloop
  endfacet
  facet normal -0.902998 -0.420989 0.0858093
    outer loop
      vertex 187.457 -121.626 0
      vertex 180.269 -108.756 -12.5
      vertex 181.228 -110.813 -12.5
    endloop
  endfacet
  facet normal -0.902978 -0.421044 0.0857416
    outer loop
      vertex 180.269 -108.756 -12.5
      vertex 187.457 -121.626 0
      vertex 187.73 -121.153 5.19779
    endloop
  endfacet
  facet normal 0.865959 -0 0.500114
    outer loop
      vertex 220.225 -100.05 14.6946
      vertex 222.839 -100 10.1684
      vertex 220.225 -100 14.6946
    endloop
  endfacet
  facet normal 0.865959 0 0.500114
    outer loop
      vertex 222.839 -100 10.1684
      vertex 220.225 -100.05 14.6946
      vertex 222.839 -100.05 10.1684
    endloop
  endfacet
  facet normal -0.435299 -0.748714 0.499942
    outer loop
      vertex 189.844 -117.491 14.6946
      vertex 188.581 -119.779 10.1684
      vertex 189.887 -117.516 14.6946
    endloop
  endfacet
  facet normal -0.295427 -0.508135 0.809025
    outer loop
      vertex 193.75 -110.825 21.6506
      vertex 191.593 -114.462 18.5786
      vertex 191.636 -114.487 18.5786
    endloop
  endfacet
  facet normal -0.912142 0.00112042 0.409872
    outer loop
      vertex 189.887 -82.4843 14.6946
      vertex 189.844 -117.491 14.6946
      vertex 191.593 -114.462 18.5786
    endloop
  endfacet
  facet normal 0.454545 -0.790014 0.41142
    outer loop
      vertex 191.636 -114.487 18.5786
      vertex 189.887 -117.516 14.6946
      vertex 216.728 -100.05 18.5786
    endloop
  endfacet
  facet normal 0.40671 0 0.913557
    outer loop
      vertex 207.725 -100 23.7764
      vertex 212.5 -100.05 21.6506
      vertex 212.5 -100 21.6506
    endloop
  endfacet
  facet normal 0.40671 0 0.913557
    outer loop
      vertex 212.5 -100.05 21.6506
      vertex 207.725 -100 23.7764
      vertex 207.725 -100.05 23.7764
    endloop
  endfacet
  facet normal 0.333323 0.572994 0.748715
    outer loop
      vertex 212.5 -100 21.6506
      vertex 196.181 -93.2846 23.7764
      vertex 207.725 -100 23.7764
    endloop
  endfacet
  facet normal -0.824472 0.00122464 0.565901
    outer loop
      vertex 191.636 -85.5129 18.5786
      vertex 191.593 -114.462 18.5786
      vertex 193.707 -110.8 21.6506
    endloop
  endfacet
  facet normal -0.918825 0 0.394666
    outer loop
      vertex 178.163 -101.335 -12.5
      vertex 178.163 -101.381 -12.5
      vertex 189.844 -117.491 14.6946
    endloop
  endfacet
  facet normal -0.918548 0.000996904 0.395309
    outer loop
      vertex 178.163 -101.335 -12.5
      vertex 189.887 -82.4843 14.6946
      vertex 178.166 -98.5708 -12.5
    endloop
  endfacet
  facet normal -0.918581 0.00112833 0.395232
    outer loop
      vertex 189.887 -82.4843 14.6946
      vertex 178.163 -101.335 -12.5
      vertex 189.844 -117.491 14.6946
    endloop
  endfacet
  facet normal -0.204439 -0.351635 0.913541
    outer loop
      vertex 196.094 -106.665 23.7764
      vertex 193.75 -110.825 21.6506
      vertex 196.137 -106.69 23.7764
    endloop
  endfacet
  facet normal 0.207914 0 0.978147
    outer loop
      vertex 202.613 -100 24.863
      vertex 207.725 -100.05 23.7764
      vertex 207.725 -100 23.7764
    endloop
  endfacet
  facet normal 0.207914 0 0.978147
    outer loop
      vertex 207.725 -100.05 23.7764
      vertex 202.613 -100 24.863
      vertex 202.613 -100.05 24.863
    endloop
  endfacet
  facet normal 0.196106 0.3322 0.922597
    outer loop
      vertex 207.725 -100 23.7764
      vertex 198.737 -97.7119 24.863
      vertex 202.613 -100 24.863
    endloop
  endfacet
  facet normal -0.47802 -0.822195 -0.309019
    outer loop
      vertex 188.537 -119.754 -10.1684
      vertex 187.773 -121.178 -5.19779
      vertex 187.73 -121.153 -5.19779
    endloop
  endfacet
  facet normal -0.469818 -0.826879 -0.3091
    outer loop
      vertex 187.773 -121.178 -5.19779
      vertex 188.537 -119.754 -10.1684
      vertex 188.581 -119.779 -10.1684
    endloop
  endfacet
  facet normal -0.232808 0.945355 -0.228263
    outer loop
      vertex 193.567 -79.1444 -12.5
      vertex 187.816 -78.7975 -5.19779
      vertex 194.946 -78.8048 -12.5
    endloop
  endfacet
  facet normal -0.085042 0.992668 -0.0858918
    outer loop
      vertex 197.761 -78.5306 -12.5
      vertex 187.543 -78.3244 0
      vertex 200.022 -78.3369 -12.5
    endloop
  endfacet
  facet normal -0.499868 0.859773 0.10451
    outer loop
      vertex 187.543 -78.3244 0
      vertex 187.773 -78.8225 5.19779
      vertex 187.816 -78.7975 5.19779
    endloop
  endfacet
  facet normal -0.499868 0.859773 0.10451
    outer loop
      vertex 187.773 -78.8225 5.19779
      vertex 187.543 -78.3244 0
      vertex 187.5 -78.3494 0
    endloop
  endfacet
  facet normal 0.234379 0.945055 0.227897
    outer loop
      vertex 205.097 -78.8152 -12.5
      vertex 188.624 -80.1962 10.1684
      vertex 206.476 -79.1572 -12.5
    endloop
  endfacet
  facet normal 0.234315 0.945082 0.227851
    outer loop
      vertex 188.624 -80.1962 10.1684
      vertex 205.097 -78.8152 -12.5
      vertex 187.816 -78.7975 5.19779
    endloop
  endfacet
  facet normal 0.335808 0.891081 0.305301
    outer loop
      vertex 206.476 -79.1572 -12.5
      vertex 188.624 -80.1962 10.1684
      vertex 209.293 -80.2188 -12.5
    endloop
  endfacet
  facet normal 0.951059 0 -0.309008
    outer loop
      vertex 224.454 -100.05 -5.19779
      vertex 222.839 -100 -10.1684
      vertex 224.454 -100 -5.19779
    endloop
  endfacet
  facet normal 0.951059 0 -0.309008
    outer loop
      vertex 222.839 -100 -10.1684
      vertex 224.454 -100.05 -5.19779
      vertex 222.839 -100.05 -10.1684
    endloop
  endfacet
  facet normal 0.939581 0.154896 -0.305279
    outer loop
      vertex 222.839 -100 -10.1684
      vertex 221.288 -95.1871 -12.5
      vertex 224.454 -100 -5.19779
    endloop
  endfacet
  facet normal 0.93962 0.15499 -0.305112
    outer loop
      vertex 221.288 -95.1871 -12.5
      vertex 222.839 -100 -10.1684
      vertex 221.778 -98.1577 -12.5
    endloop
  endfacet
  facet normal 0.333713 -0.891907 0.305184
    outer loop
      vertex 209.25 -119.802 -12.5
      vertex 188.581 -119.779 10.1684
      vertex 206.433 -120.856 -12.5
    endloop
  endfacet
  facet normal 0.232807 -0.945363 0.228232
    outer loop
      vertex 205.054 -121.195 -12.5
      vertex 188.581 -119.779 10.1684
      vertex 187.773 -121.178 5.19779
    endloop
  endfacet
  facet normal 0.232437 -0.945517 0.227973
    outer loop
      vertex 188.581 -119.779 10.1684
      vertex 205.054 -121.195 -12.5
      vertex 206.433 -120.856 -12.5
    endloop
  endfacet
  facet normal -0.47802 -0.822195 0.309019
    outer loop
      vertex 187.773 -121.178 5.19779
      vertex 188.537 -119.754 10.1684
      vertex 187.73 -121.153 5.19779
    endloop
  endfacet
  facet normal -0.469818 -0.826879 0.3091
    outer loop
      vertex 188.537 -119.754 10.1684
      vertex 187.773 -121.178 5.19779
      vertex 188.581 -119.779 10.1684
    endloop
  endfacet
  facet normal -0.499869 -0.859774 0.104494
    outer loop
      vertex 187.5 -121.651 0
      vertex 187.73 -121.153 5.19779
      vertex 187.457 -121.626 0
    endloop
  endfacet
  facet normal -0.499869 -0.859774 0.104494
    outer loop
      vertex 187.73 -121.153 5.19779
      vertex 187.5 -121.651 0
      vertex 187.773 -121.178 5.19779
    endloop
  endfacet
  facet normal 0.743161 -0 0.669113
    outer loop
      vertex 216.728 -100.05 18.5786
      vertex 220.225 -100 14.6946
      vertex 216.728 -100 18.5786
    endloop
  endfacet
  facet normal 0.743161 0 0.669113
    outer loop
      vertex 220.225 -100 14.6946
      vertex 216.728 -100.05 18.5786
      vertex 220.225 -100.05 14.6946
    endloop
  endfacet
  facet normal 0.455123 -0.790537 0.409774
    outer loop
      vertex 216.728 -100.05 18.5786
      vertex 189.887 -117.516 14.6946
      vertex 220.225 -100.05 14.6946
    endloop
  endfacet
  facet normal 0.413295 0.713378 0.565932
    outer loop
      vertex 216.728 -100 18.5786
      vertex 191.679 -85.4879 18.5786
      vertex 193.793 -89.1497 21.6506
    endloop
  endfacet
  facet normal 0.334331 0.57642 0.745629
    outer loop
      vertex 212.5 -100 21.6506
      vertex 193.793 -89.1497 21.6506
      vertex 196.181 -93.2846 23.7764
    endloop
  endfacet
  facet normal 0.412859 0.711811 0.568219
    outer loop
      vertex 216.728 -100 18.5786
      vertex 193.793 -89.1497 21.6506
      vertex 212.5 -100 21.6506
    endloop
  endfacet
  facet normal -0.295427 -0.508135 0.809025
    outer loop
      vertex 193.707 -110.8 21.6506
      vertex 191.593 -114.462 18.5786
      vertex 193.75 -110.825 21.6506
    endloop
  endfacet
  facet normal -0.204439 -0.351635 0.913541
    outer loop
      vertex 196.094 -106.665 23.7764
      vertex 193.707 -110.8 21.6506
      vertex 193.75 -110.825 21.6506
    endloop
  endfacet
  facet normal -0.373496 -0.642412 0.669184
    outer loop
      vertex 191.593 -114.462 18.5786
      vertex 189.887 -117.516 14.6946
      vertex 191.636 -114.487 18.5786
    endloop
  endfacet
  facet normal -0.373496 -0.642412 0.669184
    outer loop
      vertex 189.887 -117.516 14.6946
      vertex 191.593 -114.462 18.5786
      vertex 189.844 -117.491 14.6946
    endloop
  endfacet
  facet normal 0.411172 -0.714631 0.565897
    outer loop
      vertex 212.5 -100.05 21.6506
      vertex 191.636 -114.487 18.5786
      vertex 216.728 -100.05 18.5786
    endloop
  endfacet
  facet normal 0.587808 0 0.809001
    outer loop
      vertex 212.5 -100 21.6506
      vertex 216.728 -100.05 18.5786
      vertex 216.728 -100 18.5786
    endloop
  endfacet
  facet normal 0.587808 0 0.809001
    outer loop
      vertex 216.728 -100.05 18.5786
      vertex 212.5 -100 21.6506
      vertex 212.5 -100.05 21.6506
    endloop
  endfacet
  facet normal 0.195445 -0.341088 0.919489
    outer loop
      vertex 202.613 -100.05 24.863
      vertex 196.137 -106.69 23.7764
      vertex 207.725 -100.05 23.7764
    endloop
  endfacet
  facet normal -0 0 1
    outer loop
      vertex 198.693 -97.7369 24.863
      vertex 202.613 -100 24.863
      vertex 198.737 -97.7119 24.863
    endloop
  endfacet
  facet normal 0 0 1
    outer loop
      vertex 202.613 -100 24.863
      vertex 198.693 -97.7369 24.863
      vertex 202.613 -100.05 24.863
    endloop
  endfacet
  facet normal 0 0 1
    outer loop
      vertex 198.693 -97.7369 24.863
      vertex 198.693 -102.263 24.863
      vertex 202.613 -100.05 24.863
    endloop
  endfacet
  facet normal 0 -0 1
    outer loop
      vertex 198.693 -102.263 24.863
      vertex 198.693 -97.7369 24.863
      vertex 198.65 -102.238 24.863
    endloop
  endfacet
  facet normal -0.393088 0.00126561 0.9195
    outer loop
      vertex 196.137 -93.3096 23.7764
      vertex 196.094 -106.665 23.7764
      vertex 198.65 -102.238 24.863
    endloop
  endfacet
  facet normal -0.573187 0.750021 -0.330039
    outer loop
      vertex 187.885 -81.7791 -12.5
      vertex 187.516 -82.0611 -12.5
      vertex 188.581 -80.2212 -10.1684
    endloop
  endfacet
  facet normal -0.458289 0.796099 -0.395218
    outer loop
      vertex 190.321 -80.3768 -12.5
      vertex 187.925 -81.7561 -12.5
      vertex 188.624 -80.1962 -10.1684
    endloop
  endfacet
  facet normal -0.362146 0.871345 -0.331072
    outer loop
      vertex 190.321 -80.3768 -12.5
      vertex 188.624 -80.1962 -10.1684
      vertex 190.75 -80.1985 -12.5
    endloop
  endfacet
  facet normal -0.462128 0.79486 -0.393238
    outer loop
      vertex 187.925 -81.7561 -12.5
      vertex 188.581 -80.2212 -10.1684
      vertex 188.624 -80.1962 -10.1684
    endloop
  endfacet
  facet normal -0.457857 0.796272 -0.39537
    outer loop
      vertex 188.581 -80.2212 -10.1684
      vertex 187.925 -81.7561 -12.5
      vertex 187.885 -81.7791 -12.5
    endloop
  endfacet
  facet normal -0.906368 0.411569 0.0954367
    outer loop
      vertex 180.287 -91.2045 -12.5
      vertex 179.118 -93.7789 -12.5
      vertex 187.773 -78.8225 5.19779
    endloop
  endfacet
  facet normal 0.0964386 -0.990783 0.0951192
    outer loop
      vertex 205.054 -121.195 -12.5
      vertex 187.773 -121.178 5.19779
      vertex 202.239 -121.469 -12.5
    endloop
  endfacet
  facet normal 0.60382 -0.73635 0.305271
    outer loop
      vertex 222.839 -100.05 10.1684
      vertex 212.484 -117.939 -12.5
      vertex 214.812 -116.03 -12.5
    endloop
  endfacet
  facet normal 0.457067 0.789385 0.40983
    outer loop
      vertex 220.225 -100 14.6946
      vertex 189.931 -82.4593 14.6946
      vertex 191.679 -85.4879 18.5786
    endloop
  endfacet
  facet normal -0.373536 0.642482 0.669094
    outer loop
      vertex 189.931 -82.4593 14.6946
      vertex 191.636 -85.5129 18.5786
      vertex 191.679 -85.4879 18.5786
    endloop
  endfacet
  facet normal -0.367116 0.646125 0.66914
    outer loop
      vertex 191.636 -85.5129 18.5786
      vertex 189.931 -82.4593 14.6946
      vertex 189.887 -82.4843 14.6946
    endloop
  endfacet
  facet normal 0.197663 0.33979 0.919496
    outer loop
      vertex 207.725 -100 23.7764
      vertex 196.181 -93.2846 23.7764
      vertex 198.737 -97.7119 24.863
    endloop
  endfacet
  facet normal -0.104504 -0.179747 0.978146
    outer loop
      vertex 198.65 -102.238 24.863
      vertex 196.094 -106.665 23.7764
      vertex 198.693 -102.263 24.863
    endloop
  endfacet
  facet normal -0.102711 0.180771 0.978147
    outer loop
      vertex 196.181 -93.2846 23.7764
      vertex 198.693 -97.7369 24.863
      vertex 198.737 -97.7119 24.863
    endloop
  endfacet
  facet normal -0.102711 0.180771 0.978147
    outer loop
      vertex 198.693 -97.7369 24.863
      vertex 196.181 -93.2846 23.7764
      vertex 196.137 -93.3096 23.7764
    endloop
  endfacet
  facet normal -0.385816 0.00368578 0.922569
    outer loop
      vertex 198.693 -97.7369 24.863
      vertex 196.137 -93.3096 23.7764
      vertex 198.65 -102.238 24.863
    endloop
  endfacet
  facet normal 0.816102 -0.571514 0.0857272
    outer loop
      vertex 217.448 -112.709 -12.5
      vertex 225 -100.05 0
      vertex 224.454 -100.05 5.19779
    endloop
  endfacet
  facet normal 0.816067 -0.571554 0.0857893
    outer loop
      vertex 225 -100.05 0
      vertex 217.448 -112.709 -12.5
      vertex 218.75 -110.85 -12.5
    endloop
  endfacet
  facet normal 0.902166 -0.422767 -0.0858125
    outer loop
      vertex 225 -100.05 0
      vertex 218.75 -110.85 -12.5
      vertex 219.713 -108.795 -12.5
    endloop
  endfacet
endsolid OpenSCAD_Model
