<?xml version="1.0" encoding="utf-8"?>
<!-- Generator: Adobe Illustrator 16.0.0, SVG Export Plug-In . SVG Version: 6.00 Build 0)  -->
<!DOCTYPE svg PUBLIC "-//W3C//DTD SVG 1.1//EN" "http://www.w3.org/Graphics/SVG/1.1/DTD/svg11.dtd">
<svg version="1.1" id="Layer_1" xmlns="http://www.w3.org/2000/svg" xmlns:xlink="http://www.w3.org/1999/xlink" x="0px" y="0px"
	 width="720px" height="720px" viewBox="0 0 720 720" enable-background="new 0 0 720 720" xml:space="preserve">
<g>
	<g>
		<path d="M569.301,504.51c-0.1-102.59-0.199-205.21-0.299-307.8c0-46.355,10.924-116.686-17.4-138.3
			c-18.99-14.492-139.861-10.618-178.5-10.5c-14.699,0.1-29.402,0.2-44.1,0.3c-63.825,9.248-155.325-17.223-185.101,25.5
			c-14.34,20.576-5.4,94.125-5.399,128.399c-0.101,114.189-0.2,228.411-0.3,342.601c6.585,52.256-11.55,109.975,33.3,123.3
			c17.475,5.192,39.751-0.803,59.7,2.1c35.787,5.207,80.073,1.489,112.8-3c12.898,0.5,25.801,1.001,38.7,1.5
			c15.281-2.698,35.793-0.806,51.6,1.2c15.682,1.99,30.867-1.065,45.9,0.9c7.199-0.9,14.4-1.801,21.6-2.7
			c30.686-3.739,55.316-5.973,66-32.4c3.588-8.871,1.801-24.864,1.801-36.6C569.502,567.513,569.4,536.007,569.301,504.51z
			 M322.701,620.609c-4.416,13.241-92.513,10.712-110.1,6.3c-34.168-8.571-41.102-27.32-41.1-70.8
			c-0.2-10.898-0.4-21.801-0.601-32.7c2.995-24.502,2.096-53.186-0.6-77.699c0.8-70.893,1.6-141.808,2.4-212.7
			c4.503-41.33-6.332-94.365,10.8-123c18.867-31.536,88.428-19.824,133.5-23.4c12.898-0.2,25.801-0.399,38.699-0.6
			c55.5-0.773-1.434,159.073-7.8,161.7c-8.104,3.343-11.625-3.989-12.6-9.9c-5.899-17.998-11.801-36.002-17.7-54
			c-6.441-21.702-9.482-46.039-22.2-61.5c-2.373-2.885-7.258-5.659-13.2-4.8c-5.717,0.827-12.674,2.222-15.6,6
			c-8.174,10.555-8.094,24.271-13.2,38.4c-14.665,40.578-29.218,87.611-38.7,132.6c-2.682,12.727-14.034,57.255-3,65.399
			c5.41,3.994,18.958,3.18,22.5-1.5c13.123-17.338,13.726-49.228,18.9-73.5c7.399-25.597,14.801-51.203,22.2-76.8
			c1.573-7.885,7.624-15.952,16.2-9.6c9.314,6.899,51.799,125.309,36.6,148.8c-6.603,10.205-23.792,15.085-34.2,21.6
			c-36.366,22.768-76.63,60.017-69.3,124.801c5.247,46.371,26.619,77.922,57.6,98.1
			C289.041,596.264,325.787,611.355,322.701,620.609z M532.4,509.909c-6.447,52.579,17.104,112.277-37.5,120
			c-14.973,2.118-63.406,0.956-66.898-7.5c-6.562-15.886,19.932-33.699,2.1-40.8c-6.854-2.729-46.834-2.846-55.201-1.8
			c-8.656,1.082-15.545-1.531-21.599-2.4c-11.988-1.719-23.849,1.377-34.2-1.5c-21.109-5.865-45.248-35.465-53.1-55.8
			c-6.277-16.256-12.657-45.612-4.8-66.3c12.953-34.104,47.656-61.223,84.3-71.4c14.194-3.941,34.333-9.663,51-5.699
			c8.221,1.954,13.393,12.517,23.699,10.5c4.23-0.828,7.59-4.996,9.301-8.4c16.957-33.752-43.314-37.321-52.801-53.4
			c-8.105-13.739,28.27-132.523,36.301-136.8c5.25-2.796,8.709,4.005,10.799,6.601c21.617,26.851,31.262,65.267,44.1,101.399
			c5.486,15.437,7.604,32.464,17.4,43.5c4.883,5.499,14.369,2.69,18.301-1.8c11.145-12.731-5.744-49.247-10.201-60.9
			c-6.598-17.253-12.342-31.002-19.5-47.1c-8.885-19.987-66.203-106.539-45.299-134.1c7.668-10.111,21.814-6.796,36.6-10.2
			c24.148-0.175,48.484,2.445,58.199,17.1c11.963,18.041,2.568,79.966,5.4,107.4c0.9,55.794,1.801,111.605,2.701,167.399
			c0.299,18.599,0.6,37.202,0.898,55.801C534.863,457.504,535.15,487.499,532.4,509.909z"/>
	</g>
	<g>
		<path fill="none" stroke="#FFFFFF" stroke-miterlimit="10" d="M569.301,504.51c-0.1-102.59-0.199-205.21-0.299-307.8
			c0-46.355,10.924-116.686-17.4-138.3c-18.99-14.492-139.861-10.618-178.5-10.5c-14.699,0.1-29.402,0.2-44.1,0.3
			c-63.825,9.248-155.325-17.223-185.101,25.5c-14.34,20.576-5.4,94.125-5.399,128.399c-0.101,114.189-0.2,228.411-0.3,342.601
			c6.585,52.256-11.55,109.975,33.3,123.3c17.475,5.192,39.751-0.803,59.7,2.1c35.787,5.207,80.073,1.489,112.8-3
			c12.898,0.5,25.801,1.001,38.7,1.5c15.281-2.698,35.793-0.806,51.6,1.2c15.682,1.99,30.867-1.065,45.9,0.9
			c7.199-0.9,14.4-1.801,21.6-2.7c30.686-3.739,55.316-5.973,66-32.4c3.588-8.871,1.801-24.864,1.801-36.6
			C569.502,567.513,569.4,536.007,569.301,504.51z M322.701,620.609c-4.416,13.241-92.513,10.712-110.1,6.3
			c-34.168-8.571-41.102-27.32-41.1-70.8c-0.2-10.898-0.4-21.801-0.601-32.7c2.995-24.502,2.096-53.186-0.6-77.699
			c0.8-70.893,1.6-141.808,2.4-212.7c4.503-41.33-6.332-94.365,10.8-123c18.867-31.536,88.428-19.824,133.5-23.4
			c12.898-0.2,25.801-0.399,38.699-0.6c55.5-0.773-1.434,159.073-7.8,161.7c-8.104,3.343-11.625-3.989-12.6-9.9
			c-5.899-17.998-11.801-36.002-17.7-54c-6.441-21.702-9.482-46.039-22.2-61.5c-2.373-2.885-7.258-5.659-13.2-4.8
			c-5.717,0.827-12.674,2.222-15.6,6c-8.174,10.555-8.094,24.271-13.2,38.4c-14.665,40.578-29.218,87.611-38.7,132.6
			c-2.682,12.727-14.034,57.255-3,65.399c5.41,3.994,18.958,3.18,22.5-1.5c13.123-17.338,13.726-49.228,18.9-73.5
			c7.399-25.597,14.801-51.203,22.2-76.8c1.573-7.885,7.624-15.952,16.2-9.6c9.314,6.899,51.799,125.309,36.6,148.8
			c-6.603,10.205-23.792,15.085-34.2,21.6c-36.366,22.768-76.63,60.017-69.3,124.801c5.247,46.371,26.619,77.922,57.6,98.1
			C289.041,596.264,325.787,611.355,322.701,620.609z M532.4,509.909c-6.447,52.579,17.104,112.277-37.5,120
			c-14.973,2.118-63.406,0.956-66.898-7.5c-6.562-15.886,19.932-33.699,2.1-40.8c-6.854-2.729-46.834-2.846-55.201-1.8
			c-8.656,1.082-15.545-1.531-21.599-2.4c-11.988-1.719-23.849,1.377-34.2-1.5c-21.109-5.865-45.248-35.465-53.1-55.8
			c-6.277-16.256-12.657-45.612-4.8-66.3c12.953-34.104,47.656-61.223,84.3-71.4c14.194-3.941,34.333-9.663,51-5.699
			c8.221,1.954,13.393,12.517,23.699,10.5c4.23-0.828,7.59-4.996,9.301-8.4c16.957-33.752-43.314-37.321-52.801-53.4
			c-8.105-13.739,28.27-132.523,36.301-136.8c5.25-2.796,8.709,4.005,10.799,6.601c21.617,26.851,31.262,65.267,44.1,101.399
			c5.486,15.437,7.604,32.464,17.4,43.5c4.883,5.499,14.369,2.69,18.301-1.8c11.145-12.731-5.744-49.247-10.201-60.9
			c-6.598-17.253-12.342-31.002-19.5-47.1c-8.885-19.987-66.203-106.539-45.299-134.1c7.668-10.111,21.814-6.796,36.6-10.2
			c24.148-0.175,48.484,2.445,58.199,17.1c11.963,18.041,2.568,79.966,5.4,107.4c0.9,55.794,1.801,111.605,2.701,167.399
			c0.299,18.599,0.6,37.202,0.898,55.801C534.863,457.504,535.15,487.499,532.4,509.909z"/>
	</g>
</g>
</svg>
