<?xml version="1.0" standalone="no"?>
<!DOCTYPE svg PUBLIC "-//W3C//DTD SVG 1.1//EN" "http://www.w3.org/Graphics/SVG/1.1/DTD/svg11.dtd" >
<svg xmlns="http://www.w3.org/2000/svg" xmlns:xlink="http://www.w3.org/1999/xlink" version="1.1" viewBox="-14 0 842 2048">
   <path fill="currentColor"
d="M494 267q59 -1 118 7q48 7 94.5 22.5t82.5 50.5q36 37 27 87.5t-53 76.5q-62 20 -127 19l-32 2q4 32 7 64q14 254 -4 508q-9 191 -45 377q-1 3 -2 5q-8 38 -21.5 74.5t-39.5 66.5q-31 35 -77 36.5t-81 -27.5q-30 -30 -46 -68.5t-25 -79.5q-31 -184 -29 -371
q-6 -291 28 -580q-49 -1 -98 -5l-22 -2q-65 -2 -122 -31q-20 -10 -27.5 -31t1.5 -42q14 -24 38 -40t49 -27q194 -84 406 -92z" />
</svg>
