<?xml version="1.0" encoding="utf-8"?>
<!-- Generator: Fusion 360, Shaper Origin Export Add-In, Version 1.5.0  -->
<svg enable-background="new 0 0 144.5420498 56.4751548" height="56.4751548cm" shaper:fusionaddin="version:1.5.0" version="1.1" viewBox="0 0 144.5420498 56.4751548" width="144.5420498cm" x="0cm" xml:space="preserve" xmlns="http://www.w3.org/2000/svg" xmlns:shaper="http://www.shapertools.com/namespaces/shaper" xmlns:xlink="http://www.w3.org/1999/xlink" y="0cm"><path d="M-145.8406135,74.6138508 L-145.8406135,74.6138508 -145.6941676,74.6071215 -145.5477844,74.5996865 -145.4014636,74.5915492 -145.2552057,74.5827126 -145.1090114,74.5731789 -144.9628821,74.5629499 -144.8168196,74.5520267 -144.6708261,74.5404099 -144.5249045,74.5280995 -144.3790578,74.5150952 -144.2332897,74.5013959 -144.0876042,74.4870003 -143.9420056,74.4719065 -143.7964987,74.4561123 -143.6510887,74.4396149 -143.505781,74.4224112 -143.3605815,74.4044978 -143.2154963,74.3858708 -143.0705318,74.3665261 -142.9256948,74.3464593 -142.7809923,74.3256655 -142.6364316,74.3041398 -142.4920201,74.2818768 -142.3477656,74.2588711 -142.2036761,74.2351169 -142.0597598,74.2106083 -141.9160249,74.1853392 -141.77248,74.1593033 -141.6291338,74.1324944 -141.485995,74.1049058 -141.3430727,74.0765311 -141.2003757,74.0473636 -141.0579133,74.0173966 -140.9156947,73.9866234 -140.7737292,73.9550372 -140.632026,73.9226314 -140.4905946,73.8893991 -140.3494444,73.8553338 -140.2085847,73.8204288 -140.068025,73.7846775 -139.9277746,73.7480736 -139.787843,73.7106108 -139.6482393,73.6722827 -139.508973,73.6330834 -139.3700531,73.5930071 -139.2314887,73.5520479 -139.0932889,73.5102005 -138.9554625,73.4674596 -138.8180183,73.4238201 -138.6809648,73.3792774 -138.5443105,73.333827 -138.4080637,73.2874648 -138.2722323,73.240187 -138.1368241,73.1919902 -138.0018469,73.1428714 -137.867308,73.092828 -137.7332143,73.0418577 -137.5995727,72.9899589 -137.4663898,72.9371304 -137.3336716,72.8833714 -137.2014241,72.8286817 -137.0696527,72.7730616 -136.9383625,72.7165121 -136.8075584,72.6590347 -136.6772447,72.6006313 -136.5474255,72.5413045 -136.4181045,72.4810574 -136.289285,72.4198935 -136.1609701,72.357817 -136.0331623,72.2948325 -135.9058639,72.230945 -135.7790769,72.1661602 -135.6528028,72.100484 -135.5270429,72.0339231 -135.401798,71.9664842 -135.2770687,71.8981749 -135.1528552,71.829003 -135.0291572,71.7589767 -134.9059743,71.6881047 -134.7833056,71.6163961 -134.6611501,71.5438602 -134.5395061,71.4705069 -134.4183719,71.3963462 -134.2977454,71.3213885 -134.1776241,71.2456445 -134.0580054,71.1691252 -133.9388862,71.0918418 -133.8202632,71.0138058 -133.7021329,70.9350287 -133.5844913,70.8555225 -133.4673343,70.7752992 -133.3506575,70.694371 -133.2344563,70.6127502 -133.1187258,70.5304493 -133.0034607,70.4474808 -132.8886557,70.3638574 -132.774305,70.2795918 -132.6604029,70.1946969 -132.5469431,70.1091855 -132.4339193,70.0230705 -132.3213249,69.9363648 -132.2091531,69.8490815 -132.0973968,69.7612334 -131.9860489,69.6728335 -131.8751019,69.5838947 -131.764548,69.4944299 -131.6543795,69.4044518 -131.5445884,69.3139733 -131.3261049,69.1315652 -131.1090294,68.9473055 -130.8932909,68.7612915 -130.6788158,68.5736175 -130.4655277,68.3843741 -130.2533479,68.1936475 -130.0421955,68.0015186 -129.8319871,67.808063 -129.6226377,67.6133498 -129.4140603,67.4174427 -129.2061665,67.2203991 -128.9988664,67.0222714 -128.7920695,66.8231062 -128.5856842,66.6229454 -128.3796184,66.4218257 -128.17378,66.2197791 -127.9680767,66.0168336 -127.7624165,65.8130137 -127.5567084,65.608341 -127.3508622,65.4028351 -127.1447893,65.1965141 -126.9384028,64.9893954 -126.7316177,64.7814965 -126.5243516,64.5728353 -126.3165247,64.363431 -126.1080601,64.1533041 -125.8988842,63.9424776 -125.6889269,63.7309766 -125.4781218,63.5188296 -125.2664067,63.3060683 -125.0537233,63.0927285 -124.8400185,62.8788506 -124.6252439,62.6644805 -124.4093564,62.4496696 -124.1923192,62.2344766 -123.9741012,62.0189671 -123.7546783,61.8032152 -123.534033,61.5873036 -123.3121554,61.3713245 -123.0890429,61.1553798 -122.8647004,60.9395813 -122.6391404,60.7240507 -122.4123828,60.50892 -122.1844555,60.2943315 -121.9553936,60.0804379 -121.7252401,59.8674026 -121.4940456,59.6553991 -121.2618669,59.44461 -121.0287669,59.235226 -120.7948135,59.0274445 -120.5600789,58.8214684 -120.3246385,58.6175054 -120.206678,58.5163445 -120.0885705,58.4157661 -119.9703262,58.3157969 -119.851955,58.2164637 -119.7334672,58.1177932 -119.614873,58.0198123 -119.4961826,57.9225478 -119.3774063,57.8260264 -119.2585542,57.7302749 -119.1396363,57.6353199 -119.0206629,57.5411878 -118.9016439,57.447905 -118.7825891,57.3554976 -118.6635084,57.2639916 -118.5444111,57.1734126 -118.4253069,57.0837861 -118.3062049,56.9951372 -118.1871142,56.9074906 -118.0680435,56.8208709 -117.9490013,56.7353022 -117.829996,56.6508079 -117.7110355,56.5674113 -117.5921275,56.4851352 -117.4732791,56.4040016 -117.3544975,56.3240322 -117.2357891,56.2452481 -117.11716,56.1676697 -116.9986161,56.0913168 -116.8801625,56.0162085 -116.761804,55.9423633 -116.643545,55.8697988 -116.5253893,55.798532 -116.4073399,55.728579 -116.2893998,55.659955 -116.1715709,55.5926745 -116.0538547,55.526751 -115.9362522,55.4621972 -115.8187635,55.3990247 -115.7013882,55.3372442 -115.5841252,55.2768654 -115.4669727,55.2178968 -115.349928,55.1603462 -115.2329879,55.1042198 -115.1161483,55.0495231 -114.9994042,54.9962601 -114.88275,54.9444339 -114.7661791,54.8940461 -114.6496842,54.8450974 -114.5332571,54.7975869 -114.4168886,54.7515128 -114.3005693,54.7068722 -114.1842886,54.6636609 -114.0680354,54.6218738 -113.9517981,54.5815049 -113.8355644,54.5425471 -113.7193214,54.5049923 -113.6030558,54.4688319 -113.4867537,54.4340561 -113.3704009,54.4006544 -113.2539827,54.3686158 -113.1374842,54.3379282 -113.0208899,54.3085791 -112.9041843,54.2805554 -112.7873515,54.2538433 -112.6703754,54.2284285 -112.5532398,54.2042963 -112.4359282,54.1814313 -112.318424,54.1598179 -112.2007107,54.13944 -112.0827717,54.1202811 -111.9645901,54.1023245 -111.8461495,54.0855532 -111.727433,54.0699498 -111.6084244,54.0554969 -111.489107,54.0421769 -111.3694647,54.0299718 -111.2494814,54.018864 -111.1291412,54.0088353 -111.0084286,53.9998679 -110.8873283,53.9919439 -110.7658252,53.9850455 -110.643905,53.9791549 -110.5215533,53.9742546 -110.3987567,53.9703274 -110.275502,53.9673562 -110.1517767,53.9653245 -110.0275688,53.9642158 -109.902867,53.9640144 -109.7776609,53.9647047 -109.6519404,53.966272 -109.5256966,53.9687018 -109.3989213,53.9719805 -109.271607,53.976095 -109.1437475,53.981033 -109.015337,53.9867828 -108.886371,53.9933334 -108.7568457,54.0006746 -108.6267584,54.0087969 -108.4961072,54.0176916 -108.3648911,54.0273506 -108.2331103,54.0377667 -108.1007656,54.0489334 -107.9678592,54.0608451 -107.8343937,54.0734969 -107.7003733,54.0868846 -107.5658028,54.1010051 -107.430688,54.1158559 -107.2950358,54.1314353 -107.1588542,54.1477428 -107.0221519,54.1647782 -106.8849386,54.1825424 -106.747225,54.2010368 -106.6090225,54.2202637 -106.4703434,54.2402259 -106.3312006,54.2609268 -106.1916077,54.2823705 -106.0515793,54.3045615 -105.9111304,54.3275049 -105.7702764,54.3512061 -105.6290337,54.3756712 -105.4874189,54.4009064 -105.3454491,54.4269184 -105.2031421,54.4537143 -105.0605159,54.4813012 -104.9175888,54.5096868 -104.7743797,54.5388789 -104.6309076,54.5688853 -104.487192,54.5997142 -104.3432524,54.6313741 -104.199109,54.6638733 -104.0547817,54.6972205 -103.910291,54.7314243 -103.7656574,54.7664935 -103.6209016,54.8024369 -103.4760443,54.8392634 -103.3311065,54.8769817 -103.1861091,54.9156006 -103.0410731,54.955129 -102.8960196,54.9955754 -102.7509695,55.0369485 -102.6059438,55.0792567 -102.4609633,55.1225082 -102.3160488,55.1667112 -102.1712209,55.2118735 -102.0265,55.2580027 -101.8819062,55.305106 -101.7374595,55.3531905 -101.5931796,55.4022628 -101.4490856,55.4523289 -101.3051967,55.5033949 -101.1615313,55.555466 -101.0181076,55.608547 -100.8749433,55.6626423 -100.7320555,55.7177558 -100.589461,55.7738906 -100.4471758,55.8310494 -100.3052156,55.8892342 -100.1635953,55.9484465 -100.0223294,56.008687 -99.8814315,56.0699557 -99.7409148,56.1322522 -99.6007916,56.195575 -99.4610738,56.2599223 -99.3217722,56.3252911 -99.1828972,56.391678 -99.0444583,56.4590786 -98.9064641,56.5274878 -98.7689226,56.5968997 -98.6318408,56.6673074 -98.4952249,56.7387034 -98.3590803,56.8110791 -98.2234117,56.8844255 -98.088223,56.9587324 -97.9535172,57.0339892 -97.8192967,57.1101845 -97.6855632,57.1873062 -97.5523176,57.2653415 -97.4195603,57.344277 -97.2872907,57.4240987 -97.1555079,57.5047921 -97.0242102,57.5863419 -96.8933955,57.6687325 -96.7630607,57.7519476 -96.6332026,57.8359706 -96.5038171,57.9207844 -96.3748998,58.0063712 -96.2464456,58.0927131 -96.1184489,58.1797917 -95.9909038,58.2675881 -95.8638036,58.3560831 -95.7371415,58.4452571 -95.6109099,58.5350904 -95.4851009,58.6255628 -95.3597061,58.7166537 -95.234717,58.8083424 -95.1101242,58.900608 -94.9859182,58.9934292 -94.8620891,59.0867846 -94.7386266,59.1806526 -94.6155201,59.2750114 -94.3703307,59.4651135 -94.1264294,59.6569139 -93.8837199,59.8502343 -93.6421019,60.0448953 -93.401471,60.2407175 -93.1617201,60.4375218 -92.9227388,60.6351305 -92.6844147,60.8333671 -92.2092796,61.2310324 -91.7353878,61.6291705 -91.2618078,62.0265098 -91.0248465,62.2245093 -90.7876201,62.4218789 -90.5500178,62.618491 -90.311931,62.8142255 -90.0732532,63.0089702 -89.8338805,63.2026207 -89.5937116,63.3950799 -89.352648,63.5862587 -89.1105943,63.7760755 -88.8674579,63.964456 -88.6231497,64.151333 -88.3775833,64.3366458 -88.1306756,64.5203402 -87.8823467,64.7023674 -87.6325198,64.8826843 -87.3811211,65.0612528 -87.2548102,65.1498706 -87.1280802,65.2380392 -87.0009228,65.3257548 -86.8733298,65.4130142 -86.7452933,65.4998144 -86.6168058,65.5861527 -86.4878596,65.6720263 -86.3584475,65.7574331 -86.2285625,65.8423707 -86.0981977,65.9268373 -85.9673465,66.0108312 -85.8360025,66.0943506 -85.7041595,66.1773943 -85.5718116,66.2599611 -85.438953,66.3420497 -85.3055782,66.4236593 -85.171682,66.5047892 -85.0372593,66.5854385 -84.9023052,66.6656068 -84.7668153,66.7452936 -84.6307851,66.8244986 -84.4942106,66.9032215 -84.3570878,66.981462 -84.2194132,67.05922 -84.0811833,67.1364954 -83.942395,67.2132882 -83.8030453,67.2895984 -83.6631316,67.3654259 -83.5226516,67.4407706 -83.3816029,67.5156327 -83.2399837,67.5900121 -83.0977922,67.6639087 -82.9550272,67.7373225 -82.8116874,67.8102533 -82.6677718,67.882701 -82.5232798,67.9546654 -82.378211,68.0261462 -82.2325653,68.097143 -82.0863427,68.1676553 -81.9395436,68.2376828 -81.7921685,68.3072246 -81.6442185,68.3762802 -81.4956946,68.4448486 -81.3465982,68.5129288 -81.196931,68.5805199 -81.0466948,68.6476204 -80.895892,68.7142291 -80.7445249,68.7803444 -80.5925961,68.8459647 -80.4401087,68.9110882 -80.2870658,68.9757131 -80.1334708,69.0398373 -79.9793273,69.1034588 -79.8246393,69.1665753 -79.6694107,69.2291844 -79.5136458,69.2912838 -79.3573493,69.352871 -79.2005258,69.4139432 -79.0431801,69.4744979 -78.8853176,69.5345322 -78.7269433,69.5940431 -78.568063,69.6530279 -78.4086821,69.7114833 -78.2488067,69.7694063 -78.0884427,69.8267937 -77.9275964,69.8836423 -77.7662742,69.9399486 -77.6044826,69.9957094 -77.4422283,70.0509211 -77.2795182,70.1055802 -77.1163594,70.1596832 -76.952759,70.2132264 -76.7887242,70.2662061 -76.6242627,70.3186187 -76.459382,70.3704602 -76.2940897,70.421727 -76.1283939,70.4724151 -75.9623024,70.5225207 -75.7958233,70.5720397 -75.628965,70.6209683 -75.4617356,70.6693024 -75.2941437,70.717038 -75.1261978,70.7641711 -74.9579066,70.8106975 -74.7892787,70.8566132 -74.620323,70.9019141 -74.4510485,70.9465961 -74.281464,70.990655 -74.1115788,71.0340867 -73.9414018,71.0768871 -73.7709424,71.1190521 -73.6002099,71.1605774 -73.4292135,71.2014591 -73.2579626,71.2416929 -73.0864668,71.2812748 -72.9147355,71.3202007 -72.7427783,71.3584665 -72.5706047,71.3960681 -72.3982244,71.4330016 -72.225647,71.469263 -72.0528822,71.5048482 -71.8799396,71.5397533 -71.7068291,71.5739744 -71.5335604,71.6075077 -71.3601431,71.6403494 -71.1865871,71.6724956 -71.012902,71.7039427 -70.8390978,71.7346869 -70.665184,71.7647246 -70.4911704,71.7940523 -70.3170668,71.8226665 -70.1428829,71.8505636 -69.9686283,71.8777404 -69.7943127,71.9041933 -69.6199457,71.9299193 -69.4455369,71.9549152 -69.2710959,71.9791777 -69.0966321,72.0027038 -68.922155,72.0254907 -68.7476741,72.0475353 -68.5731987,72.068835 -68.398738,72.0893869 -68.2243014,72.1091885 -68.049898,72.1282371 -67.8755368,72.1465303 -67.701227,72.1640658 -67.5269775,72.180841 -67.3527972,72.1968538 -67.1786949,72.2121019 -67.0046793,72.2265833 -66.8307592,72.2402958 -66.6569431,72.2532373 -66.4832395,72.265406 -66.3096569,72.2767999 -66.1362035,72.2874171 -65.9628876,72.2972558 -65.7897173,72.3063142 -65.6167007,72.3145906 -65.4438457,72.3220834 -65.2711602,72.3287907 -65.0986519,72.3347111 -64.9263285,72.3398429 -64.7541975,72.3441846 -64.5822662,72.3477347 -64.4105421,72.3504917 -64.2390323,72.352454 -64.0677439,72.3536203 -63.8966837,72.3539892 -63.7258587,72.3535591 -63.5552755,72.3523288 -63.3849408,72.3502969 -63.2148608,72.3474619 -63.045042,72.3438227 -62.8754905,72.3393777 -62.7062122,72.3341256 -62.5372132,72.3280652 -62.3684991,72.3211951 -62.2000756,72.313514 -62.031948,72.3050205 -61.8641216,72.2957133 -61.6966017,72.285591 -61.5293932,72.2746523 -61.362501,72.2628958 -61.1959297,72.2503201 -61.0296838,72.2369239 -60.8637677,72.2227056 -60.6981857,72.2076639 -60.5329417,72.1917973 -60.3680395,72.1751043 -60.203483,72.1575835 -60.0392755,72.1392331 -59.8754204,72.1200517 -59.7119209,72.1000377 -59.5487799,72.0791894 -59.3860001,72.0575051 -59.2235842,72.0349831 -59.0615345,72.0116215 -58.8998533,71.9874187 -58.7385424,71.9623726 -58.5776036,71.9364813 -58.4170386,71.9097429 -58.2568486,71.8821554 -58.0970347,71.8537165 -57.937598,71.8244242 -57.7785391,71.7942762 -57.6198585,71.7632703 -57.4615564,71.731404 -57.303633,71.698675 -57.1460881,71.6650807 -56.9889213,71.6306186 -56.832132,71.5952861 -56.6757195,71.5590804 -56.5196827,71.5219988 -56.3640205,71.4840384 -56.2087314,71.4451962 -56.0538137,71.4054694 -55.8992656,71.3648547 -55.7450851,71.323349 -55.5912699,71.280949 -55.4378175,71.2376515 -55.2847254,71.1934531 -55.1319908,71.1483502 -54.9796108,71.1023393 -54.8275824,71.055417 -54.6759025,71.0075795 -54.5245679,70.9588231 -54.3735752,70.9091441 -54.2229211,70.8585387 -54.0726022,70.8070031 -53.9226149,70.7545334 -53.7729557,70.7011256 -53.6236212,70.6467758 -53.4746077,70.59148 -53.3259119,70.5352342 -53.1775301,70.4780344 -53.0294589,70.4198764 -52.8816949,70.3607562 -52.7342347,70.3006697 -52.587075,70.2396126 -52.4402127,70.177581 -52.2936446,70.1145705 -52.1473677,70.050577 -52.0013791,69.9855964 -51.8556761,69.9196244 -51.7102561,69.8526569 -51.5651167,69.7846896 -51.4202556,69.7157184 -51.2756706,69.645739 -51.13136,69.5747473 -50.987322,69.5027391 -50.8435551,69.4297103 -50.7000582,69.3556566 -50.5568302,69.280574 -50.4138704,69.2044583 -50.2711783,69.1273055 -50.1287536,69.0491114 -49.9865965,68.9698721 -49.8447073,68.8895836 -49.7030866,68.8082418 -49.5617356,68.7258428 -49.4206553,68.6423828 -49.2798476,68.5578579 -49.1393144,68.4722642 -48.9990581,68.385598 -48.8590815,68.2978557 -48.7193876,68.2090335 -48.57998,68.1191278 -48.4408628,68.0281351 -48.3020404,67.9360519 -48.1635176,67.8428748 -48.0252999,67.7486003 -47.8873931,67.6532253 -47.7498037,67.5567465 -47.6125385,67.4591607 -47.4756049,67.3604649 -47.3390111,67.2606561 -47.2027656,67.1597312 -47.0668775,67.0576876 -46.9313568,66.9545224 -46.7962136,66.850233 -46.6614591,66.7448169 -46.5271046,66.6382714 -46.3931624,66.5305943 -46.2596451,66.4217833 -46.126566,66.3118362 -45.9939389,66.2007508 -45.8617783,66.0885254 -45.7300989,65.9751579 -45.5989165,65.8606467 -45.4682471,65.7449901 -45.3381072,65.6281867 -45.2085141,65.5102351 -45.0794855,65.391134 -44.9510397,65.2708823 -44.8231954,65.1494791 -44.6959718,65.0269234 -44.5693886,64.9032146 -44.4434661,64.7783522 -44.3182246,64.6523357 -44.1936852,64.5251648 -44.069869,64.3968394 -43.9467978,64.2673597 -43.8244934,64.1367257 -43.7029781,64.0049379 -43.5822743,63.8719968 -43.4624047,63.7379032 -43.3433924,63.6026578 -43.2252603,63.4662617 -43.1080317,63.3287163 -42.9917302,63.1900229 -42.8763793,63.050183 -42.7620026,62.9091986 -42.6486239,62.7670717 -42.5362671,62.6238043 -42.424956,62.4793989 -42.3147146,62.3338582 -42.2055668,62.1871848 -42.0975365,62.0393818 -41.9906477,61.8904525 -41.8849242,61.7404003 -41.7803898,61.5892289 -41.6770682,61.4369421 -41.5749832,61.283544 -41.474158,61.1290391 -41.3746162,60.973432 -41.2763809,60.8167273 -41.1794752,60.6589303 -41.0839218,60.5000462 -40.9897434,60.3400805 -40.8969623,60.1790392 -40.8056006,60.0169281 -40.71568,59.8537537 -40.6272223,59.6895225 -40.5402484,59.5242414 -40.4547793,59.3579174 -40.3708354,59.1905579 -40.2884369,59.0221706 -40.2076035,58.8527633 -40.1283543,58.6823443 -40.0507083,58.510922 -39.9746839,58.3385051 -39.9002988,58.1651027 -39.8275705,57.9907242 -39.7565158,57.8153791 -39.687151,57.6390774 -39.6194916,57.4618294 -39.553553,57.2836455 -39.4893494,57.1045367 -39.4268947,56.9245141 -39.3662021,56.7435892 -39.307284,56.5617739 -39.2501522,56.3790802 -39.1948176,56.1955208 -39.1412905,56.0111083 -39.0895803,55.8258561 -39.0396958,55.6397775 -38.9916449,55.4528864 -38.9454345,55.2651971 -38.901071,55.076724 -38.8585598,54.887482 -38.8179054,54.6974863 -38.7791115,54.5067526 -38.742181,54.3152967 -38.7071157,54.1231348 -38.6739166,53.9302836 -38.642584,53.73676 -38.6131168,53.5425813 -38.5855135,53.3477652 -38.5597712,53.1523297 -38.5358862,52.9562931 -38.5138541,52.7596741 -38.4936693,52.5624918 -38.4753255,52.3647653 -38.4588156,52.1665143 -38.4441316,51.9677587 -38.4312647,51.7685186 -38.4202056,51.5688144 -38.410944,51.3686668 -38.403469,51.1680967 -38.397769,50.9671251 -38.3938317,50.7657734 -38.3916444,50.5640631 -38.3911936,50.3620158 -38.3924653,50.1596536 -38.395445,49.9569983 -38.4001177,49.7540722 -38.4064676,49.5508976 -38.4144789,49.347497 -38.424135,49.1438929 -38.435419,48.9401082 -38.4483134,48.7361654 -38.4628006,48.5320877 -38.4788623,48.3278979 -38.4964802,48.123619 -38.5156352,47.9192743 -38.5363083,47.7148869 -38.55848,47.5104799 -38.5821306,47.3060767 -38.60724,47.1017006 -38.633788,46.8973747 -38.6617541,46.6931224 -38.6911177,46.488967 -38.721858,46.2849317 -38.753954,46.0810398 -38.7873847,45.8773144 -38.8221288,45.6737787 -38.8581652,45.4704558 -38.8954726,45.2673686 -38.9340296,45.06454 -38.9738149,44.8619929 -39.0148073,44.6597499 -39.0569855,44.4578336 -39.1003283,44.2562666 -39.1448148,44.0550709 -39.1904239,43.8542689 -39.2371348,43.6538824 -39.2849268,43.4539334 -39.3337796,43.2544434 -39.3836728,43.0554338 -39.4345864,42.856926 -39.4865005,42.6589408 -39.5393956,42.4614992 -39.5932524,42.2646216 -39.6480518,42.0683284 -39.7037753,41.8726397 -39.7604045,41.6775753 -39.8179213,41.4831548 -39.8763082,41.2893974 -39.935548,41.0963221 -39.9956238,40.9039476 -40.0565194,40.7122922 -40.1182187,40.521374 -40.1807065,40.3312107 -40.2439679,40.1418198 -40.3079886,39.953218 -40.3727548,39.7654222 -40.4382534,39.5784485 -40.504472,39.3923128 -40.5713988,39.2070304 -40.6390226,39.0226165 -40.707333,38.8390854 -40.7763204,38.6564513 -40.8459759,38.4747279 -40.9162914,38.2939284 -40.9872597,38.1140652 -41.0588744,37.9351507 -41.1311298,37.7571966 -41.2040214,37.5802139 -41.277545,37.4042134 -41.3516978,37.2292052 -41.4264775,37.055199 -41.5018827,36.8822039 -41.577913,36.7102287 -41.6545686,36.5392814 -41.7318509,36.3693697 -41.8097617,36.2005006 -41.8883041,36.0326807 -41.9674818,35.8659162 -42.0472996,35.7002125 -42.1277627,35.5355747 -42.2088777,35.3720072 -42.2906517,35.209514 -42.3730926,35.0480987 -42.456209,34.8877643 -42.5400104,34.7285133 -42.6245067,34.5703478 -42.7097088,34.4132696 -42.7956277,34.2572798 -42.8822755,34.1023792 -42.9696645,33.9485684 -43.0578077,33.7958473 -43.1467183,33.6442156 -43.2364103,33.4936726 -43.3268978,33.3442172 -43.4181955,33.1958481 -43.5103183,33.0485635 -43.6032814,32.9023615 -43.6971004,32.7572396 -43.7917911,32.6131953 -43.8873696,32.4702257 -43.9838521,32.3283274 -44.081255,32.1874971 -44.1795949,32.047731 -44.2788887,31.9090252 -44.379153,31.7713754 -44.480405,31.6347772 -44.5826615,31.499226 -44.6859395,31.3647167 -44.7902561,31.2312444 -44.8956283,31.0988037 -45.002073,30.9673893 -45.109607,30.8369954 -45.2182472,30.7076164 -45.3280102,30.5792461 -45.4389124,30.4518786 -45.5509701,30.3255076 -45.6641995,30.2001268 -45.7786163,30.0757297 -45.8942363,29.9523098 -46.0110746,29.8298604 -46.1291462,29.7083747 -46.2484659,29.5878461 -46.3690479,29.4682676 -46.490906,29.3496323 -46.6140538,29.2319332 -46.7385043,29.1151635 -46.8642699,28.999316 -46.9913628,28.8843838 -47.1197943,28.7703599 -47.2495754,28.6572372 -47.3807163,28.5450089 -47.5132268,28.433668 -47.6471156,28.3232077 -47.7823912,28.2136211 -47.919061,28.1049015 -48.0571317,27.9970423 -48.1966093,27.8900369 -48.3374989,27.7838788 -48.4798046,27.6785618 -48.6235298,27.5740797 -48.7686768,27.4704264 -48.9152472,27.367596 -49.0632414,27.2655828 -49.2126589,27.1643811 -49.3634982,27.0639856 -49.515757,26.964391 -49.6694319,26.8655922 -49.8245183,26.7675843 -49.9810111,26.6703625 -50.1389036,26.5739225 -50.2981885,26.4782597 -50.4588574,26.3833702 -50.6209006,26.28925 -50.7843077,26.1958953 -50.949067,26.1033027 -51.115166,26.0114689 -51.2825908,25.9203908 -51.4513267,25.8300657 -51.6213583,25.7404909 -51.7926687,25.6516639 -51.9652406,25.5635825 -52.1390557,25.4762446 -52.3140946,25.3896485 -52.4903376,25.3037923 -52.6677638,25.2186747 -52.8463518,25.1342942 -53.0260794,25.0506497 -53.206924,24.9677402 -53.388862,24.8855647 -53.5718695,24.8041225 -53.7559218,24.723413 -53.940994,24.6434359 -54.1270605,24.5641907 -54.3140951,24.4856772 -54.5020713,24.4078954 -54.6909623,24.3308453 -54.8807406,24.2545272 -55.0713786,24.1789412 -55.2628481,24.1040877 -55.4551206,24.0299674 -55.6481675,23.9565807 -55.8419597,23.8839284 -56.0364679,23.8120114 -56.2316626,23.7408305 -56.427514,23.6703868 -56.6239921,23.6006813 -56.8210669,23.5317152 -57.0187081,23.4634899 -57.2168854,23.3960066 -57.4155682,23.3292668 -57.6147262,23.2632721 -57.8143289,23.1980238 -58.0143456,23.1335237 -58.2147461,23.0697735 -58.4154999,23.0067749 -58.6165767,22.9445296 -58.8179464,22.8830396 -59.0195791,22.8223067 -59.2214448,22.7623327 -59.423514,22.7031197 -59.6257574,22.6446696 -59.8281459,22.5869844 -60.0306507,22.5300661 -60.2332434,22.4739168 -60.4358959,22.4185385 -60.6385804,22.3639333 -60.8412697,22.3101032 -61.0439367,22.2570503 -61.2465551,22.2047767 -61.4490987,22.1532845 -61.6515421,22.1025756 -61.8538601,22.0526522 -62.0560285,22.0035162 -62.2580231,21.9551698 -62.4598207,21.9076148 -62.6613985,21.8608532 -62.8627345,21.814887 -63.0638071,21.7697181 -63.2645957,21.7253483 -63.4650802,21.6817795 -63.6652414,21.6390133 -63.8650609,21.5970516 -64.0645211,21.5558961 -64.2636052,21.5155482 -64.4622976,21.4760096 -64.6605832,21.4372817 -64.8584483,21.399366 -65.0558799,21.3622638 -65.2528662,21.3259763 -65.4493965,21.2905047 -65.6454611,21.2558501 -65.8410515,21.2220135 -66.0361604,21.1889957 -66.2307814,21.1567976 -66.4249097,21.1254199 -66.6185411,21.0948631 -66.811673,21.0651278 -67.0043036,21.0362143 -67.1964324,21.0081229 -67.3880599,20.9808538 -67.579188,20.9544069 -67.7698194,20.9287822 -67.959958,20.9039795 -68.149609,20.8799985 -68.3387785,20.8568386 -68.5274739,20.8344994 -68.7157036,20.8129799 -68.9034771,20.7922795 -69.0908048,20.772397 -69.2776984,20.7533314 -69.4641703,20.7350813 -69.6502339,20.7176453 -69.8359035,20.7010218 -70.0211943,20.6852091 -70.2061222,20.6702053 -70.3907038,20.6560084 -70.5749566,20.6426162 -70.7588987,20.6300264 -70.9425488,20.6182365 -71.1259263,20.6072437 -71.3090509,20.5970454 -71.4919433,20.5876386 -71.6746243,20.57902 -71.8571153,20.5711865 -72.0394381,20.5641345 -72.2216149,20.5578604 -72.4036684,20.5523604 -72.5856214,20.5476306 -72.7674972,20.5436667 -72.9493194,20.5404644 -73.1311118,20.5380193 -73.3128983,20.5363265 -73.4947033,20.5353813 -73.6765511,20.5351786 -73.8584663,20.5357131 -74.0404734,20.5369794 -74.2225973,20.5389719 -74.4048626,20.5416846 -74.5872942,20.5451117 -74.7699168,20.5492468 -74.9527552,20.5540836 -75.135834,20.5596154 -75.3191777,20.5658355 -75.5028106,20.5727367 -75.6867569,20.5803118 -75.8710406,20.5885534 -76.0556853,20.5974539 -76.2407145,20.6070053 -76.4261512,20.6171996 -76.6120182,20.6280284 -76.7983378,20.6394833 -76.9851318,20.6515554 -77.1724218,20.6642359 -77.3602287,20.6775155 -77.5485729,20.6913848 -77.7374744,20.7058342 -77.9269525,20.7208537 -78.1170258,20.7364333 -78.3077124,20.7525626 -78.4990297,20.7692311 -78.6909944,20.7864278 -78.8836223,20.8041418 -79.0769287,20.8223617 -79.2709278,20.841076 -79.4656333,20.8602728 -79.6610578,20.8799403 -79.857213,20.9000659 -80.0541098,20.9206373 -80.2517581,20.9416416 -80.4501667,20.9630658 -80.6493435,20.9848965 -80.8492953,21.0071202 -81.0500278,21.0297231 -81.2515455,21.0526909 -81.4538518,21.0760095 -81.6569489,21.0996641 -81.8608378,21.1236398 -82.0655182,21.1479215 -82.2709884,21.1724936 -82.4772456,21.1973405 -82.6842854,21.2224462 -82.8921021,21.2477943 -83.1006886,21.2733682 -83.3100364,21.2991512 -83.5201355,21.325126 -83.7309748,21.3512753 -83.9425417,21.3775816 -84.1548225,21.404027 -84.3678021,21.4305935 -84.5814643,21.4572628 -84.7957918,21.4840166 -85.010766,21.5108362 -85.2263674,21.537703 -85.4425753,21.5645979 -85.8767229,21.6183962 -86.3130237,21.6720775 -86.7512778,21.7254863 -87.1912714,21.7784664 -87.6327785,21.8308604 -88.0755617,21.8825108 -88.5193732,21.9332601 -88.9639562,21.9829511 -89.4090461,22.0314277 -89.8543713,22.0785349 -90.2996546,22.1241195 -90.7446146,22.1680304 -91.1889659,22.2101189 -91.6324213,22.2502393 -91.8537228,22.2695167 -92.0746921,22.2882489 -92.295293,22.3064188 -92.5154895,22.3240092 -92.7352457,22.3410035 -92.9545259,22.3573852 -93.1732943,22.3731383 -93.3915157,22.3882468 -93.6091547,22.4026953 -93.8261765,22.4164687 -94.0425466,22.429552 -94.2582306,22.4419307 -94.4731947,22.4535909 -94.6874055,22.4645187 -94.90083,22.4747008 -95.1134357,22.4841244 -95.3251907,22.4927769 -95.5360635,22.5006463 -95.7460234,22.5077209 -95.9550403,22.5139897 -96.1630846,22.519442 -96.3701276,22.5240675 -96.5761413,22.5278566 -96.7810983,22.5308002 -96.9849724,22.5328897 -97.1877377,22.5341168 -97.3893698,22.534474 -97.5898446,22.5339544 -97.7891394,22.5325515 -97.9872323,22.5302595 -98.1841023,22.527073 -98.3797296,22.5229876 -98.5740954,22.517999 -98.7671821,22.5121041 -98.9589731,22.5052999 -99.1494531,22.4975844 -99.3386079,22.4889561 -99.5264247,22.4794143 -99.7128919,22.468959 -99.8979991,22.4575908 -100.0817375,22.445311 -100.2640997,22.4321218 -100.4450795,22.4180261 -100.6246724,22.4030275 -100.8028754,22.3871304 -100.9796872,22.3703401 -101.1551078,22.3526626 -101.3291392,22.3341049 -101.5017848,22.3146746 -101.6730499,22.2943804 -101.8429416,22.2732317 -102.0114687,22.2512389 -102.1786419,22.2284132 -102.3444734,22.2047666 -102.5089773,22.1803121 -102.6721693,22.1550634 -102.8340667,22.1290348 -102.9946883,22.1022416 -103.1540544,22.0746999 -103.3121869,22.0464261 -103.4691091,22.0174377 -103.6248455,21.9877526 -103.7794223,21.9573895 -103.9328666,21.9263676 -104.0852071,21.8947067 -104.2364736,21.8624272 -104.3866969,21.8295502 -104.5359093,21.796097 -104.6841438,21.7620896 -104.8314345,21.7275503 -104.9778167,21.6925021 -105.1233264,21.6569681 -105.2680003,21.620972 -105.4118763,21.5845376 -105.5549926,21.5476893 -105.6973885,21.5104516 -105.8391036,21.4728492 -105.9801782,21.4349073 -106.1206531,21.3966509 -106.2605696,21.3581055 -106.5388947,21.2802498 -106.815491,21.2015454 -107.0907,21.1221987 -107.3648664,21.0424159 -107.6383356,20.9624029 -108.1845629,20.8025012 -108.4580051,20.723014 -108.7321159,20.6440976 -109.0072248,20.565943 -109.2836534,20.4887352 -109.561713,20.4126529 -109.7014484,20.3750875 -109.8417028,20.3378668 -109.9825114,20.3010108 -110.1239083,20.2645389 -110.2659267,20.2284698 -110.4085987,20.1928215 -110.5519551,20.1576114 -110.6960255,20.122856 -110.8408384,20.0885712 -110.9864206,20.054772 -111.1327981,20.0214727 -111.2799952,19.9886869 -111.428035,19.9564271 -111.5769394,19.9247055 -111.7267288,19.893533 -111.8774224,19.8629202 -112.0290378,19.8328765 -112.1815914,19.8034106 -112.3350983,19.7745307 -112.4895722,19.7462437 -112.6450251,19.7185561 -112.801468,19.6914733 -112.9589103,19.665 -113.11736,19.6391401 -113.2768237,19.6138967 -113.4373067,19.589272 -113.598813,19.5652677 -113.7613453,19.5418844 -113.9249051,19.5191223 -114.0894928,19.4969808 -114.2551073,19.4754586 -114.4217468,19.4545538 -114.5894081,19.4342637 -114.758087,19.4145852 -114.9277785,19.3955146 -115.0984765,19.3770475 -115.2701737,19.359179 -115.4428622,19.3419037 -115.6165332,19.3252157 -115.7911769,19.3091087 -115.9667828,19.2935756 -116.1433396,19.2786093 -116.3208351,19.2642018 -116.4992565,19.250345 -116.6785901,19.2370303 -116.8588217,19.2242486 -117.0399362,19.2119904 -117.221918,19.200246 -117.4047509,19.1890052 -117.5884179,19.1782575 -117.7729016,19.167992 -117.9581839,19.1581976 -118.1442462,19.1488627 -118.3310695,19.1399758 -118.5186341,19.1315246 -118.7069201,19.123497 -118.8959069,19.1158803 -119.0855736,19.108662 -119.2758991,19.1018289 -119.4668617,19.095368 -119.6584395,19.0892659 -119.8506103,19.0835091 -120.0433516,19.0780841 -120.2366407,19.0729771 -120.6247705,19.0636617 -121.0148143,19.0554511 -121.4065849,19.0482326 -121.7998938,19.0418932 -122.1945526,19.0363202 -122.5903733,19.0314013 -122.9871699,19.0270255 -123.3847586,19.0230839 -123.7829593,19.0194694 -124.580498,19.0128096 -125.378446,19.0062575 -126.1755706,18.9990925 -126.5734738,18.9950771 -126.970769,18.9906761 -127.3673424,18.9858249 -127.7630908,18.9804651 -128.1579215,18.9745452 -128.5517516,18.9680197 -128.9445079,18.9608493 -129.3361265,18.9530006 -129.7265522,18.9444458 -130.1157381,18.9351626 -130.5036456,18.9251339 -130.8902434,18.9143475 -131.2755081,18.9027964 -131.6594232,18.8904783 -132.0419793,18.8773956 -132.4231736,18.8635551 -132.8030098,18.8489683 -133.181498,18.8336508 -133.5586539,18.8176224 -133.9344992,18.800907 -134.3090607,18.7835322 -134.6823705,18.7655295 -135.0544652,18.7469337 -135.4253859,18.7277832 -135.7951778,18.7081193 -136.1638901,18.6879867 -136.5315751,18.6674327 -136.8982887,18.6465075 -137.2640897,18.6252638 -137.6290394,18.603757 -137.9932017,18.5820445 -138.3566427,18.560186 -139.0816335,18.5162799 -139.8045724,18.4725541 -140.5260355,18.4295493 -141.2466047,18.3878259 -141.966857,18.3479595 -142.3270413,18.3289055 -142.6873567,18.3105361 -143.0478707,18.2929255 -143.4086496,18.2761481 -143.769758,18.2602782 -144.1312589,18.2453902 -144.4932134,18.2315583 -144.8556807,18.2188563 -145.2187181,18.2073577 -145.5823809,18.1971355 -145.9467221,18.188262 -146.3117929,18.1808089 -146.677642,18.1748472 -147.0443159,18.1704468 -147.411859,18.1676767 -147.7803131,18.1666048 -148.1497176,18.1672979 -148.5201091,18.1698212 -148.891522,18.1742388 -149.2639875,18.180613 -149.6375344,18.1890047 -150.0121882,18.1994727 -150.1999375,18.2055034 -150.3879718,18.2120743 -150.5762934,18.2191926 -150.7649047,18.2268647 -150.9538074,18.2350974 -151.1430035,18.243897 -151.3324944,18.2532698 -151.5222816,18.2632221 -151.7123661,18.2737598 -151.902749,18.2848888 -152.093431,18.2966149 -152.2844127,18.3089436 -152.4756942,18.3218804 -152.6672758,18.3354304 -152.8591574,18.3495989 -153.0513385,18.3643906 -153.2438186,18.3798105 -153.436597,18.3958631 -153.6296725,18.4125527 -153.8230441,18.4298837 -154.01671,18.4478601 -154.2106688,18.4664856 -154.4049183,18.4857641 -154.5994563,18.505699 -154.7942805,18.5262934 -154.9893881,18.5475506 -155.1847761,18.5694733 -155.3804414,18.5920642 -155.5763804,18.6153257 -155.7725895,18.63926 -155.9690647,18.6638692 -156.1658017,18.6891549 -156.362796,18.7151188 -156.5600429,18.7417621 -156.7575372,18.769086 -156.9552738,18.7970912 -157.153247,18.8257786 -157.351451,18.8551484 -157.5498797,18.8852008 -157.7485266,18.9159358 -157.9473852,18.9473532 -158.1464485,18.9794523 -158.3457092,19.0122324 -158.5451598,19.0456925 -158.7447926,19.0798314 -158.9445996,19.1146476 -159.1445724,19.1501394 -159.3447024,19.186305 -159.5449807,19.2231422 -159.7453983,19.2606488 -159.9459457,19.2988222 -160.1466133,19.33766 -160.3473913,19.3771592 -160.5482694,19.417317 -160.7492374,19.4581302 -160.9502845,19.4995957 -161.1514,19.54171 -161.3525727,19.5844697 -161.5537913,19.6278712 -161.7550442,19.6719108 -161.9563197,19.7165848 -162.1576057,19.7618894 -162.3588901,19.8078205 -162.5601603,19.8543743 -162.7614036,19.9015465 -162.9626073,19.9493332 -163.1637583,19.9977302 -163.3648432,20.0467332 -163.5658485,20.096338 -163.7667605,20.1465405 -163.9675654,20.1973362 -164.168249,20.2487209 -164.5691952,20.3532403 -164.9694823,20.4600644 -165.1693416,20.5143301 -165.368991,20.5691594 -165.5684152,20.6245481 -165.7675987,20.6804921 -165.9665257,20.7369874 -166.1651803,20.7940301 -166.3635464,20.8516163 -166.5616078,20.9097422 -166.7593481,20.9684043 -166.9567507,21.0275988 -167.153799,21.0873224 -167.350476,21.1475718 -167.5467648,21.2083437 -167.7426482,21.2696352 -167.938109,21.3314432 -168.1331296,21.3937652 -168.3276925,21.4565984 -168.52178,21.5199405 -168.7153743,21.5837892 -168.9084573,21.6481426 -169.1010111,21.7129987 -169.2930173,21.7783559 -169.4844577,21.8442127 -169.6753139,21.9105678 -169.8655672,21.9774203 -170.0551989,22.0447693 -170.2441905,22.1126143 -170.4325228,22.180955 -170.6201771,22.2497911 -170.8071342,22.319123 -170.993375,22.3889511 -171.1788801,22.459276 -171.3636303,22.5300987 -171.5476061,22.6014206 -171.7307881,22.6732433 -171.9131565,22.7455687 -172.0946918,22.8183989 -172.275374,22.8917368 -172.4551835,22.965585 -172.6341003,23.0399471 -172.8121044,23.1148266 -172.9891756,23.1902275 -173.165294,23.2661544 -173.3404392,23.3426121 -173.514591,23.4196059 -173.6877291,23.4971413 -173.8598332,23.5752245 -174.0308827,23.6538619 -174.2008572,23.7330604 -174.3697362,23.8128273 -174.5374992,23.8931703 -174.7041256,23.9740974 -174.8695949,24.0556172 -175.0338864,24.1377385 -175.1969795,24.2204707 -175.3588537,24.3038235 -175.5194883,24.3878068 -175.6788628,24.4724314 -175.8369565,24.557708 -175.993749,24.643648 -176.1492196,24.730263 -176.303348,24.817565 -176.4561136,24.9055665 -176.6074962,24.9942799 -176.7574755,25.0837183 -176.9060314,25.1738948 -177.0531436,25.2648229 -177.1987925,25.356516 -177.342958,25.4489881 -177.4856206,25.5422531 -177.6267607,25.6363252 -177.7663591,25.7312185 -177.9043966,25.8269473 -178.0408542,25.9235262 -178.1757131,26.0209695 -178.308955,26.1192917 -178.4405613,26.2185073 -178.5705142,26.3186309 -178.6987957,26.4196768 -178.8253884,26.5216596 -178.9502749,26.6245936 -179.0734384,26.728493 -179.1948621,26.8333722 -179.3145296,26.939245 -179.432425,27.0461256 -179.5485325,27.1540275 -179.6628367,27.2629646 -179.7753228,27.37295 -179.8859759,27.483997 -179.9947819,27.5961186 -180.101727,27.7093275 -180.2067976,27.8236361 -180.3099807,27.9390565 -180.4112638,28.0556005 -180.5106345,28.1732798 -180.6080813,28.2921053 -180.7035927,28.4120879 -180.797158,28.5332381 -180.8887668,28.6555659 -180.9784092,28.7790808 -181.066076,28.9037919 -181.1517581,29.0297082 -181.2354474,29.1568376 -181.3171358,29.2851881 -181.3968163,29.4147667 -181.474482,29.5455803 -181.5501267,29.6776349 -181.623745,29.8109362 -181.6953318,29.945489 -181.7648827,30.0812976 -181.8323939,30.2183658 -181.8653837,30.2873732 -181.8978625,30.3566965 -181.92983,30.4263361 -181.9612859,30.4962921 -181.99223,30.5665647 -182.0226623,30.637154 -182.0525825,30.7080601 -182.0819907,30.779283 -182.1108867,30.8508228 -182.1392706,30.9226793 -182.1671425,30.9948525 -182.1945024,31.0673421 -182.2213505,31.1401479 -182.2476871,31.2132696 -182.2735123,31.286707 -182.2988265,31.3604596 -182.3479232,31.5089088 -182.3949805,31.6586128 -182.4400024,31.8095668 -182.4829937,31.9617649 -182.52396,32.1152003 -182.5629073,32.2698655 -182.5998427,32.4257522 -182.6347738,32.5828512 -182.6677087,32.7411527 -182.6986565,32.9006458 -182.7276268,33.0613192 -182.7546297,33.2231605 -182.7796761,33.3861569 -182.8027776,33.5502945 -182.8239462,33.715559 -182.8431945,33.8819353 -182.8605359,34.0494074 -182.8759841,34.217959 -182.8895536,34.3875727 -182.9012591,34.558231 -182.9111161,34.7299153 -182.9191404,34.9026068 -182.9253483,35.0762859 -182.9297566,35.2509326 -182.9323825,35.4265264 -182.9332434,35.6030463 -182.9323573,35.7804708 -182.9297425,35.9587779 -182.9254177,36.1379454 -182.9194018,36.3179505 -182.9117141,36.4987701 -182.9023739,36.6803808 -182.8914012,36.8627589 -182.878816,37.0458803 -182.8646385,37.2297207 -182.848889,37.4142554 -182.8315884,37.5994596 -182.8127573,37.7853082 -182.7924168,37.9717759 -182.7705879,38.1588374 -182.7472918,38.3464669 -182.7225497,38.5346387 -182.6963832,38.7233268 -182.6688136,38.9125054 -182.6398624,39.1021482 -182.6095511,39.2922292 -182.5779012,39.4827222 -182.5449343,39.6736009 -182.5106717,39.8648392 -182.475135,40.0564108 -182.4383454,40.2482895 -182.4003243,40.4404493 -182.3610929,40.632864 -182.3206723,40.8255078 -182.2790833,41.0183549 -182.2363468,41.2113794 -182.1924834,41.404556 -182.1475136,41.5978591 -182.1014575,41.7912636 -182.0543353,41.9847447 -182.0061667,42.1782774 -181.9569712,42.3718374 -181.9067681,42.5654005 -181.8555764,42.7589426 -181.8034147,42.9524404 -181.7503012,43.1458705 -181.6962541,43.33921 -181.6412907,43.5324366 -181.5854283,43.7255281 -181.5286836,43.918463 -181.4710729,44.1112201 -181.412612,44.3037789 -181.3533163,44.4961191 -181.2932005,44.6882211 -181.232279,44.880066 -181.1705654,45.0716354 -181.1080731,45.2629113 -181.0448145,45.4538766 -180.9808016,45.6445146 -180.9160459,45.8348095 -180.8505581,46.024746 -180.7843484,46.2143093 -180.7174265,46.4034856 -180.6498011,46.5922615 -180.5814807,46.7806244 -180.512473,46.9685623 -180.4427849,47.156064 -180.3724227,47.343119 -180.3013924,47.5297174 -180.2296988,47.7158502 -180.1573463,47.901509 -180.0843387,48.0866862 -180.010679,48.2713748 -179.9363696,48.4555687 -179.8614121,48.6392624 -179.7858079,48.8224509 -179.7095573,49.0051302 -179.6326605,49.1872966 -179.5551169,49.3689472 -179.4769254,49.5500796 -179.3980844,49.7306919 -179.3185919,49.9107829 -179.2384454,50.0903517 -179.1576419,50.2693981 -179.0761781,50.4479222 -178.9940501,50.6259248 -178.9112538,50.8034069 -178.8277847,50.98037 -178.7436379,51.156816 -178.6588082,51.3327472 -178.5732902,51.5081662 -178.4870779,51.6830761 -178.4001652,51.8574803 -178.3125458,52.0313824 -178.2242129,52.2047865 -178.1351597,52.3776969 -178.0453791,52.5501181 -177.9548636,52.7220552 -177.8636057,52.8935132 -177.7715977,53.0644975 -177.6788315,53.2350138 -177.5852991,53.4050678 -177.4909922,53.5746657 -177.3959025,53.7438137 -177.3000214,53.9125182 -177.2033403,54.0807857 -177.1058505,54.248623 -177.0075434,54.4160367 -176.9084101,54.5830339 -176.8084419,54.7496215 -176.7076298,54.9158065 -176.6059652,55.0815961 -176.5034391,55.2469972 -176.400043,55.4120171 -176.295768,55.5766629 -176.1906057,55.7409416 -176.0845474,55.9048603 -175.9775849,56.0684259 -175.8697099,56.2316455 -175.7609141,56.3945256 -175.6511898,56.5570732 -175.540529,56.7192948 -175.4289242,56.8811968 -175.3163679,57.0427855 -175.202853,57.2040672 -175.0883725,57.3650477 -174.9729196,57.525733 -174.856488,57.6861284 -174.7390713,57.8462395 -174.6206637,58.0060713 -174.5012595,58.1656287 -174.3808534,58.3249164 -174.2594406,58.4839387 -174.1370162,58.6426996 -174.0135761,58.8012028 -173.8891165,58.9594519 -173.7636337,59.1174497 -173.6371248,59.275199 -173.5095872,59.432702 -173.3810188,59.5899605 -173.251418,59.7469761 -173.1207835,59.9037495 -172.9891149,60.0602813 -172.8564121,60.2165714 -172.7226756,60.3726193 -172.5879066,60.5284239 -172.4521066,60.6839835 -172.3152782,60.8392959 -172.1774243,60.9943582 -172.0385485,61.1491672 -171.8986551,61.3037187 -171.7577488,61.4580084 -171.6158352,61.612031 -171.4729204,61.7657809 -171.329011,61.919252 -171.1841143,62.0724373 -171.0382383,62.2253296 -170.8913914,62.3779209 -170.7435828,62.5302029 -170.5948221,62.6821666 -170.4451196,62.8338024 -170.2944862,62.9851004 -170.1429333,63.1360498 -169.9904729,63.2866397 -169.8371177,63.4368584 -169.6828807,63.5866938 -169.5277754,63.7361334 -169.3718161,63.8851643 -169.2150173,64.0337729 -169.057394,64.1819455 -168.8989616,64.3296679 -168.7397362,64.4769254 -168.5797339,64.6237033 -168.4189715,64.7699861 -168.257466,64.9157585 -168.0952348,65.0610043 -167.9322955,65.2057077 -167.7686663,65.3498521 -167.6043654,65.4934209 -167.4394114,65.6363973 -167.2738231,65.7787641 -167.1076198,65.9205042 -166.9408206,66.0616 -166.7734452,66.2020339 -166.6055134,66.3417882 -166.4370451,66.4808448 -166.2680605,66.6191858 -166.09858,66.756793 -165.9286239,66.893648 -165.7582129,67.0297325 -165.5873678,67.1650281 -165.4161095,67.2995162 -165.2444589,67.4331782 -165.072437,67.5659957 -164.900065,67.6979499 -164.7273641,67.8290223 -164.5543554,67.9591943 -164.3810603,68.0884473 -164.2074999,68.2167628 -164.0336955,68.3441224 -163.8596682,68.4705076 -163.6854392,68.5959003 -163.5110296,68.7202823 -163.3364604,68.8436356 -163.1617526,68.9659424 -162.9869268,69.0871849 -162.8120038,69.2073456 -162.6370041,69.3264072 -162.4619481,69.4443527 -162.2868559,69.5611651 -162.1117476,69.6768279 -161.936643,69.7913246 -161.7615616,69.9046393 -161.5865228,70.016756 -161.4115457,70.1276592 -161.2366492,70.2373339 -161.0618519,70.345765 -160.887172,70.452938 -160.7126277,70.5588387 -160.5382366,70.6634533 -160.3640161,70.7667683 -160.1899833,70.8687707 -160.0161548,70.9694478 -159.8425471,71.0687873 -159.669176,71.1667774 -159.4960572,71.2634068 -159.3232057,71.3586646 -159.1506364,71.4525403 -158.9783633,71.5450242 -158.8064004,71.6361069 -158.6347608,71.7257796 -158.4634572,71.8140341 -158.292502,71.9008629 -158.1219068,71.9862589 -157.9516826,72.0702157 -157.7818399,72.1527277 -157.6123886,72.2337899 -157.4433378,72.3133979 -157.2746963,72.3915481 -157.1064718,72.4682377 -156.9386718,72.5434644 -156.7713027,72.6172267 -156.6043705,72.6895239 -156.4378807,72.7603559 -156.2718379,72.8297233 -156.1062462,72.8976273 -155.9411091,72.9640699 -155.7764292,73.0290538 -155.612209,73.0925822 -155.4484499,73.1546591 -155.2851529,73.2152892 -155.1223184,73.2744776 -154.9599461,73.3322304 -154.7980352,73.388554 -154.6365843,73.4434557 -154.4755914,73.4969433 -154.315054,73.549025 -154.154969,73.5997098 -153.9953329,73.6490072 -153.8361417,73.696927 -153.6773909,73.7434796 -153.5190756,73.7886759 -153.3611905,73.8325272 -153.20373,73.8750451 -153.0466879,73.9162417 -152.8900579,73.9561293 -152.7338333,73.9947208 -152.578007,74.0320291 -152.4225718,74.0680675 -152.2675201,74.1028496 -152.1128442,74.1363892 -151.958536,74.1687002 -151.8045874,74.1997969 -151.6509899,74.2296937 -151.4977349,74.258405 -151.3448138,74.2859456 -151.1922177,74.3123303 -151.0399376,74.3375739 -150.8879644,74.3616914 -150.736289,74.3846978 -150.584902,74.4066083 -150.4337942,74.427438 -150.2829563,74.4472019 -150.1323789,74.4659151 -149.9820526,74.4835928 -149.8319681,74.5002498 -149.6821161,74.5159012 -149.5324873,74.5305618 -149.3830726,74.5442462 -149.2338628,74.5569691 -149.0848491,74.5687448 -148.9360224,74.5795876 -148.7873742,74.5895114 -148.6388959,74.5985301 -148.4905792,74.6066572 -148.3424159,74.6139059 -148.1943982,74.6202892 -148.0465183,74.6258198 -147.8987689,74.63051 -147.7511428,74.6343717 -147.6036332,74.6374166 -147.4562336,74.6396558 -147.3089379,74.6411 -147.1617403,74.6417597 -147.0146353,74.6416446 -146.8676178,74.6407642 -146.7206832,74.6391274 -146.5738274,74.6367425 -146.4270465,74.6336173 -146.2803372,74.6297592 -146.1336968,74.6251748 -145.9871228,74.6198702 -145.8406135,74.6138508z" fill="rgb(0,0,0)" shaper:cutDepth="0.00635" shaper:pathType="exterior" transform="matrix(1,0,0,-1,182.9332434,74.6417597)" vector-effect="non-scaling-stroke" /><path d="M-63.3904441,60.17401 a0.555625,0.555625 0 1,1 1.11125,0 a0.555625,0.555625 0 1,1 -1.11125,0z" fill="rgb(255,255,255)" shaper:cutDepth="0.00635" shaper:pathType="interior" stroke="rgb(0,0,0)" transform="matrix(1,0,0,-1,182.9332434,74.6417597)" vector-effect="non-scaling-stroke" /><path d="M-145.4646359,65.2046642 a0.555625,0.555625 0 1,1 1.11125,0 a0.555625,0.555625 0 1,1 -1.11125,0z" fill="rgb(255,255,255)" shaper:cutDepth="0.00635" shaper:pathType="interior" stroke="rgb(0,0,0)" transform="matrix(1,0,0,-1,182.9332434,74.6417597)" vector-effect="non-scaling-stroke" /><path d="M-168.4752208,36.6976237 a0.555625,0.555625 0 1,1 1.11125,0 a0.555625,0.555625 0 1,1 -1.11125,0z" fill="rgb(255,255,255)" shaper:cutDepth="0.00635" shaper:pathType="interior" stroke="rgb(0,0,0)" transform="matrix(1,0,0,-1,182.9332434,74.6417597)" vector-effect="non-scaling-stroke" /><path d="M-67.5826559,32.3190914 a0.555625,0.555625 0 1,1 1.11125,0 a0.555625,0.555625 0 1,1 -1.11125,0z" fill="rgb(255,255,255)" shaper:cutDepth="0.00635" shaper:pathType="interior" stroke="rgb(0,0,0)" transform="matrix(1,0,0,-1,182.9332434,74.6417597)" vector-effect="non-scaling-stroke" /></svg>