<?xml version="1.0" encoding="utf-8"?>
<!-- Generator: Fusion 360, Shaper Origin Export Add-In, Version 1.5.0  -->
<svg enable-background="new 0 0 58.9808205 27.896992" height="27.896992cm" shaper:fusionaddin="version:1.5.0" version="1.1" viewBox="0 0 58.9808205 27.896992" width="58.9808205cm" x="0cm" xml:space="preserve" xmlns="http://www.w3.org/2000/svg" xmlns:shaper="http://www.shapertools.com/namespaces/shaper" xmlns:xlink="http://www.w3.org/1999/xlink" y="0cm"><path d="M-32.3281712,5.3863702 L-32.3281712,5.3863702 -32.1832841,5.3900721 -32.0386454,5.3914775 -31.894268,5.3906231 -31.7501647,5.3875496 -31.6063476,5.3823017 -31.4628283,5.3749276 -31.3196183,5.3654793 -31.1767285,5.354012 -31.0341693,5.3405843 -30.8919506,5.325258 -30.7500822,5.3080975 -30.608573,5.2891705 -30.4674318,5.268547 -30.3266668,5.2462997 -30.1862856,5.2225036 -30.0462956,5.197236 -29.9067035,5.170576 -29.7675155,5.142605 -29.6287376,5.1134058 -29.490375,5.0830631 -29.3524325,5.051663 -29.2149143,5.0192927 -29.0778244,4.9860408 -28.9411659,4.9519969 -28.8049416,4.9172513 -28.6691538,4.8818952 -28.5338041,4.8460202 -28.3988936,4.8097184 -28.1303923,4.7362041 -27.8636481,4.6620918 -27.5986504,4.5881179 -27.3353794,4.5150116 -27.2043827,4.4790084 -27.073806,4.4434895 -26.9436444,4.4085419 -26.8138919,4.374251 -26.6845424,4.3407008 -26.5555889,4.3079734 -26.4270238,4.2761494 -26.298839,4.245307 -26.1710257,4.2155225 -26.0435744,4.18687 -25.9164751,4.1594208 -25.7897169,4.133244 -25.6632886,4.1084056 -25.537178,4.084969 -25.4113725,4.0629943 -25.2858587,4.0425388 -25.1606226,4.0236561 -25.0356494,4.0063966 -24.9109237,3.990807 -24.7864296,3.9769305 -24.6621503,3.964806 -24.5380684,3.9544687 -24.4141657,3.9459498 -24.2904235,3.9392763 -24.1668225,3.9344712 -24.0433428,3.931554 -23.9199639,3.9305402 -23.796665,3.9314418 -23.6734247,3.9342675 -23.5502214,3.9390224 -23.4270328,3.9457082 -23.3038366,3.9543239 -23.1806102,3.9648649 -23.0573306,3.977324 -22.9339747,3.9916909 -22.8105193,4.0079528 -22.686941,4.026094 -22.5632164,4.0460963 -22.4393221,4.0679391 -22.3152346,4.0915994 -22.1909305,4.1170517 -22.0663865,4.1442687 -21.9415794,4.1732207 -21.8164863,4.2038762 -21.6910843,4.2362017 -21.565351,4.270162 -21.4392641,4.3057201 -21.3128017,4.3428374 -21.1859422,4.3814739 -21.0586646,4.4215882 -20.9309481,4.4631374 -20.8027726,4.5060776 -20.6741183,4.5503636 -20.5449661,4.5959493 -20.4152976,4.6427876 -20.2850947,4.6908307 -20.1543403,4.74003 -20.0230179,4.7903361 -19.8911116,4.8416993 -19.7586067,4.8940694 -19.6254889,4.9473959 -19.4917452,5.0016281 -19.3573632,5.0567152 -19.2223318,5.1126064 -19.0866407,5.1692509 -18.9502807,5.2265983 -18.813244,5.2845984 -18.6755235,5.3432015 -18.5371138,5.4023583 -18.3980103,5.4620203 -18.25821,5.5221393 -18.1177109,5.5826682 -17.9765124,5.6435606 -17.8346153,5.7047708 -17.6920216,5.7662542 -17.5487348,5.8279674 -17.4047597,5.8898678 -17.2601024,5.9519142 -17.1147706,6.0140665 -16.9687734,6.076286 -16.8221213,6.1385353 -16.674826,6.200778 -16.5269005,6.2629791 -16.3783591,6.3251049 -16.2292172,6.3871225 -16.0794913,6.4490003 -15.7783585,6.5722152 -15.4751123,6.6945169 -15.1699185,6.815688 -14.8629547,6.9355258 -14.5544097,7.0538411 -14.2444818,7.1704582 -13.9333775,7.285214 -13.6213101,7.397958 -13.3084981,7.5085509 -12.9951643,7.6168648 -12.8383719,7.6701298 -12.6815335,7.7227817 -12.5246772,7.774807 -12.3678312,7.8261931 -12.2110235,7.8769278 -12.0542819,7.9269992 -11.8976342,7.9763963 -11.7411077,8.025108 -11.5847295,8.0731242 -11.4285264,8.1204346 -11.2725246,8.1670298 -11.1167503,8.2129005 -10.9612287,8.2580377 -10.8059849,8.302433 -10.6510433,8.3460779 -10.4964276,8.3889645 -10.3421611,8.4310851 -10.1882663,8.4724322 -10.0347649,8.5129985 -9.8816779,8.5527769 -9.7290257,8.5917606 -9.5768273,8.6299428 -9.4251013,8.6673168 -9.2738648,8.7038762 -9.1231343,8.7396145 -8.9729248,8.7745253 -8.8232503,8.8086023 -8.6741234,8.841839 -8.5255555,8.8742291 -8.3775568,8.9057661 -8.2301357,8.9364435 -8.0832994,8.9662546 -7.9370539,8.9951929 -7.7914034,9.0232514 -7.6463511,9.0504233 -7.5018984,9.0767015 -7.3580455,9.1020788 -7.2147914,9.126548 -7.0721334,9.1501016 -6.9300675,9.172732 -6.7885884,9.1944312 -6.6476894,9.2151915 -6.5073624,9.2350046 -6.3675981,9.2538621 -6.2283862,9.2717557 -6.0897151,9.2886767 -5.9515724,9.3046162 -5.8139445,9.3195654 -5.6768171,9.3335153 -5.5401753,9.3464566 -5.4040032,9.3583801 -5.2682844,9.3692764 -5.1330021,9.3791361 -4.9981387,9.3879495 -4.8636764,9.3957071 -4.7295971,9.402399 -4.5958822,9.4080155 -4.4625131,9.4125467 -4.3294708,9.4159825 -4.1967363,9.418313 -4.0642905,9.419528 -3.9321143,9.4196173 -3.8001889,9.4185708 -3.6684952,9.416378 -3.5370147,9.4130287 -3.4057288,9.4085124 -3.2746196,9.4028187 -3.1436691,9.395937 -3.0128602,9.387857 -2.8821759,9.3785679 -2.7516,9.3680592 -2.6211169,9.3563204 -2.4907115,9.3433408 -2.3603696,9.3291099 -2.2300777,9.3136169 -2.0998232,9.2968515 -1.9695944,9.2788028 -1.8393806,9.2594605 -1.7091722,9.2388139 -1.5789608,9.2168525 -1.4487391,9.1935658 -1.3185013,9.1689433 -1.1882429,9.1429745 -1.0579608,9.1156491 -0.9276535,9.0869566 -0.7973213,9.0568867 -0.6669659,9.0254291 -0.5365909,8.9925735 -0.4062016,8.9583096 -0.2758052,8.9226275 -0.1454102,8.8855169 -0.0150272,8.846968 0.1153316,8.8069709 0.2456524,8.7655159 0.3759197,8.7225934 0.5061163,8.6781938 0.6362232,8.632308 0.7662199,8.5849268 0.8960844,8.5360412 1.0257928,8.4856425 1.1553199,8.4337222 1.284639,8.3802718 1.413722,8.3252834 1.5425395,8.2687492 1.6710608,8.2106616 1.7992541,8.1510134 1.9270864,8.0897977 2.0545236,8.0270079 2.1815307,7.9626379 2.3080717,7.8966816 2.4341099,7.8291337 2.5596073,7.759989 2.6845258,7.6892429 2.8088259,7.6168912 2.9324679,7.54293 3.0554113,7.467356 3.1776149,7.3901663 3.2990372,7.3113587 3.419636,7.2309313 3.5393688,7.1488827 3.6581927,7.0652123 3.7760645,6.9799198 3.8929405,6.8930055 4.008777,6.8044706 4.1235301,6.7143166 4.2371557,6.6225456 4.3496097,6.5291605 4.4608478,6.4341649 4.5708259,6.3375628 4.6795,6.239359 4.7868261,6.1395591 4.8927605,6.0381693 4.9972597,5.9351965 5.1002805,5.8306484 5.2017801,5.7245334 5.301716,5.6168608 5.4000464,5.5076405 5.4967296,5.3968834 5.591725,5.2846012 5.6849924,5.1708065 5.7764924,5.0555127 5.8661862,4.9387342 5.954036,4.8204863 6.0400049,4.7007854 6.0822726,4.6403953 6.1240568,4.5796485 6.1653529,4.5185473 6.2061566,4.4570941 6.2464638,4.3952911 6.2862704,4.3331411 6.325572,4.2706463 6.3643648,4.2078096 6.4026448,4.1446335 6.440408,4.0811207 6.4776506,4.017274 6.5143688,3.9530962 6.5505588,3.8885903 6.5862172,3.8237591 6.6213401,3.7586056 6.6559243,3.6931329 6.6899661,3.6273441 6.7234623,3.5612423 6.7564095,3.4948308 6.7888045,3.4281128 6.8206442,3.3610916 6.8519255,3.2937707 6.8826453,3.2261533 6.9128007,3.1582431 6.9423888,3.0900435 6.9714069,3.0215581 6.9998523,2.9527906 7.0277222,2.8837445 7.055014,2.8144236 7.0817253,2.7448317 7.1078536,2.6749726 7.1333965,2.60485 7.1583517,2.5344679 7.182717,2.4638301 7.2064901,2.3929407 7.2296689,2.3218037 7.2522515,2.2504229 7.2742357,2.1788026 7.2956198,2.1069468 7.3164018,2.0348595 7.3365799,1.9625451 7.3561524,1.8900076 7.3751176,1.8172512 7.393474,1.7442803 7.41122,1.671099 7.4283541,1.5977117 7.4448749,1.5241226 7.4607811,1.450336 7.4760713,1.3763565 7.4907443,1.3021882 7.5047989,1.2278357 7.5182341,1.1533032 7.5310488,1.0785953 7.543242,1.0037165 7.5548128,0.928671 7.5657602,0.8534636 7.5760836,0.7780985 7.5857822,0.7025804 7.5948552,0.6269138 7.6033021,0.5511031 7.6111223,0.4751529 7.6183152,0.3990679 7.6248806,0.3228524 7.6308179,0.2465111 7.6361268,0.1700486 7.6408071,0.0934694 7.6448587,0.0167782 7.6482812,-0.0600206 7.6510747,-0.1369223 7.6532391,-0.2139224 7.6547745,-0.2910162 7.6556809,-0.3681992 7.6559585,-0.4454668 7.6556076,-0.5228144 7.6546282,-0.6002375 7.6530209,-0.6777314 7.6507859,-0.7552916 7.6479237,-0.8329136 7.6444348,-0.9105928 7.6403198,-0.9883246 7.6355791,-1.0661046 7.6302135,-1.1439282 7.6242238,-1.2217909 7.6176105,-1.2996883 7.6103747,-1.3776158 7.6025172,-1.4555689 7.5940388,-1.5335433 7.5849406,-1.6115346 7.5752236,-1.6895382 7.5648889,-1.7675498 7.5539376,-1.845565 7.542371,-1.9235796 7.5301902,-2.0015891 7.5173967,-2.0795893 7.5039917,-2.1575759 7.4899766,-2.2355446 7.475353,-2.3134912 7.4601222,-2.3914115 7.444286,-2.4693014 7.4278458,-2.5471568 7.4108034,-2.6249734 7.3931605,-2.7027473 7.3560801,-2.8581506 7.3166195,-3.013335 7.2747941,-3.168269 7.2306204,-3.3229221 7.1841155,-3.4772642 7.1352973,-3.6312661 7.0841846,-3.784899 7.0307968,-3.9381353 6.9751541,-4.0909478 6.9172777,-4.2433103 6.8571892,-4.3951974 6.7949111,-4.5465844 6.7304667,-4.6974478 6.6638798,-4.8477647 6.595175,-4.9975132 6.5243776,-5.1466726 6.4515138,-5.2952228 6.3766099,-5.443145 6.2996935,-5.5904213 6.2207923,-5.7370347 6.1399349,-5.8829691 6.0571501,-6.0282094 5.9724676,-6.1727413 5.8859173,-6.3165514 5.7975297,-6.459627 5.7073356,-6.6019565 5.6153663,-6.7435288 5.5216534,-6.8843336 5.4262287,-7.0243614 5.3291246,-7.1636035 5.2303735,-7.3020517 5.1300082,-7.4396986 5.0280616,-7.5765374 4.9245668,-7.712562 4.8195571,-7.8477669 4.7130659,-7.9821471 4.6051268,-8.1156984 4.4957733,-8.248417 4.3850391,-8.3802997 4.2729576,-8.5113438 4.1595627,-8.6415472 4.0448878,-8.7709082 3.9289665,-8.8994257 3.8118321,-9.0270989 3.6935179,-9.1539274 3.5740569,-9.2799114 3.4534821,-9.4050515 3.3318262,-9.5293483 3.2091216,-9.6528033 3.0854003,-9.7754178 2.9606944,-9.8971939 2.8350351,-10.0181335 2.7084538,-10.1382391 2.580981,-10.2575134 2.4526471,-10.3759592 2.3234819,-10.4935797 2.1935148,-10.6103781 2.0627746,-10.7263579 1.9312897,-10.8415227 1.7990877,-10.9558763 1.6661959,-11.0694225 1.5326406,-11.1821652 1.3984478,-11.2941086 1.2636426,-11.4052567 1.1282494,-11.5156136 0.9922921,-11.6251834 0.8557933,-11.7339703 0.7187754,-11.8419783 0.5812596,-11.9492117 0.4432663,-12.0556742 0.304815,-12.16137 0.1659243,-12.2663027 0.0266119,-12.370476 -0.1131056,-12.4738936 -0.2532124,-12.5765586 -0.3936941,-12.6784745 -0.5345371,-12.7796441 -0.6757288,-12.8800702 -0.8172581,-12.9797553 -0.9591147,-13.0787018 -1.1012896,-13.1769115 -1.243775,-13.2743862 -1.3865645,-13.3711273 -1.5296526,-13.4671357 -1.6730354,-13.5624121 -1.8167103,-13.6569569 -1.9606756,-13.75077 -2.1049313,-13.843851 -2.2494783,-13.936199 -2.3943185,-14.027813 -2.539455,-14.1186914 -2.6848919,-14.2088326 -2.8306341,-14.2982343 -2.9766875,-14.3868941 -3.1230588,-14.4748092 -3.2697555,-14.5619766 -3.4167857,-14.6483929 -3.5641583,-14.7340544 -3.7118828,-14.8189572 -3.8599691,-14.9030971 -4.0084278,-14.9864695 -4.1572698,-15.0690697 -4.3065065,-15.1508926 -4.4561497,-15.2319329 -4.6062112,-15.3121852 -4.7567034,-15.3916436 -4.9076386,-15.4703022 -5.0590294,-15.5481545 -5.2108884,-15.6251943 -5.3632283,-15.7014148 -5.5160616,-15.7768091 -5.669401,-15.8513702 -5.8232589,-15.9250906 -5.9776473,-15.997963 -6.1325784,-16.0699796 -6.2880639,-16.1411327 -6.444115,-16.2114141 -6.6007428,-16.2808157 -6.7579577,-16.3493292 -6.9157698,-16.416946 -7.0741885,-16.4836575 -7.2332227,-16.549455 -7.3928806,-16.6143295 -7.5531696,-16.678272 -7.7140965,-16.7412734 -7.875667,-16.8033243 -8.0378861,-16.8644154 -8.2007578,-16.9245372 -8.3642852,-16.9836801 -8.5284702,-17.0418346 -8.6933136,-17.0989908 -8.8588151,-17.1551389 -9.0249731,-17.2102691 -9.1917849,-17.2643714 -9.3592463,-17.3174358 -9.5273519,-17.3694523 -9.6960948,-17.4204108 -9.8654668,-17.4703011 -10.0354579,-17.5191132 -10.2060568,-17.5668368 -10.3772507,-17.6134617 -10.5490249,-17.6589778 -10.7213632,-17.7033749 -10.8942476,-17.7466427 -11.0676583,-17.7887711 -11.2415735,-17.8297499 -11.4159694,-17.869569 -11.5908204,-17.9082181 -11.7660987,-17.9456874 -11.9417741,-17.9819666 -12.1178143,-18.0170459 -12.2941849,-18.0509152 -12.4708487,-18.0835648 -12.6477664,-18.1149847 -12.824896,-18.1451652 -13.0021934,-18.1740968 -13.1796123,-18.2017697 -13.357104,-18.2281746 -13.5346181,-18.2533021 -13.712102,-18.2771429 -13.8895016,-18.299688 -14.0667607,-18.3209284 -14.2438217,-18.3408552 -14.4206253,-18.3594597 -14.5971109,-18.3767334 -14.7732163,-18.392668 -14.9488785,-18.4072553 -15.124033,-18.4204873 -15.2986145,-18.4323562 -15.4725571,-18.4428544 -15.6457938,-18.4519746 -15.8182573,-18.4597097 -15.9898799,-18.4660526 -16.1605933,-18.4709969 -16.3303293,-18.474536 -16.4990195,-18.4766639 -16.6665958,-18.4773747 -16.83299,-18.4766628 -16.9981343,-18.474523 -17.1619616,-18.4709503 -17.3244052,-18.46594 -17.485399,-18.4594878 -17.644878,-18.4515897 -17.8027779,-18.442242 -17.9590358,-18.4314413 -18.1135896,-18.4191846 -18.266379,-18.4054693 -18.4173448,-18.3902932 -18.4921259,-18.3821567 -18.5664296,-18.3736543 -18.6402492,-18.3647858 -18.7135777,-18.3555511 -18.7864084,-18.3459501 -18.8587349,-18.3359826 -18.9305506,-18.3256485 -19.0018493,-18.314948 -19.0726247,-18.3038808 -19.1428709,-18.292447 -19.2125817,-18.2806467 -19.2817516,-18.2684799 -19.3503748,-18.2559467 -19.4184459,-18.2430472 -19.4859594,-18.2297816 -19.5529103,-18.21615 -19.6192935,-18.2021527 -19.6851041,-18.1877898 -19.7503373,-18.1730617 -19.8149888,-18.1579687 -19.879054,-18.1425111 -19.9425289,-18.1266892 -20.0054093,-18.1105034 -20.0676914,-18.0939542 -20.1293716,-18.077042 -20.1904465,-18.0597673 -20.2509128,-18.0421306 -20.3107675,-18.0241325 -20.3700077,-18.0057736 -20.4286308,-17.9870544 -20.4866344,-17.9679756 -20.5440163,-17.948538 -20.6007747,-17.9287421 -20.6569077,-17.9085888 -20.712414,-17.8880788 -20.7672922,-17.867213 -20.8215416,-17.8459922 -20.8751612,-17.8244172 -20.9281508,-17.802489 -20.98051,-17.7802086 -21.032239,-17.7575768 -21.0833382,-17.7345947 -21.1338081,-17.7112634 -21.1836498,-17.6875839 -21.2328645,-17.6635574 -21.2814535,-17.639185 -21.3294189,-17.6144678 -21.3767625,-17.5894072 -21.4234868,-17.5640043 -21.4695943,-17.5382605 -21.5150881,-17.5121771 -21.5599714,-17.4857555 -21.6042474,-17.4589971 -21.6479202,-17.4319034 -21.6909936,-17.4044759 -21.7334719,-17.3767162 -21.7753598,-17.3486258 -21.8166621,-17.3202064 -21.8573839,-17.2914598 -21.8975305,-17.2623876 -21.9371077,-17.2329917 -21.9761214,-17.2032739 -22.0145777,-17.1732361 -22.0524831,-17.1428804 -22.0898444,-17.1122086 -22.1266684,-17.0812228 -22.1629625,-17.0499253 -22.1987341,-17.0183181 -22.2687412,-16.9541839 -22.3367544,-16.8888388 -22.402842,-16.8223027 -22.4670754,-16.7545963 -22.5295293,-16.6857416 -22.5902809,-16.615762 -22.64941,-16.5446819 -22.7069988,-16.4725272 -22.7631311,-16.3993252 -22.8178926,-16.3251045 -22.8713707,-16.2498956 -22.9236534,-16.1737301 -22.9748303,-16.0966418 -23.0249915,-16.0186656 -23.0742275,-15.9398386 -23.1226295,-15.8601995 -23.1702886,-15.779789 -23.2172959,-15.6986497 -23.2637423,-15.6168261 -23.3097182,-15.5343647 -23.3553131,-15.4513144 -23.4457142,-15.2836525 -23.5356414,-15.1142741 -23.6257655,-14.9436501 -23.7167265,-14.7722895 -23.8091258,-14.6007413 -23.9035201,-14.4295954 -23.9516254,-14.3443694 -24.0004145,-14.2594845 -24.0499418,-14.1750261 -24.1002585,-14.0910817 -24.1514123,-14.0077409 -24.2034478,-13.9250946 -24.2564063,-13.8432352 -24.3103261,-13.7622564 -24.3652428,-13.6822526 -24.4211887,-13.6033187 -24.4781937,-13.5255501 -24.5362845,-13.4490425 -24.5954857,-13.373891 -24.6558189,-13.3001906 -24.7173034,-13.2280359 -24.7799559,-13.1575203 -24.843791,-13.0887365 -24.9088207,-13.0217758 -24.9750549,-12.9567281 -25.042501,-12.8936818 -25.0766804,-12.8629361 -25.1111647,-12.8327231 -25.1459542,-12.8030531 -25.1810492,-12.7739364 -25.2164498,-12.7453833 -25.252156,-12.7174038 -25.2881677,-12.6900076 -25.3244845,-12.6632046 -25.3611062,-12.6370041 -25.3980322,-12.6114156 -25.435262,-12.586448 -25.4727948,-12.5621104 -25.5106299,-12.5384114 -25.5487663,-12.5153594 -25.587203,-12.4929627 -25.6259388,-12.4712293 -25.6649727,-12.4501669 -25.7043032,-12.429783 -25.7439289,-12.4100848 -25.7838484,-12.3910793 -25.82406,-12.372773 -25.8645622,-12.3551723 -25.905353,-12.3382833 -25.9464307,-12.3221118 -25.9877934,-12.306663 -26.029439,-12.2919423 -26.0713655,-12.2779542 -26.1135707,-12.2647032 -26.1560524,-12.2521934 -26.1988082,-12.2404284 -26.2418359,-12.2294117 -26.285133,-12.2191461 -26.3286969,-12.2096345 -26.3725253,-12.2008789 -26.4166153,-12.1928815 -26.4609644,-12.1856439 -26.5055698,-12.1791673 -26.5504288,-12.1734527 -26.5955384,-12.1685007 -26.6408959,-12.1643117 -26.6864983,-12.1608856 -26.7323426,-12.158222 -26.7784257,-12.1563205 -26.8247447,-12.1551799 -26.8712965,-12.154799 -26.9180778,-12.1551762 -26.9650855,-12.1563097 -27.0123164,-12.1581973 -27.0597672,-12.1608364 -27.1074347,-12.1642245 -27.1553156,-12.1683583 -27.2034066,-12.1732345 -27.2517043,-12.1788496 -27.3002053,-12.1851996 -27.3489062,-12.1922803 -27.3978037,-12.2000874 -27.4468943,-12.2086162 -27.4961746,-12.2178616 -27.5456411,-12.2278186 -27.5952904,-12.2384817 -27.645119,-12.2498453 -27.6951235,-12.2619035 -27.7453003,-12.2746501 -27.7956461,-12.2880789 -27.8461574,-12.3021834 -27.8968306,-12.3169567 -27.9476624,-12.3323921 -27.9986493,-12.3484824 -28.0497878,-12.3652203 -28.1010746,-12.3825983 -28.1525062,-12.4006088 -28.2040792,-12.419244 -28.2557903,-12.4384959 -28.3076361,-12.4583563 -28.3596133,-12.4788171 -28.4117186,-12.4998697 -28.5163003,-12.5437163 -28.6213555,-12.5898261 -28.7268588,-12.6381271 -28.8327855,-12.6885455 -28.9391115,-12.7410059 -29.0458134,-12.7954313 -29.1528687,-12.8517433 -29.2602556,-12.9098625 -29.3679533,-12.9697082 -29.4759418,-13.031199 -29.5842022,-13.0942527 -29.6927168,-13.1587867 -29.8014688,-13.2247176 -29.910443,-13.2919623 -30.0196251,-13.3604373 -30.1290024,-13.4300596 -30.2385639,-13.5007462 -30.3482996,-13.5724152 -30.4582017,-13.6449849 -30.5682637,-13.7183748 -30.6784811,-13.7925056 -30.7888512,-13.8672993 -31.0100482,-14.0185701 -31.2318714,-14.1715937 -31.4543659,-14.3258015 -31.6776042,-14.4806509 -31.9016836,-14.6356249 -32.1267246,-14.7902331 -32.3528687,-14.9440112 -32.5802765,-15.0965209 -32.6945089,-15.1721701 -32.8091245,-15.2473494 -32.9241476,-15.322011 -33.0396029,-15.3961087 -33.1555159,-15.4695977 -33.2719125,-15.5424348 -33.3888192,-15.614578 -33.5062627,-15.6859869 -33.6242699,-15.7566225 -33.742868,-15.8264472 -33.8620844,-15.8954246 -33.9819463,-15.96352 -34.1024811,-16.0306997 -34.223716,-16.0969317 -34.3456779,-16.1621851 -34.4683935,-16.2264304 -34.5918893,-16.2896395 -34.716191,-16.3517854 -34.8413242,-16.4128427 -34.9673137,-16.472787 -35.0941837,-16.5315953 -35.2219577,-16.589246 -35.3506582,-16.6457184 -35.4803072,-16.7009933 -35.6109253,-16.7550526 -35.7425325,-16.8078794 -35.8751474,-16.8594579 -36.0087876,-16.9097737 -36.1434693,-16.9588132 -36.2792075,-17.0065642 -36.4160158,-17.0530155 -36.5539063,-17.098157 -36.6928894,-17.1419796 -36.832974,-17.1844755 -36.9741672,-17.2256378 -37.1164741,-17.2654606 -37.259898,-17.3039393 -37.4044402,-17.3410701 -37.5500998,-17.3768502 -37.6968737,-17.4112781 -37.8447565,-17.4443529 -37.9937404,-17.476075 -38.1438154,-17.5064456 -38.2949688,-17.535467 -38.4471859,-17.5631421 -38.6004497,-17.5894749 -38.7547408,-17.6144701 -38.9100379,-17.6381333 -39.0663172,-17.6604706 -39.2235531,-17.6814891 -39.3817176,-17.7011965 -39.5407811,-17.7196009 -39.7007115,-17.7367114 -39.8614752,-17.7525373 -40.0230365,-17.7670887 -40.1853578,-17.780376 -40.3483999,-17.7924102 -40.5121219,-17.8032026 -40.6764812,-17.812765 -40.8414338,-17.8211092 -41.006934,-17.8282478 -41.1729349,-17.8341932 -41.3393881,-17.8389582 -41.506244,-17.8425558 -41.6734517,-17.8449991 -41.8409592,-17.8463013 -42.0087135,-17.8464755 -42.1766603,-17.845535 -42.3447445,-17.8434931 -42.5129101,-17.8403628 -42.6810999,-17.8361573 -42.8492563,-17.8308894 -43.0173207,-17.8245718 -43.1852339,-17.8172171 -43.352936,-17.8088374 -43.5203664,-17.7994447 -43.6874641,-17.7890507 -43.8541677,-17.7776664 -44.0204152,-17.7653028 -44.1861444,-17.7519703 -44.3512927,-17.7376785 -44.5157973,-17.722437 -44.6795953,-17.7062545 -44.8426236,-17.6891392 -45.004819,-17.6710986 -45.1661185,-17.6521395 -45.3264589,-17.6322682 -45.4857775,-17.61149 -45.6440114,-17.5898095 -45.8010981,-17.5672305 -45.9569755,-17.5437559 -46.1115818,-17.5193875 -46.2648556,-17.4941264 -46.4167361,-17.4679726 -46.5671628,-17.440925 -46.7160762,-17.4129814 -46.8634171,-17.3841386 -47.0091272,-17.354392 -47.1531491,-17.323736 -47.2954261,-17.2921636 -47.4359024,-17.2596666 -47.5745232,-17.2262355 -47.7112348,-17.1918595 -47.8459845,-17.1565262 -47.9787207,-17.1202221 -48.1093929,-17.0829322 -48.2379521,-17.04464 -48.3014242,-17.0251125 -48.3643503,-17.0053275 -48.4267244,-16.9852827 -48.488541,-16.9649753 -48.5497944,-16.9444029 -48.6104791,-16.9235625 -48.6705897,-16.9024513 -48.7301209,-16.8810665 -48.7890674,-16.859405 -48.8474241,-16.8374636 -48.9051859,-16.8152393 -48.9623479,-16.7927289 -49.0189051,-16.7699289 -49.0748528,-16.7468361 -49.1301863,-16.7234471 -49.184901,-16.6997583 -49.2389924,-16.6757664 -49.292456,-16.6514677 -49.3452875,-16.6268586 -49.3974827,-16.6019355 -49.4490375,-16.5766948 -49.4999477,-16.5511327 -49.5502094,-16.5252456 -49.5998188,-16.4990296 -49.648772,-16.4724811 -49.6970655,-16.4455964 -49.7446955,-16.4183715 -49.7916586,-16.3908028 -49.8379514,-16.3628864 -49.8835705,-16.3346187 -49.9285129,-16.3059957 -49.9727753,-16.2770138 -50.0163547,-16.2476693 -50.0592481,-16.2179583 -50.1014529,-16.1878772 -50.1429661,-16.1574222 -50.1837851,-16.1265897 -50.2239075,-16.0953761 -50.2633307,-16.0637776 -50.3020523,-16.0317908 -50.3400702,-15.9994121 -50.3773821,-15.966638 -50.413986,-15.9334649 -50.4498799,-15.8998896 -50.4850619,-15.8659085 -50.5195302,-15.8315185 -50.5532831,-15.7967162 -50.5863191,-15.7614984 -50.6186366,-15.725862 -50.6502343,-15.6898038 -50.6811108,-15.653321 -50.711265,-15.6164105 -50.7406958,-15.5790694 -50.7694021,-15.541295 -50.7973831,-15.5030847 -50.824638,-15.4644357 -50.851166,-15.4253456 -50.8769666,-15.3858119 -50.9020392,-15.3458324 -50.9263836,-15.3054048 -50.9499993,-15.2645271 -50.9728862,-15.2231972 -50.9950442,-15.1814134 -51.0164734,-15.1391739 -51.0371738,-15.0964771 -51.0571457,-15.0533216 -51.0763895,-15.009706 -51.0949055,-14.9656291 -51.1126943,-14.92109 -51.1297566,-14.8760877 -51.1460932,-14.8306215 -51.1617048,-14.7846908 -51.1765926,-14.7382953 -51.1907575,-14.6914348 -51.2042007,-14.6441091 -51.2169237,-14.5963183 -51.2289277,-14.5480628 -51.2402143,-14.499343 -51.2507851,-14.4501594 -51.2606419,-14.4005129 -51.2697864,-14.3504043 -51.2782206,-14.2998348 -51.2859464,-14.2488057 -51.2929661,-14.1973184 -51.2992819,-14.1453744 -51.304896,-14.0929757 -51.3098109,-14.0401241 -51.3140292,-13.9868217 -51.3175534,-13.9330708 -51.3203863,-13.8788739 -51.3225306,-13.8242336 -51.3239893,-13.7691527 -51.3247654,-13.7136341 -51.324862,-13.657681 -51.3242822,-13.6012966 -51.3230293,-13.5444845 -51.3211068,-13.4872482 -51.3185179,-13.4295916 -51.3152664,-13.3715186 -51.3113558,-13.3130333 -51.3067899,-13.25414 -51.3015723,-13.1948431 -51.295707,-13.135147 -51.2891979,-13.0750566 -51.2820491,-13.0145766 -51.2742646,-12.9537119 -51.2658485,-12.8924677 -51.2568052,-12.8308491 -51.2471388,-12.7688615 -51.2368538,-12.7065103 -51.2259546,-12.6438009 -51.2144457,-12.5807392 -51.2023315,-12.5173308 -51.1896167,-12.4535816 -51.176306,-12.3894975 -51.1624041,-12.3250846 -51.1479156,-12.260349 -51.1328455,-12.1952969 -51.1171985,-12.1299346 -51.1009796,-12.0642685 -51.0841937,-11.998305 -51.0668459,-11.9320507 -51.048941,-11.8655121 -51.0304842,-11.7986959 -51.0114807,-11.7316089 -50.9919354,-11.6642577 -50.9512407,-11.5287903 -50.9084417,-11.3923491 -50.8635808,-11.2549903 -50.8167005,-11.1167705 -50.767844,-10.9777472 -50.7170544,-10.8379781 -50.6643754,-10.6975216 -50.6098506,-10.5564361 -50.553524,-10.4147806 -50.4954397,-10.2726139 -50.4356416,-10.129995 -50.3741737,-9.9869826 -50.3110801,-9.8436355 -50.2464045,-9.7000122 -50.1801907,-9.5561706 -50.1124821,-9.4121684 -50.0433219,-9.2680625 -49.972753,-9.1239095 -49.9008178,-8.9797648 -49.8275584,-8.8356833 -49.7530163,-8.6917188 -49.6772326,-8.5479239 -49.6002477,-8.4043503 -49.5221012,-8.2610482 -49.442832,-8.1180662 -49.3624784,-7.9754518 -49.2810776,-7.8332503 -49.198666,-7.6915057 -49.1152789,-7.5502599 -49.0309506,-7.4095526 -48.9457142,-7.2694218 -48.8596019,-7.1299029 -48.7726443,-6.9910293 -48.6848711,-6.8528321 -48.5963107,-6.71534 -48.5069902,-6.5785795 -48.4169354,-6.4425745 -48.3261709,-6.3073467 -48.2347198,-6.1729153 -48.1426041,-6.0392969 -48.0498441,-5.9065056 -47.956459,-5.7745531 -47.8624664,-5.6434485 -47.7678827,-5.5131982 -47.6727228,-5.3838066 -47.5770005,-5.2552755 -47.4807283,-5.1276049 -47.3839174,-5.0007926 -47.2865781,-4.8748345 -47.1887194,-4.7497246 -47.0903494,-4.6254554 -46.9914752,-4.5020176 -46.8921028,-4.3794005 -46.7922375,-4.2575922 -46.6918836,-4.1365792 -46.5910445,-4.016347 -46.4897231,-3.8968799 -46.387921,-3.778161 -46.2856396,-3.6601725 -46.1828792,-3.5428959 -46.0796396,-3.4263114 -45.9759199,-3.3103989 -45.8717184,-3.1951371 -45.7670331,-3.0805045 -45.6618611,-2.9664788 -45.5561993,-2.8530374 -45.4500439,-2.7401571 -45.3433905,-2.6278147 -45.2362346,-2.5159864 -45.1285711,-2.4046487 -45.0203946,-2.2937778 -44.9116993,-2.1833503 -44.8024793,-2.0733425 -44.6927283,-1.9637314 -44.5824399,-1.8544942 -44.4716075,-1.7456085 -44.3602243,-1.6370524 -44.2482835,-1.5288049 -44.1357782,-1.4208453 -44.0227015,-1.3131539 -43.9090464,-1.2057118 -43.7948061,-1.098501 -43.6799737,-0.9915044 -43.5645424,-0.8847062 -43.4485057,-0.7780914 -43.331857,-0.6716465 -43.21459,-0.5653591 -43.0966988,-0.4592182 -42.9781774,-0.3532143 -42.8590204,-0.2473393 -42.7392226,-0.1415871 -42.6187791,-0.0359529 -42.4976856,0.0695658 -42.3759381,0.1749696 -42.2535333,0.2802572 -42.1304682,0.3854249 -42.0067406,0.4904667 -41.8823488,0.5953742 -41.7572918,0.7001365 -41.6315693,0.8047399 -41.5051816,0.9091685 -41.3781299,1.0134036 -41.250416,1.1174242 -41.1220423,1.2212069 -40.9930118,1.3247258 -40.8633286,1.4279529 -40.732997,1.5308578 -40.6020223,1.6334081 -40.4704102,1.7355691 -40.3381674,1.837304 -40.205301,1.9385741 -40.0718189,2.0393387 -39.9377294,2.1395554 -39.8030418,2.2391799 -39.6677655,2.3381667 -39.5319109,2.4364687 -39.3954886,2.5340374 -39.25851,2.6308233 -39.1209867,2.7267759 -38.9829309,2.8218436 -38.8443554,2.9159742 -38.7052731,3.0091148 -38.5656975,3.1012118 -38.4256426,3.1922113 -38.2851224,3.2820591 -38.1441517,3.3707006 -38.0027453,3.4580812 -37.8609185,3.5441461 -37.7186868,3.6288409 -37.5760661,3.7121109 -37.4330723,3.7939022 -37.289722,3.8741607 -37.1460317,3.9528332 -37.0020182,4.029867 -36.8576986,4.1052099 -36.7130899,4.1788108 -36.5682098,4.2506193 -36.4230755,4.3205861 -36.2777049,4.3886629 -36.1321156,4.454803 -35.9863255,4.5189606 -35.8403525,4.5810918 -35.6942146,4.641154 -35.5479298,4.6991064 -35.4015161,4.7549101 -35.2549915,4.808528 -35.1083741,4.8599249 -34.9616817,4.9090682 -34.8149323,4.955927 -34.6681437,5.000473 -34.5213336,5.0426805 -34.3745196,5.0825261 -34.2277193,5.1199892 -34.1543297,5.1378216 -34.0809499,5.155052 -34.0075823,5.1716785 -33.9342288,5.1876996 -33.8608916,5.2031138 -33.7875728,5.21792 -33.7142745,5.2321172 -33.6409987,5.2457045 -33.5677477,5.2586813 -33.4945233,5.2710474 -33.4213276,5.2828024 -33.3481627,5.2939464 -33.2750305,5.3044797 -33.2019331,5.3144027 -33.1288724,5.3237162 -33.0558504,5.3324211 -32.9828689,5.3405185 -32.9099299,5.3480098 -32.8370354,5.3548967 -32.7641871,5.3611811 -32.691387,5.366865 -32.6186367,5.3719509 -32.4732934,5.3803392 -32.3281712,5.3863702z" fill="rgb(0,0,0)" shaper:cutDepth="0.00635" shaper:pathType="exterior" transform="matrix(1,0,0,-1,51.324862,9.4196173)" vector-effect="non-scaling-stroke" /><path d="M-6.155445,-11.3831002 a0.555625,0.555625 0 1,1 1.11125,0 a0.555625,0.555625 0 1,1 -1.11125,0z" fill="rgb(255,255,255)" shaper:cutDepth="0.00635" shaper:pathType="interior" stroke="rgb(0,0,0)" transform="matrix(1,0,0,-1,51.324862,9.4196173)" vector-effect="non-scaling-stroke" /><path d="M-29.8640066,-0.8459617 a0.555625,0.555625 0 1,1 1.11125,0 a0.555625,0.555625 0 1,1 -1.11125,0z" fill="rgb(255,255,255)" shaper:cutDepth="0.00635" shaper:pathType="interior" stroke="rgb(0,0,0)" transform="matrix(1,0,0,-1,51.324862,9.4196173)" vector-effect="non-scaling-stroke" /></svg>