<?xml version="1.0" encoding="utf-8"?>
<!-- Generator: Fusion 360, Shaper Origin Export Add-In, Version 1.5.0  -->
<svg enable-background="new 0 0 119.7228588 59.0001172" height="59.0001172cm" shaper:fusionaddin="version:1.5.0" version="1.1" viewBox="0 0 119.7228588 59.0001172" width="119.7228588cm" x="0cm" xml:space="preserve" xmlns="http://www.w3.org/2000/svg" xmlns:shaper="http://www.shapertools.com/namespaces/shaper" xmlns:xlink="http://www.w3.org/1999/xlink" y="0cm"><path d="M20.9888864,107.1186074 L20.9888864,107.1186074 21.1313308,107.091756 21.2738818,107.0638115 21.4165448,107.0347771 21.559325,107.0046567 21.702228,106.9734543 21.8452593,106.9411746 21.9884245,106.9078228 22.1317292,106.8734043 22.2751793,106.8379251 22.4187804,106.8013918 22.5625384,106.7638111 22.7064591,106.7251904 22.8505486,106.6855373 22.9948127,106.6448599 23.1392576,106.6031668 23.2838891,106.5604668 23.4287135,106.5167693 23.5737368,106.472084 23.7189653,106.4264208 23.8644049,106.3797902 24.0100621,106.3322029 24.1559429,106.2836702 24.3020536,106.2342035 24.4484004,106.1838145 24.5949897,106.1325156 24.7418276,106.0803191 24.8889205,106.0272378 25.0362746,105.9732849 25.1838961,105.9184738 25.3317914,105.8628181 25.4799667,105.806332 25.6284282,105.7490297 25.7771822,105.6909258 25.9262349,105.6320351 26.0755925,105.5723728 26.2252611,105.5119541 26.3752469,105.4507948 26.5255559,105.3889107 26.6761944,105.326318 26.8271683,105.2630328 26.9784836,105.1990718 27.1301463,105.1344519 27.2821624,105.0691898 27.4345376,105.0033029 27.5872778,104.9368085 27.7403888,104.8697242 27.8938762,104.8020678 28.0477458,104.7338571 28.2020031,104.6651103 28.3566536,104.5958457 28.5117028,104.5260816 28.667156,104.4558366 28.8230186,104.3851294 28.9792958,104.3139789 29.2931144,104.170424 29.6086519,104.0253249 29.9259471,103.8788367 30.2450371,103.7311159 30.5659574,103.5823201 30.888742,103.4326082 31.2134228,103.2821401 31.5400299,103.131076 31.8685915,102.9795768 32.1991335,102.8278035 32.5316797,102.6759172 32.8662514,102.5240784 33.2028677,102.3724475 33.541545,102.2211841 33.882297,102.0704467 34.2251347,101.9203928 34.5700664,101.7711785 34.9170972,101.6229582 35.0914005,101.5492685 35.2662292,101.4758845 35.441583,101.4028248 35.6174615,101.3301081 35.7938641,101.2577528 35.9707899,101.1857773 36.1482378,101.1141998 36.3262068,101.0430382 36.5046952,100.9723105 36.6837014,100.9020341 36.8632235,100.8322268 37.0432594,100.7629056 37.2238068,100.6940878 37.4048631,100.6257903 37.5864254,100.5580296 37.7684909,100.4908223 37.9510561,100.4241847 38.1341177,100.3581327 38.3176719,100.2926822 38.5017147,100.2278488 38.6862419,100.1636477 38.8712491,100.100094 39.0567316,100.0372024 39.2426843,99.9749876 39.429102,99.9134638 39.6159792,99.8526448 39.8033102,99.7925444 39.9910889,99.7331759 40.1793089,99.6745524 40.3679637,99.6166864 40.5570462,99.5595906 40.7465493,99.5032768 40.9364656,99.4477567 41.1267871,99.3930418 41.3175058,99.3391429 41.5086132,99.2860708 41.7001005,99.2338355 41.8919588,99.182447 42.0841785,99.1319147 42.27675,99.0822476 42.4696632,99.0334543 42.6629077,98.985543 42.8564728,98.9385215 43.0503473,98.8923972 43.2445199,98.8471771 43.4389789,98.8028675 43.6337123,98.7594748 43.8287078,98.7170045 44.0239526,98.6754619 44.2194338,98.634852 44.4151383,98.5951791 44.6110523,98.5564472 44.8071621,98.51866 45.0034535,98.4818207 45.1999121,98.445932 45.3965232,98.4109963 45.5932718,98.3770154 45.7901425,98.343991 45.9871199,98.3119242 46.1841882,98.2808155 46.3813311,98.2506652 46.5785325,98.2214732 46.7757757,98.193239 46.9730438,98.1659614 47.1703197,98.1396392 47.3675862,98.1142705 47.5648257,98.0898531 47.7620204,98.0663844 47.9591525,98.0438616 48.1562037,98.0222813 48.3531559,98.0016398 48.5499905,97.981933 48.746689,97.9631566 48.9432326,97.9453058 49.1396025,97.9283756 49.3357795,97.9123606 49.5317448,97.8972549 49.7274789,97.8830527 49.9229627,97.8697475 50.1181768,97.8573326 50.3131017,97.8458011 50.507718,97.8351458 50.702006,97.8253591 50.8959464,97.8164332 51.0895194,97.8083601 51.2827054,97.8011314 51.4754849,97.7947384 51.6678382,97.7891724 51.8597457,97.7844242 52.0511878,97.7804845 52.242145,97.7773436 52.4325976,97.7749918 52.6225263,97.7734189 52.8119115,97.7726146 53.0007338,97.7725684 53.188974,97.7732696 53.3766128,97.7747072 53.563631,97.77687 53.7500094,97.7797467 53.9357292,97.7833256 54.1207715,97.7875951 54.3051173,97.7925431 54.4887483,97.7981575 54.6716457,97.8044259 54.8537912,97.8113359 55.0351666,97.8188747 55.2157538,97.8270296 55.3955348,97.8357875 55.5744921,97.8451352 55.7526079,97.8550594 55.9298649,97.8655467 56.1062461,97.8765835 56.2817344,97.8881561 56.4563132,97.9002505 56.6299661,97.9128528 56.8026767,97.925949 56.9744292,97.9395248 57.1452079,97.953566 57.3149974,97.9680581 57.4837826,97.9829867 57.6515487,97.9983371 57.8182811,98.0140948 57.9839658,98.0302449 58.1485889,98.0467728 58.3121368,98.0636635 58.4745966,98.0809021 58.6359553,98.0984738 58.7962005,98.1163634 58.9553204,98.1345558 59.1133031,98.1530362 59.2701376,98.1717892 59.4258128,98.1907998 59.5803185,98.2100528 59.7336445,98.229533 59.8857813,98.2492252 60.0367196,98.2691142 60.1864508,98.2891849 60.3349665,98.3094219 60.4822588,98.3298102 60.6283204,98.3503345 60.7731442,98.3709796 60.9167239,98.3917304 61.0590533,98.4125718 61.200127,98.4334887 61.3399399,98.4544659 61.4784874,98.4754886 61.6157654,98.4965416 61.7517705,98.5176102 61.8864996,98.5386793 62.0199501,98.5597342 62.15212,98.5807601 62.2830081,98.6017423 62.4126133,98.6226663 62.5409355,98.6435176 62.667975,98.6642816 62.7937328,98.6849441 62.9182104,98.7054909 63.04141,98.7259079 63.1633346,98.746181 63.2839878,98.7662965 63.4033738,98.7862406 63.5214976,98.8059998 63.6383649,98.8255606 63.7539822,98.8449097 63.8683566,98.864034 63.9814961,98.8829206 64.0934094,98.9015566 64.2041062,98.9199296 64.3135967,98.938027 64.4218922,98.9558367 64.5290046,98.9733466 64.6349469,98.990545 64.7397326,99.0074202 64.8433763,99.0239608 64.945893,99.0401555 65.0472988,99.0559934 65.1476104,99.0714636 65.2468451,99.0865554 65.3450212,99.1012585 65.4421573,99.1155625 65.5382731,99.1294575 65.6333887,99.1429335 65.7275247,99.1559809 65.8207028,99.1685902 65.9129448,99.1807521 66.0042734,99.1924576 66.0947118,99.2036977 66.1842837,99.2144638 66.2730135,99.2247472 66.360926,99.2345398 66.4480464,99.2438333 66.5344007,99.2526198 66.6200152,99.2608915 66.7049165,99.2686409 66.7891317,99.2758605 66.8726885,99.2825432 66.9556145,99.2886817 67.0379378,99.2942692 67.1196868,99.299299 67.20089,99.3037643 67.2815762,99.3076588 67.3617742,99.3109761 67.441513,99.31371 67.5208215,99.3158545 67.599729,99.3174034 67.6782645,99.3183511 67.756457,99.3186918 67.8343355,99.3184199 67.9119288,99.3175298 67.9892656,99.3160162 68.0663745,99.3138736 68.1432838,99.3110968 68.2200215,99.3076808 68.2966154,99.3036203 68.373093,99.2989103 68.4494812,99.293546 68.5258068,99.2875222 68.602096,99.2808344 68.6783743,99.2734775 68.7546671,99.2654468 68.830999,99.2567376 68.9073938,99.2473452 68.9838749,99.2372649 69.0604649,99.2264921 69.1371857,99.215022 69.2140585,99.20285 69.2911034,99.1899714 69.36834,99.1763817 69.4457867,99.1620761 69.5234611,99.1470499 69.6013798,99.1312984 69.6795584,99.1148169 69.7580114,99.0976005 69.8367521,99.0796445 69.9157929,99.060944 69.9951449,99.0414941 70.0748179,99.0212898 70.1548208,99.0003261 70.2351612,98.9785979 70.3158456,98.9561002 70.3968793,98.9328279 70.4782666,98.9087757 70.5600104,98.8839386 70.6421129,98.8583112 70.7245747,98.8318882 70.8073955,98.8046646 70.8905739,98.7766348 70.9741073,98.7477936 71.057992,98.7181356 71.1422232,98.6876555 71.2267949,98.6563478 71.3117003,98.6242072 71.396931,98.5912282 71.4824778,98.5574055 71.5683305,98.5227334 71.6544776,98.4872067 71.7409065,98.4508199 71.8276037,98.4135674 71.9145546,98.375444 72.0017437,98.3364441 72.0891545,98.2965624 72.1767697,98.2557936 72.2645711,98.2141323 72.3525398,98.1715735 72.4406562,98.1281118 72.5288998,98.0837424 72.6172496,98.0384602 72.7056839,97.9922603 72.7941806,97.945138 72.8827169,97.8970887 72.9712696,97.8481079 73.059815,97.7981912 73.1483291,97.7473343 73.2367874,97.6955334 73.3251653,97.6427844 73.4134379,97.5890837 73.5015798,97.5344277 73.5895658,97.4788132 73.6773704,97.422237 73.7649679,97.3646964 73.8523326,97.3061885 73.9394389,97.2467109 74.0262609,97.1862615 74.112773,97.1248382 74.1989493,97.0624394 74.2847643,96.9990636 74.3701923,96.9347096 74.455208,96.8693763 74.5397862,96.8030633 74.6239016,96.73577 74.7075295,96.6674963 74.7906453,96.5982425 74.8732245,96.528009 74.9552432,96.4567967 75.0366776,96.3846066 75.1175044,96.3114402 75.1977006,96.2372993 75.2772438,96.1621858 75.3561117,96.0861023 75.4342829,96.0090514 75.5117362,95.9310365 75.5884511,95.8520608 75.6644078,95.7721283 75.7395869,95.6912434 75.8139698,95.6094105 75.8875388,95.5266348 75.9602767,95.4429217 76.0321672,95.3582772 76.1031949,95.2727075 76.1733454,95.1862195 76.2426049,95.0988204 76.310961,95.010518 76.3784019,94.9213203 76.4449171,94.831236 76.5104971,94.7402744 76.5751338,94.6484451 76.6388198,94.5557583 76.7015494,94.4622247 76.7633179,94.3678555 76.8241218,94.2726625 76.8839594,94.1766582 76.9428298,94.0798554 77.0007338,93.9822675 77.0576734,93.8839086 77.113652,93.7847932 77.168674,93.6849361 77.2227452,93.584353 77.2758728,93.4830599 77.3280649,93.381073 77.3793309,93.2784093 77.4296814,93.175086 77.479128,93.071121 77.5276834,92.9665323 77.5753615,92.8613384 77.6221772,92.7555581 77.6681464,92.6492109 77.713286,92.5423162 77.7576139,92.4348939 77.8011489,92.3269644 77.8439108,92.2185481 77.8859204,92.1096659 77.9271991,92.000339 77.9677694,91.8905887 78.0076545,91.7804367 78.0468786,91.6699048 78.0854664,91.5590151 78.1234433,91.4477898 78.1608357,91.3362514 78.2339748,91.1123256 78.3051055,90.8874198 78.3744587,90.6617177 78.4422725,90.4354036 78.5087915,90.2086623 78.5742658,89.9816783 78.6389495,89.7546351 78.7669755,89.3010967 78.8308369,89.0749585 78.8949439,88.8494741 78.9595558,88.6248139 79.0249298,88.4011441 79.0913207,88.1786264 79.1589798,87.9574175 79.2281536,87.7376685 79.2633842,87.628387 79.2990836,87.5195245 79.3352809,87.4110979 79.3720049,87.303124 79.4092839,87.1956191 79.4471455,87.0885988 79.4856171,86.9820785 79.5247253,86.876073 79.5644961,86.7705965 79.6049549,86.6656626 79.6461264,86.5612845 79.6880345,86.4574747 79.7307024,86.3542451 79.7741523,86.251607 79.818406,86.1495709 79.8634838,86.0481468 79.9094055,85.9473439 79.9561899,85.8471705 80.0038545,85.7476344 80.0524159,85.6487426 80.1018898,85.5505011 80.1522906,85.4529153 80.2036314,85.3559896 80.2559243,85.2597277 80.3091801,85.1641322 80.3634082,85.0692049 80.4186168,84.9749467 80.4748127,84.8813576 80.5320014,84.7884364 80.5901869,84.6961813 80.6493721,84.6045893 80.7095584,84.5136567 80.7707459,84.4233789 80.8329336,84.3337503 80.896119,84.2447646 80.9602984,84.1564143 81.0254667,84.0686915 81.0916179,83.9815871 81.1587444,83.8950915 81.2268375,83.8091941 81.2958873,83.7238834 81.3658825,83.6391473 81.436811,83.554973 81.5086591,83.4713466 81.581412,83.3882538 81.6550539,83.3056794 81.7295678,83.2236074 81.8049354,83.1420213 81.8811373,83.0609037 81.9581531,82.9802366 82.0359612,82.9000013 82.1145391,82.8201787 82.1938631,82.7407487 82.2739086,82.6616909 82.3546501,82.5829845 82.4360613,82.5046079 82.5181147,82.4265391 82.6007823,82.3487558 82.6840352,82.2712351 82.7678436,82.193954 82.9370048,82.0400155 83.1080144,81.8867482 83.2806111,81.7339557 83.4545245,81.5814382 83.6294769,81.4289934 83.9813545,81.123507 84.1576946,80.9700568 84.3339048,80.8158636 84.5096829,80.660725 84.6847241,80.5044409 84.8587219,80.3468138 85.0313688,80.1876494 85.1170897,80.1074312 85.2023576,80.0267577 85.2871342,79.945606 85.3713812,79.8639533 85.4550607,79.7817773 85.5381345,79.699056 85.6205649,79.6157679 85.7023142,79.531892 85.7833453,79.4474074 85.8636208,79.3622941 85.9431041,79.2765325 86.0217589,79.1901035 86.0995489,79.1029887 86.1764387,79.0151701 86.252393,78.9266307 86.3273773,78.8373539 86.4013573,78.7473239 86.4742995,78.6565258 86.5461709,78.5649452 86.6169392,78.4725687 86.6865727,78.3793838 86.7550404,78.2853787 86.8223121,78.1905427 86.8883584,78.0948658 86.9531506,77.9983393 87.0166609,77.9009551 87.0788625,77.8027064 87.1397293,77.7035876 87.1992362,77.6035937 87.2573592,77.5027212 87.314075,77.4009674 87.3693613,77.2983309 87.4231969,77.1948111 87.4755614,77.0904087 87.5264354,76.9851254 87.5758004,76.8789638 87.6236389,76.7719277 87.6699345,76.664022 87.7146716,76.5552527 87.7578357,76.4456266 87.7994131,76.3351518 87.8393913,76.2238375 87.8777588,76.1116937 87.9145049,75.9987317 87.9496201,75.8849637 87.9830958,75.7704032 88.0149245,75.6550643 88.0450996,75.5389627 88.0736156,75.4221148 88.100468,75.3045381 88.1256533,75.1862512 88.1491691,75.0672736 88.1710137,74.9476258 88.1911864,74.8273291 88.2096876,74.7064059 88.2265182,74.5848792 88.2416803,74.4627729 88.2551765,74.3401117 88.2670105,74.2169211 88.2771865,74.0932273 88.2857097,73.969057 88.2925857,73.8444378 88.2978212,73.7193978 88.3014232,73.5939656 88.3033995,73.4681705 88.3037586,73.3420423 88.3025093,73.2156111 88.2996614,73.0889078 88.2952248,72.9619633 88.2892103,72.8348092 88.281629,72.7074773 88.2724924,72.5799998 88.2618126,72.4524092 88.2496021,72.3247383 88.2358738,72.19702 88.2206411,72.0692876 88.2039177,71.9415746 88.1857177,71.8139147 88.1660556,71.6863416 88.1449462,71.5588894 88.1224047,71.4315922 88.0984464,71.3044841 88.0730873,71.1775995 88.0463432,71.0509726 88.0182306,70.9246378 87.9887659,70.7986294 87.957966,70.6729819 87.9258479,70.5477295 87.8924288,70.4229064 87.857726,70.2985469 87.8217572,70.174685 87.7845401,70.0513546 87.7460924,69.9285895 87.7064322,69.8064232 87.6655775,69.6848892 87.6235465,69.5640206 87.5803572,69.4438502 87.536028,69.3244107 87.490577,69.205734 87.4440223,69.0878523 87.3963822,68.9707968 87.3476747,68.8545987 87.2979179,68.7392885 87.2471296,68.6248963 87.1953275,68.5114517 87.1425294,68.3989838 87.0887526,68.2875209 87.0340144,68.177091 86.978332,68.0677212 86.921722,67.9594382 86.864201,67.8522678 86.8057853,67.7462351 86.7464909,67.6413646 86.6863335,67.5376798 86.6253283,67.4352035 86.5634903,67.3339578 86.5008342,67.2339638 86.437374,67.1352417 86.3731238,67.0378109 86.3080968,66.94169 86.2423062,66.8468966 86.1757644,66.7534473 86.1084837,66.6613579 86.0404756,66.570643 85.9717515,66.4813166 85.902322,66.3933912 85.8321973,66.3068788 85.7613873,66.22179 85.689901,66.1381345 85.6177472,66.0559209 85.5449339,65.9751566 85.4714688,65.8958481 85.3973587,65.8180006 85.3226102,65.7416182 85.2472289,65.666704 85.17122,65.5932596 85.0945882,65.5212858 85.0173375,65.4507821 84.9394712,65.3817469 84.8609925,65.3141776 84.7819036,65.2480706 84.7022065,65.1834213 84.6219025,65.120224 84.5409928,65.0584722 84.4594778,64.9981584 84.3773575,64.9392743 84.2946318,64.8818106 84.2112998,64.8257573 84.1273606,64.7711035 84.0428126,64.7178376 83.9576543,64.6659473 83.8718834,64.6154195 83.7854977,64.5662404 83.6984944,64.5183957 83.6108708,64.4718701 83.5226236,64.4266481 83.4337495,64.3827135 83.3442449,64.3400494 83.2541061,64.2986387 83.1633291,64.2584633 83.0719098,64.2195052 82.9798439,64.1817454 82.8871271,64.1451647 82.7937547,64.1097436 82.6997221,64.0754619 82.6050245,64.0422993 82.509657,64.0102348 82.4136148,63.9792473 82.3168927,63.9493154 82.2194857,63.9204173 82.1213887,63.8925308 82.0225965,63.8656336 81.923104,63.8397032 81.8229059,63.8147166 81.7219971,63.7906509 81.6203725,63.7674829 81.518027,63.7451891 81.4149553,63.7237461 81.3111526,63.7031301 81.2066139,63.6833175 81.1013344,63.6642843 80.9953092,63.6460068 80.8885338,63.6284611 80.7810037,63.6116232 80.6727147,63.5954693 80.5636625,63.5799758 80.4538434,63.5651188 80.3432535,63.5508749 80.2318894,63.5372206 80.1197479,63.5241327 80.0068262,63.5115882 79.8931214,63.4995642 79.7786314,63.4880383 79.6633541,63.4769882 79.5472878,63.4663919 79.4304312,63.4562279 79.3127835,63.4464749 79.194344,63.437112 79.0751128,63.4281189 78.9550901,63.4194756 78.8342768,63.4111626 78.7126739,63.4031608 78.5902833,63.3954518 78.4671071,63.3880174 78.3431479,63.3808403 78.2184088,63.3739034 78.0928934,63.3671902 77.9666057,63.3606848 77.8395503,63.354372 77.7117321,63.3482368 77.5831568,63.3422652 77.4538303,63.3364434 77.3237592,63.3307584 77.1929506,63.3251979 77.061412,63.3197501 76.9291515,63.3144038 76.7961778,63.3091484 76.6625,63.3039742 76.5281278,63.2988719 76.3930715,63.2938331 76.2573418,63.2888498 76.1209501,63.283915 75.9839082,63.2790222 75.8462286,63.2741656 75.7079242,63.2693401 75.5690084,63.2645412 75.2893985,63.2550081 75.0075153,63.2455425 74.723482,63.2361295 74.4374281,63.2267628 74.149489,63.2174443 73.8598052,63.2081833 73.568522,63.1989962 73.2757888,63.189906 72.9817588,63.1809414 72.6865886,63.1721368 72.3904371,63.1635317 72.0934662,63.1551705 71.7958394,63.1471019 71.1992808,63.1320575 70.6020967,63.1188646 70.3036899,63.1131217 70.0056304,63.108038 69.7080853,63.1036838 69.4112206,63.100131 69.1152008,63.0974527 68.8201887,63.0957231 68.5263446,63.0950167 68.2338263,63.0954083 67.9427885,63.0969723 67.6533822,63.0997826 67.3657546,63.1039118 67.2226527,63.1064935 67.0800488,63.1094314 66.9379599,63.1127344 66.7964028,63.1164109 66.6553942,63.1204691 66.5149499,63.1249174 66.3750859,63.1297637 66.2358175,63.1350158 66.0971597,63.1406813 65.9591271,63.1467677 65.8217339,63.1532819 65.6849937,63.1602311 65.5489198,63.1676218 65.413525,63.1754603 65.2788217,63.1837528 65.1448217,63.1925051 65.0115362,63.2017226 64.8789761,63.2114105 64.7471516,63.2215736 64.6160723,63.2322164 64.4857474,63.2433428 64.3561853,63.2549567 64.2273941,63.2670614 64.0993809,63.2796596 63.9721524,63.292754 63.8457147,63.3063465 63.7200732,63.3204387 63.5952324,63.3350319 63.4711964,63.3501265 63.3479686,63.365723 63.2255517,63.381821 63.1039476,63.3984198 62.9831576,63.4155182 62.8631823,63.4331145 62.7440217,63.4512064 62.6256749,63.4697914 62.5081404,63.4888662 62.3914159,63.5084271 62.2754985,63.5284698 62.1603845,63.5489896 62.0460694,63.5699812 61.9325481,63.5914388 61.8198147,63.6133559 61.7078624,63.6357256 61.5966838,63.6585404 61.4862708,63.6817924 61.3766143,63.7054728 61.2677046,63.7295724 61.1595312,63.7540815 61.052083,63.7789898 60.945348,63.8042865 60.8393135,63.8299602 60.7339664,63.8559991 60.6292928,63.882391 60.5252781,63.909123 60.4219072,63.936182 60.3191646,63.9635543 60.217034,63.9912259 60.1154987,64.0191823 60.0145414,64.0474088 59.8142899,64.1046109 59.6161328,64.1627068 59.4199168,64.2215662 59.2254828,64.2810541 59.0326669,64.3410319 58.8413008,64.4013573 58.6512121,64.4618849 58.4622255,64.5224667 58.2741625,64.5829523 58.0868425,64.643189 57.900083,64.7030228 57.7137004,64.762298 57.52751,64.8208582 57.3413271,64.8785463 57.154967,64.9352049 56.9682458,64.9906767 56.7809812,65.0448049 56.5929926,65.0974339 56.4041024,65.1484094 56.2141366,65.1975792 56.118697,65.22144 56.0229253,65.2447936 55.9268008,65.2676217 55.8303036,65.2899061 55.733414,65.3116293 55.6361126,65.3327736 55.5383805,65.3533219 55.4401994,65.373257 55.3415512,65.3925625 55.2424186,65.4112218 55.1427845,65.4292191 55.0426325,65.4465386 54.9419468,65.463165 54.8407121,65.4790834 54.7389136,65.4942791 54.6365372,65.5087379 54.5335693,65.522446 54.4299967,65.5353899 54.3258071,65.5475565 54.2209885,65.558933 54.1155296,65.5695072 54.0094198,65.579267 53.9026487,65.588201 53.795207,65.5962979 53.6870856,65.6035471 53.5782761,65.6099381 53.4687708,65.615461 53.3585626,65.6201063 53.2476448,65.6238648 53.1360115,65.6267278 53.0236574,65.6286871 52.9105777,65.6297348 52.7967684,65.6298634 52.682226,65.629066 52.5669475,65.6273359 52.4509308,65.6246671 52.3341741,65.6210537 52.2166764,65.6164904 52.098437,65.6109723 51.979456,65.6044949 51.8597338,65.597054 51.7392717,65.5886457 51.618071,65.5792669 51.496134,65.5689143 51.373463,65.5575853 51.2500612,65.5452778 51.1259321,65.5319896 51.0010795,65.5177191 50.8755079,65.5024653 50.7492219,65.4862269 50.6222269,65.4690036 50.4945283,65.4507949 50.3661323,65.4316009 50.237045,65.411422 50.1072733,65.3902587 49.9768242,65.368112 49.845705,65.3449831 49.7139235,65.3208736 49.5814878,65.2957851 49.4484062,65.2697198 49.3146873,65.24268 49.1803402,65.2146684 49.0453741,65.1856878 48.9097984,65.1557414 48.7736231,65.1248326 48.6368582,65.0929651 48.4995139,65.0601429 48.3616009,65.0263701 48.22313,64.9916512 48.0841122,64.9559908 47.9445587,64.9193939 47.8044809,64.8818656 47.6638907,64.8434114 47.5227998,64.8040368 47.3812202,64.7637477 47.2391643,64.7225502 47.0966443,64.6804505 46.9536729,64.6374553 46.8102627,64.5935711 46.6664266,64.548805 46.5221775,64.503164 46.3775287,64.4566555 46.2324932,64.4092869 46.0870843,64.3610661 45.9413156,64.3120009 45.7952004,64.2620992 45.6487524,64.2113695 45.5019851,64.15982 45.3549122,64.1074594 45.2075476,64.0542964 45.0599048,64.0003399 44.9119978,63.9455989 44.7638402,63.8900826 44.615446,63.8338003 44.4668289,63.7767616 44.3180027,63.7189759 44.1689813,63.6604531 44.0197782,63.6012029 43.8704073,63.5412354 43.7208821,63.4805606 43.5712163,63.4191887 43.4214234,63.3571301 43.2715167,63.2943951 43.1215097,63.2309942 42.9714155,63.1669381 42.8212472,63.1022373 42.671018,63.0369027 42.5207405,62.9709452 42.3704275,62.9043755 42.2200915,62.8372047 41.9194,62.7011042 41.6187629,62.5627327 41.3182736,62.4221802 41.0180224,62.2795372 40.7180953,62.1348949 40.4185745,61.988345 40.1195376,61.8399792 39.8210576,61.6898897 39.5232029,61.5381684 39.2260368,61.3849075 38.9296175,61.2301989 38.6339981,61.0741341 38.3392261,60.9168046 38.0453434,60.758301 37.7523861,60.5987137 37.4603845,60.4381322 37.1693624,60.2766451 36.8793383,60.1143405 36.5903244,59.9513055 36.3023279,59.7876264 36.0153504,59.6233886 35.7293886,59.4586766 35.4444343,59.2935741 35.1604745,59.1281639 34.877492,58.9625278 34.5954653,58.7967468 34.3143689,58.6309009 34.0341733,58.465069 33.7548456,58.2993291 33.4763491,58.1337583 33.1986437,57.9684325 32.9216862,57.8034264 32.64543,57.6388137 32.3698254,57.474667 32.0948201,57.3110575 31.8203587,57.1480554 31.5463833,56.9857294 31.2728334,56.8241471 30.9996461,56.6633745 30.7267564,56.5034766 30.4540972,56.3445168 30.1815995,56.186557 29.9091925,56.0296579 29.636804,55.8738784 29.3643604,55.7192762 29.0917867,55.5659072 28.819007,55.4138261 28.5459447,55.2630855 28.272522,55.1137369 27.998661,54.9658297 27.7242831,54.819412 27.4493096,54.6745299 27.1736614,54.531228 26.8972597,54.3895491 26.6200254,54.249534 26.3418802,54.111222 26.0627458,53.9746506 25.7825446,53.8398551 25.5011996,53.7068693 25.2186348,53.575725 24.9347751,53.4464519 24.6495465,53.319078 24.5063961,53.2561113 24.3628765,53.193629 24.2189787,53.1316338 24.074694,53.0701287 23.9300139,53.0091161 23.7849298,52.9485987 23.6394334,52.8885788 23.4935165,52.8290586 23.3471708,52.7700402 23.2003886,52.7115257 23.0531619,52.6535167 22.9054831,52.596015 22.7573447,52.5390221 22.6087394,52.4825394 22.4596599,52.4265681 22.3100993,52.3711093 22.1600507,52.316164 22.0095076,52.2617329 21.8584634,52.2078167 21.7069118,52.154416 21.5548467,52.101531 21.4022623,52.0491621 21.2491527,51.9973092 21.0955123,51.9459724 20.941336,51.8951515 20.7866183,51.8448461 20.6313545,51.7950557 20.4755396,51.7457798 20.3191691,51.6970175 20.1622386,51.6487681 20.0047438,51.6010306 19.8466808,51.5538036 19.6880458,51.5070861 19.5288352,51.4608766 19.3690456,51.4151735 19.2086738,51.3699753 19.0477169,51.32528 18.886172,51.2810857 18.7240367,51.2373905 18.5613085,51.1941922 18.3979853,51.1514884 18.2340652,51.1092768 18.0695463,51.0675549 17.9044272,51.0263201 17.7387065,50.9855696 17.5723829,50.9453006 17.4054555,50.9055102 17.2379234,50.8661955 17.0697862,50.8273532 16.9010432,50.7889803 16.7316942,50.7510735 16.5617393,50.7136293 16.3911783,50.6766443 16.2200117,50.6401152 16.0482397,50.6040382 15.8758632,50.5684097 15.7028827,50.533226 15.5292992,50.4984834 15.3551138,50.4641779 15.1803279,50.4303057 15.0049427,50.3968629 14.8289598,50.3638454 14.652381,50.3312492 14.4752082,50.2990702 14.2974434,50.2673043 14.1190887,50.2359472 13.9401466,50.2049947 13.7606195,50.1744427 13.5805101,50.1442868 13.3998211,50.1145226 13.2185555,50.0851459 13.0367165,50.0561522 12.8543071,50.0275372 12.6713309,49.9992964 12.4877913,49.9714254 12.3036921,49.9439197 12.1190369,49.9167749 11.9338297,49.8899865 11.7480748,49.86355 11.5617761,49.837461 11.3749382,49.8117148 11.1875655,49.7863071 10.9996626,49.7612334 10.8112343,49.7364891 10.6222855,49.7120697 10.4328212,49.687971 10.0523668,49.6407172 9.6699137,49.5946924 9.2855065,49.5498615 8.8991917,49.5061899 8.5110177,49.4636437 8.1210345,49.4221893 7.729294,49.3817941 7.33585,49.3424262 6.9407576,49.3040545 6.5440736,49.2666488 6.1458565,49.2301804 5.7461663,49.1946212 5.3450643,49.1599447 4.9426133,49.1261258 4.5388777,49.0931404 4.1339229,49.0609665 3.7278158,49.0295833 3.3206245,48.998972 2.9124183,48.9691153 2.5032676,48.939998 2.0932441,48.9116069 1.6824204,48.8839308 1.27087,48.8569605 0.8586678,48.8306892 0.4458891,48.8051122 0.0326106,48.7802272 -0.3810907,48.7560343 -0.7951365,48.7325361 -1.2094481,48.7097379 -1.6239459,48.6876475 -2.0385498,48.6662754 -2.4531791,48.645635 -2.8677524,48.6257428 -3.2821878,48.6066184 -3.6964031,48.5882843 -4.1103157,48.5707668 -4.5238423,48.5540954 -4.9368997,48.5383033 -5.3494042,48.5234272 -5.7612719,48.509508 -6.1724188,48.4965903 -6.5827608,48.4847226 -6.9922135,48.4739575 -7.4006926,48.4643512 -7.8081138,48.4559641 -8.2143928,48.4488599 -8.6194454,48.4431063 -9.0231872,48.4387746 -9.4255344,48.4359397 -9.826403,48.4346799 -10.2257094,48.4350772 -10.4247506,48.4359239 -10.6233701,48.437217 -10.8215573,48.4389679 -11.019302,48.4411878 -11.2165937,48.4438884 -11.4134222,48.4470812 -11.6097772,48.4507782 -11.8056483,48.4549915 -12.0010253,48.4597331 -12.195898,48.4650154 -12.3902561,48.4708509 -12.5840895,48.4772521 -12.777388,48.4842317 -12.9701414,48.4918026 -13.1623397,48.4999776 -13.3539727,48.5087698 -13.5450305,48.5181922 -13.735503,48.5282581 -13.9253801,48.5389807 -14.1146521,48.5503733 -14.3033088,48.5624493 -14.4913404,48.5752221 -14.6787371,48.5887052 -14.8654891,48.6029121 -15.0515865,48.6178564 -15.2370196,48.6335516 -15.4217787,48.6500114 -15.605854,48.6672493 -15.7892361,48.6852791 -15.9719152,48.7041143 -16.1538818,48.7237686 -16.3351264,48.7442555 -16.5156395,48.7655889 -16.6954118,48.7877821 -16.8744338,48.8108489 -17.0526961,48.8348027 -17.2301896,48.8596572 -17.4069049,48.8854257 -17.5828328,48.9121216 -17.7579643,48.9397585 -17.9322902,48.9683495 -18.1058014,48.997908 -18.2784891,49.0284472 -18.4503442,49.0599801 -18.6213578,49.0925197 -18.7915212,49.1260791 -18.9608256,49.1606711 -19.1292621,49.1963084 -19.2968223,49.2330036 -19.4634974,49.2707693 -19.629279,49.3096178 -19.7941585,49.3495615 -19.9581275,49.3906123 -20.1211777,49.4327824 -20.2833008,49.4760836 -20.4444885,49.5205274 -20.6047326,49.5661255 -20.7640251,49.6128891 -20.922358,49.6608294 -21.0797231,49.7099574 -21.2361127,49.7602838 -21.3915189,49.8118193 -21.5459339,49.8645741 -21.6993501,49.9185586 -21.8517598,49.9737825 -22.0031555,50.0302556 -22.1535297,50.0879875 -22.3028749,50.1469873 -22.4511839,50.207264 -22.5984495,50.2688265 -22.7446643,50.3316832 -22.8898214,50.3958423 -23.0339137,50.4613119 -23.1769343,50.5280997 -23.3188763,50.5962131 -23.4597329,50.6656593 -23.5994974,50.7364451 -23.7381632,50.8085772 -23.8757238,50.8820618 -24.0121728,50.9569049 -24.1475037,51.0331122 -24.2817103,51.1106891 -24.4147863,51.1896406 -24.5467258,51.2699714 -24.6775226,51.3516859 -24.8071708,51.4347882 -24.9356646,51.519282 -25.0629983,51.6051707 -25.1891661,51.6924573 -25.3141626,51.7811443 -25.4379822,51.8712342 -25.5606196,51.9627287 -25.6820695,52.0556293 -25.8023267,52.1499372 -25.9213862,52.245653 -26.0392429,52.3427769 -26.155892,52.4413089 -26.2713286,52.5412482 -26.3855481,52.642594 -26.498546,52.7453446 -26.6103177,52.8494982 -26.7208589,52.9550523 -26.8301653,53.0620041 -26.9382328,53.1703501 -27.0450573,53.2800865 -27.1506349,53.391209 -27.2549617,53.5037127 -27.3580341,53.6175921 -27.4598483,53.7328415 -27.5604011,53.8494543 -27.6596889,53.9674237 -27.7577085,54.0867422 -27.8544567,54.2074019 -27.9499306,54.3293943 -28.0441271,54.4527105 -28.1370435,54.5773409 -28.2286771,54.7032757 -28.3190252,54.8305042 -28.4080855,54.9590156 -28.4958555,55.0887983 -28.582333,55.2198403 -28.6675159,55.3521291 -28.7514023,55.4856518 -28.8339901,55.6203948 -28.9152777,55.7563441 -28.9952633,55.8934852 -29.0739455,56.0318031 -29.1513228,56.1712823 -29.227394,56.3119069 -29.3021577,56.4536603 -29.3756131,56.5965256 -29.447759,56.7404855 -29.5185948,56.8855219 -29.5881196,57.0316167 -29.6563329,57.178751 -29.7232342,57.3269058 -29.7888231,57.4760616 -29.8530993,57.6261984 -29.9160627,57.7772959 -29.9777133,57.9293335 -30.0380512,58.0822901 -30.0970765,58.2361446 -30.1547895,58.3908751 -30.2111906,58.5464599 -30.2662804,58.7028766 -30.3200595,58.8601026 -30.3725287,59.0181153 -30.4236886,59.1768916 -30.4735405,59.3364082 -30.5220851,59.4966415 -30.5693238,59.6575679 -30.6152578,59.8191633 -30.6598885,59.9814038 -30.7032174,60.1442649 -30.745246,60.3077221 -30.785976,60.4717508 -30.8254092,60.6363263 -30.8635476,60.8014234 -30.900393,60.9670171 -30.9359477,61.1330822 -30.9702138,61.2995933 -31.0031936,61.466525 -31.0348895,61.6338518 -31.065304,61.8015478 -31.0944398,61.9695876 -31.1222996,62.1379452 -31.1488861,62.3065947 -31.1742022,62.4755104 -31.198251,62.6446663 -31.2210356,62.8140363 -31.2425592,62.9835945 -31.2628251,63.1533149 -31.2818367,63.3231715 -31.2995974,63.4931383 -31.3161109,63.6631892 -31.3313809,63.8332985 -31.3454112,64.0034401 -31.3582056,64.1735883 -31.3697682,64.3437173 -31.3801029,64.5138014 -31.389214,64.683815 -31.3971058,64.8537326 -31.4037825,65.0235288 -31.4092487,65.1931785 -31.4135089,65.3626564 -31.4165677,65.5319377 -31.4184299,65.7009975 -31.4191002,65.8698112 -31.4185837,66.0383544 -31.4168852,66.2066028 -31.41401,66.3745325 -31.4099631,66.5421195 -31.4047498,66.7093403 -31.3983756,66.8761716 -31.3908458,67.0425902 -31.3821661,67.2085734 -31.372342,67.3740986 -31.3613793,67.5391435 -31.3492837,67.7036861 -31.3360612,67.8677048 -31.3217177,68.0311782 -31.3062593,68.1940852 -31.2896922,68.3564051 -31.2720225,68.5181175 -31.2532566,68.6792024 -31.2334009,68.8396401 -31.2124619,68.9994112 -31.1904462,69.158497 -31.1673603,69.3168787 -31.1432111,69.4745383 -31.1180053,69.6314581 -31.0917498,69.7876206 -31.0644516,69.9430089 -31.0361177,70.0976067 -31.0067553,70.2513978 -30.9763716,70.4043667 -30.9449738,70.5564983 -30.9125694,70.707778 -30.8791658,70.8581916 -30.8447704,71.0077255 -30.8093909,71.1563666 -30.7730351,71.3041024 -30.7357105,71.4509208 -30.6974251,71.5968105 -30.6581867,71.7417604 -30.6180034,71.8857604 -30.5768832,72.0288007 -30.5348343,72.1708724 -30.4918648,72.311967 -30.4479831,72.4520766 -30.4031976,72.5911943 -30.3575166,72.7293134 -30.3109487,72.8664284 -30.2635025,73.002534 -30.2151867,73.137626 -30.1660101,73.2717008 -30.1159813,73.4047554 -30.0651095,73.5367877 -30.0134034,73.6677962 -29.9608723,73.7977804 -29.907525,73.9267402 -29.853371,74.0546764 -29.7984193,74.1815903 -29.7426793,74.307484 -29.6861603,74.4323604 -29.6288718,74.5562229 -29.5708231,74.6790756 -29.5120239,74.8009233 -29.4524836,74.9217714 -29.3922119,75.041626 -29.3312184,75.1604937 -29.2695129,75.2783818 -29.2071049,75.3952982 -29.1440044,75.5112516 -29.0802212,75.6262508 -29.015765,75.7403057 -28.9506457,75.8534265 -28.8848732,75.9656241 -28.8184574,76.0769098 -28.7514084,76.1872955 -28.6837359,76.2967938 -28.6154501,76.4054175 -28.5465608,76.5131802 -28.4770782,76.6200958 -28.4070121,76.7261787 -28.3363727,76.8314437 -28.2651698,76.9359062 -28.1934136,77.0395818 -28.121114,77.1424865 -28.048281,77.244637 -27.9749247,77.3460499 -27.9010548,77.4467426 -27.8266815,77.5467324 -27.7518146,77.6460373 -27.676464,77.7446754 -27.6006396,77.8426651 -27.5243512,77.9400251 -27.4476087,78.0367743 -27.3704218,78.132932 -27.2928003,78.2285175 -27.2147538,78.3235504 -27.136292,78.4180506 -27.0574244,78.512038 -26.9781607,78.6055328 -26.8184827,78.7911258 -26.657333,78.9749937 -26.4947861,79.1573024 -26.3309149,79.3382192 -26.1657916,79.5179124 -25.9994869,79.6965508 -25.8320701,79.8743035 -25.6636092,80.0513393 -25.4941707,80.2278262 -25.3238196,80.4039311 -25.1526188,80.5798194 -24.9806297,80.7556544 -24.8079119,80.9315967 -24.6345228,81.107804 -24.4605176,81.2844302 -24.2859495,81.4616255 -24.1108693,81.6395351 -23.9353255,81.8182997 -23.759364,81.9980539 -23.583028,82.1789268 -23.4063581,82.3610407 -23.2293922,82.5445111 -23.0521653,82.7294465 -22.8747094,82.9159477 -22.6970536,83.1041073 -22.5192239,83.2940099 -22.3412432,83.4857314 -22.1631312,83.6793385 -21.9849044,83.8748885 -21.8065758,84.0724289 -21.6281551,84.2719972 -21.4496486,84.4736207 -21.2710593,84.6773167 -21.0923871,84.8830934 -20.9136289,85.0909494 -20.7347785,85.300875 -20.5558272,85.5128518 -20.3767633,85.7268535 -20.1975728,85.9428462 -20.0182391,86.1607885 -19.8387435,86.3806321 -19.6590648,86.6023222 -19.4791801,86.8257977 -19.2990641,87.0509913 -19.1186899,87.2778301 -18.9380287,87.5062358 -18.75705,87.7361248 -18.5757218,87.9674087 -18.3940105,88.1999944 -18.2118811,88.4337844 -18.0292974,88.6686773 -17.8462219,88.9045678 -17.6626159,89.141347 -17.47844,89.3789031 -17.2936537,89.6171211 -17.1082158,89.8558835 -16.9220844,90.0950708 -16.735217,90.3345613 -16.5475707,90.5742319 -16.3591023,90.8139582 -16.1697684,91.0536146 -15.9795254,91.2930752 -15.7883297,91.5322137 -15.596138,91.7709036 -15.4029068,92.0090188 -15.2085933,92.246434 -15.0131549,92.4830242 -14.8165495,92.718666 -14.6187357,92.953237 -14.4196725,93.1866168 -14.2193202,93.4186867 -14.0176393,93.6493302 -13.8145919,93.8784335 -13.6101409,94.1058851 -13.4042502,94.3315772 -13.3007542,94.4437305 -13.1968854,94.5554049 -13.0926397,94.6665879 -12.9880132,94.7772672 -12.8830018,94.887431 -12.7776019,94.9970676 -12.6718098,95.1061655 -12.5656218,95.2147136 -12.4590344,95.3227013 -12.3520444,95.430118 -12.2446486,95.5369536 -12.1368438,95.6431985 -12.0286271,95.7488433 -11.9199956,95.8538788 -11.8109467,95.9582965 -11.7014779,96.0620882 -11.5915867,96.165246 -11.4812709,96.2677625 -11.3705284,96.3696307 -11.2593573,96.4708442 -11.1477559,96.5713967 -11.0357224,96.6712825 -10.9232554,96.7704963 -10.8103536,96.8690333 -10.6970158,96.9668889 -10.5832409,97.064059 -10.4690282,97.16054 -10.3543768,97.2563286 -10.2392862,97.3514218 -10.1237559,97.4458172 -10.0077856,97.5395127 -9.8913752,97.6325063 -9.7745246,97.7247969 -9.657234,97.8163834 -9.5395037,97.9072652 -9.421334,97.997442 -9.3027255,98.0869138 -9.1836789,98.1756813 -9.064195,98.2637451 -8.9442748,98.3511065 -8.8239193,98.4377669 -8.7031298,98.5237282 -8.5819076,98.6089926 -8.4602542,98.6935625 -8.3381712,98.7774408 -8.2156604,98.8606306 -8.0927235,98.9431353 -7.9693627,99.0249585 -7.8455798,99.1061043 -7.7213772,99.1865769 -7.596757,99.2663807 -7.4717219,99.3455205 -7.3462742,99.4240014 -7.2204165,99.5018286 -7.0941517,99.5790075 -6.9674825,99.6555438 -6.8404118,99.7314435 -6.7129427,99.8067126 -6.5850783,99.8813573 -6.4568217,99.9553843 -6.3281762,100.0288002 -6.1991452,100.1016118 -6.0697321,100.173826 -5.9399405,100.2454502 -5.8097739,100.3164915 -5.6792361,100.3869573 -5.5483308,100.4568554 -5.4170618,100.5261934 -5.2854331,100.5949791 -5.1534485,100.6632205 -5.0211122,100.7309257 -4.8884282,100.7981027 -4.7554007,100.8647598 -4.622034,100.9309055 -4.3542998,101.0616959 -4.0852607,101.190542 -3.8149525,101.317513 -3.5434117,101.4426786 -3.2706759,101.5661091 -2.9967829,101.6878749 -2.7217714,101.8080468 -2.4456807,101.9266951 -2.1685503,102.0438897 -1.8904204,102.1597 -1.6113314,102.2741944 -1.331324,102.3874405 -1.0504391,102.4995042 -0.7687179,102.6104502 -0.4862014,102.7203414 -0.202931,102.8292385 0.0810522,102.9372002 0.3657073,103.0442827 0.6509932,103.1505393 0.9368694,103.2560205 1.2232956,103.3607734 1.5102319,103.4648415 1.7976388,103.5682645 2.0854775,103.6710781 2.3737094,103.7733135 2.6622971,103.8749974 3.2403927,104.0767929 3.8194784,104.2765774 4.3992828,104.4743797 4.9795501,104.6701409 5.5600419,104.8637108 5.8503026,104.9596013 6.1405386,105.0548448 6.4307256,105.1493957 6.7208406,105.243203 7.0108619,105.3362104 7.3007688,105.4283569 7.5905423,105.5195764 7.8801641,105.6097989 8.1696176,105.6989503 8.4588873,105.7869526 8.7479587,105.8737247 9.0368187,105.9591821 9.3254555,106.0432379 9.6138584,106.1258024 9.9020179,106.2067835 10.1899258,106.2860872 10.477575,106.3636175 10.7649598,106.4392769 11.0520757,106.5129664 11.3389193,106.5845858 11.6254886,106.6540339 11.9117827,106.721209 12.0548267,106.7539123 12.1978022,106.7860088 12.3407094,106.8174859 12.4835487,106.8483306 12.6263204,106.8785302 12.7690251,106.9080719 12.9116633,106.9369429 13.0542357,106.9651304 13.196743,106.9926217 13.339186,107.0194043 13.4815656,107.0454654 13.6238826,107.0707926 13.7661383,107.0953734 13.9083336,107.1191954 14.0504698,107.1422464 14.1925482,107.1645141 14.3345701,107.1859865 14.4765369,107.2066516 14.6184501,107.2264976 14.7603113,107.2455128 14.9021223,107.2636855 15.0438846,107.2810044 15.1856002,107.2974582 15.327271,107.3130357 15.4688989,107.3277261 15.6104859,107.3415186 15.7520343,107.3544026 15.8935462,107.3663677 16.035024,107.3774038 16.1764699,107.3875008 16.3178865,107.3966491 16.4592763,107.4048391 16.6006419,107.4120615 16.7419859,107.4183072 16.8833112,107.4235675 17.0246206,107.4278337 17.165917,107.4310977 17.3072034,107.4333514 17.4484829,107.434587 17.5897587,107.4347971 17.731034,107.4339745 17.8723122,107.4321125 18.0135966,107.4292043 18.1548907,107.4252439 18.2961981,107.4202253 18.4375224,107.4141429 18.5788674,107.4069915 18.7202369,107.3987662 18.8616346,107.3894626 19.0030647,107.3790764 19.1445311,107.3676038 19.286038,107.3550415 19.4275896,107.3413864 19.5691901,107.3266359 19.7108439,107.3107879 19.8525554,107.2938404 19.9943292,107.2757921 20.1361699,107.2566421 20.2780822,107.2363898 20.4200708,107.2150351 20.5621405,107.1925785 20.7042964,107.1690207 20.8465433,107.1443631 20.9888864,107.1186074z" fill="rgb(0,0,0)" shaper:cutDepth="0.00635" shaper:pathType="exterior" transform="matrix(1,0,0,-1,31.4191002,107.4347971)" vector-effect="non-scaling-stroke" /><path d="M33.292069,65.3540504 a0.555625,0.555625 0 1,1 1.11125,0 a0.555625,0.555625 0 1,1 -1.11125,0z" fill="rgb(255,255,255)" shaper:cutDepth="0.00635" shaper:pathType="interior" stroke="rgb(0,0,0)" transform="matrix(1,0,0,-1,31.4191002,107.4347971)" vector-effect="non-scaling-stroke" /><path d="M69.7962047,89.7432765 a0.555625,0.555625 0 1,1 1.11125,0 a0.555625,0.555625 0 1,1 -1.11125,0z" fill="rgb(255,255,255)" shaper:cutDepth="0.00635" shaper:pathType="interior" stroke="rgb(0,0,0)" transform="matrix(1,0,0,-1,31.4191002,107.4347971)" vector-effect="non-scaling-stroke" /><path d="M-18.7807883,61.3688828 a0.555625,0.555625 0 1,1 1.11125,0 a0.555625,0.555625 0 1,1 -1.11125,0z" fill="rgb(255,255,255)" shaper:cutDepth="0.00635" shaper:pathType="interior" stroke="rgb(0,0,0)" transform="matrix(1,0,0,-1,31.4191002,107.4347971)" vector-effect="non-scaling-stroke" /><path d="M8.6903007,97.9792896 a0.555625,0.555625 0 1,1 1.11125,0 a0.555625,0.555625 0 1,1 -1.11125,0z" fill="rgb(255,255,255)" shaper:cutDepth="0.00635" shaper:pathType="interior" stroke="rgb(0,0,0)" transform="matrix(1,0,0,-1,31.4191002,107.4347971)" vector-effect="non-scaling-stroke" /></svg>