<?xml version="1.0" encoding="utf-8"?>
<!-- Generator: Fusion 360, Shaper Origin Export Add-In, Version 1.5.0  -->
<svg enable-background="new 0 0 84.8569634 88.6672097" height="88.6672097cm" shaper:fusionaddin="version:1.5.0" version="1.1" viewBox="0 0 84.8569634 88.6672097" width="84.8569634cm" x="0cm" xml:space="preserve" xmlns="http://www.w3.org/2000/svg" xmlns:shaper="http://www.shapertools.com/namespaces/shaper" xmlns:xlink="http://www.w3.org/1999/xlink" y="0cm"><path d="M-0,-30.48 L-0,-30.48 -0.1066013,-30.4636909 -0.2147572,-30.4482554 -0.3244678,-30.4336934 -0.435733,-30.4200049 -0.5485528,-30.4071897 -0.6629273,-30.3952476 -0.7788566,-30.3841781 -0.8963406,-30.3739807 -1.0153795,-30.3646547 -1.1359734,-30.356199 -1.2581222,-30.3486126 -1.3818262,-30.3418939 -1.5070854,-30.336041 -1.6339,-30.3310521 -1.7622701,-30.3269244 -1.892196,-30.3236553 -2.0236777,-30.3212415 -2.1567154,-30.3196793 -2.2913093,-30.3189646 -2.4274597,-30.3190927 -2.5651666,-30.3200584 -2.7044305,-30.3218562 -2.8452513,-30.3244796 -2.9876296,-30.3279219 -3.1315654,-30.3321756 -3.2770591,-30.3372324 -3.4241111,-30.3430836 -3.5727217,-30.3497196 -3.7228913,-30.3571301 -3.8746204,-30.365304 -4.0279093,-30.3742294 -4.1827585,-30.3838937 -4.339168,-30.3942833 -4.497138,-30.4053838 -4.6566682,-30.4171798 -4.817758,-30.4296551 -4.9804065,-30.4427924 -5.1446124,-30.4565733 -5.3103739,-30.4709788 -5.4776887,-30.4859884 -5.6465537,-30.5015807 -5.8169654,-30.5177332 -5.9889192,-30.5344221 -6.16241,-30.5516225 -6.3374316,-30.5693084 -6.5139769,-30.5874522 -6.6920376,-30.6060254 -6.8716045,-30.6249978 -7.0526672,-30.644338 -7.235214,-30.6640134 -7.4192318,-30.6839896 -7.6047063,-30.7042311 -7.7916218,-30.7247009 -7.9799613,-30.7453603 -8.1697059,-30.7661695 -8.3608355,-30.7870869 -8.5533284,-30.8080694 -8.747161,-30.8290726 -8.9423082,-30.8500501 -9.1387427,-30.8709541 -9.3364357,-30.8917351 -9.5353561,-30.9123417 -9.7354708,-30.9327207 -9.9367442,-30.952817 -10.1391388,-30.9725738 -10.3426144,-30.9919319 -10.5471285,-31.0108305 -10.7526359,-31.0292064 -10.9590892,-31.0469947 -11.1664385,-31.0641287 -11.3746317,-31.0805398 -11.5836142,-31.0961576 -11.7933293,-31.1109101 -12.0037183,-31.1247238 -12.2147199,-31.1375237 -12.4262711,-31.1492331 -12.6383069,-31.1597743 -12.8507603,-31.1690683 -13.0635631,-31.1770351 -13.2766453,-31.1835942 -13.489936,-31.1886645 -13.7033633,-31.1921643 -13.9168543,-31.1940121 -14.1303356,-31.1941263 -14.3437336,-31.1924255 -14.5569741,-31.1888287 -14.7699831,-31.1832557 -14.9826867,-31.1756268 -15.1950111,-31.1658635 -15.4068831,-31.1538883 -15.6182301,-31.1396249 -15.7236842,-31.1316117 -15.8289801,-31.1229986 -15.9341091,-31.1137765 -16.0390623,-31.1039364 -16.1438311,-31.0934694 -16.2484068,-31.0823669 -16.3527809,-31.0706202 -16.456945,-31.0582208 -16.5608907,-31.0451604 -16.6646098,-31.0314309 -16.7680941,-31.0170241 -16.8713355,-31.0019323 -16.9743263,-30.9861476 -17.0770584,-30.9696626 -17.1795244,-30.9524698 -17.2817165,-30.934562 -17.3836275,-30.9159321 -17.4852499,-30.8965734 -17.5865767,-30.876479 -17.6876009,-30.8556426 -17.7883156,-30.8340579 -17.8887141,-30.8117187 -17.9887899,-30.7886193 -18.0885367,-30.7647539 -18.1879483,-30.7401172 -18.2870187,-30.7147038 -18.385742,-30.6885088 -18.4841126,-30.6615276 -18.5821251,-30.6337555 -18.6797743,-30.6051883 -18.7770551,-30.5758221 -18.8739629,-30.5456531 -18.9704929,-30.5146779 -19.0666409,-30.4828933 -19.1624027,-30.4502965 -19.2577746,-30.4168848 -19.3527529,-30.3826559 -19.4473343,-30.347608 -19.5415156,-30.3117392 -19.6352942,-30.2750484 -19.7286674,-30.2375344 -19.821633,-30.1991966 -19.9141891,-30.1600347 -20.0063339,-30.1200487 -20.0980662,-30.0792388 -20.1893848,-30.0376059 -20.280289,-29.995151 -20.3707783,-29.9518753 -20.4608524,-29.9077808 -20.5505115,-29.8628693 -20.639756,-29.8171433 -20.7285864,-29.7706055 -20.8170039,-29.7232591 -20.9050095,-29.6751073 -20.9926049,-29.626154 -21.0797919,-29.5764032 -21.1665726,-29.5258593 -21.2529493,-29.474527 -21.3389249,-29.4224114 -21.4245022,-29.369518 -21.5096845,-29.3158524 -21.5944754,-29.2614207 -21.6788786,-29.2062292 -21.7628983,-29.1502847 -21.8465388,-29.093594 -21.9298048,-29.0361646 -22.0127011,-28.978004 -22.0952327,-28.91912 -22.1774051,-28.8595207 -22.2592238,-28.7992145 -22.3406946,-28.7382101 -22.4218235,-28.6765163 -22.5026167,-28.6141422 -22.5830806,-28.5510972 -22.6632218,-28.4873908 -22.743047,-28.4230328 -22.8225634,-28.3580331 -22.9017779,-28.292402 -22.9806979,-28.2261498 -23.0593308,-28.159287 -23.1376842,-28.0918243 -23.2157659,-28.0237726 -23.2935837,-27.955143 -23.3711456,-27.8859465 -23.5255346,-27.7458985 -23.6789994,-27.6037207 -23.8316082,-27.4595074 -23.983431,-27.3133545 -24.134539,-27.1653594 -24.2850048,-27.015621 -24.4349018,-26.8642393 -24.5843046,-26.7113153 -24.7332882,-26.5569507 -24.8819284,-26.4012476 -25.0303011,-26.2443086 -25.1784823,-26.0862363 -25.3265483,-25.927133 -25.4745747,-25.767101 -25.622637,-25.6062417 -25.77081,-25.4446559 -25.9191677,-25.2824434 -26.2167279,-24.9565304 -26.515886,-24.6292717 -26.6662351,-24.4653696 -26.8171846,-24.3014045 -26.9687973,-24.1374625 -27.1211333,-23.9736263 -27.27425,-23.8099757 -27.428202,-23.6465868 -27.5830409,-23.4835323 -27.738815,-23.320881 -27.8955697,-23.1586978 -28.0533467,-22.9970438 -28.2121847,-22.8359761 -28.3721184,-22.6755475 -28.5331795,-22.5158065 -28.6953955,-22.3567974 -28.8587905,-22.1985599 -29.0233845,-22.0411294 -29.1891942,-21.8845368 -29.3562324,-21.7288089 -29.5245087,-21.5739685 -29.6940291,-21.4200344 -29.8647967,-21.2670218 -30.0368113,-21.1149423 -30.2100696,-20.9638037 -30.3845656,-20.813611 -30.5602904,-20.6643657 -30.7372325,-20.5160662 -30.9153776,-20.368708 -31.0947089,-20.2222837 -31.275207,-20.076783 -31.45685,-19.9321929 -31.6396138,-19.7884976 -31.8234717,-19.6456789 -32.0083949,-19.503716 -32.1943524,-19.3625857 -32.3813109,-19.2222626 -32.5692352,-19.082719 -32.7580881,-18.9439252 -32.9478305,-18.8058493 -33.1384214,-18.668458 -33.3298184,-18.5317158 -33.521977,-18.3955859 -33.7148517,-18.2600297 -33.908395,-18.1250073 -34.1025584,-17.9904775 -34.2972919,-17.8563981 -34.4925443,-17.7227253 -34.8843954,-17.4564207 -35.2776801,-17.1911967 -35.6719515,-16.9266746 -36.0667501,-16.6624668 -36.461606,-16.3981804 -36.8560415,-16.133421 -37.249574,-15.867796 -37.6417185,-15.6009184 -37.8371186,-15.4668912 -38.03199,-15.3324097 -38.2262723,-15.1974283 -38.4199052,-15.0619019 -38.6128289,-14.9257864 -38.8049836,-14.7890381 -38.9963101,-14.6516144 -39.1867492,-14.5134733 -39.3762423,-14.3745738 -39.5647312,-14.2348756 -39.752158,-14.0943392 -39.9384656,-13.9529263 -40.123597,-13.8105991 -40.3074961,-13.6673207 -40.490107,-13.5230552 -40.6713746,-13.3777676 -40.8512444,-13.2314235 -41.0296625,-13.0839897 -41.2065756,-12.9354335 -41.3819313,-12.7857235 -41.5556777,-12.6348289 -41.7277638,-12.4827198 -41.8981394,-12.3293674 -42.0667551,-12.1747438 -42.2335623,-12.0188218 -42.3985133,-11.8615754 -42.5615616,-11.7029796 -42.6423579,-11.623168 -42.7226613,-11.54301 -42.8024664,-11.4625028 -42.8817677,-11.3816436 -42.9605597,-11.3004296 -43.038837,-11.2188582 -43.1165944,-11.1369267 -43.1938267,-11.0546325 -43.2705285,-10.9719732 -43.3466949,-10.8889464 -43.4223208,-10.8055497 -43.4974013,-10.7217807 -43.5719314,-10.6376373 -43.6459064,-10.5531172 -43.7193216,-10.4682183 -43.7921721,-10.3829387 -43.8644536,-10.2972763 -43.9361613,-10.2112291 -44.007291,-10.1247954 -44.0778382,-10.0379734 -44.1477986,-9.9507612 -44.2171681,-9.8631574 -44.2859425,-9.7751602 -44.3541179,-9.6867681 -44.4216901,-9.5979798 -44.4886554,-9.5087937 -44.5550101,-9.4192086 -44.6207503,-9.3292232 -44.6858724,-9.2388364 -44.7503731,-9.1480469 -44.8142487,-9.0568538 -44.8774961,-8.9652561 -44.9401119,-8.8732528 -45.0020931,-8.7808431 -45.0634364,-8.6880263 -45.1241391,-8.5948015 -45.1841983,-8.5011683 -45.2436111,-8.407126 -45.3023749,-8.3126741 -45.3604872,-8.2178122 -45.4179455,-8.12254 -45.4747474,-8.0268572 -45.5308907,-7.9307635 -45.5863731,-7.8342588 -45.6411928,-7.7373432 -45.6953476,-7.6400164 -45.7488357,-7.5422788 -45.8016554,-7.4441303 -45.853805,-7.3455712 -45.9052829,-7.2466019 -45.9560877,-7.1472226 -46.006218,-7.0474339 -46.0556727,-6.9472362 -46.1044505,-6.8466302 -46.1525504,-6.7456164 -46.1999714,-6.6441957 -46.2467128,-6.5423688 -46.2927737,-6.4401366 -46.3381537,-6.3375002 -46.382852,-6.2344604 -46.4268682,-6.1310185 -46.4702021,-6.0271756 -46.5128533,-5.9229329 -46.5548216,-5.8182919 -46.596107,-5.7132538 -46.6367094,-5.6078202 -46.6766289,-5.5019926 -46.7158656,-5.3957727 -46.7544199,-5.2891621 -46.7922919,-5.1821626 -46.8294821,-5.0747761 -46.8659909,-4.9670045 -46.9018188,-4.8588497 -46.9369665,-4.7503139 -46.9714345,-4.6413992 -47.0052236,-4.5321078 -47.0383346,-4.422442 -47.0707683,-4.3124042 -47.1025257,-4.2019967 -47.1336076,-4.0912222 -47.1640151,-3.9800833 -47.1937493,-3.8685824 -47.2228114,-3.7567225 -47.2512024,-3.6445063 -47.2789237,-3.5319367 -47.3059765,-3.4190167 -47.3323622,-3.3057493 -47.358082,-3.1921375 -47.3831376,-3.0781847 -47.4075303,-2.963894 -47.4312616,-2.8492687 -47.4543331,-2.7343123 -47.4767464,-2.6190283 -47.4985031,-2.5034201 -47.5196049,-2.3874915 -47.5400535,-2.2712461 -47.5598506,-2.1546877 -47.578998,-2.0378202 -47.5974975,-1.9206474 -47.6153508,-1.8031733 -47.6325599,-1.6854021 -47.6491266,-1.5673379 -47.6650527,-1.448985 -47.6803403,-1.3303475 -47.6949912,-1.2114299 -47.7090073,-1.0922366 -47.7223907,-0.9727722 -47.7351433,-0.8530413 -47.747267,-0.7330484 -47.758764,-0.6127985 -47.7696361,-0.4922963 -47.7798853,-0.3715467 -47.7895138,-0.2505547 -47.7985234,-0.1293254 -47.8069163,-0.0078638 -47.8146944,0.1138248 -47.8218597,0.2357351 -47.8284143,0.3578618 -47.8343601,0.4801994 -47.8396992,0.6027425 -47.8444335,0.7254854 -47.848565,0.8484225 -47.8520958,0.9715481 -47.8550277,1.0948564 -47.8573627,1.2183415 -47.8591027,1.3419974 -47.8602497,1.4658181 -47.8608056,1.5897976 -47.8607722,1.7139296 -47.8601514,1.838208 -47.857155,2.0871783 -47.8518308,2.3366571 -47.8441928,2.5865918 -47.8342543,2.8369286 -47.8220283,3.0876125 -47.8075269,3.3385871 -47.7907617,3.5897948 -47.7717432,3.8411768 -47.7504813,4.0926731 -47.726985,4.344222 -47.7012621,4.595761 -47.6733197,4.847226 -47.643164,5.098552 -47.6108,5.3496729 -47.5762323,5.6005216 -47.5394642,5.8510302 -47.5004985,6.1011299 -47.4593369,6.3507513 -47.4159807,6.5998241 -47.3704302,6.8482779 -47.3226848,7.0960414 -47.2727438,7.3430434 -47.2206055,7.5892124 -47.1662681,7.8344768 -47.1382739,7.9567476 -47.1097291,8.0787655 -47.0806331,8.2005218 -47.0509858,8.3220074 -47.0207867,8.4432138 -46.9900354,8.564132 -46.9587316,8.6847533 -46.9268748,8.8050691 -46.8944646,8.9250708 -46.8615007,9.0447496 -46.8279826,9.1640972 -46.79391,9.283105 -46.7592824,9.4017647 -46.7240995,9.5200678 -46.6883608,9.6380062 -46.652066,9.7555716 -46.6152147,9.8727559 -46.5778066,9.9895511 -46.5398413,10.1059493 -46.5013185,10.2219426 -46.4622378,10.3375232 -46.4225991,10.4526835 -46.382402,10.567416 -46.3416463,10.6817131 -46.3003318,10.7955676 -46.2584582,10.9089721 -46.2160254,11.0219196 -46.1730334,11.1344032 -46.1294818,11.2464159 -46.0853708,11.3579509 -46.0407003,11.4690018 -45.9954702,11.5795619 -45.9496807,11.6896251 -45.9033318,11.7991851 -45.8564236,11.9082359 -45.8089564,12.0167715 -45.7609304,12.1247864 -45.7123457,12.232275 -45.6632029,12.3392318 -45.6135022,12.4456516 -45.5632442,12.5515294 -45.5124292,12.6568604 -45.461058,12.7616398 -45.409131,12.8658632 -45.3566491,12.9695263 -45.3036129,13.0726249 -45.2500233,13.1751552 -45.1958812,13.2771134 -45.1411876,13.378496 -45.0859435,13.4792998 -45.03015,13.5795217 -44.9738084,13.6791589 -44.9169198,13.7782086 -44.8594858,13.8766685 -44.8015076,13.9745365 -44.742987,14.0718105 -44.6839254,14.1684888 -44.6243246,14.2645701 -44.5641863,14.360053 -44.5035126,14.4549366 -44.4423053,14.5492202 -44.3805665,14.6429033 -44.3182985,14.7359857 -44.2555035,14.8284675 -44.1921839,14.9203489 -44.1283421,15.0116306 -44.0639809,15.1023135 -43.9991028,15.1923987 -43.9337107,15.2818876 -43.8678076,15.370782 -43.8013964,15.459084 -43.7344804,15.5467957 -43.6670628,15.6339199 -43.5991471,15.7204595 -43.5307366,15.8064178 -43.4618352,15.8917983 -43.3924466,15.9766049 -43.3225747,16.0608418 -43.2522235,16.1445136 -43.1813973,16.2276252 -43.1101003,16.3101817 -43.038337,16.3921888 -42.9661119,16.4736523 -42.8934299,16.5545784 -42.8202958,16.6349739 -42.7467146,16.7148455 -42.6726914,16.7942005 -42.5982315,16.8730464 -42.5233402,16.9513911 -42.4480231,17.0292426 -42.3722857,17.1066093 -42.2961339,17.1835 -42.2195734,17.2599235 -42.1426103,17.3358892 -41.9875004,17.4864849 -41.8308541,17.635366 -41.6727228,17.7826149 -41.5131597,17.9283175 -41.3522191,18.0725632 -41.189957,18.2154442 -41.0264305,18.3570555 -40.861698,18.4974948 -40.695819,18.6368618 -40.5288538,18.7752583 -40.360864,18.9127879 -40.1919119,19.0495558 -40.0220604,19.1856681 -39.8513734,19.3212323 -39.679915,19.4563564 -39.5077501,19.5911489 -39.3349439,19.7257187 -38.9876699,19.9946243 -38.6386193,20.2639379 -38.288319,20.5345109 -38.1128646,20.6705303 -37.9372943,20.8071738 -37.7616731,20.9445406 -37.5860654,21.0827279 -37.4105351,21.22183 -37.2351454,21.3619388 -37.0599591,21.503143 -36.8850379,21.6455283 -36.7104427,21.7891771 -36.5362338,21.9341679 -36.36247,22.0805754 -36.1892091,22.2284698 -36.0165079,22.3779171 -35.8444215,22.5289779 -35.6730037,22.6817081 -35.5023066,22.8361575 -35.3323808,22.9923706 -35.1632748,23.1503853 -34.9950355,23.3102334 -34.8277079,23.4719402 -34.661335,23.6355247 -34.495958,23.8009996 -34.3316162,23.9683711 -34.1683472,24.1376396 -34.0061867,24.3087989 -33.8451685,24.4818369 -33.6853248,24.6567355 -33.526686,24.8334702 -33.3692805,25.0120111 -33.2131354,25.1923225 -33.0582763,25.3743637 -32.9047272,25.5580889 -32.7525108,25.7434478 -32.6016486,25.9303854 -32.4521612,26.1188432 -32.3040677,26.3087583 -32.1573867,26.5000649 -32.0121356,26.6926936 -31.8683313,26.8865721 -31.7259899,27.0816254 -31.5851266,27.2777757 -31.4457564,27.4749431 -31.3078936,27.6730455 -31.1715521,27.8719988 -31.0367455,28.0717173 -30.9034869,28.2721137 -30.7717895,28.4730996 -30.6416662,28.6745855 -30.5131298,28.8764812 -30.3861931,29.0786959 -30.2608693,29.2811386 -30.1371714,29.4837184 -30.0151129,29.6863443 -29.8947076,29.8889261 -29.7759698,30.0913744 -29.6589141,30.2936003 -29.543556,30.4955167 -29.4299115,30.6970376 -29.3179973,30.8980787 -29.207831,31.0985578 -29.0994311,31.2983946 -28.992817,31.4975116 -28.8880093,31.6958334 -28.7850295,31.8932879 -28.6839005,32.0898059 -28.5846465,32.2853215 -28.4872928,32.4797724 -28.3918665,32.6731002 -28.2983959,32.8652506 -28.2069112,33.0561734 -28.1619234,33.15116 -28.117444,33.2458231 -28.0734774,33.3401576 -28.0300279,33.434159 -27.9870999,33.5278229 -27.9446981,33.6211454 -27.9028272,33.7141228 -27.861492,33.8067519 -27.8206975,33.8990297 -27.7804487,33.9909535 -27.7407506,34.082521 -27.7016086,34.1737302 -27.6630276,34.2645795 -27.6250132,34.3550674 -27.5875704,34.4451929 -27.5507046,34.5349552 -27.5144211,34.6243536 -27.4787251,34.7133881 -27.4436218,34.8020586 -27.4091165,34.8903655 -27.3752142,34.9783092 -27.3419199,35.0658907 -27.3092387,35.153111 -27.2771753,35.2399713 -27.2457346,35.3264734 -27.214921,35.4126188 -27.1847391,35.4984097 -27.1551931,35.5838482 -27.1262872,35.6689368 -27.0980253,35.7536781 -27.0704112,35.838075 -27.0434484,35.9221305 -27.0171402,36.0058478 -26.9914895,36.0892303 -26.9664993,36.1722816 -26.942172,36.2550055 -26.9185098,36.3374058 -26.8955147,36.4194867 -26.8731884,36.5012523 -26.8515319,36.582707 -26.8305464,36.6638553 -26.8102323,36.7447019 -26.79059,36.8252515 -26.7716191,36.9055089 -26.7533191,36.9854793 -26.735689,37.0651677 -26.7187274,37.1445792 -26.7024324,37.2237192 -26.6868016,37.3025932 -26.6718323,37.3812065 -26.6575212,37.4595647 -26.6438646,37.5376734 -26.6308581,37.6155384 -26.6184969,37.6931653 -26.6067757,37.7705601 -26.5956887,37.8477285 -26.5852293,37.9246764 -26.5753906,38.0014098 -26.5661649,38.0779346 -26.557544,38.1542569 -26.5495192,38.2303825 -26.542081,38.3063177 -26.5289231,38.4576403 -26.5179819,38.6082729 -26.5091574,38.7582635 -26.5023387,38.9076596 -26.4974023,39.0565081 -26.4942127,39.2048552 -26.4926208,39.3527458 -26.4924645,39.500224 -26.4935673,39.6473322 -26.4957381,39.7941112 -26.4987713,39.9406 -26.5065326,40.2328546 -26.5149414,40.5243728 -26.5187424,40.6699348 -26.5219105,40.815404 -26.5241621,40.9608076 -26.5252066,41.1061708 -26.5247473,41.2515175 -26.5224824,41.3968698 -26.5181058,41.5422485 -26.5150291,41.6149539 -26.5113084,41.6876729 -26.5069047,41.7604077 -26.501779,41.8331606 -26.4958921,41.9059333 -26.4892051,41.978728 -26.4816788,42.0515463 -26.4732742,42.1243901 -26.4639525,42.197261 -26.4536748,42.2701606 -26.4424024,42.3430904 -26.430097,42.4160519 -26.4167202,42.4890463 -26.402234,42.5620749 -26.3866007,42.635139 -26.3697828,42.7082397 -26.3517434,42.7813779 -26.3324458,42.8545548 -26.3118536,42.9277711 -26.2899312,43.0010278 -26.2666432,43.0743256 -26.2419548,43.1476651 -26.215832,43.2210472 -26.1882412,43.2944722 -26.1591493,43.3679407 -26.1285242,43.4414531 -26.0963342,43.5150099 -26.0625487,43.5886114 -26.0271376,43.6622577 -25.9900717,43.7359491 -25.9513226,43.8096859 -25.910863,43.8834679 -25.8686663,43.9572953 -25.8247069,44.0311681 -25.7789602,44.1050861 -25.7314024,44.1790493 -25.6820108,44.2530575 -25.6307638,44.3271104 -25.5776407,44.4012078 -25.5226218,44.4753493 -25.4656885,44.5495346 -25.4068235,44.6237631 -25.3460103,44.6980346 -25.2832336,44.7723483 -25.2184793,44.8467038 -25.1517344,44.9211005 -25.0829872,44.9955377 -25.012227,45.0700147 -24.9394445,45.1445307 -24.8646316,45.2190851 -24.7877813,45.2936769 -24.7088878,45.3683054 -24.6279468,45.4429695 -24.5449548,45.5176685 -24.4599097,45.5924012 -24.3728103,45.6671667 -24.2836568,45.7419639 -24.1924502,45.8167917 -24.0991928,45.8916489 -24.0038877,45.9665345 -23.9065392,46.041447 -23.8071526,46.1163854 -23.7057341,46.1913482 -23.6022909,46.2663342 -23.496831,46.3413419 -23.3893637,46.4163699 -23.2798987,46.4914168 -23.168447,46.566481 -23.0550201,46.6415609 -22.9396306,46.7166551 -22.8222918,46.7917618 -22.7030178,46.8668793 -22.5818237,46.9420061 -22.4587251,47.0171402 -22.3337386,47.09228 -22.2068814,47.1674235 -22.0781715,47.242569 -21.9476277,47.3177144 -21.8152694,47.3928579 -21.681117,47.4679975 -21.5451911,47.5431311 -21.4075134,47.6182566 -21.2681062,47.693372 -21.1269922,47.7684751 -20.9841951,47.8435638 -20.8397391,47.9186357 -20.6936488,47.9936887 -20.5459498,48.0687204 -20.3966679,48.1437286 -20.2458297,48.2187108 -20.0934624,48.2936646 -19.9395935,48.3685877 -19.7842513,48.4434774 -19.6274643,48.5183313 -19.4692619,48.5931469 -19.3096736,48.6679214 -19.1487294,48.7426524 -18.9864601,48.8173371 -18.8228964,48.8919728 -18.6580698,48.9665568 -18.4920121,49.0410863 -18.3247554,49.1155585 -18.1563321,49.1899706 -17.9867752,49.2643195 -17.8161178,49.3386025 -17.6443934,49.4128166 -17.4716357,49.4869587 -17.2978789,49.5610259 -17.1231573,49.635015 -16.9475054,49.708923 -16.7709581,49.7827467 -16.5935503,49.856483 -16.4153175,49.9301286 -16.2362949,50.0036803 -16.0565182,50.0771348 -15.8760232,50.1504888 -15.6948459,50.2237389 -15.5130222,50.2968818 -15.1475809,50.4428322 -14.7799899,50.5883122 -14.4105411,50.7332934 -14.0395272,50.8777471 -13.6672411,51.0216438 -13.2939755,51.1649537 -12.9200221,51.3076462 -12.5456717,51.4496904 -12.1712131,51.5910548 -11.7969329,51.7317074 -11.4231149,51.8716156 -11.0500396,52.0107463 -10.6779839,52.149066 -10.3072201,52.2865406 -9.9380159,52.4231354 -9.570634,52.5588154 -9.3877068,52.6263012 -9.2053311,52.6935449 -9.0235379,52.760542 -8.842358,52.8272879 -8.6618218,52.893778 -8.481959,52.9600078 -8.3027991,53.0259725 -8.124371,53.0916675 -7.9467033,53.157088 -7.7698239,53.2222295 -7.5937603,53.287087 -7.4185393,53.3516557 -7.2441874,53.415931 -7.0707305,53.4799078 -6.8981937,53.5435814 -6.7266018,53.6069468 -6.5559788,53.6699991 -6.3863482,53.7327333 -6.2177326,53.7951444 -6.0501542,53.8572274 -5.8836345,53.9189772 -5.7181942,53.9803887 -5.5538533,54.0414569 -5.390631,54.1021766 -5.228546,54.1625426 -5.0676159,54.2225497 -4.9078578,54.2821927 -4.7492878,54.3414662 -4.5919213,54.4003652 -4.4357728,54.4588841 -4.2808559,54.5170177 -4.1271835,54.5747606 -3.9747675,54.6321073 -3.8236189,54.6890525 -3.6737479,54.7455907 -3.5251638,54.8017164 -3.3778749,54.8574241 -3.2318887,54.9127082 -3.0872116,54.9675632 -2.9438494,55.0219836 -2.8018066,55.0759636 -2.661087,55.1294976 -2.5216932,55.18258 -2.3836272,55.2352052 -2.2468897,55.2873673 -2.1114805,55.3390608 -1.9773985,55.3902797 -1.8446415,55.4410184 -1.7132063,55.4912711 -1.5830889,55.541032 -1.454284,55.5902952 -1.3267856,55.6390549 -1.2005867,55.6873053 -1.0756793,55.7350405 -0.9520547,55.7822546 -0.8297032,55.8289417 -0.7086143,55.8750961 -0.5887767,55.9207118 -0.4701783,55.9657829 -0.3528062,56.0103036 -0.2366468,56.054268 -0.1216858,56.0976703 -0.0079082,56.1405045 0.1047018,56.182765 0.2161604,56.2244458 0.3264847,56.2655412 0.4356922,56.3060454 0.5438012,56.3459527 0.6508303,56.3852572 0.7567989,56.4239534 0.8617267,56.4620355 0.965634,56.4994978 1.0685417,56.5363348 1.1704709,56.5725409 1.2714435,56.6081106 1.3714816,56.6430383 1.4706078,56.6773185 1.5688449,56.7109459 1.6662164,56.7439151 1.762746,56.7762208 1.8584576,56.8078576 1.9533756,56.8388203 2.0475248,56.8691038 2.14093,56.898703 2.2336165,56.9276127 2.3256096,56.9558281 2.4169351,56.983344 2.5076189,57.0101557 2.597687,57.0362584 2.6871657,57.0616473 2.7760814,57.0863176 2.8644605,57.110265 2.9523299,57.1334846 3.039716,57.1559723 3.1266459,57.1777234 3.2131463,57.1987339 3.2992442,57.2189993 3.3849664,57.2385157 3.4703398,57.2572789 3.5553914,57.2752849 3.640148,57.29253 3.7246363,57.3090103 3.8088831,57.3247222 3.892915,57.3396619 3.9767584,57.3538261 4.0604398,57.3672114 4.1439853,57.3798143 4.2274208,57.3916319 4.3107723,57.4026608 4.3940652,57.4128982 4.477325,57.4223413 4.5605766,57.4309872 4.6438448,57.4388333 4.7271541,57.4458771 4.8105286,57.4521162 4.893992,57.4575483 4.9775677,57.4621713 5.0612787,57.4659831 5.1451475,57.468982 5.2291962,57.471166 5.3134466,57.4725336 5.3979196,57.4730834 5.482636,57.4728139 5.5676159,57.4717241 5.6528788,57.4698127 5.7384438,57.467079 5.8243293,57.4635221 5.9105531,57.4591415 5.9971326,57.4539367 6.0840844,57.4479073 6.1714247,57.4410532 6.2591689,57.4333744 6.3473317,57.424871 6.4359275,57.4155433 6.5249697,57.4053917 6.6144712,57.3944167 6.7044442,57.3826192 6.7949001,57.37 6.8858499,57.3565602 6.9773036,57.3423009 7.0692705,57.3272235 7.1617594,57.3113296 7.2547781,57.2946208 7.3483339,57.2770989 7.4424332,57.2587658 7.5370818,57.2396238 7.632285,57.2196751 7.728047,57.198922 7.8243718,57.1773672 7.9212626,57.1550132 8.0187217,57.131863 8.1167512,57.1079194 8.2153524,57.0831855 8.3145259,57.0576645 8.414272,57.0313597 8.5145903,57.0042746 8.6154797,56.9764126 8.7169388,56.9477775 8.8189654,56.9183729 8.9215572,56.8882028 9.024711,56.8572711 9.1284233,56.8255819 9.2326901,56.7931394 9.3375068,56.7599478 9.4428685,56.7260115 9.5487697,56.6913349 9.6552047,56.6559226 9.7621669,56.6197792 9.8696497,56.5829094 9.9776459,56.545318 10.0861478,56.5070099 10.1951473,56.4679901 10.3046361,56.4282636 10.4146052,56.3878354 10.5250455,56.3467108 10.6359472,56.3048951 10.7473004,56.2623935 10.8590946,56.2192115 10.9713193,56.1753544 11.0839631,56.1308279 11.1970147,56.0856374 11.3104624,56.0397887 11.424294,55.9932874 11.538497,55.9461392 11.6530588,55.89835 11.7679664,55.8499255 11.8832064,55.8008717 11.9987653,55.7511944 12.1146293,55.7008997 12.2307841,55.6499935 12.3472155,55.5984819 12.4639089,55.5463708 12.5808496,55.4936665 12.6980224,55.440375 12.8154121,55.3865025 12.9330034,55.332055 13.1687279,55.2214602 13.4050691,55.1086403 13.6418974,54.9936449 13.8790812,54.8765239 14.1164866,54.7573274 14.3539783,54.6361052 14.5914194,54.5129073 14.8286717,54.3877832 15.0655961,54.2607825 15.3020529,54.1319543 15.537902,54.0013476 15.7730033,53.8690107 16.0072166,53.7349915 16.2404026,53.5993373 16.4724228,53.4620946 16.7031399,53.3233091 16.9324184,53.1830256 17.1601244,53.0412879 17.3861265,52.8981386 17.6102958,52.7536191 17.7216537,52.6808582 17.8325063,52.6077697 17.9428384,52.5343584 18.0526349,52.4606291 18.1618809,52.3865865 18.2705617,52.312235 18.3786628,52.2375794 18.48617,52.1626239 18.593069,52.087373 18.6993462,52.0118309 18.8049877,51.9360018 18.9099803,51.8598899 19.0143106,51.7834993 19.1179657,51.7068339 19.2209329,51.6298977 19.3231995,51.5526945 19.4247535,51.4752282 19.5255825,51.3975024 19.625675,51.3195207 19.7250192,51.2412869 19.8236038,51.1628043 19.9214178,51.0840765 20.0184502,51.0051069 20.1146903,50.9258988 20.2101277,50.8464556 20.3047523,50.7667806 20.3985539,50.686877 20.4915228,50.606748 20.5836494,50.5263968 20.6749244,50.4458266 20.7653385,50.3650404 20.854883,50.2840413 20.9435489,50.2028325 21.0313278,50.1214169 21.1182112,50.0397977 21.2041912,49.9579779 21.2892597,49.8759605 21.3734089,49.7937486 21.4566313,49.7113451 21.5389195,49.6287532 21.6202663,49.5459759 21.7006648,49.4630162 21.7801081,49.3798772 21.8585897,49.2965619 21.936103,49.2130736 22.0126418,49.1294152 22.0882002,49.04559 22.1627722,48.961601 22.2363521,48.8774516 22.3089344,48.793145 22.3805138,48.7086844 22.4510852,48.6240731 22.5206436,48.5393145 22.5891842,48.4544119 22.6567024,48.3693689 22.7231938,48.2841889 22.7886541,48.1988754 22.8530792,48.1134321 22.9164653,48.0278626 22.9788086,47.9421707 23.0401056,47.85636 23.1003528,47.7704345 23.159547,47.6843981 23.2176852,47.5982547 23.2747645,47.5120084 23.3307822,47.4256633 23.3857357,47.3392237 23.4396226,47.2526938 23.4924407,47.1660779 23.5441879,47.0793805 23.5948623,46.9926062 23.6444622,46.9057596 23.6929859,46.8188453 23.740432,46.7318682 23.7867993,46.6448333 23.8320865,46.5577454 23.8762928,46.4706097 23.9194172,46.3834314 23.9614592,46.2962159 24.0024181,46.2089686 24.0422936,46.1216951 24.0810853,46.0344011 24.1187933,45.9470925 24.1554174,45.8597752 24.1909579,45.7724554 24.225415,45.6851392 24.2587892,45.5978332 24.291081,45.5105439 24.3222911,45.423278 24.3524203,45.3360424 24.3814694,45.2488443 24.4094396,45.1616907 24.436332,45.0745892 24.462148,44.9875472 24.4868888,44.9005726 24.5105561,44.8136733 24.5331515,44.7268573 24.5546769,44.6401329 24.5751341,44.5535085 24.5945252,44.4669926 24.6128524,44.3805939 24.6301181,44.2943212 24.6463246,44.2081836 24.6614747,44.1221902 24.6755711,44.0363502 24.6886166,43.9506731 24.7006144,43.8651684 24.7115675,43.7798458 24.7214795,43.6947151 24.7303536,43.6097862 24.7381936,43.5250692 24.7450033,43.4405742 24.7507867,43.3563115 24.7555478,43.2722913 24.7592911,43.1885242 24.7620211,43.1050205 24.7637426,43.0217907 24.7644604,42.9388453 24.7641799,42.8561947 24.7629064,42.7738494 24.7606456,42.6918198 24.7574035,42.6101163 24.7531862,42.5287492 24.7480003,42.4477286 24.7418526,42.3670647 24.7347501,42.2867674 24.7267002,42.2068467 24.7177105,42.1273122 24.7077892,42.0481734 24.6969445,41.9694398 24.6851853,41.8911204 24.6725204,41.8132243 24.6589594,41.7357601 24.6445119,41.6587364 24.6291881,41.5821614 24.6129986,41.5060433 24.5959541,41.4303897 24.5780658,41.3552082 24.5593455,41.2805059 24.5398051,41.2062899 24.5194571,41.1325668 24.4983142,41.0593428 24.4763897,40.9866241 24.4536972,40.9144162 24.4302507,40.8427244 24.4060647,40.7715538 24.3811541,40.700909 24.3555342,40.6307941 24.3292208,40.5612131 24.3022301,40.4921692 24.2745787,40.4236656 24.246284,40.3557048 24.2173634,40.2882889 24.1878352,40.2214194 24.1577181,40.1550975 24.1270312,40.0893238 24.0957944,40.0240983 24.064028,39.9594204 24.0317529,39.8952892 23.9989906,39.8317029 23.9657632,39.7686591 23.9320933,39.706155 23.8980044,39.644187 23.8635203,39.5827508 23.8286657,39.5218415 23.793466,39.4614534 23.7221353,39.3422147 23.6497439,39.2249752 23.5765169,39.1096647 23.5026885,38.9962025 23.428501,38.8844984 23.354204,38.7744527 23.2800537,38.6659575 23.2063117,38.5588964 23.1332448,38.4531459 23.0611236,38.3485754 22.9902219,38.245048 22.9208155,38.1424215 22.8531811,38.0405492 22.7875949,37.9392807 22.7556558,37.8888253 22.7243315,37.8384633 22.6936561,37.7881753 22.663663,37.7379421 22.6343858,37.687744 22.6058574,37.6375617 22.5781106,37.5873758 22.5511776,37.5371669 22.5250903,37.4869157 22.4998802,37.4366032 22.4755781,37.3862103 22.4522144,37.3357183 22.4298188,37.2851086 22.4084206,37.2343628 22.3880481,37.1834629 22.3687293,37.1323909 22.3504912,37.0811296 22.33336,37.0296616 22.3173613,36.9779704 22.3025198,36.9260394 22.2888591,36.8738529 22.2764022,36.8213954 22.2651708,36.7686519 22.2551859,36.715608 22.2464673,36.6622498 22.2390338,36.6085641 22.2329031,36.554538 22.2280916,36.5001595 22.2246146,36.4454172 22.2224864,36.3903004 22.2217199,36.3347988 22.2223269,36.2789031 22.2243182,36.2226044 22.2277035,36.1658944 22.2324911,36.1087656 22.2386885,36.0512108 22.2463022,35.9932238 22.2553372,35.9347986 22.265798,35.8759299 22.2776878,35.8166132 22.2910087,35.7568442 22.3057619,35.6966195 22.3219478,35.6359359 22.3395657,35.574791 22.3586137,35.5131828 22.3790893,35.4511099 22.400989,35.3885713 22.4243084,35.3255667 22.449042,35.262096 22.4751838,35.1981597 22.5027268,35.133759 22.531663,35.0688951 22.561984,35.0035699 22.5936803,34.9377858 22.6267418,34.8715453 22.6611578,34.8048515 22.6969166,34.7377079 22.7340062,34.6701181 22.7724137,34.6020863 22.8121256,34.5336169 22.853128,34.4647147 22.8954061,34.3953847 22.9389448,34.3256322 22.9837285,34.2554628 23.0297408,34.1848823 23.0769652,34.1138969 23.1253845,34.0425127 23.1749811,33.9707364 23.2257369,33.8985746 23.2776337,33.8260342 23.3306525,33.7531223 23.3847743,33.6798462 23.4399795,33.6062132 23.4962484,33.5322309 23.5535608,33.4579069 23.6118962,33.3832491 23.6712341,33.3082654 23.7315535,33.2329637 23.7928332,33.1573521 23.8550519,33.0814388 23.918188,33.0052319 23.9822199,32.9287398 24.0471256,32.8519708 24.1128831,32.7749331 24.1794704,32.6976351 24.2468653,32.6200851 24.3150455,32.5422914 24.3839887,32.4642624 24.4536726,32.3860063 24.5240749,32.3075312 24.5951734,32.2288453 24.6669457,32.1499565 24.7393699,32.0708729 24.8124238,31.9916021 24.8860855,31.912152 24.9603333,31.8325298 25.1105009,31.6727991 25.2627565,31.5124665 25.4169338,31.3515854 25.5728711,31.1902053 25.730412,31.0283719 25.889405,30.8661266 26.0497039,30.7035069 26.2111678,30.5405465 26.3736607,30.3772752 26.5370516,30.2137189 26.7012148,30.0498999 27.0313796,29.7215446 27.3632478,29.3923157 27.6959887,29.0622653 28.0288431,28.7313964 28.3611182,28.3996675 28.6921824,28.0669974 29.02146,27.7332703 29.1852633,27.5659657 29.3484274,27.3983398 29.5108942,27.23037 29.6726087,27.0620327 29.8335182,26.8933026 29.9935725,26.7241534 30.1527241,26.5545579 30.3109275,26.3844878 30.4681396,26.213914 30.624319,26.042807 30.7794264,25.8711364 30.9334242,25.6988718 31.0862765,25.5259822 31.2379487,25.3524366 31.3884077,25.1782041 31.5376216,25.0032538 31.6855596,24.827555 31.8321917,24.6510775 31.977489,24.4737918 32.121423,24.2956686 32.2639658,24.11668 32.4050901,23.9367986 32.5447684,23.7559985 32.6829738,23.5742546 32.8196791,23.3915437 32.954857,23.2078438 33.0884798,23.0231346 33.2205197,22.8373976 33.3509481,22.6506161 33.4797361,22.4627753 33.6068541,22.2738624 33.7322716,22.0838666 33.8559575,21.8927794 33.9778795,21.7005945 34.0980046,21.507308 34.2162984,21.3129183 34.3327257,21.117426 34.4472504,20.920834 34.5598355,20.7231473 34.6704431,20.5243728 34.7790346,20.3245194 34.8855709,20.1235978 34.990012,19.9216204 35.0923175,19.7186013 35.1426566,19.6167059 35.1924464,19.5145561 35.2416818,19.412154 35.2903575,19.3095019 35.3384683,19.2066022 35.3860089,19.1034574 35.4329741,19.0000698 35.4793584,18.8964423 35.5251567,18.7925774 35.5703636,18.688478 35.6149736,18.5841469 35.6589814,18.479587 35.7023817,18.3748014 35.7451689,18.269793 35.7873377,18.1645651 35.8288826,18.0591208 35.8697981,17.9534635 35.9100789,17.8475964 35.9497194,17.741523 35.9887141,17.6352467 36.0270576,17.5287711 36.0647443,17.4220997 36.1017688,17.3152361 36.1381255,17.2081841 36.173809,17.1009472 36.2088138,16.9935294 36.2431343,16.8859344 36.276765,16.7781662 36.3097005,16.6702284 36.3419354,16.5621252 36.373464,16.4538605 36.4042809,16.3454382 36.4343808,16.2368625 36.4637581,16.1281373 36.4924074,16.0192667 36.5203233,15.9102549 36.5475004,15.801106 36.5739334,15.6918241 36.5996168,15.5824134 36.6245454,15.472878 36.6487137,15.3632222 36.6721167,15.2534502 36.6947488,15.1435662 36.716605,15.0335743 36.73768,14.9234789 36.7579685,14.8132841 36.7774656,14.7029942 36.796166,14.5926134 36.8140645,14.4821459 36.8311563,14.371596 36.8474362,14.2609678 36.8628993,14.1502656 36.8775405,14.0394935 36.8913551,13.9286558 36.904338,13.8177566 36.9164845,13.7068001 36.9277898,13.5957903 36.9382492,13.4847314 36.9478578,13.3736275 36.9566111,13.2624826 36.9645045,13.1513008 36.9715334,13.040086 36.9776932,12.9288422 36.9829796,12.8175734 36.9873882,12.7062834 36.9909145,12.5949761 36.9935544,12.4836553 36.9953035,12.3723247 36.9961578,12.2609881 36.9961131,12.1496491 36.9951653,12.0383114 36.9933106,11.9269785 36.9905449,11.8156539 36.9868644,11.7043411 36.9822655,11.5930434 36.9767442,11.4817641 36.9702971,11.3705067 36.9629206,11.2592741 36.954611,11.1480697 36.9453651,11.0368965 36.9351794,10.9257576 36.9240506,10.8146558 36.9119754,10.7035942 36.8989507,10.5925757 36.8849734,10.4816029 36.8700403,10.3706788 36.8541486,10.2598059 36.8372952,10.1489871 36.8194772,10.0382247 36.800692,9.9275215 36.7809366,9.8168798 36.7602085,9.7063021 36.7385049,9.5957909 36.7158234,9.4853483 36.6921613,9.3749767 36.6675163,9.2646784 36.6418859,9.1544555 36.6152678,9.0443101 36.5876597,8.9342443 36.5590593,8.8242602 36.5294644,8.7143597 36.498873,8.6045447 36.4672829,8.4948172 36.4346921,8.3851789 36.4010987,8.2756318 36.3665007,8.1661775 36.3308962,8.0568177 36.2942834,7.9475541 36.2566605,7.8383884 36.2180258,7.7293221 36.1783775,7.6203567 36.1377142,7.5114938 36.096034,7.4027347 36.0533356,7.294081 36.0096174,7.1855341 35.9648779,7.0770951 35.9191157,6.9687655 35.8723294,6.8605465 35.8245178,6.7524393 35.7756794,6.6444452 35.7258131,6.5365652 35.6749175,6.4288006 35.6229917,6.3211523 35.5700343,6.2136214 35.5160443,6.106209 35.4610207,5.998916 35.4049624,5.8917434 35.3478685,5.7846921 35.2897379,5.6777629 35.2305697,5.5709568 35.1703631,5.4642745 35.1091172,5.3577169 35.0468313,5.2512847 34.9835044,5.1449786 34.9191359,5.0387993 34.8537249,4.9327476 34.787271,4.826824 34.7197733,4.7210293 34.6512312,4.6153639 34.5816441,4.5098284 34.5110115,4.4044235 34.4393328,4.2991496 34.3666074,4.1940072 34.2928349,4.0889969 34.2180147,3.9841189 34.1421465,3.8793739 34.0652298,3.7747621 33.9872643,3.670284 33.9082494,3.56594 33.8281849,3.4617303 33.7470704,3.3576554 33.6649055,3.2537155 33.5816901,3.1499109 33.4974239,3.0462418 33.4121064,2.9427087 33.3257376,2.8393116 33.2383172,2.7360508 33.149845,2.6329265 33.0603207,2.5299389 32.9697443,2.4270882 32.8781155,2.3243745 32.7854342,2.221798 32.6917003,2.1193589 32.5969136,2.0170572 32.501074,1.9148931 32.4041815,1.8128667 32.3062359,1.710978 32.2072372,1.6092272 32.1071853,1.5076143 32.0060802,1.4061394 31.9039218,1.3048026 31.80071,1.2036038 31.6964448,1.1025432 31.5911262,1.0016208 31.4847542,0.9008365 31.3773287,0.8001905 31.2688498,0.6996828 31.1593174,0.5993132 31.0487315,0.499082 30.9370922,0.398989 30.8243994,0.2990343 30.710653,0.1992179 30.5958533,0.0995398 30.48,0 0,0 -0,-30.48z" fill="rgb(0,0,0)" shaper:cutDepth="0.00635" shaper:pathType="exterior" transform="matrix(1,0,0,-1,47.8608056,57.4730834)" vector-effect="non-scaling-stroke" /><path d="M-12.7799716,-24.1808945 a0.555625,0.555625 0 1,1 1.11125,0 a0.555625,0.555625 0 1,1 -1.11125,0z" fill="rgb(255,255,255)" shaper:cutDepth="0.00635" shaper:pathType="interior" stroke="rgb(0,0,0)" transform="matrix(1,0,0,-1,47.8608056,57.4730834)" vector-effect="non-scaling-stroke" /><path d="M-26.6493053,5.2287769 a0.555625,0.555625 0 1,1 1.11125,0 a0.555625,0.555625 0 1,1 -1.11125,0z" fill="rgb(255,255,255)" shaper:cutDepth="0.00635" shaper:pathType="interior" stroke="rgb(0,0,0)" transform="matrix(1,0,0,-1,47.8608056,57.4730834)" vector-effect="non-scaling-stroke" /><path d="M23.8150172,11.1608413 a0.555625,0.555625 0 1,1 1.11125,0 a0.555625,0.555625 0 1,1 -1.11125,0z" fill="rgb(255,255,255)" shaper:cutDepth="0.00635" shaper:pathType="interior" stroke="rgb(0,0,0)" transform="matrix(1,0,0,-1,47.8608056,57.4730834)" vector-effect="non-scaling-stroke" /><path d="M4.4313702,37.9804564 a0.555625,0.555625 0 1,1 1.11125,0 a0.555625,0.555625 0 1,1 -1.11125,0z" fill="rgb(255,255,255)" shaper:cutDepth="0.00635" shaper:pathType="interior" stroke="rgb(0,0,0)" transform="matrix(1,0,0,-1,47.8608056,57.4730834)" vector-effect="non-scaling-stroke" /></svg>