<?xml version="1.0" encoding="utf-8"?>
<!-- Generator: Fusion 360, Shaper Origin Export Add-In, Version 1.5.0  -->
<svg enable-background="new 0 0 6.35 6.35" height="6.35cm" shaper:fusionaddin="version:1.5.0" version="1.1" viewBox="0 0 6.35 6.35" width="6.35cm" x="0cm" xml:space="preserve" xmlns="http://www.w3.org/2000/svg" xmlns:shaper="http://www.shapertools.com/namespaces/shaper" xmlns:xlink="http://www.w3.org/1999/xlink" y="0cm"><path d="M15.1563822,-4.3799888 a3.175,3.175 0 1,1 6.35,0 a3.175,3.175 0 1,1 -6.35,0z" fill="rgb(0,0,0)" shaper:cutDepth="0.00635" shaper:pathType="exterior" transform="matrix(1,0,0,-1,-15.1563822,-1.2049888)" vector-effect="non-scaling-stroke" /><path d="M17.7757572,-6.4437388 a0.555625,0.555625 0 1,1 1.11125,0 a0.555625,0.555625 0 1,1 -1.11125,0z" fill="rgb(255,255,255)" shaper:cutDepth="0.00635" shaper:pathType="interior" stroke="rgb(0,0,0)" transform="matrix(1,0,0,-1,-15.1563822,-1.2049888)" vector-effect="non-scaling-stroke" /><path d="M19.8395072,-4.3799888 a0.555625,0.555625 0 1,1 1.11125,0 a0.555625,0.555625 0 1,1 -1.11125,0z" fill="rgb(255,255,255)" shaper:cutDepth="0.00635" shaper:pathType="interior" stroke="rgb(0,0,0)" transform="matrix(1,0,0,-1,-15.1563822,-1.2049888)" vector-effect="non-scaling-stroke" /><path d="M17.7757572,-2.3162388 a0.555625,0.555625 0 1,1 1.11125,0 a0.555625,0.555625 0 1,1 -1.11125,0z" fill="rgb(255,255,255)" shaper:cutDepth="0.00635" shaper:pathType="interior" stroke="rgb(0,0,0)" transform="matrix(1,0,0,-1,-15.1563822,-1.2049888)" vector-effect="non-scaling-stroke" /><path d="M15.7120072,-4.3799888 a0.555625,0.555625 0 1,1 1.11125,0 a0.555625,0.555625 0 1,1 -1.11125,0z" fill="rgb(255,255,255)" shaper:cutDepth="0.00635" shaper:pathType="interior" stroke="rgb(0,0,0)" transform="matrix(1,0,0,-1,-15.1563822,-1.2049888)" vector-effect="non-scaling-stroke" /></svg>