solid OpenSCAD_Model
  facet normal 1 -0 0
    outer loop
      vertex 50.8 0 20.0406
      vertex 50.8 50.8 0
      vertex 50.8 50.8 20.0406
    endloop
  endfacet
  facet normal 1 0 0
    outer loop
      vertex 50.8 50.8 0
      vertex 50.8 0 20.0406
      vertex 50.8 0 0
    endloop
  endfacet
  facet normal -0 0 1
    outer loop
      vertex 0 50.8 20.0406
      vertex 50.8 0 20.0406
      vertex 50.8 50.8 20.0406
    endloop
  endfacet
  facet normal 0 0 1
    outer loop
      vertex 50.8 0 20.0406
      vertex 0 50.8 20.0406
      vertex 0 0 20.0406
    endloop
  endfacet
  facet normal 0 0 -1
    outer loop
      vertex 0 0 0
      vertex 50.8 50.8 0
      vertex 50.8 0 0
    endloop
  endfacet
  facet normal -0 0 -1
    outer loop
      vertex 50.8 50.8 0
      vertex 0 0 0
      vertex 0 50.8 0
    endloop
  endfacet
  facet normal -1 0 0
    outer loop
      vertex 0 0 0
      vertex 0 50.8 20.0406
      vertex 0 50.8 0
    endloop
  endfacet
  facet normal -1 -0 0
    outer loop
      vertex 0 50.8 20.0406
      vertex 0 0 0
      vertex 0 0 20.0406
    endloop
  endfacet
  facet normal 0 1 -0
    outer loop
      vertex 50.8 50.8 0
      vertex 0 50.8 20.0406
      vertex 50.8 50.8 20.0406
    endloop
  endfacet
  facet normal 0 1 0
    outer loop
      vertex 0 50.8 20.0406
      vertex 50.8 50.8 0
      vertex 0 50.8 0
    endloop
  endfacet
  facet normal 0 -1 0
    outer loop
      vertex 0 0 0
      vertex 50.8 0 20.0406
      vertex 0 0 20.0406
    endloop
  endfacet
  facet normal 0 -1 -0
    outer loop
      vertex 50.8 0 20.0406
      vertex 0 0 0
      vertex 50.8 0 0
    endloop
  endfacet
endsolid OpenSCAD_Model
