<?xml version="1.0" encoding="utf-8"?>
<!-- Generator: Adobe Illustrator 16.0.0, SVG Export Plug-In . SVG Version: 6.00 Build 0)  -->
<!DOCTYPE svg PUBLIC "-//W3C//DTD SVG 1.1//EN" "http://www.w3.org/Graphics/SVG/1.1/DTD/svg11.dtd">
<svg version="1.1" id="Layer_1" xmlns="http://www.w3.org/2000/svg" xmlns:xlink="http://www.w3.org/1999/xlink" x="0px" y="0px"
	 width="386.405px" height="575.781px" viewBox="0 0 386.405 575.781" enable-background="new 0 0 386.405 575.781"
	 xml:space="preserve">
<g>
	<path fill-rule="evenodd" clip-rule="evenodd" d="M94.915,379.6c-1.431,0-2.803-0.128-4.078-0.38
		c-4.927-0.974-10.182-3.46-13.722-5.375l-0.863-0.46c-1.479-0.783-3.008-1.593-4.372-2.786c-0.703-0.615-0.977-1.393-1.196-2.018
		c-0.32-0.907-0.471-1.224-1.276-1.271c-0.957-0.054-1.782-0.489-2.581-0.909c-0.701-0.37-1.363-0.719-1.983-0.719
		c-0.059,0-0.117,0.003-0.176,0.009c-0.123,0.014-0.246,0.021-0.37,0.021c-1.957,0-3.846-1.618-5.513-3.046
		c-0.272-0.233-0.537-0.46-0.792-0.67c-3.221-2.659-7.31-6.775-8.492-11.287c-0.176-0.673-0.359-1.344-0.542-2.015
		c-0.45-1.653-0.916-3.363-1.274-5.084c-0.246-1.181-0.621-2.392-0.984-3.562c-0.403-1.299-0.784-2.525-0.996-3.703
		c-0.323-1.788-0.969-3.437-1.654-5.183c-0.967-2.463-1.966-5.011-1.966-7.961h0.538l0.038-0.031l-0.557-0.133
		c0.636-2.68,0.934-5.469,1.221-8.166c0.429-4.019,0.873-8.175,2.435-12.165c1.061-2.711,2.618-5.645,4.382-8.259
		c0.574-0.85,1.141-1.916,1.741-3.044c1.196-2.247,2.432-4.571,4.073-5.928c2.236-1.848,4.275-4.035,5.596-6
		c0.531-0.79,1.133-1.578,1.715-2.34c1.488-1.948,3.028-3.963,3.572-6.239c0.329-1.374,0.436-2.877,0.54-4.331
		c0.027-0.386,0.055-0.77,0.086-1.149c-0.121-0.33-1.5-1.353-2.162-1.844c-0.566-0.42-1.014-0.753-1.262-1.018
		c-1.916-2.056-2.95-4.188-4.045-6.446c-0.389-0.802-0.787-1.623-1.237-2.465c-2.603-4.861-4.003-10.57-5.356-16.091
		c-0.283-1.156-0.563-2.298-0.851-3.414c-1.524-5.924,0.78-10.137,3.219-14.598c0.871-1.593,1.772-3.24,2.507-4.999
		c0.701-1.678,2.16-5.169,5.646-5.169c0.194,0,0.395,0.011,0.602,0.033c0.05,0.005,0.101,0.008,0.152,0.008
		c1.261,0,2.935-1.521,4.281-2.743c0.647-0.588,1.259-1.143,1.801-1.517c0.9-0.62,1.655-1.303,2.384-1.964
		c1.373-1.244,2.792-2.531,5.102-3.276c0.475-0.153,0.966-0.228,1.502-0.228c0.406,0,0.784,0.043,1.131,0.084
		c0.245,0.029,0.471,0.058,0.679,0.058c0.312,0,0.558,0,0.767-0.938l0.162-0.724l1.534,0.422c1.174,0.33,1.882,0.529,2.807,0.529
		c0.488,0,1.025-0.056,1.692-0.175l0.147-0.027c2.102-0.378,4.088-0.735,6.194-0.735c0.67,0,1.31,0.035,1.956,0.108
		c1.852,0.208,3.796,0.269,5.676,0.328c4.148,0.13,8.438,0.265,12.372,1.944c1.75,0.747,3.507,1.237,5.208,1.71
		c3.274,0.912,6.367,1.773,9.345,4.291c4.062,3.436,7.871,8.294,10.652,11.842c0.995,1.269,1.546,2.784,2.079,4.25
		c0.356,0.981,0.693,1.908,1.152,2.759c0.506,0.939,1.084,1.871,1.643,2.771c0.831,1.339,1.69,2.725,2.369,4.214
		c0.742,1.63,1.262,3.342,1.766,4.998c0.317,1.044,0.646,2.124,1.022,3.156c0.619,1.692,1.468,3.411,2.291,5.073
		c0.578,1.168,1.175,2.376,1.692,3.573c4.053,9.393,6.253,18.85,8.583,28.863l0.338,1.453c0.148,0.633,0.343,1.246,0.55,1.895
		c0.177,0.556,0.354,1.111,0.499,1.677c0.169,0.659-0.161,1.213-0.426,1.659c-0.164,0.275-0.333,0.559-0.318,0.759
		c0.045,0.608,0.048,1.182,0.051,1.745c0.004,0.994,0.009,1.934,0.265,2.969c1.097,4.438,1.028,8.441,0.955,12.681
		c-0.017,0.983-0.034,1.982-0.038,3.008c-0.008,2.713-0.064,5.165-0.676,7.7c-0.138,0.572-0.079,0.659,0.139,0.985
		c0.173,0.26,0.411,0.615,0.585,1.21c0.235,0.803,0.107,1.594-0.006,2.292c-0.068,0.423-0.133,0.822-0.118,1.19
		c0.191,4.62-1.298,8.134-2.874,11.854c-0.573,1.352-1.166,2.75-1.692,4.239c-1.537,4.349-3.45,8.574-5.685,12.56
		c-0.356,0.636-0.96,1.337-1.6,2.078c-0.818,0.95-1.746,2.026-1.904,2.742c-0.419,1.897-3.72,5.864-4.875,7.095
		c-9.592,10.212-18.902,15.39-27.67,15.391c-1.268,0-2.537-0.112-3.773-0.335c-0.592-0.106-1.17-0.158-1.766-0.158
		c-1.121,0-2.16,0.181-3.363,0.39l-0.921,0.157c-0.726,0.119-1.396,0.645-2.106,1.2c-0.58,0.453-1.18,0.923-1.874,1.223
		C101.556,378.933,98.201,379.6,94.915,379.6z M60.719,289.301c-0.544,2.2-2.13,3.994-3.67,5.735
		c-1.616,1.827-3.142,3.554-3.487,5.647c-0.332,2.013-0.745,4.021-1.144,5.961c-0.619,3.007-1.258,6.115-1.595,9.258
		c-0.577,5.381-0.16,10.007,1.394,15.469c0.446,1.566,0.802,3.142,1.146,4.666c0.979,4.332,1.902,8.425,4.732,12.027
		c1.444,1.838,2.78,3.767,4.072,5.632c1.597,2.307,3.248,4.691,5.099,6.892c1.539,1.828,3.366,3.458,5.421,5.247
		c1.323,1.151,3.367,1.62,5.343,2.072c0.662,0.152,1.307,0.3,1.906,0.47c4.331,1.222,9.243,1.655,13.994,2.074l2.124,0.189
		c0.437,0.041,0.871,0.058,1.303,0.058c1.368,0,2.703-0.169,4.117-0.348c0.738-0.094,1.478-0.187,2.224-0.256
		c1.205-0.111,2.474-0.123,3.702-0.134c2.274-0.021,4.625-0.044,6.652-0.696l0.521-0.168c10.944-3.523,22.261-7.167,29.466-16.318
		c2.053-2.607,3.675-5.581,5.244-8.458c0.736-1.351,1.499-2.747,2.299-4.096c3.143-5.3,5.741-10.9,7.314-15.77
		c0.046-0.144,0.133-0.369,0.241-0.65c1.122-2.911,1.06-3.67,0.924-3.864c-2.23-1.339-1.992-3.978-1.817-5.904
		c0.023-0.254,0.045-0.501,0.062-0.738c0.13-1.891,0.341-3.85,0.544-5.745c0.396-3.697,0.807-7.521,0.665-11.119
		c-0.058-1.464-0.605-3.174-1.134-4.827c-0.355-1.11-0.722-2.259-0.936-3.324c-0.317-1.579-0.488-3.179-0.653-4.726
		c-0.154-1.443-0.314-2.935-0.591-4.375c-0.328-1.702-0.537-3.435-0.739-5.111c-0.536-4.448-1.042-8.649-3.604-12.291
		c-3.206-4.558-4.91-9.996-6.557-15.256c-1.013-3.236-2.061-6.581-3.436-9.596c-0.799-1.752-1.693-3.489-2.557-5.169
		c-1.206-2.345-2.453-4.77-3.483-7.305c-1.511-3.719-3.845-6.207-6.548-9.087c-0.388-0.413-0.78-0.831-1.176-1.26
		c-2.634-2.85-7.265-4.666-10.987-6.125l-0.438-0.171c-3.423-1.345-7.412-2.719-11.032-2.719c-0.299,0-0.595,0.01-0.888,0.03
		c-0.964,0.066-1.875,0.098-2.786,0.098c-2.261,0-4.503-0.208-6.854-0.636c-0.894-0.163-1.786-0.354-2.677-0.544
		c-1.131-0.242-2.3-0.492-3.447-0.675c-0.451-0.072-1.653-0.501-4.004-1.43c-0.166,0.264-0.378,0.611-0.552,0.896
		c-0.357,0.586-0.6,0.983-0.78,1.252c0.221,1.356-1.51,2.384-2.587,3.023c-0.214,0.127-0.399,0.236-0.522,0.323
		c-0.499,0.355-1.32,0.681-2.189,1.025c-0.663,0.263-1.665,0.661-1.858,0.866c-0.535,0.611-1.095,0.896-1.763,0.896
		c-0.211,0-0.42-0.03-0.634-0.063c-0.153-0.024-0.31-0.051-0.478-0.051c-0.205,0-0.466,0.039-0.85,0.326
		c-0.757,0.568-1.716,1.08-2.732,1.622c-1.761,0.939-3.582,1.911-4.308,3.157c-0.432,0.743-0.65,1.579-0.881,2.464
		c-0.24,0.921-0.488,1.874-0.998,2.774c-0.355,0.628-0.741,1.235-1.125,1.839c-0.789,1.241-1.535,2.413-2.009,3.751
		c-2.871,8.103,1.3,18.597,5.743,25.122c1.583,2.325,2.819,4.361,3.887,6.408c0.535,1.025,0.621,1.988,0.705,2.919
		c0.065,0.728,0.127,1.415,0.411,2.084l0.17,0.403c1.639,3.865,2.949,6.956,0.649,10.92c0.13,0.186,0.19,0.398,0.197,0.597
		c0.025,0.683-0.55,1.443-1.171,1.828c-0.173,1.546-1.157,3.106-1.962,4.383l-0.197,0.313c-0.045,0.072-4.452,6.549-7.644,7.833
		l-0.065,0.438C61.445,289.287,60.741,289.303,60.719,289.301z"/>
	<path fill-rule="evenodd" clip-rule="evenodd" d="M102.721,341.848c-0.278,0.969-1.513,0.872-2.237,0.216
		c-0.728,1.199-1.958,0.877-3.091,1.916c0.713-1.25,0.582-1.325-0.374-0.3c0.173-1.245-1.778,0.065-2.15,0.703
		c0.124-1.043-0.153-1.104-0.831-0.18c-0.282-1.186-0.792-1.277-1.533-0.274c-0.871-1.851-1.788,0.238-1.952-1.716
		c-0.749,0.973-2.506-0.169-2.93-1.271c-0.66,0.407-1.048,0.16-1.541-0.275c-0.966-0.854-4.204-2.562-2.467-3.724
		c-1.705,0-1.589-1.714-2.588-2.881c-0.674-0.787-1.259-1.634-1.133-2.734c-0.583,0.124-2.04-0.479-0.713-0.582
		c-1.16-0.883,0.755-0.373-0.134-1.434c1.03,0.953,2.092-0.16,3.201,0.406c-0.242-1.608-0.167-2.522-0.026-3.942
		c0.124-1.242-0.776-4.709,1.198-4.222c-1.897-1.711-1.222-7.051,0.91-8.308c-2.559-0.3,0.17-8.211-0.673-9.914
		c-0.265-0.535-2.33-3.335-2.217-3.693c0.361-1.151,1.138-1.892-0.024-2.729c-0.681-0.49-1.478-1.062-1.567-1.901
		c-0.553-5.2,8.876,1.693,9.869,2.368c0.906,0.615,5.365,2.861,4.351,4.277c-0.541,0.756-1.056,1.41-1.854,1.967
		c-0.436-1.271,1.754,3.549-0.012,2.412c1.554,1.007,1.513,9.34-0.342,9.837c1.785,0.484-0.371,1.014,1.253,1.916
		c-0.686,1.206-0.037,1.377-1.312,2.288c0.957,0.658,0.727,2.642-0.567,2.465c-0.035,0.688,0.278,1.028,0.941,1.023
		c-1.857,0.688,0.509,1.146-1.499,1.464c0.707,0.313,1.439,0.292,1.157,1.09c-0.103,0.292,0.449,1.353-0.117,1.374
		c-0.095-0.876-2.668-0.499-1.61-1.827c-2.21,1.046,1.419,0.835-0.609,2.109c0.567,0.312,1.184,0.413,1.851,0.301
		c0.408,0.712-0.798,0.931-0.775,1.68c2.068-1.417,0.294,2.13,1.702,3.07c0.818,0.547,1.92,0.001,2.851,0.04
		c2.943,0.122,5.667-0.519,8.736-0.351c4.187,0.229,8.507,0.385,12.693,0.199c3.78-0.168,7.829,0.111,8.677-4.117
		c1.007-5.02,4.25,2.185,5.01,3.336c0.561,0.864,1.578,1.113,2.148,1.915c1.13,1.588-0.314,2.109-0.689,3.166
		c-1.241,3.499-7.432,1.585-10.194,2.136c-1.459,0.29-2.894,0.078-4.339,0.295c-0.91,0.136-0.889-0.999-1.747-1.237
		c1.001,1.939-0.879,1.331-2.682,1.591c-1.182,0.17-1.813,0.572-2.65-0.245c0.119,1.117-4.094,0.776-5.157,2.57
		c-0.796-1.604-2.615,0.54-1.839-1.07c-1.043,0.221-2.2-0.134-1.636,1.134C101.789,341.716,102.209,341.604,102.721,341.848
		C102.628,342.171,102.201,341.493,102.721,341.848z"/>
	<path fill-rule="evenodd" clip-rule="evenodd" d="M123.511,241.754c-0.621-3.918-0.507-7.279-1.105-9.593
		c-0.397-1.542-3.618,1.156-3.768-0.546c-3.82,1.933-8.268,1.612-12.448,1.282c0.498,2.495,2.12,3.171,3.759,5.933
		c0.637,1.072,1.737,1.69,2.213,2.99c0.123,0.739-0.03,1.351-0.456,1.835c0.472,0.956,0.943,1.911,1.415,2.867
		c-0.888,0.811-1.776,1.623-2.664,2.435c-2.243,2.051-0.454,1.897-1.258,5.245c-0.411,1.704-0.528,3.673-0.668,5.504
		c-0.373,4.905-0.432,11.431-3.952,11.773c0.49,2.573-3.027,0.004-3.726-0.648c-2.434-2.27-1.393-10.424,0.135-13.518
		c-1.279,0.25-0.478-5.151-0.384-7.1c0.13-2.759,0.458-5.666,0.355-8.434c-0.101-2.704-1.142-5.61-1.416-7.263
		c-0.243-1.464-2.895-1.571-3.983-1.786c-0.423,0.604-0.921-1.383-1.306-1.73c-0.948-0.857-1.342-1.081-1.773-2.417
		c0.238-0.25,0.731-1.981,0.684-2.421c1.67,0.373,1.708-0.714,2.583-0.44c0.571,0.179,0.464,0.775,1.152,0.813
		c0.442,0.025,1.426,0.476,2.054,0.525c0.619-0.963,3.269-0.632,4.187-0.553c0.585,0.05,1.462-0.293,1.972-0.104
		c1.701,0.632,1.907,0.093,3.507-0.031c1.357-0.105,0.644,1.094,1.816,0.061c1.292-1.138,2.196,0.945,2.873-0.867
		c0.38,1.224,1.465,0.525,2.85,0.146c1.506-0.412,3.016,0.184,2.622-1.624c1.209,0.497,5.104-2.178,4.867,0.834
		c0.548-0.277,1.029,0.52,1.314-0.406c0.607,0.605,6.511,1.755,6.451,3.411c-0.069,1.934,1.357,1.706,0.338,3.742
		c-0.494,0.99-0.403,6.838,0.241,6.729c-0.655,1.078-0.293,4.034-0.55,5.501c-0.455,2.605-1.822,4.654-2.128,7.197
		c-0.231,1.917-0.087,4.651-0.698,6.332c-0.904,2.485-1.962,4.969-2.61,7.655c-0.472,1.954-2.28,1.177-3.212,0.544
		c-1.229-0.833-1.04-5.474-0.946-7.073c0.159-2.763,0.803-5.496,1.436-8.062C123.714,248.741,122.831,242.39,123.511,241.754
		C123.372,240.875,123.543,241.724,123.511,241.754z M104.503,233.084c-0.292,0.526-0.032,0.903,0.78,1.13
		C105.298,233.063,105.362,233.28,104.503,233.084C104.465,233.199,104.768,233.144,104.503,233.084z"/>
	<path fill-rule="evenodd" clip-rule="evenodd" d="M105.023,299.575c-2.194,0-4.31,0.399-6.211,0.483
		c-2.798,0.124-7.447-2.984-9.129-5.041c-0.693-0.848-3.098-5.825-2.54-6.67c1.435-2.168,6.172,0.867,8.54,0.317
		c3.365-0.782,7.002-0.96,10.458-0.867c1.773,0.05,3.393,0.169,5.067,0.005c1.217-0.12,4.226,0.459,5.102-0.374
		c2.673-2.536,8.017,0.406,10.515,2.048c1.278,0.84,5.257,4.696,5.186,5.469c-1.44-0.12-1.541-0.096-2.401,1.058
		c3.732,1.608,1.931,3.36-0.906,1.687c-2.109,2.54-5.897-1.257-8.808,0.147c-2.458,1.188-6.04,0.409-8.558,0.425
		C109.941,298.27,106.101,298.74,105.023,299.575C104.503,299.575,105.169,299.461,105.023,299.575z"/>
	<path fill-rule="evenodd" clip-rule="evenodd" d="M87.899,268.002c-1.088,1.928,1.619,7.415-1.515,8.295
		c-2.125,0.597-4.955-1.114-6.59-3.325c1.042-1.533-1.449-1.762-1.021-3.491c0.176-0.984,0.142-1.953-0.102-2.906
		c-0.329-1.876,0.816-1.527,0.432-2.766c-0.156-0.503,1.458-1.9,1.449-2.865c-0.034-3.246,0.822-6.332,1.021-9.541
		c0.282-4.541,0.757-9.38,0.41-13.891c-0.369-4.801,0.325-7.819-3.737-7.911c0.565-1.637,1.177-1.946,2.2-3.248
		c0.165-0.584,0.449-1.099,0.852-1.544c0.521-0.254,1.396,0.254,1.65-0.443c0.454,0.459,1.102,1.433,1.714,1.685
		c0.898,0.371,1.174-0.904,1.935,0.413c0.624,1.081,3.829,2.94,4.984,3.51c0.728,0.359,2.173,2.301,1.826,3.247
		c-0.37,1.006-1.595,1.546-2.583,1.12c-0.756,0.95-0.488,1.869-0.967,3.263c-1.771,5.163-0.79,12.241-2.907,16.543
		c-0.843,1.714-0.741,5.008-1.133,7.068C85.285,264.005,86.578,268.148,87.899,268.002C87.23,269.187,87.104,268.09,87.899,268.002z
		"/>
</g>
<g>
	<path fill-rule="evenodd" clip-rule="evenodd" d="M98.311,534.149c-0.924,0-1.812-0.083-2.64-0.247
		c-3.078-0.608-6.328-2.145-8.513-3.325l-0.52-0.278c-0.934-0.495-1.899-1.007-2.802-1.797c-0.617-0.54-0.848-1.194-1-1.627
		c-0.014-0.038-0.026-0.077-0.038-0.114c-0.737-0.084-1.324-0.394-1.802-0.646c-0.24-0.126-0.602-0.316-0.729-0.316
		c-0.106,0.012-0.217,0.018-0.328,0.018c-1.541,0-2.878-1.146-3.953-2.066c-0.158-0.136-0.312-0.268-0.46-0.39
		c-2.976-2.456-4.8-4.907-5.423-7.286c-0.104-0.399-0.213-0.797-0.321-1.193c-0.274-1.008-0.558-2.05-0.78-3.114
		c-0.137-0.661-0.355-1.363-0.566-2.042c-0.24-0.775-0.489-1.576-0.627-2.344c-0.176-0.977-0.547-1.922-0.939-2.923
		c-0.613-1.564-1.248-3.182-1.248-5.139h0.03c0.02,0.251,0.109,0.534,0.312,0.785l0.971-0.785h0.096l-0.072-0.02l-0.17-0.046
		l0.176,0.041l0.028-0.021l-0.639-0.138l-0.68-0.185c-0.003,0.012-0.005,0.023-0.007,0.036c0,0-0.001,0.005-0.001,0.007
		l-0.005-0.001l0.002-0.008c0.366-1.544,0.533-3.109,0.709-4.768c0.264-2.477,0.538-5.038,1.523-7.558
		c0.663-1.693,1.633-3.522,2.731-5.148c0.315-0.467,0.644-1.084,0.992-1.738c0.727-1.366,1.551-2.914,2.687-3.854
		c1.271-1.051,2.425-2.285,3.167-3.389c0.327-0.486,0.692-0.967,1.063-1.452c0.869-1.137,1.69-2.211,1.968-3.373
		c0.178-0.747,0.24-1.609,0.3-2.443l0.019-0.244c-0.243-0.217-0.645-0.515-0.865-0.679c-0.381-0.282-0.682-0.506-0.893-0.731
		c-1.251-1.342-1.933-2.749-2.593-4.11c-0.228-0.47-0.461-0.951-0.726-1.445c-1.622-3.027-2.477-6.516-3.304-9.889
		c-0.169-0.688-0.335-1.369-0.506-2.033c-1.012-3.935,0.53-6.755,2.022-9.481c0.51-0.934,1.038-1.898,1.459-2.906
		c0.463-1.109,1.548-3.711,4.303-3.711c0.15,0,0.306,0.008,0.467,0.025c0.381-0.022,1.398-0.945,1.886-1.389
		c0.415-0.376,0.806-0.73,1.186-0.993c0.485-0.333,0.894-0.703,1.326-1.096c0.859-0.779,1.833-1.662,3.423-2.175
		c0.385-0.125,0.78-0.186,1.207-0.186c0.224,0,0.436,0.018,0.635,0.039l0.265-1.188l1.931,0.527
		c0.692,0.195,1.016,0.281,1.417,0.281c0.232,0,0.499-0.028,0.839-0.09l0.101-0.018c1.301-0.234,2.531-0.455,3.878-0.455
		c0.44,0,0.86,0.023,1.285,0.071c1.07,0.12,2.165,0.154,3.323,0.19c2.582,0.081,5.251,0.164,7.784,1.246
		c0.989,0.423,1.967,0.695,3.001,0.983c1.98,0.552,4.029,1.122,5.981,2.771c2.517,2.13,4.837,5.09,6.532,7.252
		c0.694,0.885,1.068,1.914,1.398,2.822c0.202,0.554,0.392,1.077,0.633,1.524c0.296,0.551,0.626,1.081,0.956,1.612
		c0.515,0.83,1.047,1.688,1.48,2.638c0.473,1.038,0.795,2.099,1.107,3.124c0.188,0.617,0.374,1.234,0.595,1.839
		c0.352,0.963,0.828,1.925,1.331,2.942c0.362,0.731,0.722,1.461,1.037,2.191c2.467,5.72,3.798,11.438,5.206,17.49l0.202,0.867
		c0.084,0.36,0.197,0.711,0.309,1.062c0.111,0.352,0.223,0.702,0.314,1.06c0.205,0.795-0.165,1.416-0.363,1.749
		c-0.014,0.023-0.028,0.046-0.042,0.069c0.018,0.318,0.02,0.623,0.021,0.924c0.002,0.558,0.005,1.04,0.13,1.545
		c0.689,2.789,0.647,5.254,0.602,7.863c-0.01,0.586-0.021,1.182-0.022,1.792c-0.005,1.665-0.041,3.176-0.415,4.772
		c0.139,0.219,0.29,0.493,0.404,0.883c0.205,0.697,0.1,1.342,0.023,1.812c-0.033,0.203-0.064,0.396-0.059,0.517
		c0.124,2.993-0.855,5.304-1.801,7.538c-0.338,0.798-0.688,1.623-0.993,2.488c-0.941,2.662-2.112,5.25-3.481,7.69
		c-0.263,0.468-0.656,0.925-1.073,1.408c-0.317,0.368-0.849,0.985-0.931,1.231c-0.373,1.687-3.137,4.673-3.165,4.702
		c-5.952,6.336-11.781,9.548-17.327,9.549c-0.819,0-1.639-0.073-2.438-0.216c-0.298-0.055-0.588-0.08-0.886-0.08
		c-0.585,0-1.168,0.101-1.844,0.219l-0.564,0.096c-0.186,0.03-0.52,0.292-0.814,0.522c-0.378,0.296-0.806,0.632-1.339,0.862
		C102.566,533.719,100.414,534.149,98.311,534.149z M78.51,479.964c-0.494,1.208-1.374,2.203-2.176,3.11
		c-0.872,0.986-1.696,1.918-1.856,2.893c-0.202,1.227-0.452,2.44-0.693,3.614c-0.384,1.863-0.746,3.623-0.942,5.461
		c-0.332,3.094-0.091,5.757,0.804,8.906c0.275,0.966,0.492,1.925,0.701,2.853c0.562,2.486,1.093,4.836,2.652,6.82
		c0.885,1.127,1.695,2.297,2.479,3.429c0.988,1.428,1.922,2.776,3.002,4.061c0.878,1.044,1.944,1.993,3.145,3.037
		c0.608,0.529,1.712,0.782,2.781,1.027c0.412,0.095,0.813,0.187,1.187,0.292c2.513,0.71,5.418,0.966,8.228,1.213l1.265,0.113
		c0.23,0.021,0.46,0.03,0.688,0.03c0.758,0,1.529-0.098,2.346-0.201c0.455-0.057,0.911-0.114,1.37-0.156
		c0.763-0.07,1.545-0.078,2.301-0.085c1.35-0.013,2.625-0.024,3.698-0.37l0.32-0.103c6.422-2.069,13.062-4.208,17.197-9.459
		c1.181-1.499,2.091-3.168,3.055-4.936c0.456-0.836,0.913-1.671,1.398-2.489c1.85-3.119,3.375-6.408,4.297-9.26
		c0.031-0.098,0.089-0.251,0.163-0.441c0.254-0.66,0.417-1.149,0.485-1.462c-1.35-1.182-1.186-3.003-1.083-4.136l0.035-0.421
		c0.079-1.144,0.204-2.312,0.33-3.485c0.234-2.183,0.476-4.438,0.394-6.525c-0.03-0.742-0.337-1.703-0.634-2.632
		c-0.221-0.692-0.45-1.408-0.589-2.103c-0.199-0.991-0.304-1.973-0.406-2.923c-0.095-0.885-0.184-1.721-0.343-2.543
		c-0.203-1.056-0.33-2.112-0.454-3.134c-0.306-2.542-0.596-4.943-1.989-6.925c-2.012-2.861-3.058-6.199-4.069-9.428
		c-0.626-2-1.218-3.89-2.018-5.643c-0.47-1.03-1-2.062-1.514-3.06c-0.733-1.427-1.492-2.901-2.126-4.462
		c-0.838-2.063-2.182-3.495-3.737-5.152l-0.707-0.757c-1.426-1.542-4.086-2.586-6.225-3.424l-0.264-0.104
		c-1.852-0.728-4.235-1.563-6.256-1.563c-0.157,0-0.312,0.005-0.466,0.016c-0.589,0.041-1.167,0.062-1.742,0.062
		c-1.416,0-2.818-0.13-4.287-0.397c-0.548-0.1-1.096-0.217-1.644-0.334c-0.668-0.144-1.337-0.287-2.01-0.395
		c-0.26-0.041-0.675-0.164-1.835-0.611c-0.07,0.115-0.136,0.223-0.199,0.322c-0.075,1.231-1.462,2.056-2.055,2.408
		c-0.099,0.059-0.187,0.108-0.246,0.149c-0.397,0.283-0.945,0.5-1.525,0.73c-0.267,0.105-0.656,0.26-0.826,0.351
		c-0.489,0.514-1.064,0.774-1.711,0.774c-0.177,0-0.354-0.021-0.534-0.05c-0.02-0.003-0.041-0.007-0.061-0.01
		c-0.539,0.394-1.156,0.724-1.753,1.042c-0.848,0.452-1.902,1.016-2.196,1.521c-0.19,0.327-0.299,0.745-0.425,1.229
		c-0.153,0.586-0.326,1.25-0.696,1.903c-0.221,0.391-0.46,0.769-0.7,1.145c-0.443,0.696-0.862,1.354-1.109,2.052
		c-1.496,4.223,0.595,10.166,3.331,14.184c0.974,1.431,1.734,2.685,2.392,3.945c0.412,0.788,0.479,1.527,0.532,2.121
		c0.035,0.388,0.062,0.693,0.172,0.952l0.103,0.242c0.958,2.259,1.867,4.404,0.56,7.019c0.014,0.078,0.022,0.159,0.025,0.241
		c0.023,0.628-0.316,1.242-0.781,1.674c-0.225,0.991-0.8,1.904-1.246,2.611l-0.121,0.192c-0.028,0.044-2.283,3.522-4.521,4.818
		l-0.09,0.61L78.51,479.964z"/>
	<path fill-rule="evenodd" clip-rule="evenodd" d="M102.994,510.504c-0.167,0.582-0.908,0.524-1.343,0.131
		c-0.437,0.719-1.175,0.525-1.854,1.149c0.428-0.75,0.35-0.795-0.224-0.18c0.104-0.747-1.066,0.039-1.29,0.422
		c0.074-0.626-0.092-0.662-0.499-0.108c-0.168-0.711-0.475-0.767-0.919-0.164c-0.522-1.11-1.073,0.142-1.171-1.03
		c-0.45,0.583-1.503-0.101-1.758-0.763c-0.396,0.244-0.629,0.097-0.924-0.166c-0.58-0.513-2.522-1.536-1.481-2.233
		c-1.022,0-0.954-1.028-1.553-1.729c-0.404-0.472-0.755-0.98-0.68-1.641c-0.349,0.074-1.223-0.287-0.428-0.349
		c-0.696-0.53,0.454-0.225-0.08-0.86c0.618,0.571,1.255-0.097,1.92,0.243c-0.145-0.965-0.101-1.513-0.016-2.365
		c0.075-0.745-0.466-2.825,0.719-2.532c-1.138-1.027-0.733-4.231,0.546-4.986c-1.535-0.18,0.102-4.926-0.404-5.948
		c-0.159-0.321-1.397-2.001-1.33-2.215c0.217-0.691,0.683-1.136-0.015-1.638c-0.408-0.295-0.887-0.638-0.94-1.142
		c-0.332-3.12,5.325,1.017,5.921,1.421c0.543,0.369,3.219,1.717,2.61,2.566c-0.324,0.454-0.633,0.847-1.112,1.181
		c-0.262-0.763,1.053,2.129-0.007,1.447c0.933,0.604,0.908,5.604-0.205,5.902c1.071,0.29-0.223,0.607,0.751,1.149
		c-0.411,0.725-0.022,0.827-0.787,1.373c0.574,0.396,0.437,1.586-0.34,1.48c-0.021,0.411,0.167,0.616,0.564,0.613
		c-1.115,0.412,0.306,0.688-0.899,0.877c0.424,0.189,0.864,0.176,0.694,0.655c-0.062,0.174,0.27,0.812-0.07,0.824
		c-0.057-0.525-1.601-0.3-0.966-1.097c-1.327,0.628,0.852,0.501-0.366,1.266c0.341,0.188,0.71,0.247,1.111,0.18
		c0.245,0.428-0.479,0.56-0.465,1.008c1.241-0.85,0.177,1.279,1.021,1.843c0.492,0.328,1.153,0,1.711,0.023
		c1.765,0.073,3.4-0.311,5.241-0.209c2.512,0.138,5.105,0.229,7.616,0.118c2.268-0.1,4.698,0.067,5.206-2.47
		c0.604-3.011,2.55,1.312,3.006,2.001c0.337,0.519,0.947,0.668,1.289,1.15c0.678,0.952-0.188,1.266-0.413,1.899
		c-0.745,2.1-4.459,0.951-6.117,1.28c-0.875,0.175-1.736,0.047-2.603,0.178c-0.546,0.082-0.533-0.6-1.048-0.743
		c0.601,1.165-0.527,0.8-1.609,0.955c-0.709,0.103-1.088,0.343-1.59-0.146c0.071,0.67-2.457,0.466-3.094,1.541
		c-0.478-0.962-1.569,0.325-1.104-0.642c-0.626,0.132-1.32-0.08-0.981,0.68C102.435,510.425,102.687,510.358,102.994,510.504
		C102.938,510.7,102.682,510.292,102.994,510.504z"/>
	<path fill-rule="evenodd" clip-rule="evenodd" d="M115.468,450.449c-0.372-2.352-0.304-4.366-0.663-5.755
		c-0.239-0.926-2.171,0.692-2.261-0.328c-2.292,1.16-4.96,0.967-7.469,0.769c0.299,1.497,1.272,1.903,2.255,3.56
		c0.382,0.644,1.042,1.014,1.328,1.794c0.074,0.443-0.018,0.811-0.274,1.101c0.284,0.574,0.566,1.147,0.849,1.72
		c-0.533,0.487-1.066,0.974-1.598,1.462c-1.346,1.23-0.272,1.138-0.754,3.146c-0.247,1.022-0.317,2.204-0.401,3.303
		c-0.224,2.943-0.259,6.858-2.371,7.063c0.294,1.544-1.816,0.003-2.235-0.388c-1.46-1.362-0.836-6.255,0.081-8.111
		c-0.768,0.149-0.287-3.091-0.23-4.261c0.078-1.655,0.274-3.398,0.213-5.06c-0.061-1.622-0.686-3.366-0.85-4.357
		c-0.146-0.878-1.737-0.942-2.391-1.071c-0.253,0.362-0.552-0.83-0.783-1.038c-0.569-0.515-0.805-0.649-1.064-1.452
		c0.144-0.149,0.439-1.188,0.41-1.451c1.002,0.224,1.025-0.43,1.55-0.264c0.343,0.106,0.278,0.464,0.691,0.487
		c0.265,0.015,0.855,0.284,1.232,0.315c0.372-0.579,1.961-0.38,2.512-0.333c0.351,0.031,0.877-0.176,1.183-0.062
		c1.02,0.38,1.144,0.056,2.104-0.019c0.814-0.063,0.387,0.656,1.09,0.036c0.775-0.683,1.318,0.567,1.724-0.52
		c0.228,0.733,0.879,0.314,1.709,0.088c0.904-0.248,1.81,0.109,1.573-0.975c0.726,0.298,3.063-1.307,2.921,0.5
		c0.328-0.166,0.617,0.312,0.788-0.243c0.365,0.363,3.907,1.053,3.871,2.046c-0.042,1.16,0.814,1.024,0.203,2.246
		c-0.297,0.593-0.242,4.103,0.145,4.037c-0.394,0.646-0.176,2.42-0.331,3.3c-0.273,1.563-1.093,2.792-1.276,4.318
		c-0.139,1.151-0.052,2.79-0.419,3.8c-0.543,1.491-1.177,2.98-1.566,4.592c-0.284,1.174-1.368,0.706-1.928,0.327
		c-0.738-0.5-0.624-3.284-0.568-4.244c0.096-1.656,0.482-3.297,0.861-4.837C115.59,454.641,115.06,450.83,115.468,450.449
		C115.384,449.921,115.487,450.431,115.468,450.449z M104.063,445.246c-0.175,0.316-0.019,0.542,0.468,0.68
		C104.54,445.234,104.579,445.365,104.063,445.246C104.041,445.316,104.222,445.283,104.063,445.246z"/>
	<path fill-rule="evenodd" clip-rule="evenodd" d="M104.375,485.14c-1.317,0-2.586,0.24-3.728,0.29
		c-1.679,0.075-4.468-1.79-5.477-3.024c-0.416-0.509-1.859-3.495-1.524-4.002c0.86-1.301,3.703,0.521,5.124,0.19
		c2.019-0.469,4.201-0.576,6.274-0.521c1.064,0.031,2.035,0.102,3.04,0.003c0.73-0.071,2.536,0.275,3.061-0.224
		c1.604-1.522,4.811,0.243,6.309,1.229c0.767,0.504,3.154,2.817,3.111,3.281c-0.864-0.071-0.924-0.057-1.441,0.635
		c2.239,0.965,1.158,2.016-0.544,1.012c-1.266,1.523-3.539-0.754-5.285,0.088c-1.474,0.714-3.624,0.246-5.134,0.255
		C107.326,484.358,105.022,484.639,104.375,485.14C104.063,485.14,104.463,485.073,104.375,485.14z"/>
	<path fill-rule="evenodd" clip-rule="evenodd" d="M94.101,466.197c-0.653,1.157,0.971,4.449-0.909,4.978
		c-1.275,0.357-2.973-0.669-3.954-1.995c0.625-0.92-0.87-1.058-0.612-2.095c0.105-0.59,0.085-1.172-0.061-1.743
		c-0.198-1.126,0.489-0.917,0.259-1.659c-0.094-0.302,0.875-1.14,0.869-1.72c-0.021-1.947,0.494-3.799,0.612-5.725
		c0.169-2.725,0.454-5.628,0.246-8.335c-0.221-2.88,0.196-4.69-2.242-4.746c0.339-0.981,0.707-1.167,1.32-1.948
		c0.099-0.352,0.27-0.659,0.511-0.926c0.312-0.152,0.837,0.152,0.99-0.267c0.272,0.275,0.661,0.86,1.028,1.011
		c0.539,0.223,0.705-0.542,1.161,0.248c0.375,0.648,2.298,1.765,2.991,2.106c0.437,0.215,1.304,1.381,1.096,1.948
		c-0.222,0.604-0.958,0.927-1.55,0.672c-0.454,0.57-0.293,1.121-0.58,1.957c-1.063,3.098-0.474,7.345-1.745,9.926
		c-0.506,1.028-0.445,3.006-0.68,4.242C92.533,463.799,93.308,466.285,94.101,466.197C93.7,466.908,93.624,466.25,94.101,466.197z"
		/>
</g>
<g>
	<path fill-rule="evenodd" clip-rule="evenodd" d="M188.439,334.64c2.122-8.939,1.405-18.221,4.835-26.982
		c1.438-3.676,3.54-7.559,5.746-10.828c2.295-3.398,4.449-9.181,7.572-11.763c2.654-2.193,5.589-5.146,7.644-8.201
		c2.499-3.72,6.116-7.281,7.184-11.747c0.574-2.398,0.655-4.997,0.858-7.448c0.099-1.21-3.965-3.625-4.815-4.538
		c-3.355-3.599-4.63-7.441-6.902-11.683c-4.145-7.739-6.015-17.33-8.194-25.795c-2.657-10.33,3.896-16.687,7.592-25.528
		c1.391-3.327,3.283-6.712,7.356-6.272c2.984,0.321,6.641-4.238,8.95-5.83c3.547-2.439,5.273-5.427,9.734-6.866
		c3.102-1,5.281,1.486,6.072-2.059c3.162,0.86,4.254,1.377,7.504,0.793c3.695-0.664,7.033-1.284,10.789-0.863
		c7.893,0.887,16.352-0.219,23.799,2.96c6.756,2.884,13.264,2.867,19.164,7.854c5.167,4.371,9.901,10.335,14.068,15.65
		c2.075,2.646,2.63,6.26,4.219,9.21c1.689,3.133,3.836,5.996,5.322,9.257c1.584,3.48,2.386,7.232,3.69,10.803
		c1.425,3.902,3.669,7.735,5.328,11.579c5.636,13.057,8.62,26.437,11.844,40.261c0.378,1.623,0.987,3.172,1.403,4.785
		c0.25,0.975-1.104,1.909-1.021,3.058c0.169,2.269-0.12,4.158,0.445,6.443c1.769,7.15,1.219,13.445,1.195,20.688
		c-0.011,3.413-0.065,6.694-0.875,10.048c-0.453,1.882,0.477,1.697,0.979,3.414c0.422,1.445-0.264,2.956-0.203,4.417
		c0.336,8.155-3.406,13.668-6.034,21.103c-2.039,5.765-4.544,11.305-7.513,16.6c-1.068,1.904-4.334,4.7-4.771,6.686
		c-0.492,2.226-4.633,7.276-6.266,9.016c-10.283,10.948-25.278,22.628-41.067,19.792c-3.089-0.555-5.411,0.027-8.388,0.516
		c-2.081,0.343-3.593,2.458-5.529,3.296c-5.25,2.267-11.985,3.024-17.475,1.938c-6.057-1.196-12.676-4.175-18.03-7.07
		c-2.39-1.292-4.737-2.396-6.808-4.208c-1.869-1.637-0.931-4.448-3.864-4.616c-2.298-0.13-4.255-2.399-6.478-2.155
		c-2.769,0.304-5.801-2.743-8.194-4.717c-4.422-3.65-9.524-8.893-11.011-14.561c-0.82-3.138-1.747-6.239-2.408-9.418
		c-0.695-3.334-2.107-6.72-2.637-9.661C192.173,346.029,188.439,341.056,188.439,334.64
		C188.573,334.075,188.439,334.707,188.439,334.64z M211.614,288.119c-0.656,6.277-8.719,10.092-9.749,16.343
		c-1.126,6.837-2.915,13.403-3.659,20.345c-0.799,7.461-0.152,13.805,1.89,20.984c2.255,7.922,2.724,15.861,8.003,22.582
		c4.294,5.464,7.754,11.382,12.248,16.723c2.176,2.585,4.785,4.886,7.331,7.101c2.569,2.235,6.809,2.677,10.03,3.586
		c6.756,1.907,14.681,2.405,21.658,3.051c3.506,0.323,6.89-0.407,10.365-0.728c4.541-0.42,9.672,0.247,14.008-1.148
		c14.736-4.748,30.494-9.671,40.438-22.297c4.078-5.18,6.786-11.21,10.127-16.842c3.857-6.505,7.516-14.032,9.839-21.217
		c0.359-1.112,2.672-6.187,1.172-7.093c-2.841-1.714-2.102-5.337-1.917-8.009c0.511-7.394,1.904-15.23,1.612-22.589
		c-0.136-3.438-2.081-7.555-2.776-11.017c-0.81-4.03-0.885-8.114-1.658-12.126c-1.565-8.134-1.045-16.602-5.945-23.568
		c-6.831-9.71-8.433-22.449-13.237-32.984c-2.56-5.612-5.695-10.835-8.036-16.596c-2.378-5.856-6.281-9.54-10.479-14.082
		c-3.805-4.115-10.505-6.639-15.581-8.633c-4.88-1.916-10.969-4.014-16.305-3.649c-4.251,0.292-8.197,0.101-12.617-0.705
		c-2.731-0.497-5.447-1.191-8.188-1.628c-0.953-0.152-5.83-2.134-5.841-2.127c-0.2,0.137-2.403,3.959-2.466,3.823
		c0.768,1.638-2.694,3.207-3.65,3.888c-1.235,0.879-4.853,1.862-5.559,2.667c-1.731,1.977-2.688-0.256-4.822,1.346
		c-2.714,2.034-7.939,3.736-9.639,6.652c-1.27,2.182-1.26,4.786-2.51,6.995c-1.44,2.546-3.261,4.818-4.248,7.604
		c-3.867,10.916,1.529,25.184,7.766,34.344c1.887,2.768,3.574,5.473,5.128,8.448c1.172,2.247,0.519,4.392,1.453,6.603
		c2.344,5.542,4.254,9.579,0.677,15.012c1.438,0.221-0.016,2.124-0.92,2.331c0,2.148-1.633,4.562-2.77,6.38
		C221.45,280.024,214.58,289.011,211.614,288.119C211.573,288.513,213.608,288.719,211.614,288.119z"/>
	<path fill-rule="evenodd" clip-rule="evenodd" d="M268.342,359.5c-0.372,1.292-2.018,1.163-2.984,0.288
		c-0.97,1.599-2.61,1.169-4.119,2.555c0.95-1.667,0.774-1.768-0.5-0.4c0.231-1.66-2.37,0.088-2.866,0.938
		c0.165-1.391-0.204-1.471-1.108-0.239c-0.375-1.581-1.056-1.703-2.043-0.366c-1.16-2.467-2.384,0.318-2.603-2.287
		c-0.997,1.297-3.341-0.226-3.906-1.695c-0.88,0.543-1.398,0.213-2.055-0.367c-1.288-1.14-5.604-3.417-3.289-4.965
		c-2.273,0-2.12-2.285-3.45-3.842c-0.898-1.049-1.679-2.178-1.511-3.646c-0.777,0.165-2.719-0.638-0.95-0.776
		c-1.547-1.177,1.006-0.497-0.179-1.911c1.374,1.271,2.79-0.214,4.269,0.542c-0.323-2.145-0.223-3.363-0.035-5.257
		c0.166-1.656-1.034-6.278,1.598-5.629c-2.53-2.281-1.629-9.401,1.213-11.077c-3.411-0.399,0.229-10.947-0.896-13.219
		c-0.354-0.713-3.107-4.446-2.956-4.924c0.48-1.535,1.516-2.522-0.034-3.639c-0.906-0.653-1.97-1.415-2.088-2.535
		c-0.738-6.934,11.833,2.258,13.158,3.158c1.207,0.82,7.154,3.814,5.8,5.703c-0.722,1.008-1.406,1.88-2.472,2.622
		c-0.58-1.695,2.34,4.731-0.016,3.216c2.073,1.343,2.019,12.453-0.455,13.116c2.38,0.646-0.495,1.352,1.672,2.555
		c-0.914,1.608-0.05,1.836-1.75,3.051c1.275,0.878,0.97,3.522-0.756,3.286c-0.047,0.917,0.37,1.371,1.254,1.365
		c-2.477,0.916,0.679,1.528-1.998,1.951c0.942,0.418,1.919,0.39,1.541,1.453c-0.137,0.39,0.6,1.804-0.154,1.832
		c-0.127-1.168-3.558-0.665-2.147-2.436c-2.946,1.395,1.894,1.113-0.812,2.812c0.757,0.416,1.578,0.551,2.468,0.4
		c0.544,0.949-1.062,1.241-1.032,2.24c2.756-1.89,0.392,2.84,2.27,4.094c1.091,0.729,2.56,0.001,3.801,0.053
		c3.923,0.163,7.556-0.691,11.648-0.467c5.582,0.306,11.342,0.513,16.923,0.266c5.042-0.225,10.44,0.148,11.57-5.49
		c1.341-6.692,5.667,2.913,6.68,4.448c0.747,1.152,2.104,1.484,2.864,2.554c1.506,2.117-0.419,2.812-0.919,4.221
		c-1.656,4.666-9.909,2.113-13.594,2.848c-1.945,0.387-3.856,0.104-5.784,0.394c-1.213,0.181-1.185-1.332-2.33-1.649
		c1.336,2.586-1.172,1.774-3.576,2.121c-1.575,0.227-2.416,0.763-3.533-0.327c0.158,1.489-5.459,1.035-6.875,3.427
		c-1.062-2.139-3.487,0.721-2.453-1.427c-1.391,0.294-2.934-0.179-2.182,1.512C267.098,359.325,267.659,359.175,268.342,359.5
		C268.217,359.931,267.647,359.027,268.342,359.5z"/>
	<path fill-rule="evenodd" clip-rule="evenodd" d="M296.061,226.042c-0.828-5.225-0.674-9.705-1.474-12.791
		c-0.528-2.055-4.823,1.542-5.023-0.728c-5.094,2.578-11.023,2.149-16.597,1.709c0.664,3.327,2.826,4.228,5.011,7.91
		c0.849,1.43,2.317,2.254,2.95,3.986c0.164,0.986-0.039,1.802-0.606,2.447c0.628,1.274,1.258,2.548,1.886,3.822
		c-1.183,1.082-2.367,2.164-3.553,3.247c-2.989,2.734-0.604,2.529-1.677,6.993c-0.547,2.272-0.703,4.898-0.891,7.339
		c-0.497,6.54-0.575,15.241-5.269,15.698c0.654,3.43-4.036,0.005-4.969-0.865c-3.244-3.026-1.856-13.898,0.182-18.023
		c-1.706,0.333-0.637-6.868-0.512-9.467c0.173-3.679,0.609-7.555,0.473-11.245c-0.135-3.605-1.522-7.48-1.889-9.684
		c-0.324-1.953-3.86-2.095-5.311-2.382c-0.564,0.806-1.229-1.844-1.741-2.307c-1.265-1.143-1.789-1.441-2.363-3.223
		c0.317-0.333,0.974-2.642,0.911-3.228c2.227,0.497,2.277-0.952,3.443-0.586c0.76,0.239,0.619,1.033,1.536,1.084
		c0.589,0.033,1.901,0.634,2.737,0.7c0.825-1.284,4.359-0.843,5.583-0.737c0.78,0.067,1.95-0.391,2.629-0.138
		c2.267,0.842,2.543,0.124,4.676-0.042c1.81-0.14,0.859,1.458,2.422,0.081c1.724-1.517,2.93,1.26,3.831-1.156
		c0.508,1.632,1.953,0.7,3.799,0.195c2.008-0.549,4.021,0.246,3.498-2.166c1.611,0.663,6.805-2.903,6.489,1.113
		c0.729-0.369,1.372,0.693,1.753-0.542c0.81,0.807,8.68,2.34,8.602,4.548c-0.094,2.578,1.81,2.274,0.45,4.989
		c-0.659,1.319-0.539,9.117,0.32,8.972c-0.872,1.437-0.391,5.378-0.731,7.335c-0.607,3.474-2.43,6.206-2.839,9.596
		c-0.308,2.556-0.114,6.201-0.93,8.442c-1.206,3.314-2.617,6.626-3.481,10.207c-0.628,2.605-3.039,1.569-4.281,0.726
		c-1.641-1.11-1.389-7.299-1.264-9.43c0.214-3.684,1.07-7.328,1.914-10.75C296.333,235.358,295.155,226.89,296.061,226.042
		C295.876,224.87,296.106,226.001,296.061,226.042z M270.717,214.481c-0.388,0.702-0.041,1.204,1.041,1.506
		C271.778,214.454,271.864,214.743,270.717,214.481C270.668,214.634,271.071,214.562,270.717,214.481z"/>
	<path fill-rule="evenodd" clip-rule="evenodd" d="M271.411,303.136c-2.925,0-5.745,0.532-8.281,0.645
		c-3.73,0.165-9.93-3.979-12.172-6.722c-0.925-1.13-4.131-7.767-3.387-8.894c1.912-2.891,8.229,1.156,11.387,0.424
		c4.486-1.043,9.336-1.28,13.942-1.156c2.364,0.066,4.523,0.225,6.758,0.006c1.622-0.16,5.633,0.612,6.802-0.498
		c3.562-3.381,10.688,0.541,14.019,2.73c1.706,1.119,7.011,6.262,6.914,7.291c-1.919-0.16-2.055-0.127-3.2,1.41
		c4.977,2.145,2.572,4.48-1.209,2.249c-2.812,3.387-7.864-1.676-11.744,0.196c-3.276,1.585-8.053,0.546-11.409,0.566
		C277.967,301.396,272.848,302.023,271.411,303.136C270.717,303.136,271.606,302.985,271.411,303.136z"/>
	<path fill-rule="evenodd" clip-rule="evenodd" d="M248.58,261.04c-1.452,2.571,2.157,9.886-2.021,11.06
		c-2.834,0.796-6.607-1.485-8.787-4.434c1.39-2.044-1.932-2.349-1.361-4.654c0.234-1.312,0.189-2.604-0.136-3.875
		c-0.438-2.502,1.089-2.036,0.577-3.688c-0.207-0.67,1.943-2.533,1.931-3.82c-0.044-4.328,1.097-8.442,1.362-12.721
		c0.375-6.055,1.008-12.506,0.547-18.521c-0.492-6.402,0.432-10.425-4.983-10.547c0.754-2.183,1.569-2.595,2.934-4.331
		c0.219-0.779,0.598-1.465,1.136-2.059c0.693-0.338,1.86,0.339,2.2-0.59c0.604,0.612,1.469,1.91,2.285,2.247
		c1.198,0.494,1.565-1.206,2.579,0.551c0.832,1.441,5.105,3.921,6.646,4.681c0.97,0.479,2.898,3.068,2.435,4.329
		c-0.495,1.341-2.128,2.061-3.445,1.493c-1.008,1.267-0.651,2.492-1.289,4.351c-2.362,6.884-1.052,16.322-3.875,22.057
		c-1.125,2.286-0.988,6.677-1.512,9.425C245.094,255.71,246.817,261.233,248.58,261.04
		C247.688,262.618,247.52,261.157,248.58,261.04z"/>
</g>
</svg>
